<?xml version="1.0" encoding="UTF-8"?>
<svg id="Layer_1" data-name="Layer 1" xmlns="http://www.w3.org/2000/svg" viewBox="0 0 313.02 373.99">
  <defs>
    <style>
      .cls-1 {
        fill: #ededf2;
      }

      .cls-2 {
        fill: #041d56;
      }

      .cls-3 {
        fill: #deedfc;
      }

      .cls-4 {
        fill: #316bf9;
      }

      .cls-5 {
        fill: #011a54;
      }

      .cls-6 {
        fill: #051b53;
      }

      .cls-7 {
        fill: #011b57;
      }

      .cls-8 {
        fill: #ecedf1;
      }

      .cls-9 {
        fill: #e6f2fc;
      }

      .cls-10 {
        fill: #f8fafd;
      }

      .cls-11 {
        fill: #f9fafd;
      }

      .cls-12 {
        fill: #bedcfc;
      }

      .cls-13 {
        fill: #051f59;
      }
    </style>
  </defs>
  <path class="cls-4" d="M235.69,90.64c4.94-11.35,12.93-21.27,18.77-32.25.34-2.26-5.34-8.26-6.67-11.85-11.86-32.05,25.01-59.91,52.23-39.67,22.52,16.74,14.24,55.24-12.88,60.21-3.98.73-15.15-.48-15.84-.08-2.19,1.29-15.5,31.27-18.89,35.64,46.86,35.14,68.66,98.59,57.23,155.91-22,110.31-158.9,146.16-246.88,87.52-82.18-54.78-81.13-171.3-11.64-236.03,2.24-2.09,11.6-8.2,11.57-10.46-3.34-3.6-14.31-30.85-15.92-31.85-1.31-.82-10.13.1-12.93-.18C2.07,64.37-4.34,17.94,23.83,4.03,59.33-13.5,90.12,30.73,62.87,58.62l18.15,30.95c47.71-27.58,106.7-24.73,154.67,1.07Z"/>
  <ellipse class="cls-10" cx="129.85" cy="136.28" rx="9.01" ry="9.02"/>
  <ellipse class="cls-11" cx="161.01" cy="136.29" rx="8.99" ry="9"/>
  <ellipse class="cls-11" cx="191.49" cy="136.28" rx="8.96" ry="8.96"/>
  <g>
    <path class="cls-12" d="M88.66,166.48c15.41-1.76,28.92,1.99,42.89,7.92,6.06,2.57,23.81,13.71,28.15,13.9,4.62.2,13.48-5.89,18.36-7.91,25.7-10.63,47.57-17.72,73.41-2.17,41.82,25.17,43.22,85.72,18.64,123.66-51.19,79.01-193.35,67.82-233.85-15.34-22.01-45.19-2.91-113.74,52.4-120.06Z"/>
    <g>
      <path class="cls-2" d="M197.58,200.96c4.03-1.37,9.39,2.8,13.45,4.09,9.16,2.91,18.64,2.61,28.12,1.22,7,2.52,4.21,7.58-1.97,9.14-10.36,2.62-26.03.85-35.43-4.23-3.18-1.72-10.1-8.2-4.17-10.23Z"/>
      <path class="cls-13" d="M92.83,185.35c6.45-.94,13.57-.42,19.69,1.79,3.95,1.43,8.15,2.55,6.59,7.69-1.66,5.46-9.94.3-14.08-.19-5.44-.64-10.93-.19-16.11,1.49-3.2,1.04-12.81,8.01-12.71-.03.07-5.66,11.85-10.05,16.63-10.74Z"/>
      <path class="cls-6" d="M143.42,307.85c-.99,3.35,3.87,13.25-1.59,13.72-6.57.56-10.75-18.66,1.32-20.81,3.88-.69,15.52.57,16.05,5.56.79,7.57-11.67.48-15.77,1.53Z"/>
      <g>
        <path class="cls-9" d="M129.79,249.09c.13.58-2.1,10.13-2.63,11.53-7.69,19.99-39.12,20.64-52.02,4.69-.84-1.04.17-1.47.13-1.53,21.76,11.8,40.16-9.18,31.32-30.82-1.7-4.17-4.73-6.21-6.14-10.11,15.24,2.72,22.83,10.01,27.5,24.46.38,1.18,1.82,1.65,1.85,1.77Z"/>
        <g>
          <path class="cls-7" d="M129.79,249.09c-1.19,1.87-1.97,1.62-3.22,0-3.59-10.95-9.93-20.51-21.83-23,9.77,11.85,8.09,32.24-5.8,40.19-7.19,4.11-18.41,4.8-23.68-2.51-28.98-40.22,33.59-70.48,54.99-32.46,2.18,3.87,7.95,18.06-.46,17.77Z"/>
          <circle class="cls-8" cx="85.65" cy="230.61" r="4.88"/>
        </g>
      </g>
      <g>
        <path class="cls-3" d="M195.85,272.18c25.51,13.21,40.78-21.5,23.07-38.82,14.44.58,20.55,8.99,25.44,21.28.65,1.64.29,3.39,2.87,2.84-3.39,2.52-1.69,4.8-3.09,8.98-6.35,18.9-32.22,23.48-46.2,10.44-3.96-3.69-1.86-3.83-2.09-4.73Z"/>
        <g>
          <path class="cls-5" d="M247.24,257.49c-1.96,1.72-3.17,1.99-3.64.8-3.67-9.56-8.3-19.82-19.32-22.13,7.45,12,5.42,31.11-7.58,38.43-6.17,3.47-17.06,4.42-20.85-2.4-.64-2.55-6.98-6.53-8.14-13.36-4.3-25.27,22.78-42.36,45.23-31.63,8.83,4.22,20.55,18.34,17.28,28.6-.63,1.96-2.5,1.33-2.99,1.7Z"/>
          <path class="cls-1" d="M201.35,236.76c4.11-3.96,11.55.11,7.18,5.61-3.96,4.98-11.2-1.74-7.18-5.61Z"/>
        </g>
      </g>
    </g>
  </g>
</svg>