<?xml version="1.0" encoding="UTF-8"?>
<svg id="Layer_1" data-name="Layer 1" xmlns="http://www.w3.org/2000/svg" viewBox="0 0 317.55 373.99">
  <defs>
    <style>
      .cls-1 {
        fill: #f8f8f9;
      }

      .cls-2 {
        fill: #051c56;
      }

      .cls-3 {
        fill: #bddbfc;
      }

      .cls-4 {
        fill: #fcfcfd;
      }

      .cls-5 {
        fill: #2d65f4;
      }

      .cls-6 {
        fill: #051e58;
      }

      .cls-7 {
        fill: #011b55;
      }

      .cls-8 {
        fill: #011c57;
      }

      .cls-9 {
        fill: #336cf9;
      }

      .cls-10 {
        fill: #f7f7f9;
      }

      .cls-11 {
        fill: #001b56;
      }
    </style>
  </defs>
  <path class="cls-9" d="M46.81,67.3C23.81,70.75,3.04,56.06,4.7,31.69,8.21-19.68,90.27-2.26,69.21,47.57c-1.16,2.76-6.37,8.88-6.36,10.56,0,2.62,15.06,24.91,17.55,29.01,33.28-17.6,69.92-24.43,107.26-17.41,17.18,3.23,33.09,10.46,49,17.35,1.7-.33,18.25-27.37,18.5-29.22.35-2.57-3.91-6.21-5.33-9.07-14.88-29.9,17.92-60.54,47.42-44.28,27.62,15.22,19.07,58.67-10.84,62.52-3.59.46-11.89-.8-14.2.61-2.77,1.68-13.58,26.55-16.78,30.9l.33,1.39c31.26,22.91,53.61,58.37,59.68,96.96,23,146.39-146.96,226.6-258.85,143.68-81.17-60.16-71.33-183.65,5.96-242.22l-15.74-31.06Z"/>
  <path class="cls-4" d="M131.05,140.14c-1.74-.53-2.11-3.69-1.03-5.25l33.9-46.51c1.18-.14,1.71-.63,2.59.52,1.94,2.54-4.06,27-3.21,32.19h24.85c.3,0,1.99,1.68,1.46,2.49l-34.74,48.86-3.2.49,3.17-32.8c-6.04-1.15-18.7,1.56-23.79,0Z"/>
  <g>
    <path class="cls-3" d="M83.76,173.23c17.76-2.02,32.58,4.13,48.2,11.5,4.97,2.34,22.42,13.27,25.62,13.61,4.36.46,10.1-4.83,14.16-6.9,28.91-14.74,57.92-27.74,87.7-6.24,31.5,22.73,35.25,69.04,20.03,102.4-41.48,90.91-194.49,89.19-241.13,4.57-23.22-42.13-8.95-112.75,45.42-118.93Z"/>
    <path class="cls-6" d="M73.58,205.58c-5.52-3.51,5.81-11.03,9.15-12.21,8.22-2.92,21.27-1.62,28.22,3.92,3.21,2.56,6.07,8.41.92,9.35-1.02.19-12.91-6.09-17.87-6.22-6.19-.16-17.51,7.01-20.41,5.17Z"/>
    <path class="cls-2" d="M218.04,192.26c6.65-.96,28.17,2.16,25.48,11.66-1.81,6.41-9.23-.86-12.52-1.9-5.02-1.58-10.65-1.18-15.66.23-4.14,1.17-11.19,7.23-12.76,1.67-1.68-5.98,10.79-10.98,15.46-11.66Z"/>
    <g>
      <path class="cls-8" d="M122.33,287.5c3.21-3.02,21.05,2.46,26.71,2.88,15.75,1.16,25.1-2.66,39.22-4.1,9.49-.97,10.77,1.5,9.82,10.88-3.16,31.13-43.46,45.73-66.39,23.28-5.99-5.86-16.77-25.97-9.36-32.94Z"/>
      <path class="cls-5" d="M176.86,323.01c-1.13,1.95-13.31,5.34-16.09,5.37-5.38.05-26.37-3.85-17.5-12,4.5-4.13,14.72-5.57,20.59-4.84,4.38.54,16.26,5.88,13,11.48Z"/>
    </g>
    <g>
      <path class="cls-11" d="M94.29,217.63c38.31-6.59,43.77,55.24,8.09,58.88s-40.17-53.36-8.09-58.88Z"/>
      <ellipse class="cls-10" cx="106.07" cy="236.35" rx="9.98" ry="9.99"/>
    </g>
    <g>
      <path class="cls-7" d="M211.67,217.63c41.64-7.06,42.09,62.61,3.04,58.9-32.44-3.09-31.7-54.04-3.04-58.9Z"/>
      <path class="cls-1" d="M220.1,227.13c19.01-4.35,16.18,23.63-.81,18.34-8.72-2.71-8.1-16.3.81-18.34Z"/>
    </g>
  </g>
</svg>