<?xml version="1.0" encoding="UTF-8"?>
<svg id="Layer_1" data-name="Layer 1" xmlns="http://www.w3.org/2000/svg" viewBox="0 0 312.99 373.99">
  <defs>
    <style>
      .cls-1 {
        fill: #fcfcfd;
        stroke: #fff;
        stroke-miterlimit: 10;
        stroke-width: 3px;
      }

      .cls-2 {
        fill: #f2f2f5;
      }

      .cls-3 {
        fill: #001c57;
      }

      .cls-4 {
        fill: #326cf9;
      }

      .cls-5 {
        fill: #f5f5f7;
      }

      .cls-6 {
        fill: #041e58;
      }

      .cls-7 {
        fill: #bcdbfb;
      }

      .cls-8 {
        fill: #e2e4ee;
      }

      .cls-9 {
        fill: #011c58;
      }
    </style>
  </defs>
  <g>
    <path class="cls-4" d="M230.82,88.75c4.81-10.13,11.5-19.58,17.25-29.32-23.5-27.88,2.54-69.63,37.89-57.01,28.98,10.35,29.45,54.13.59,64.91-6.04,2.26-18.99,1.28-21,2.49-1.52.92-16.69,29.79-16.41,31.55,94.58,67.56,83.7,220.91-30.02,262.28-69.16,25.16-159.14,4.1-199.08-60.39C-17.08,243.37-.18,158.85,50.61,112.28c4.32-3.96,10.5-7.28,13.78-11.74.06-1.76-15.89-29.8-17.39-30.73s-7.72.69-10.68.54C5.41,68.75-6.83,29.21,15.84,9.02c29.29-26.1,73.74,9.21,52.45,45.33-1,1.7-3.91,3.33-3.76,5.08.38,4.47,16.02,24.55,18.71,30.21,46.28-25.82,100.77-24.83,147.58-.89Z"/>
    <g>
      <path class="cls-7" d="M89.69,184.09c16.22-1.19,32.06,3.55,46.85,9.73,4.32,1.81,17.16,9.32,20.27,9.45,4.37.18,22.33-10.07,28.55-12.36,94.32-34.83,133.11,74.8,66.93,132.38-55.53,48.31-158.13,41.53-205.8-14.82-38.44-45.42-21.52-119.62,43.21-124.38Z"/>
      <path class="cls-6" d="M189.65,295.32c2.04-.18,4.68,3.34,4.47,5.42-.18,1.88-3.22,4.41-4.67,5.65-13.27,11.29-35.04,12.76-51.08,7.22-4.92-1.7-21.17-9.25-15.88-15.97,3.44-4.38,9.44,3.27,13.33,5.24,11.86,6.03,29.46,6.13,41.6.67,3.3-1.49,10.76-8.09,12.24-8.22Z"/>
      <g>
        <path class="cls-3" d="M228.79,233.87c15.33,9.62,15.43,34.15-.08,43.34-20.4,12.09-41.7-7.58-35.68-29.05-4.01,1.77-12.76,3.49-7.05-2.47,9.61-10.04,43.87-24.29,57.64-24.12,5.01.06,7.93,5.38,4.61,7.73-1.96,1.38-17.97,2.68-19.44,4.57Z"/>
        <path class="cls-5" d="M196.27,246.27c.83-1.32,10.04-5.74,11.07.42,1.96,11.63-15.7,6.98-11.07-.42Z"/>
        <path class="cls-8" d="M226.38,239.1c5.31-1.75,7.49,3.51,3.43,5.5-5.4,2.65-6.87-4.36-3.43-5.5Z"/>
      </g>
      <g>
        <path class="cls-9" d="M120.54,248.17c7.83,51.65-67.34,36.47-42.9-8.7,1.72-1.43.76,2.28,1.53,3.59,3.83,6.55,14-4.21.52-5.12l4.08-4.06c-4.25-2.71-17.52-2.42-20.42-4.6-2.31-1.73-.81-5.69,1.75-6.45,12.98-3.81,49.62,12.4,60.02,21.28,7.36,6.28,1.93,6.78-4.57,4.07Z"/>
        <path class="cls-2" d="M117.4,246.21c1.23,1.72-2.64,7.31-4.75,7.92-9.2,2.67-12.12-12.98-2.06-10.87.6.13,6.59,2.65,6.81,2.95Z"/>
      </g>
    </g>
  </g>
  <g id="W5CaOa.tif">
    <path class="cls-1" d="M115.7,163.99l-1.54-1.53-.79-1.26c-.35-3.09-.45-6.2-.3-9.33l-3.67-.08c-5.98.04-6-6.15-5.54-10.59.15-5.49,4.99-5.45,9.17-5.41-.17-3.13-.09-6.24.25-9.33l.78-1.26,1.65-1.66c3.08-1.13,6.55-.34,9.77-.63.23-.85.03-1.64.29-2.53.47-1.59,1.68-2.87,3.26-3.37,1.08-.34,9.16-.4,10.21-.06,1.82.59,3.23,2.14,3.54,4.03.19,5.04-.11,10.15.21,15.16l27.32-.04.26-.39-.06-14.42c.2-2.42,1.91-4.23,4.33-4.58,1.25-.18,8.32-.2,9.32.13,1.61.52,2.88,1.78,3.41,3.39.28.86.04,1.69.3,2.52,4.24.39,11.31-1.72,12.14,4.46.17,1.23-.19,8.33.06,8.69,3.46.37,7.1-.85,8.86,3.28.48,1.13.5,7.65.05,8.8-1.63,4.15-5.48,2.94-8.87,3.33-.25.36.15,7.54-.02,8.81-.84,6.09-7.92,3.96-12.1,4.4-.24.89-.02,1.74-.32,2.65-.46,1.41-1.59,2.62-2.97,3.17-1.07.43-8.47.48-9.82.27-2.3-.36-4.05-2.21-4.23-4.54l-.03-14.42-.26-.38-27.32.11-.13.35v14.81c-.39,2.47-2.21,3.99-4.66,4.23-1.46.14-8.06.19-9.19-.22-1.7-.62-2.93-2.05-3.26-3.83-.08-.42,0-1.88-.19-2.01-3.25-.31-6.85.65-9.9-.7ZM196.4,126.25c-.32-.3-.82-.49-1.25-.57-1.94-.36-4.96.3-7.02.01l-.38.26.35,35.62,7.28-.04c.96-.21,1.5-.69,1.74-1.65-.03-10.93.12-21.89-.18-32.79-.17-.28-.3-.6-.54-.83ZM205.63,139.5c-1.04-.98-4.16-.52-5.56-.44l.12,9.17c2.1-.22,5.63,1,6.13-1.9.11-.64.04-5.53-.15-6-.1-.25-.34-.64-.54-.83ZM184.04,120.03c-.28-.22-.8-.38-1.16-.44-.77-.13-6.96-.12-7.66.04-1.03.23-1.55.75-1.77,1.78l.11,44.41c.15.98.83,1.68,1.79,1.9.54.12,7.22.1,7.78-.02,1.03-.23,1.55-.75,1.77-1.78l-.11-44.28c-.04-.58-.31-1.23-.77-1.6ZM170.57,139.01l-27.71.08.03,9.34,27.71-.08-.03-9.34ZM139.22,120.29c-.32-.3-.82-.49-1.25-.57-.7-.13-7-.11-7.66.04-1.02.22-1.55.75-1.77,1.78l.11,44.41c.15.98.83,1.68,1.79,1.9.54.12,7.22.1,7.78-.02,1.03-.23,1.55-.75,1.77-1.78-.1-14.97.09-29.97-.24-44.91-.17-.28-.3-.6-.54-.83ZM125.49,125.9h-7.41c-.96.22-1.5.7-1.74,1.66l.05,32.28c.14.94.77,1.6,1.67,1.88l7.28.02.38-.26-.23-35.58ZM113.28,139.21c-2.1.22-5.63-1-6.13,1.9-.1.56-.09,5.13.03,5.61.26,1.09.97,1.62,2.04,1.79.43.07,4.06.03,4.18-.14l-.12-9.17Z"/>
  </g>
</svg>