<?xml version="1.0" encoding="UTF-8"?>
<svg id="Layer_1" data-name="Layer 1" xmlns="http://www.w3.org/2000/svg" viewBox="0 0 318.75 373.99">
  <defs>
    <style>
      .cls-1 {
        fill: #f8f8f9;
      }

      .cls-2 {
        fill: #326bf9;
      }

      .cls-3 {
        fill: #001a55;
      }

      .cls-4 {
        fill: #bddcfc;
      }

      .cls-5 {
        fill: #011b55;
      }

      .cls-6 {
        fill: #f7f7f9;
      }

      .cls-7 {
        fill: #001b56;
      }

      .cls-8 {
        fill: #fdfdfd;
      }
    </style>
  </defs>
  <path class="cls-2" d="M236.93,88.92c1.74-8.5,16.46-24.77,17.46-31.82.42-2.99-2.47-3.81-3.83-6.13-18.15-31.02,16.3-64.04,46.71-45.71,27.57,16.62,14.77,61.53-17.41,62-2.29.03-7.61-1.67-8.66-1-1.54.98-13.81,28.92-16.51,32.68l1.3,2.45c85.03,62.44,85,193.84-8.4,249.19-61.7,36.56-148.19,30.04-202.03-17.89-71.17-63.36-54.63-179.67,19.54-232.89-4.24-4.89-14.95-30.94-18.49-33.22-.93-.6-8.16.78-10.86.58C4.53,64.86-5.16,21.12,21.48,5.28c29.61-17.61,62.96,13.16,47.77,43.66-.98,1.98-5.78,7.68-5.78,8.4,0,1.87,17.57,27.74,20,31.49,48.08-25.41,105.16-23.79,153.46.08Z"/>
  <path class="cls-8" d="M174.88,118.94c-10.87,1.22-21.52,4.94-30.01,11.89-4.75,3.88-8.3,9.74-12.37,13.5-1.02.94-1.46,1.9-3.13,1.52-5.23-15.84,1.27-33.7,16.88-40.55,10.74-4.71,20.44-2.43,31.15-4.02,7.85-1.16,14.16-11.82,17.46-.78,7.53,25.26-10.57,53.34-37.06,55.68-4.76.42-10.87-.78-15.28.23-2.43.56-12.19,9.54-11.07-.65.79-7.19,17.59-22.23,24.12-25.62,1.22-.64,23.12-7.9,19.31-11.2Z"/>
  <g>
    <path class="cls-4" d="M90.88,173.07c15.83-1.63,31.63,1.91,46.1,8.12,4.4,1.89,20.83,12.07,22.96,12.29,3.06.31,11.72-6.63,15.28-8.47,105.33-54.45,159.96,83.26,71.36,145.93-58.21,41.17-149.86,34.05-196.84-21.06-39.09-45.86-25.05-129.99,41.14-136.82Z"/>
    <path class="cls-5" d="M194.19,287.89c7-.63,5.34,9.04,3.94,13.19-10.11,30-57.92,33.7-71.01,4.86-9.6-21.15,13.33-9.83,23.47-8.99s20.19.15,30-3.07c3.17-1.04,11.87-5.83,13.6-5.99Z"/>
    <g>
      <path class="cls-7" d="M94.98,216.51c38.07-5.86,42.49,55.17,9.99,59.67-40.15,5.56-41.96-54.75-9.99-59.67Z"/>
      <ellipse class="cls-6" cx="106.69" cy="236.01" rx="10.09" ry="10.1"/>
    </g>
    <g>
      <path class="cls-3" d="M215.99,216.48c37.32-6.35,43.95,54.96,10.01,59.7-38.78,5.41-41.47-54.34-10.01-59.7Z"/>
      <ellipse class="cls-1" cx="227.79" cy="235.84" rx="10.16" ry="10.16"/>
    </g>
  </g>
</svg>