<?xml version="1.0" encoding="UTF-8"?>
<svg id="Layer_1" data-name="Layer 1" xmlns="http://www.w3.org/2000/svg" viewBox="0 0 310.59 373.99">
  <defs>
    <style>
      .cls-1 {
        fill: #316bfa;
      }

      .cls-2 {
        fill: #bcdcfc;
      }

      .cls-3 {
        fill: #041d56;
      }

      .cls-4 {
        fill: #cdd2e4;
      }

      .cls-5 {
        fill: #f7f7f9;
      }

      .cls-6 {
        fill: #041e58;
      }

      .cls-7 {
        fill: #bedbfb;
      }

      .cls-8 {
        fill: #011c58;
      }
    </style>
  </defs>
  <path class="cls-1" d="M50.4,68.33C20.1,73.11-3.23,42.93,13.57,15.98c21.96-35.23,77.79-6.74,59.87,32.73-1.2,2.65-6.86,8.92-6.91,9.5-.15,1.77,15.52,27.18,17.98,30.59,35.39-17.85,74.09-22.41,112.55-11.98,11.25,3.05,21.65,8.14,32.52,12.16,1.75-.52,19.18-29.11,19.35-30.93.06-.69-5.9-8.7-6.94-11.55-11.91-32.61,25.85-60.6,53.06-38.46,23.37,19.02,11.61,56.89-17.36,60-3.67.39-9.61-1.01-11.27-.7-2.21.41-16.03,29.15-18.23,33.6,34.44,27.07,56.78,65.99,61.46,109.93,14.83,139.32-148.22,208.47-253.76,130.57-82.1-60.6-69.54-185.45,10.27-241.5l-15.75-31.61Z"/>
  <path class="cls-2" d="M132.86,115.46c5.88-.69,13.23,1.32,18.34,4.11,14.31,7.79,19.73,30.79,41.46,21.26,6.35-2.79,11.61-12.45,16.45-12.88,13.59-1.19-1.75,18.71-6,22.28-9.94,8.36-24.2,9.17-35.55,3.14-14.13-7.5-21.11-31.67-41.83-20.99-4.37,2.25-18.15,21.29-21.45,10.01s18.56-25.76,28.59-26.94Z"/>
  <g>
    <path class="cls-7" d="M93.18,175.09c25.69-2.42,44.39,14.4,66.64,23.73,30.4-11.47,53.78-33.22,87.07-14.02,36.26,20.92,42.25,69.74,26.38,105.68-40.93,92.75-201.71,83.85-236.03-6.7-16.01-42.23,6.97-104.07,55.95-108.69Z"/>
    <path class="cls-6" d="M198.65,255c-3.99,3.96-8.46-.48-6.25-6.76,6-17.04,29.83-22.44,44.84-14.06,4.2,2.35,16,12.13,11.35,16.94-5.27,5.46-10.35-5.67-15.51-8.6-12.05-6.84-23.77-1.39-32.1,8.05-1.22,1.38-1.51,3.61-2.34,4.44Z"/>
    <path class="cls-3" d="M139.63,306.76c1.88-1.94,14.62,1.91,19.06,1.9,8.47,0,18.98-3.54,25.06-9.49,2.17-2.12,10.93-19.07,13.94-8.64,3.7,12.83-21.99,26.38-32.75,27.46-4.84.49-35.24-.97-25.32-11.24Z"/>
    <g>
      <path class="cls-8" d="M93.4,233.34c-3.89.13-8.7,3.13-11.51,5.72-3.42,3.14-6.3,11.41-9.89,11.07-6.14-.57,1.2-12.01,3.21-14.62,19.14-24.89,56.1-9.7,52.55,21.23-1.12,9.78-9.15,20.09-19.29,21.45-26.09,3.48-33.19-30.26-15.06-44.84Z"/>
      <ellipse class="cls-5" cx="108.5" cy="244.25" rx="7.84" ry="7.84"/>
      <path class="cls-4" d="M98.6,237.54c1.13,1.58-.88,8.69-5.04,6.08-4.36-2.72,2.64-9.46,5.04-6.08Z"/>
    </g>
  </g>
</svg>