<?xml version="1.0" encoding="UTF-8"?>
<svg id="Layer_1" data-name="Layer 1" xmlns="http://www.w3.org/2000/svg" viewBox="0 0 323.28 373.99">
  <defs>
    <style>
      .cls-1 {
        fill: #f2f2f5;
      }

      .cls-2 {
        fill: #041d56;
      }

      .cls-3 {
        fill: #011c56;
      }

      .cls-4 {
        fill: #326cfa;
      }

      .cls-5 {
        fill: #011a54;
      }

      .cls-6 {
        fill: #bddbfb;
      }

      .cls-7 {
        fill: #f4f4f7;
      }

      .cls-8 {
        fill: #fdfdfd;
      }
    </style>
  </defs>
  <path class="cls-4" d="M258.96,105.47l20.93-36.51c39.68,9.97,60.73-46.07,25.36-64.29-34.67-17.86-66.79,23.96-42.72,53.88l-21.65,33.89c-39.18-19.49-83.13-25.91-125.83-14.45-4.66,1.25-33.55,11.22-33.98,14.5l-20.99-34c3.34.02,8.71-14.91,9.04-18.46C72.57,3.05,29.18-14.18,7.15,14.02c-15.63,20.02-4.38,52.34,21.57,55.37,2.47.29,12.58.64,14.38.11l17.99,34c-3.38,1.63-21.67,21.4-24.96,25.53C-29.38,211.42-1.86,328.34,99.55,363.52c118.3,41.04,247.68-42.96,214.89-175.03-7.89-31.8-28.63-64.25-55.48-83.01Z"/>
  <path class="cls-8" d="M149,142.55v-28.5c0-6.73,20.99-5.43,20.99-1v29.5h18.49c.26,0,2.34,1.03,2.55,1.68l-1,4.88-27.48,27.49c-1.76,1.44-4.35,1.44-6.11,0l-27.48-27.5c-2.31-1.56.06-6.55,1.55-6.55h18.49Z"/>
  <g>
    <path class="cls-6" d="M92.87,182.79c23.7-1.39,45.32,9.01,65.81,19.44,10.77-4.21,20.49-10.35,31.56-14.01,94.69-31.32,132.84,77.85,63.74,136.78-54.03,46.09-154.74,40.94-201.91-12.99-39.96-45.69-27.26-125.23,40.8-129.23Z"/>
    <path class="cls-2" d="M194.71,289.65c4.64-1.31,5.89,3.35,4.13,7.17-6.07,13.21-30.97,20.29-44.36,19.71-3.71-.16-24-2.98-18.53-9.61,2.26-2.74,10.5.36,14.54.62,10.87.7,24.38-1.14,33.46-7.61,2.73-1.95,8.69-9.7,10.76-10.29Z"/>
    <g>
      <path class="cls-5" d="M230.99,231.51l2.99,2.98c-12.04-2.09-8.61,12.53-1.64,7.91,3.83-2.71,1.44-12.03,6.83-3.6,7.6,11.91,4.22,30.02-8.48,36.9-20.28,10.99-41.83-9.57-33.68-30.19-11.2,1.98-11.42-.3-2.91-6.42s21.4-11.87,31.89-15.09c4.37-1.34,31.23-9.77,27.87.83-.93,2.95-18.96,4.73-22.87,6.68Z"/>
      <path class="cls-1" d="M207.52,240.82c7.62.8-2.66,20.5-8.46,4.3.41-1.38,7.22-4.43,8.46-4.3Z"/>
    </g>
    <g>
      <path class="cls-3" d="M130.04,246.49l-6.99-.99c8.15,50.81-65.61,38.65-42.96-8,3.33-.81,1.22,3.88,4.69,4.87,6.74,1.93,7.27-8.9-1.7-6.88-.59-1.43,5.93-3.43,4-4.98-.74-.6-15.56-2.7-18.56-3.93-3.95-1.62-4.52-5.51-.53-6.63,9.99-2.81,38.28,8.06,47.73,13.39,2.1,1.18,17.19,10.32,14.31,13.17Z"/>
      <path class="cls-7" d="M109.79,240.65c5.77-1.53,14.12,5.34,6.18,10.26-8.37,5.18-13.64-8.28-6.18-10.26Z"/>
    </g>
  </g>
</svg>