<?xml version="1.0" encoding="UTF-8"?>
<svg id="Layer_1" data-name="Layer 1" xmlns="http://www.w3.org/2000/svg" viewBox="0 0 310.7 373.99">
  <defs>
    <style>
      .cls-1 {
        fill: #041d56;
      }

      .cls-2 {
        fill: #fcfcfd;
      }

      .cls-3 {
        fill: #031d57;
      }

      .cls-4 {
        fill: #306af9;
      }

      .cls-5 {
        fill: #bddbfb;
      }

      .cls-6 {
        fill: #fcfdfd;
      }
    </style>
  </defs>
  <path class="cls-4" d="M232,91.33l20.05-32.72c-17.96-19.28-9.51-50.89,16.31-57.48,31.85-8.12,55.02,29.24,34.69,54.88-9.1,11.48-20.93,12.56-34.69,12.68l-18,33.48c-.29,1.76,10.03,9.04,11.98,10.89,47.16,44.72,60.79,112.68,35.75,172.94-36.84,88.67-152.33,111.61-230.17,62.95-89-55.63-86.09-182.24-7.21-245.06l-19.07-34.24c-8.04.7-14.2.82-21.85-2.3C-11.33,54.69-3.85,5.25,29.02,1.64c32.67-3.59,50.64,33.13,29.9,57.8l19.65,31.87c1.52.45,18.77-8.45,22.25-9.76,44.08-16.64,89.98-12.2,131.19,9.79Z"/>
  <path class="cls-2" d="M150.46,172.05c-11.25,3.34-23.98,3.3-34.59-2.18-2.26-1.17-10.47-6.96-11.31-8.93-2.35-5.5,14.21-13.29,18.69-13.09-4.02-2.95-7.34-19.48-4.09-21.73,3.44-2.39,17.78,1.37,19.7,5.62,1.54,3.41.09,12.24.97,17.18.38,2.1,1.96,6.12,2.84,8.25,1.1,2.66,8.66,13.62,7.79,14.88Z"/>
  <path class="cls-6" d="M195.67,125.82c3.56,8.25-1.01,15.55-3.88,23.05,4.5-1.36,19.74,7.25,17.68,12.08-1.84,4.29-16.7,12.16-21.45,12.9-5.26.82-19.32,1.04-23.43-2.29-1.67-1.35-.59-.96-.05-2.02,1.45-2.83,4.13-5.53,5.62-8.51,2.53-5.05,5.09-13.1,5.48-18.71.16-2.29-.81-10.11-.54-10.57,2.21-3.61,17.07-8.1,20.57-5.92Z"/>
  <path class="cls-6" d="M156.21,106.63c3.17-.83,7.12,5.89,8.53,8.29,9.1,15.47,7.78,34.88-2.16,49.61-3.93,5.83-4.58,7.59-9.51,1.4-9.5-11.92-11.93-29.94-7.12-44.25,1.08-3.22,7.15-14.23,10.26-15.04Z"/>
  <g>
    <path class="cls-5" d="M90.8,186.48c16.51-1.7,32.42,2.76,47.25,9.61,4.22,1.95,14.62,9.04,17.95,9.34,4.97.45,12.38-5.74,17.28-8.01,27.39-12.72,53.96-17,80.31,1.04,38.52,26.37,35.07,81.86,7.24,114.8-51.01,60.38-159.54,56.56-210.15-2.51-37.28-43.52-20.97-117.99,40.13-124.27Z"/>
    <path class="cls-1" d="M189.47,253.89c3.21-.82,9.37,6.68,13.39,8.43,11.85,5.18,25.42,3.9,36.22-3.09,2.31-1.5,3.8-4.95,6.65-5.48,7.91-1.47,6.47,6.25,2.52,10.63-13.15,14.57-45.54,14.88-58.99.46-2.96-3.17-5.57-9.48.21-10.95Z"/>
    <path class="cls-3" d="M64.47,253.88c4.5-1.51,6,2.76,9.07,4.73,12.08,7.75,23.95,9.39,37.31,3.39,4.86-2.18,11.6-10.97,15.44-6.76,4.71,5.15-5.4,12.54-9.42,14.81-13.79,7.75-33.91,7.53-46.96-1.74-3.23-2.3-12.7-11.99-5.44-14.42Z"/>
    <path class="cls-1" d="M190.62,299.27c4.34,6.85-10.82,14.98-15.75,16.71-14.49,5.08-37.98,4.17-49.09-7.79-3.5-3.76-3.67-10.69,1.96-10.13,1.06.11,10.23,7.29,13.67,8.6,10.79,4.12,24.22,3.39,34.62-1.62,3.31-1.59,11.77-10.22,14.59-5.78Z"/>
  </g>
</svg>