<?xml version="1.0" encoding="UTF-8"?>
<svg id="Layer_1" data-name="Layer 1" xmlns="http://www.w3.org/2000/svg" viewBox="0 0 308.23 373.15">
  <defs>
    <style>
      .cls-1 {
        fill: #041e56;
      }

      .cls-2 {
        fill: #031b54;
      }

      .cls-3 {
        fill: #fcfcfd;
      }

      .cls-4 {
        fill: #326cfa;
      }

      .cls-5 {
        fill: #bddbfb;
      }

      .cls-6 {
        fill: #031c55;
      }
    </style>
  </defs>
  <path class="cls-4" d="M229.62,93.03l17.88-32.73c.34-2.24-5.24-7.46-6.66-10.98-12.97-32.09,20.16-61.52,49.67-43.7,26.75,16.16,17.92,59.42-12.49,63.33-3.23.42-10.29-.73-12.42.57-2.96,1.8-14.02,30.4-17.86,35.04,81.02,58.89,81.8,188.96-4.6,243.5C128.24,420.58-34.64,326.71,6.51,184.26c9.89-34.23,31.08-61.47,59.02-82.87l-13.9-32.25c-16.63,2.33-34.56-6.25-39.58-22.89C2.16,13.47,38.36-13.39,66.07,7.2c17.53,13.03,16.65,37.69,2.83,53.12l16.31,30.58c45.55-23,99.27-20.45,144.41,2.13Z"/>
  <path class="cls-3" d="M188.65,156.03c-.87,13.15-16.94,23.93-29.49,24.98-49.46,4.12-51.78-68.24-5.95-70.97,12.87-.77,2.54,5.32-.36,9.66-8.23,12.33-5.03,29.22,8.16,36.5,11.17,6.16,16.34,3.03,27.64-.16Z"/>
  <g>
    <path class="cls-5" d="M88.52,187.32c16.07-1.64,30.27,2.3,44.85,8.53,4.28,1.83,17.87,10.09,20.81,10.27,3.5.22,25.2-11.96,31.95-14.13,80.8-25.97,122.76,65.14,70,124.05-51.26,57.24-161.16,50.95-209.36-7.54-35.49-43.07-17.34-115.14,41.74-121.18Z"/>
    <path class="cls-2" d="M63.09,264.68c-2.08-2.37-4.58-6.3-2.42-9.22,4.03-5.45,10.25,3.67,15.03,6.11,11.09,5.64,26.84,4.92,37.35-1.7,3.16-1.99,5.94-7.72,10.19-4.91,3.62,2.39,2.54,4.65.45,7.57-11.94,16.69-47.41,17.22-60.61,2.16Z"/>
    <path class="cls-6" d="M184.91,255.28c.82-.81,2.9-1.4,4.04-1.11,1.26.32,9.3,7.43,13.16,8.89,9.39,3.57,21.83,3.34,30.73-1.33,3.87-2.03,11.15-10.92,14.74-7.21,5.76,5.97-6.38,14.36-11.28,16.67-14.09,6.65-31.57,6.07-44.55-2.77-3.36-2.29-11.18-8.82-6.83-13.15Z"/>
    <path class="cls-1" d="M123.41,298.2c4.39-1.31,8.71,5.11,13.3,7.31,11.33,5.41,27.7,4.76,38.66-1.27,3.52-1.94,8.06-8.32,12.3-5.72,4.83,2.95-1.47,8.87-4,11.03-14.25,12.13-42.2,12.56-56.89.9-2.88-2.29-10.31-10.17-3.37-12.24Z"/>
  </g>
</svg>