<svg width="361" height="141" viewBox="0 0 361 141" fill="none" xmlns="http://www.w3.org/2000/svg">
<path d="M0 12C0 5.37258 5.37258 0 12 0H349C355.627 0 361 5.37258 361 12V129C361 135.627 355.627 141 349 141H12C5.37257 141 0 135.627 0 129V12Z" fill="url(#paint0_linear_2415_72877)"/>
<path d="M19.992 35V25.056H16.16V23.48H25.496V25.056H21.664V35H19.992ZM29.247 35.24C28.383 35.24 27.6337 35.0453 26.999 34.656C26.3643 34.2667 25.8737 33.7307 25.527 33.048C25.1857 32.36 25.015 31.568 25.015 30.672C25.015 29.7707 25.191 28.9787 25.543 28.296C25.895 27.608 26.3883 27.0747 27.023 26.696C27.6577 26.312 28.399 26.12 29.247 26.12C30.111 26.12 30.8603 26.3147 31.495 26.704C32.1297 27.0933 32.6203 27.6293 32.967 28.312C33.3137 28.9947 33.487 29.7813 33.487 30.672C33.487 31.5733 33.311 32.368 32.959 33.056C32.6123 33.7387 32.1217 34.2747 31.487 34.664C30.8523 35.048 30.1057 35.24 29.247 35.24ZM29.247 33.664C30.0737 33.664 30.6897 33.3867 31.095 32.832C31.5057 32.272 31.711 31.552 31.711 30.672C31.711 29.7707 31.503 29.0507 31.087 28.512C30.6763 27.968 30.063 27.696 29.247 27.696C28.687 27.696 28.2257 27.824 27.863 28.08C27.5003 28.3307 27.231 28.68 27.055 29.128C26.879 29.5707 26.791 30.0853 26.791 30.672C26.791 31.5787 26.999 32.304 27.415 32.848C27.831 33.392 28.4417 33.664 29.247 33.664ZM38.677 35.24C37.8717 35.24 37.1757 35.04 36.589 34.64C36.0077 34.24 35.557 33.696 35.237 33.008C34.9223 32.3147 34.765 31.536 34.765 30.672C34.765 29.8027 34.925 29.0267 35.245 28.344C35.565 27.656 36.0183 27.1147 36.605 26.72C37.197 26.32 37.8983 26.12 38.709 26.12C39.525 26.12 40.2103 26.32 40.765 26.72C41.325 27.1147 41.7463 27.656 42.029 28.344C42.317 29.032 42.461 29.808 42.461 30.672C42.461 31.536 42.317 32.312 42.029 33C41.741 33.688 41.317 34.2347 40.757 34.64C40.197 35.04 39.5037 35.24 38.677 35.24ZM38.909 33.728C39.4583 33.728 39.9063 33.5973 40.253 33.336C40.5997 33.0747 40.853 32.7147 41.013 32.256C41.173 31.7973 41.253 31.2693 41.253 30.672C41.253 30.0747 41.1703 29.5467 41.005 29.088C40.845 28.6293 40.5943 28.272 40.253 28.016C39.917 27.76 39.4877 27.632 38.965 27.632C38.4103 27.632 37.9543 27.768 37.597 28.04C37.2397 28.312 36.973 28.6773 36.797 29.136C36.6263 29.5947 36.541 30.1067 36.541 30.672C36.541 31.2427 36.6263 31.76 36.797 32.224C36.973 32.6827 37.2343 33.048 37.581 33.32C37.933 33.592 38.3757 33.728 38.909 33.728ZM41.253 35V28.784H41.061V23.48H42.741V35H41.253ZM47.4194 35.24C46.7794 35.24 46.2434 35.1227 45.8114 34.888C45.3794 34.648 45.0514 34.3333 44.8274 33.944C44.6087 33.5493 44.4994 33.1173 44.4994 32.648C44.4994 32.2107 44.5767 31.8267 44.7314 31.496C44.886 31.1653 45.1154 30.8853 45.4194 30.656C45.7234 30.4213 46.0967 30.232 46.5394 30.088C46.9234 29.976 47.358 29.8773 47.8434 29.792C48.3287 29.7067 48.838 29.6267 49.3714 29.552C49.91 29.4773 50.4434 29.4027 50.9714 29.328L50.3634 29.664C50.374 28.9867 50.23 28.4853 49.9314 28.16C49.638 27.8293 49.1314 27.664 48.4114 27.664C47.958 27.664 47.542 27.7707 47.1634 27.984C46.7847 28.192 46.5207 28.5387 46.3714 29.024L44.8114 28.544C45.0247 27.8027 45.43 27.2133 46.0274 26.776C46.63 26.3387 47.43 26.12 48.4274 26.12C49.2007 26.12 49.8727 26.2533 50.4434 26.52C51.0194 26.7813 51.4407 27.1973 51.7074 27.768C51.846 28.0507 51.9314 28.3493 51.9634 28.664C51.9954 28.9787 52.0114 29.3173 52.0114 29.68V35H50.5314V33.024L50.8194 33.28C50.462 33.9413 50.006 34.4347 49.4514 34.76C48.902 35.08 48.2247 35.24 47.4194 35.24ZM47.7154 33.872C48.19 33.872 48.598 33.7893 48.9394 33.624C49.2807 33.4533 49.5554 33.2373 49.7634 32.976C49.9714 32.7147 50.1074 32.4427 50.1714 32.16C50.262 31.904 50.3127 31.616 50.3234 31.296C50.3394 30.976 50.3474 30.72 50.3474 30.528L50.8914 30.728C50.3634 30.808 49.8834 30.88 49.4514 30.944C49.0194 31.008 48.6274 31.072 48.2754 31.136C47.9287 31.1947 47.6194 31.2667 47.3474 31.352C47.118 31.432 46.9127 31.528 46.7314 31.64C46.5554 31.752 46.414 31.888 46.3074 32.048C46.206 32.208 46.1554 32.4027 46.1554 32.632C46.1554 32.856 46.2114 33.064 46.3234 33.256C46.4354 33.4427 46.606 33.592 46.8354 33.704C47.0647 33.816 47.358 33.872 47.7154 33.872ZM54.7724 38.84L56.4444 34.288L56.4684 35.632L52.7004 26.36H54.4444L57.2604 33.52H56.7484L59.4364 26.36H61.1324L56.3644 38.84H54.7724ZM62.5456 27.32L62.6496 26.576C62.879 26.592 63.0576 26.5493 63.1856 26.448C63.3136 26.3467 63.399 26.2053 63.4416 26.024C63.4843 25.8427 63.4923 25.6373 63.4656 25.408H62.5456V23.48H64.3136V25.568C64.3136 26.1973 64.1616 26.672 63.8576 26.992C63.559 27.312 63.1216 27.4213 62.5456 27.32ZM68.6271 35.232C67.5765 35.232 66.7205 35 66.0591 34.536C65.3978 34.072 64.9925 33.4187 64.8431 32.576L66.5551 32.312C66.6618 32.76 66.9071 33.1147 67.2911 33.376C67.6805 33.632 68.1631 33.76 68.7391 33.76C69.2618 33.76 69.6698 33.6533 69.9631 33.44C70.2618 33.2267 70.4111 32.9333 70.4111 32.56C70.4111 32.3413 70.3578 32.1653 70.2511 32.032C70.1498 31.8933 69.9338 31.7627 69.6031 31.64C69.2725 31.5173 68.7685 31.3653 68.0911 31.184C67.3498 30.992 66.7605 30.7867 66.3231 30.568C65.8911 30.344 65.5818 30.0853 65.3951 29.792C65.2138 29.4933 65.1231 29.1333 65.1231 28.712C65.1231 28.1893 65.2618 27.7333 65.5391 27.344C65.8165 26.9547 66.2058 26.6533 66.7071 26.44C67.2138 26.2267 67.8058 26.12 68.4831 26.12C69.1445 26.12 69.7338 26.224 70.2511 26.432C70.7685 26.64 71.1871 26.936 71.5071 27.32C71.8271 27.6987 72.0191 28.144 72.0831 28.656L70.3711 28.968C70.3125 28.552 70.1178 28.224 69.7871 27.984C69.4565 27.744 69.0271 27.6133 68.4991 27.592C67.9925 27.5707 67.5818 27.656 67.2671 27.848C66.9525 28.0347 66.7951 28.2933 66.7951 28.624C66.7951 28.816 66.8538 28.9787 66.9711 29.112C67.0938 29.2453 67.3285 29.3733 67.6751 29.496C68.0218 29.6187 68.5338 29.7653 69.2111 29.936C69.9365 30.1227 70.5125 30.3307 70.9391 30.56C71.3658 30.784 71.6698 31.0533 71.8511 31.368C72.0378 31.6773 72.1311 32.0533 72.1311 32.496C72.1311 33.3493 71.8191 34.0187 71.1951 34.504C70.5765 34.9893 69.7205 35.232 68.6271 35.232ZM81.1604 35.24C80.3337 35.24 79.6404 35.04 79.0804 34.64C78.5204 34.2347 78.0964 33.688 77.8084 33C77.5204 32.312 77.3764 31.536 77.3764 30.672C77.3764 29.808 77.5177 29.032 77.8004 28.344C78.0884 27.656 78.5097 27.1147 79.0644 26.72C79.6244 26.32 80.3124 26.12 81.1284 26.12C81.939 26.12 82.6377 26.32 83.2244 26.72C83.8164 27.1147 84.2724 27.656 84.5924 28.344C84.9124 29.0267 85.0724 29.8027 85.0724 30.672C85.0724 31.536 84.9124 32.3147 84.5924 33.008C84.2777 33.696 83.827 34.24 83.2404 34.64C82.659 35.04 81.9657 35.24 81.1604 35.24ZM77.0964 38.84V26.36H78.5844V32.576H78.7764V38.84H77.0964ZM80.9284 33.728C81.4617 33.728 81.9017 33.592 82.2484 33.32C82.6004 33.048 82.8617 32.6827 83.0324 32.224C83.2084 31.76 83.2964 31.2427 83.2964 30.672C83.2964 30.1067 83.2084 29.5947 83.0324 29.136C82.8617 28.6773 82.5977 28.312 82.2404 28.04C81.883 27.768 81.427 27.632 80.8724 27.632C80.3497 27.632 79.9177 27.76 79.5764 28.016C79.2404 28.272 78.9897 28.6293 78.8244 29.088C78.6644 29.5467 78.5844 30.0747 78.5844 30.672C78.5844 31.2693 78.6644 31.7973 78.8244 32.256C78.9844 32.7147 79.2377 33.0747 79.5844 33.336C79.931 33.5973 80.379 33.728 80.9284 33.728ZM86.8388 35V26.36H88.3268V28.456L88.1188 28.184C88.2254 27.9067 88.3641 27.6533 88.5348 27.424C88.7054 27.1893 88.9028 26.9973 89.1268 26.848C89.3454 26.688 89.5881 26.5653 89.8548 26.48C90.1268 26.3893 90.4041 26.336 90.6868 26.32C90.9694 26.2987 91.2414 26.312 91.5028 26.36V27.928C91.2201 27.8533 90.9054 27.832 90.5588 27.864C90.2174 27.896 89.9028 28.0053 89.6148 28.192C89.3428 28.368 89.1268 28.5813 88.9668 28.832C88.8121 29.0827 88.7001 29.3627 88.6308 29.672C88.5614 29.976 88.5268 30.2987 88.5268 30.64V35H86.8388ZM96.622 35.24C95.758 35.24 95.0087 35.0453 94.374 34.656C93.7393 34.2667 93.2487 33.7307 92.902 33.048C92.5607 32.36 92.39 31.568 92.39 30.672C92.39 29.7707 92.566 28.9787 92.918 28.296C93.27 27.608 93.7633 27.0747 94.398 26.696C95.0327 26.312 95.774 26.12 96.622 26.12C97.486 26.12 98.2353 26.3147 98.87 26.704C99.5047 27.0933 99.9953 27.6293 100.342 28.312C100.689 28.9947 100.862 29.7813 100.862 30.672C100.862 31.5733 100.686 32.368 100.334 33.056C99.9873 33.7387 99.4967 34.2747 98.862 34.664C98.2273 35.048 97.4807 35.24 96.622 35.24ZM96.622 33.664C97.4487 33.664 98.0647 33.3867 98.47 32.832C98.8807 32.272 99.086 31.552 99.086 30.672C99.086 29.7707 98.878 29.0507 98.462 28.512C98.0513 27.968 97.438 27.696 96.622 27.696C96.062 27.696 95.6007 27.824 95.238 28.08C94.8753 28.3307 94.606 28.68 94.43 29.128C94.254 29.5707 94.166 30.0853 94.166 30.672C94.166 31.5787 94.374 32.304 94.79 32.848C95.206 33.392 95.8167 33.664 96.622 33.664ZM106.18 39.08C105.716 39.08 105.265 39.008 104.828 38.864C104.396 38.72 104.001 38.5067 103.644 38.224C103.287 37.9467 102.991 37.6027 102.756 37.192L104.3 36.408C104.487 36.776 104.753 37.0453 105.1 37.216C105.447 37.3867 105.812 37.472 106.196 37.472C106.671 37.472 107.076 37.3867 107.412 37.216C107.748 37.0507 108.001 36.8 108.172 36.464C108.348 36.128 108.433 35.712 108.428 35.216V32.8H108.628V26.36H110.108V35.232C110.108 35.4613 110.1 35.68 110.084 35.888C110.068 36.096 110.039 36.304 109.996 36.512C109.873 37.0933 109.639 37.5733 109.292 37.952C108.951 38.3307 108.513 38.6133 107.98 38.8C107.452 38.9867 106.852 39.08 106.18 39.08ZM106.052 35.24C105.247 35.24 104.551 35.04 103.964 34.64C103.383 34.24 102.932 33.696 102.612 33.008C102.297 32.3147 102.14 31.536 102.14 30.672C102.14 29.8027 102.3 29.0267 102.62 28.344C102.94 27.656 103.393 27.1147 103.98 26.72C104.572 26.32 105.273 26.12 106.084 26.12C106.9 26.12 107.585 26.32 108.14 26.72C108.7 27.1147 109.121 27.656 109.404 28.344C109.692 29.032 109.836 29.808 109.836 30.672C109.836 31.536 109.692 32.312 109.404 33C109.116 33.688 108.692 34.2347 108.132 34.64C107.572 35.04 106.879 35.24 106.052 35.24ZM106.284 33.728C106.833 33.728 107.281 33.5973 107.628 33.336C107.975 33.0747 108.228 32.7147 108.388 32.256C108.548 31.7973 108.628 31.2693 108.628 30.672C108.628 30.0747 108.545 29.5467 108.38 29.088C108.22 28.6293 107.969 28.272 107.628 28.016C107.292 27.76 106.863 27.632 106.34 27.632C105.785 27.632 105.329 27.768 104.972 28.04C104.615 28.312 104.348 28.6773 104.172 29.136C104.001 29.5947 103.916 30.1067 103.916 30.672C103.916 31.2427 104.001 31.76 104.172 32.224C104.348 32.6827 104.609 33.048 104.956 33.32C105.308 33.592 105.751 33.728 106.284 33.728ZM112.354 35V26.36H113.842V28.456L113.634 28.184C113.741 27.9067 113.88 27.6533 114.05 27.424C114.221 27.1893 114.418 26.9973 114.642 26.848C114.861 26.688 115.104 26.5653 115.37 26.48C115.642 26.3893 115.92 26.336 116.202 26.32C116.485 26.2987 116.757 26.312 117.018 26.36V27.928C116.736 27.8533 116.421 27.832 116.074 27.864C115.733 27.896 115.418 28.0053 115.13 28.192C114.858 28.368 114.642 28.5813 114.482 28.832C114.328 29.0827 114.216 29.3627 114.146 29.672C114.077 29.976 114.042 30.2987 114.042 30.64V35H112.354ZM122.218 35.24C121.359 35.24 120.604 35.0533 119.954 34.68C119.308 34.3013 118.804 33.776 118.442 33.104C118.084 32.4267 117.906 31.6427 117.906 30.752C117.906 29.808 118.082 28.9893 118.434 28.296C118.791 27.6027 119.287 27.0667 119.922 26.688C120.556 26.3093 121.295 26.12 122.138 26.12C123.018 26.12 123.767 26.3253 124.386 26.736C125.004 27.1413 125.466 27.72 125.77 28.472C126.079 29.224 126.202 30.1173 126.138 31.152H124.466V30.544C124.455 29.5413 124.263 28.8 123.89 28.32C123.522 27.84 122.959 27.6 122.202 27.6C121.364 27.6 120.735 27.864 120.314 28.392C119.892 28.92 119.682 29.6827 119.682 30.68C119.682 31.6293 119.892 32.3653 120.314 32.888C120.735 33.4053 121.343 33.664 122.138 33.664C122.66 33.664 123.111 33.5467 123.49 33.312C123.874 33.072 124.172 32.7307 124.386 32.288L126.026 32.808C125.69 33.5813 125.18 34.1813 124.498 34.608C123.815 35.0293 123.055 35.24 122.218 35.24ZM119.138 31.152V29.848H125.306V31.152H119.138ZM131.237 35.232C130.186 35.232 129.33 35 128.669 34.536C128.007 34.072 127.602 33.4187 127.453 32.576L129.164 32.312C129.271 32.76 129.517 33.1147 129.901 33.376C130.29 33.632 130.773 33.76 131.349 33.76C131.871 33.76 132.279 33.6533 132.573 33.44C132.871 33.2267 133.021 32.9333 133.021 32.56C133.021 32.3413 132.967 32.1653 132.861 32.032C132.759 31.8933 132.543 31.7627 132.213 31.64C131.882 31.5173 131.378 31.3653 130.701 31.184C129.959 30.992 129.37 30.7867 128.933 30.568C128.501 30.344 128.191 30.0853 128.005 29.792C127.823 29.4933 127.733 29.1333 127.733 28.712C127.733 28.1893 127.871 27.7333 128.149 27.344C128.426 26.9547 128.815 26.6533 129.317 26.44C129.823 26.2267 130.415 26.12 131.093 26.12C131.754 26.12 132.343 26.224 132.861 26.432C133.378 26.64 133.797 26.936 134.117 27.32C134.437 27.6987 134.629 28.144 134.693 28.656L132.981 28.968C132.922 28.552 132.727 28.224 132.397 27.984C132.066 27.744 131.637 27.6133 131.109 27.592C130.602 27.5707 130.191 27.656 129.877 27.848C129.562 28.0347 129.405 28.2933 129.405 28.624C129.405 28.816 129.463 28.9787 129.581 29.112C129.703 29.2453 129.938 29.3733 130.285 29.496C130.631 29.6187 131.143 29.7653 131.821 29.936C132.546 30.1227 133.122 30.3307 133.549 30.56C133.975 30.784 134.279 31.0533 134.461 31.368C134.647 31.6773 134.741 32.0533 134.741 32.496C134.741 33.3493 134.429 34.0187 133.805 34.504C133.186 34.9893 132.33 35.232 131.237 35.232ZM139.815 35.232C138.764 35.232 137.908 35 137.247 34.536C136.585 34.072 136.18 33.4187 136.031 32.576L137.743 32.312C137.849 32.76 138.095 33.1147 138.479 33.376C138.868 33.632 139.351 33.76 139.927 33.76C140.449 33.76 140.857 33.6533 141.151 33.44C141.449 33.2267 141.599 32.9333 141.599 32.56C141.599 32.3413 141.545 32.1653 141.439 32.032C141.337 31.8933 141.121 31.7627 140.791 31.64C140.46 31.5173 139.956 31.3653 139.279 31.184C138.537 30.992 137.948 30.7867 137.511 30.568C137.079 30.344 136.769 30.0853 136.583 29.792C136.401 29.4933 136.311 29.1333 136.311 28.712C136.311 28.1893 136.449 27.7333 136.727 27.344C137.004 26.9547 137.393 26.6533 137.895 26.44C138.401 26.2267 138.993 26.12 139.671 26.12C140.332 26.12 140.921 26.224 141.439 26.432C141.956 26.64 142.375 26.936 142.695 27.32C143.015 27.6987 143.207 28.144 143.271 28.656L141.559 28.968C141.5 28.552 141.305 28.224 140.975 27.984C140.644 27.744 140.215 27.6133 139.687 27.592C139.18 27.5707 138.769 27.656 138.455 27.848C138.14 28.0347 137.983 28.2933 137.983 28.624C137.983 28.816 138.041 28.9787 138.159 29.112C138.281 29.2453 138.516 29.3733 138.863 29.496C139.209 29.6187 139.721 29.7653 140.399 29.936C141.124 30.1227 141.7 30.3307 142.127 30.56C142.553 30.784 142.857 31.0533 143.039 31.368C143.225 31.6773 143.319 32.0533 143.319 32.496C143.319 33.3493 143.007 34.0187 142.383 34.504C141.764 34.9893 140.908 35.232 139.815 35.232Z" fill="#DCDBDB"/>
<path d="M23.68 91V68.728C22.384 69.736 19.6 70.12 16.672 70.12V63.736C21.328 63.736 25.12 61.912 25.12 57.832H31.84V91H23.68Z" fill="white"/>
<path d="M40.5306 91H35.3306L46.4106 62.4H51.6106L40.5306 91ZM64.0366 91.64C54.9166 91.64 51.9566 84.76 51.9566 77.56C51.9566 67.56 56.7166 62.72 63.7966 62.72C69.1566 62.72 73.1966 65.92 74.0766 70.36H67.1966C66.9966 69.4 66.1966 67.8 63.6766 67.8C60.2366 67.8 58.7566 70.4 58.7566 74V74.44L58.9166 74.56C60.3566 73.2 62.3166 72.16 65.3566 72.16C71.0766 72.16 74.8766 76.24 74.8766 81.52C74.8766 87.64 70.6766 91.64 64.0366 91.64ZM63.6366 86.56C66.5966 86.56 68.3166 84.56 68.3166 81.88C68.3166 79.24 66.5966 77.24 63.6366 77.24C60.6366 77.24 58.9166 79.24 58.9166 81.88C58.9166 84.56 60.6366 86.56 63.6366 86.56Z" fill="#A6B4FF"/>
<path d="M36.7 122V114.8H37.76L41.305 120.15V114.8H42.365V122H41.305L37.76 116.645V122H36.7ZM43.8605 115.715V114.7H44.9055V115.715H43.8605ZM43.8605 122V116.6H44.9055V122H43.8605ZM48.717 122.15C48.1637 122.15 47.6937 122.027 47.307 121.78C46.9204 121.533 46.6237 121.195 46.417 120.765C46.2137 120.335 46.1104 119.847 46.107 119.3C46.1104 118.743 46.217 118.252 46.427 117.825C46.637 117.395 46.937 117.058 47.327 116.815C47.717 116.572 48.1854 116.45 48.732 116.45C49.322 116.45 49.8254 116.597 50.242 116.89C50.662 117.183 50.9387 117.585 51.072 118.095L50.032 118.395C49.9287 118.092 49.7587 117.857 49.522 117.69C49.2887 117.52 49.0204 117.435 48.717 117.435C48.3737 117.435 48.092 117.517 47.872 117.68C47.652 117.84 47.4887 118.06 47.382 118.34C47.2754 118.62 47.2204 118.94 47.217 119.3C47.2204 119.857 47.347 120.307 47.597 120.65C47.8504 120.993 48.2237 121.165 48.717 121.165C49.0537 121.165 49.3254 121.088 49.532 120.935C49.742 120.778 49.902 120.555 50.012 120.265L51.072 120.515C50.8954 121.042 50.6037 121.447 50.197 121.73C49.7904 122.01 49.297 122.15 48.717 122.15ZM54.3391 122.15C53.8025 122.15 53.3308 122.033 52.9241 121.8C52.5208 121.563 52.2058 121.235 51.9791 120.815C51.7558 120.392 51.6441 119.902 51.6441 119.345C51.6441 118.755 51.7541 118.243 51.9741 117.81C52.1975 117.377 52.5075 117.042 52.9041 116.805C53.3008 116.568 53.7625 116.45 54.2891 116.45C54.8391 116.45 55.3075 116.578 55.6941 116.835C56.0808 117.088 56.3691 117.45 56.5591 117.92C56.7525 118.39 56.8291 118.948 56.7891 119.595H55.7441V119.215C55.7375 118.588 55.6175 118.125 55.3841 117.825C55.1541 117.525 54.8025 117.375 54.3291 117.375C53.8058 117.375 53.4125 117.54 53.1491 117.87C52.8858 118.2 52.7541 118.677 52.7541 119.3C52.7541 119.893 52.8858 120.353 53.1491 120.68C53.4125 121.003 53.7925 121.165 54.2891 121.165C54.6158 121.165 54.8975 121.092 55.1341 120.945C55.3741 120.795 55.5608 120.582 55.6941 120.305L56.7191 120.63C56.5091 121.113 56.1908 121.488 55.7641 121.755C55.3375 122.018 54.8625 122.15 54.3391 122.15ZM52.4141 119.595V118.78H56.2691V119.595H52.4141ZM61.9779 122.145C61.3212 122.145 60.7862 122 60.3729 121.71C59.9596 121.42 59.7062 121.012 59.6129 120.485L60.6829 120.32C60.7496 120.6 60.9029 120.822 61.1429 120.985C61.3862 121.145 61.6879 121.225 62.0479 121.225C62.3746 121.225 62.6296 121.158 62.8129 121.025C62.9996 120.892 63.0929 120.708 63.0929 120.475C63.0929 120.338 63.0596 120.228 62.9929 120.145C62.9296 120.058 62.7946 119.977 62.5879 119.9C62.3812 119.823 62.0662 119.728 61.6429 119.615C61.1796 119.495 60.8112 119.367 60.5379 119.23C60.2679 119.09 60.0746 118.928 59.9579 118.745C59.8446 118.558 59.7879 118.333 59.7879 118.07C59.7879 117.743 59.8746 117.458 60.0479 117.215C60.2212 116.972 60.4646 116.783 60.7779 116.65C61.0946 116.517 61.4646 116.45 61.8879 116.45C62.3012 116.45 62.6696 116.515 62.9929 116.645C63.3162 116.775 63.5779 116.96 63.7779 117.2C63.9779 117.437 64.0979 117.715 64.1379 118.035L63.0679 118.23C63.0312 117.97 62.9096 117.765 62.7029 117.615C62.4962 117.465 62.2279 117.383 61.8979 117.37C61.5812 117.357 61.3246 117.41 61.1279 117.53C60.9312 117.647 60.8329 117.808 60.8329 118.015C60.8329 118.135 60.8696 118.237 60.9429 118.32C61.0196 118.403 61.1662 118.483 61.3829 118.56C61.5996 118.637 61.9196 118.728 62.3429 118.835C62.7962 118.952 63.1562 119.082 63.4229 119.225C63.6896 119.365 63.8796 119.533 63.9929 119.73C64.1096 119.923 64.1679 120.158 64.1679 120.435C64.1679 120.968 63.9729 121.387 63.5829 121.69C63.1962 121.993 62.6612 122.145 61.9779 122.145ZM68.3642 122C68.0242 122.067 67.6909 122.095 67.3642 122.085C67.0376 122.075 66.7459 122.012 66.4892 121.895C66.2326 121.778 66.0392 121.595 65.9092 121.345C65.7926 121.122 65.7292 120.895 65.7192 120.665C65.7126 120.432 65.7092 120.168 65.7092 119.875V115.1H66.7592V119.825C66.7592 120.042 66.7609 120.23 66.7642 120.39C66.7709 120.55 66.8059 120.685 66.8692 120.795C66.9892 121.002 67.1792 121.12 67.4392 121.15C67.7026 121.177 68.0109 121.165 68.3642 121.115V122ZM64.6742 117.44V116.6H68.3642V117.44H64.6742ZM71.0277 122.15C70.6277 122.15 70.2927 122.077 70.0227 121.93C69.7527 121.78 69.5477 121.583 69.4077 121.34C69.2711 121.093 69.2027 120.823 69.2027 120.53C69.2027 120.257 69.2511 120.017 69.3477 119.81C69.4444 119.603 69.5877 119.428 69.7777 119.285C69.9677 119.138 70.2011 119.02 70.4777 118.93C70.7177 118.86 70.9894 118.798 71.2927 118.745C71.5961 118.692 71.9144 118.642 72.2477 118.595C72.5844 118.548 72.9177 118.502 73.2477 118.455L72.8677 118.665C72.8744 118.242 72.7844 117.928 72.5977 117.725C72.4144 117.518 72.0977 117.415 71.6477 117.415C71.3644 117.415 71.1044 117.482 70.8677 117.615C70.6311 117.745 70.4661 117.962 70.3727 118.265L69.3977 117.965C69.5311 117.502 69.7844 117.133 70.1577 116.86C70.5344 116.587 71.0344 116.45 71.6577 116.45C72.1411 116.45 72.5611 116.533 72.9177 116.7C73.2777 116.863 73.5411 117.123 73.7077 117.48C73.7944 117.657 73.8477 117.843 73.8677 118.04C73.8877 118.237 73.8977 118.448 73.8977 118.675V122H72.9727V120.765L73.1527 120.925C72.9294 121.338 72.6444 121.647 72.2977 121.85C71.9544 122.05 71.5311 122.15 71.0277 122.15ZM71.2127 121.295C71.5094 121.295 71.7644 121.243 71.9777 121.14C72.1911 121.033 72.3627 120.898 72.4927 120.735C72.6227 120.572 72.7077 120.402 72.7477 120.225C72.8044 120.065 72.8361 119.885 72.8427 119.685C72.8527 119.485 72.8577 119.325 72.8577 119.205L73.1977 119.33C72.8677 119.38 72.5677 119.425 72.2977 119.465C72.0277 119.505 71.7827 119.545 71.5627 119.585C71.3461 119.622 71.1527 119.667 70.9827 119.72C70.8394 119.77 70.7111 119.83 70.5977 119.9C70.4877 119.97 70.3994 120.055 70.3327 120.155C70.2694 120.255 70.2377 120.377 70.2377 120.52C70.2377 120.66 70.2727 120.79 70.3427 120.91C70.4127 121.027 70.5194 121.12 70.6627 121.19C70.8061 121.26 70.9894 121.295 71.2127 121.295ZM75.1961 122V116.6H76.1261V117.91L75.9961 117.74C76.0628 117.567 76.1494 117.408 76.2561 117.265C76.3628 117.118 76.4861 116.998 76.6261 116.905C76.7628 116.805 76.9144 116.728 77.0811 116.675C77.2511 116.618 77.4244 116.585 77.6011 116.575C77.7778 116.562 77.9478 116.57 78.1111 116.6V117.58C77.9344 117.533 77.7378 117.52 77.5211 117.54C77.3078 117.56 77.1111 117.628 76.9311 117.745C76.7611 117.855 76.6261 117.988 76.5261 118.145C76.4294 118.302 76.3594 118.477 76.3161 118.67C76.2728 118.86 76.2511 119.062 76.2511 119.275V122H75.1961ZM82.1533 122C81.8133 122.067 81.4799 122.095 81.1533 122.085C80.8266 122.075 80.5349 122.012 80.2783 121.895C80.0216 121.778 79.8283 121.595 79.6983 121.345C79.5816 121.122 79.5183 120.895 79.5083 120.665C79.5016 120.432 79.4983 120.168 79.4983 119.875V115.1H80.5483V119.825C80.5483 120.042 80.5499 120.23 80.5533 120.39C80.5599 120.55 80.5949 120.685 80.6583 120.795C80.7783 121.002 80.9683 121.12 81.2283 121.15C81.4916 121.177 81.7999 121.165 82.1533 121.115V122ZM78.4633 117.44V116.6H82.1533V117.44H78.4633ZM85.1938 119.265V118.425H91.7938V119.265H85.1938ZM95.0934 122L95.0984 114.8H96.1584V119.2L98.2784 116.6H99.6084L97.3684 119.3L99.8384 122H98.4184L96.1584 119.4V122H95.0934ZM102.64 122.15C102.103 122.15 101.632 122.033 101.225 121.8C100.822 121.563 100.507 121.235 100.28 120.815C100.057 120.392 99.9449 119.902 99.9449 119.345C99.9449 118.755 100.055 118.243 100.275 117.81C100.498 117.377 100.808 117.042 101.205 116.805C101.602 116.568 102.063 116.45 102.59 116.45C103.14 116.45 103.608 116.578 103.995 116.835C104.382 117.088 104.67 117.45 104.86 117.92C105.053 118.39 105.13 118.948 105.09 119.595H104.045V119.215C104.038 118.588 103.918 118.125 103.685 117.825C103.455 117.525 103.103 117.375 102.63 117.375C102.107 117.375 101.713 117.54 101.45 117.87C101.187 118.2 101.055 118.677 101.055 119.3C101.055 119.893 101.187 120.353 101.45 120.68C101.713 121.003 102.093 121.165 102.59 121.165C102.917 121.165 103.198 121.092 103.435 120.945C103.675 120.795 103.862 120.582 103.995 120.305L105.02 120.63C104.81 121.113 104.492 121.488 104.065 121.755C103.638 122.018 103.163 122.15 102.64 122.15ZM100.715 119.595V118.78H104.57V119.595H100.715ZM108.607 122.15C108.07 122.15 107.598 122.033 107.192 121.8C106.788 121.563 106.473 121.235 106.247 120.815C106.023 120.392 105.912 119.902 105.912 119.345C105.912 118.755 106.022 118.243 106.242 117.81C106.465 117.377 106.775 117.042 107.172 116.805C107.568 116.568 108.03 116.45 108.557 116.45C109.107 116.45 109.575 116.578 109.962 116.835C110.348 117.088 110.637 117.45 110.827 117.92C111.02 118.39 111.097 118.948 111.057 119.595H110.012V119.215C110.005 118.588 109.885 118.125 109.652 117.825C109.422 117.525 109.07 117.375 108.597 117.375C108.073 117.375 107.68 117.54 107.417 117.87C107.153 118.2 107.022 118.677 107.022 119.3C107.022 119.893 107.153 120.353 107.417 120.68C107.68 121.003 108.06 121.165 108.557 121.165C108.883 121.165 109.165 121.092 109.402 120.945C109.642 120.795 109.828 120.582 109.962 120.305L110.987 120.63C110.777 121.113 110.458 121.488 110.032 121.755C109.605 122.018 109.13 122.15 108.607 122.15ZM106.682 119.595V118.78H110.537V119.595H106.682ZM114.567 122.15C114.05 122.15 113.617 122.025 113.267 121.775C112.917 121.522 112.652 121.18 112.472 120.75C112.292 120.32 112.202 119.835 112.202 119.295C112.202 118.755 112.29 118.27 112.467 117.84C112.647 117.41 112.91 117.072 113.257 116.825C113.607 116.575 114.037 116.45 114.547 116.45C115.054 116.45 115.49 116.575 115.857 116.825C116.227 117.072 116.512 117.41 116.712 117.84C116.912 118.267 117.012 118.752 117.012 119.295C117.012 119.835 116.912 120.322 116.712 120.755C116.515 121.185 116.234 121.525 115.867 121.775C115.504 122.025 115.07 122.15 114.567 122.15ZM112.027 124.4V116.6H112.957V120.485H113.077V124.4H112.027ZM114.422 121.205C114.755 121.205 115.03 121.12 115.247 120.95C115.467 120.78 115.63 120.552 115.737 120.265C115.847 119.975 115.902 119.652 115.902 119.295C115.902 118.942 115.847 118.622 115.737 118.335C115.63 118.048 115.465 117.82 115.242 117.65C115.019 117.48 114.734 117.395 114.387 117.395C114.06 117.395 113.79 117.475 113.577 117.635C113.367 117.795 113.21 118.018 113.107 118.305C113.007 118.592 112.957 118.922 112.957 119.295C112.957 119.668 113.007 119.998 113.107 120.285C113.207 120.572 113.365 120.797 113.582 120.96C113.799 121.123 114.079 121.205 114.422 121.205ZM122.343 124.55C122.053 124.55 121.771 124.505 121.498 124.415C121.228 124.325 120.981 124.192 120.758 124.015C120.535 123.842 120.35 123.627 120.203 123.37L121.168 122.88C121.285 123.11 121.451 123.278 121.668 123.385C121.885 123.492 122.113 123.545 122.353 123.545C122.65 123.545 122.903 123.492 123.113 123.385C123.323 123.282 123.481 123.125 123.588 122.915C123.698 122.705 123.751 122.445 123.748 122.135V120.625H123.873V116.6H124.798V122.145C124.798 122.288 124.793 122.425 124.783 122.555C124.773 122.685 124.755 122.815 124.728 122.945C124.651 123.308 124.505 123.608 124.288 123.845C124.075 124.082 123.801 124.258 123.468 124.375C123.138 124.492 122.763 124.55 122.343 124.55ZM122.263 122.15C121.76 122.15 121.325 122.025 120.958 121.775C120.595 121.525 120.313 121.185 120.113 120.755C119.916 120.322 119.818 119.835 119.818 119.295C119.818 118.752 119.918 118.267 120.118 117.84C120.318 117.41 120.601 117.072 120.968 116.825C121.338 116.575 121.776 116.45 122.283 116.45C122.793 116.45 123.221 116.575 123.568 116.825C123.918 117.072 124.181 117.41 124.358 117.84C124.538 118.27 124.628 118.755 124.628 119.295C124.628 119.835 124.538 120.32 124.358 120.75C124.178 121.18 123.913 121.522 123.563 121.775C123.213 122.025 122.78 122.15 122.263 122.15ZM122.408 121.205C122.751 121.205 123.031 121.123 123.248 120.96C123.465 120.797 123.623 120.572 123.723 120.285C123.823 119.998 123.873 119.668 123.873 119.295C123.873 118.922 123.821 118.592 123.718 118.305C123.618 118.018 123.461 117.795 123.248 117.635C123.038 117.475 122.77 117.395 122.443 117.395C122.096 117.395 121.811 117.48 121.588 117.65C121.365 117.82 121.198 118.048 121.088 118.335C120.981 118.622 120.928 118.942 120.928 119.295C120.928 119.652 120.981 119.975 121.088 120.265C121.198 120.552 121.361 120.78 121.578 120.95C121.798 121.12 122.075 121.205 122.408 121.205ZM128.547 122.15C128.007 122.15 127.539 122.028 127.142 121.785C126.745 121.542 126.439 121.207 126.222 120.78C126.009 120.35 125.902 119.855 125.902 119.295C125.902 118.732 126.012 118.237 126.232 117.81C126.452 117.38 126.76 117.047 127.157 116.81C127.554 116.57 128.017 116.45 128.547 116.45C129.087 116.45 129.555 116.572 129.952 116.815C130.349 117.058 130.655 117.393 130.872 117.82C131.089 118.247 131.197 118.738 131.197 119.295C131.197 119.858 131.087 120.355 130.867 120.785C130.65 121.212 130.344 121.547 129.947 121.79C129.55 122.03 129.084 122.15 128.547 122.15ZM128.547 121.165C129.064 121.165 129.449 120.992 129.702 120.645C129.959 120.295 130.087 119.845 130.087 119.295C130.087 118.732 129.957 118.282 129.697 117.945C129.44 117.605 129.057 117.435 128.547 117.435C128.197 117.435 127.909 117.515 127.682 117.675C127.455 117.832 127.287 118.05 127.177 118.33C127.067 118.607 127.012 118.928 127.012 119.295C127.012 119.862 127.142 120.315 127.402 120.655C127.662 120.995 128.044 121.165 128.547 121.165ZM132.396 115.715V114.7H133.441V115.715H132.396ZM132.396 122V116.6H133.441V122H132.396ZM138.732 122V119.345C138.732 119.135 138.714 118.92 138.677 118.7C138.644 118.477 138.577 118.27 138.477 118.08C138.381 117.89 138.242 117.737 138.062 117.62C137.886 117.503 137.654 117.445 137.367 117.445C137.181 117.445 137.004 117.477 136.837 117.54C136.671 117.6 136.524 117.698 136.397 117.835C136.274 117.972 136.176 118.152 136.102 118.375C136.032 118.598 135.997 118.87 135.997 119.19L135.347 118.945C135.347 118.455 135.439 118.023 135.622 117.65C135.806 117.273 136.069 116.98 136.412 116.77C136.756 116.56 137.171 116.455 137.657 116.455C138.031 116.455 138.344 116.515 138.597 116.635C138.851 116.755 139.056 116.913 139.212 117.11C139.372 117.303 139.494 117.515 139.577 117.745C139.661 117.975 139.717 118.2 139.747 118.42C139.777 118.64 139.792 118.833 139.792 119V122H138.732ZM134.937 122V116.6H135.872V118.16H135.997V122H134.937ZM143.32 124.55C143.03 124.55 142.748 124.505 142.475 124.415C142.205 124.325 141.958 124.192 141.735 124.015C141.511 123.842 141.326 123.627 141.18 123.37L142.145 122.88C142.261 123.11 142.428 123.278 142.645 123.385C142.861 123.492 143.09 123.545 143.33 123.545C143.626 123.545 143.88 123.492 144.09 123.385C144.3 123.282 144.458 123.125 144.565 122.915C144.675 122.705 144.728 122.445 144.725 122.135V120.625H144.85V116.6H145.775V122.145C145.775 122.288 145.77 122.425 145.76 122.555C145.75 122.685 145.731 122.815 145.705 122.945C145.628 123.308 145.481 123.608 145.265 123.845C145.051 124.082 144.778 124.258 144.445 124.375C144.115 124.492 143.74 124.55 143.32 124.55ZM143.24 122.15C142.736 122.15 142.301 122.025 141.935 121.775C141.571 121.525 141.29 121.185 141.09 120.755C140.893 120.322 140.795 119.835 140.795 119.295C140.795 118.752 140.895 118.267 141.095 117.84C141.295 117.41 141.578 117.072 141.945 116.825C142.315 116.575 142.753 116.45 143.26 116.45C143.77 116.45 144.198 116.575 144.545 116.825C144.895 117.072 145.158 117.41 145.335 117.84C145.515 118.27 145.605 118.755 145.605 119.295C145.605 119.835 145.515 120.32 145.335 120.75C145.155 121.18 144.89 121.522 144.54 121.775C144.19 122.025 143.756 122.15 143.24 122.15ZM143.385 121.205C143.728 121.205 144.008 121.123 144.225 120.96C144.441 120.797 144.6 120.572 144.7 120.285C144.8 119.998 144.85 119.668 144.85 119.295C144.85 118.922 144.798 118.592 144.695 118.305C144.595 118.018 144.438 117.795 144.225 117.635C144.015 117.475 143.746 117.395 143.42 117.395C143.073 117.395 142.788 117.48 142.565 117.65C142.341 117.82 142.175 118.048 142.065 118.335C141.958 118.622 141.905 118.942 141.905 119.295C141.905 119.652 141.958 119.975 142.065 120.265C142.175 120.552 142.338 120.78 142.555 120.95C142.775 121.12 143.051 121.205 143.385 121.205ZM147.359 122V120.895H148.464V122H147.359Z" fill="#34D399"/>
<g clip-path="url(#clip0_2415_72877)">
<path d="M27.6314 114.184H28.2556C28.569 114.184 28.9405 114.594 28.9803 114.92C29.1678 116.453 27.9575 118.132 26.5815 118.481C26.2583 119.059 25.8543 119.535 25.2846 119.838C25.2235 119.87 25.0845 119.895 25.0722 119.961C25.0635 120.008 25.0689 120.435 25.082 120.456C25.796 120.702 26.3354 121.357 26.4244 122.164C26.7094 122.206 27.147 122.038 27.3123 122.364C27.4739 122.682 27.2512 123.011 26.9256 123H22.0326C21.7419 122.983 21.5544 122.704 21.6652 122.407C21.8042 122.033 22.2845 122.204 22.574 122.163C22.6807 121.359 23.2048 120.716 23.9172 120.455C23.925 120.367 23.9488 119.956 23.9066 119.918C23.8705 119.886 23.6211 119.791 23.5395 119.741C23.0949 119.468 22.7512 119.034 22.4735 118.58C21.2714 118.473 20.2194 117.446 20.0439 116.162C20.0025 115.862 19.9828 115.217 20.0189 114.921C20.0587 114.594 20.4302 114.185 20.7436 114.185H21.3678C21.3731 114.168 21.3473 114.158 21.3473 114.152V113.538C21.3477 113.315 21.6713 112.986 21.8903 113H27.1093C27.6765 113.083 27.7069 113.691 27.6314 114.184ZM23.7085 116.94C23.9431 117.192 24.2716 116.846 24.507 116.754C24.7297 116.858 25.0439 117.173 25.2764 116.957C25.4843 116.764 25.2776 116.375 25.3022 116.13C25.4388 115.934 25.7682 115.78 25.7267 115.491C25.6759 115.134 25.221 115.233 24.9922 115.137C24.847 114.932 24.8047 114.506 24.5066 114.5C24.2084 114.493 24.1543 114.926 24.0074 115.137C23.7901 115.23 23.3812 115.138 23.2877 115.44C23.1872 115.764 23.5596 115.91 23.6978 116.129C23.7228 116.37 23.5247 116.742 23.7089 116.94H23.7085ZM21.4297 115.017H20.826L20.7953 115.05V115.972C20.7953 116.025 20.849 116.224 20.867 116.29C21.0254 116.871 21.4646 117.407 22.0027 117.605C21.7086 116.776 21.5019 115.905 21.4297 115.018V115.017ZM28.2048 115.423C28.215 115.304 28.1974 115.171 28.2048 115.05L28.174 115.017H27.5703C27.5096 115.803 27.3304 116.574 27.0999 117.319C27.5961 116.971 27.9833 116.402 28.1334 115.784C28.1576 115.685 28.1962 115.52 28.2048 115.422V115.423Z" fill="#34D399"/>
</g>
<g clip-path="url(#clip1_2415_72877)">
<path d="M347.01 44.4083C347.05 44.6557 346.705 44.602 346.521 44.6476C343.379 45.4338 339.666 45.4322 338.191 48.8488C337.106 51.3604 337.214 54.2855 336.673 56.9273C336.347 57.0169 336.349 56.3641 336.314 56.1493C335.873 53.3463 335.85 49.705 333.984 47.418C332.233 45.271 328.534 45.1766 326.012 44.5662C326.074 44.2407 326.356 44.2993 326.582 44.2423C328.681 43.7149 331.161 43.7035 333 42.3606C335.819 40.3048 335.922 35.0488 336.432 31.8828C336.964 32.1367 336.705 32.905 336.775 33.408C337.048 35.3483 337.32 37.8339 338.027 39.639C339.534 43.4935 343.475 43.6563 347.01 44.4067V44.4083Z" fill="#B0BBDF"/>
<path d="M215.81 54.1664C216.077 54.4318 215.753 54.4415 215.574 54.4936C214.04 54.9445 211.665 55.0617 210.439 56.1962C208.885 57.6352 209.113 61.0469 208.404 62.9465C207.739 61.0013 207.966 57.9379 206.532 56.359C205.159 54.8468 202.742 55.0243 201.002 54.2446C202.328 53.5723 203.933 53.6325 205.269 52.9814C207.73 51.7802 207.58 48.5686 208.161 46.2767C208.219 46.0505 208.16 45.7705 208.486 45.707C209.045 48.357 209.08 52.0211 211.982 53.1914C212.611 53.4453 215.655 54.0085 215.811 54.1648L215.81 54.1664Z" fill="#B0BBDF"/>
<path d="M223.298 63.1062C223.557 63.3553 223.24 63.3846 223.072 63.4464C222.005 63.8355 221.156 63.7541 220.37 64.8137C219.681 65.7432 219.826 66.837 219.31 67.8202C218.723 66.2104 218.935 64.6103 217.111 63.8387C216.688 63.6597 215.392 63.4888 215.322 63.4302C215.044 63.1958 215.386 63.1486 215.551 63.09C216.375 62.7888 217.4 62.727 218.091 62.0498C218.782 61.3727 219.055 59.9582 219.231 59.0417C219.45 58.9945 219.415 59.211 219.469 59.3673C220.09 61.135 219.712 61.944 221.789 62.7449C222.109 62.8686 223.243 63.0541 223.3 63.1079L223.298 63.1062Z" fill="#B0BBDF"/>
<path d="M351.895 35.2979C352.175 35.5339 351.83 35.5779 351.667 35.6381C350.712 35.9897 349.529 35.9116 348.89 36.9289C348.47 37.5979 348.253 39.8914 348.15 40.0119C347.919 40.2837 347.867 39.95 347.808 39.7856C347.277 38.3011 347.756 36.6945 345.92 35.9799C345.586 35.8497 343.922 35.5779 343.924 35.3777C344.709 34.9121 346.036 34.9447 346.692 34.2431C347.349 33.5416 347.618 31.8536 347.829 30.9062C348.084 30.9355 348.079 31.1472 348.137 31.3278C348.636 32.8742 348.271 34.1113 350.107 34.8877C350.531 35.0668 351.826 35.2377 351.896 35.2963L351.895 35.2979Z" fill="#B0BBDF"/>
<path d="M319.825 71.5639C319.835 71.3034 319.724 70.89 319.988 70.75C319.959 71.1065 319.84 71.4288 319.825 71.5639Z" fill="#5362AD"/>
<path d="M319.664 72.7019L319.827 72.0508C319.79 72.3535 319.679 72.6042 319.664 72.7019Z" fill="#5362AD"/>
<path d="M244.296 73.1912C242.702 73.8244 243.052 72.9015 243.644 71.8906C243.794 72.1852 244.196 73.0366 244.296 73.1912Z" fill="#5B6AB1"/>
<path d="M308.27 67.0096C308.361 67.0243 308.574 66.9819 308.595 67.0096C308.641 67.0715 308.762 68.5837 308.27 68.3118C308.289 67.8935 308.292 67.428 308.27 67.0113V67.0096Z" fill="#5362AD"/>
<path d="M315.757 70.75V71.3995C315.108 71.3962 315.116 70.75 315.757 70.75Z" fill="#5362AD"/>
<path d="M243.156 55.9515C248.126 44.2805 260.742 39.9409 272.707 40.496C287.362 41.1748 307.349 50.3699 308.268 67.0087C308.291 67.4254 308.288 67.891 308.268 68.3093C308.18 70.2642 307.688 72.4584 307.129 74.3255C305.337 80.3042 301.278 84.0057 295.683 86.5499C291.667 88.3762 287.109 89.4879 282.713 89.7728C280.772 86.0566 278.506 81.6031 273.795 81.0367C272.894 80.9292 271.296 81.2125 270.768 81.1148C270.649 81.092 269.416 80.1219 269.043 79.9314C264.283 77.4996 259.118 79.8924 255.603 83.2683C255.475 83.392 255.233 83.4002 255.203 83.4311C253.075 82.0084 250.891 80.5516 249.014 78.7985C247.308 77.2033 245.936 75.2598 244.69 73.5165C244.571 73.3504 244.325 73.2316 244.295 73.186C244.196 73.0314 243.794 72.1785 243.644 71.8855C241.125 66.9485 240.994 61.0219 243.155 55.9498L243.156 55.9515ZM254.662 55.3524C253.764 54.3595 252.431 55.3524 252.45 56.5016C252.465 57.3106 253.153 58.717 253.671 59.3518C255.079 61.0805 258.003 61.8765 260.149 61.6258C261.448 61.4744 265.081 60.0436 263.832 58.3068C262.908 57.0225 262.165 58.074 261.396 58.481C259.467 59.5032 256.641 59.2249 255.457 57.2406C255.115 56.6677 254.979 55.7057 254.662 55.3524ZM285.591 61.8569C285.037 61.2367 283.624 61.2465 283.399 62.2476C282.966 64.1651 285.472 66.2893 287.062 66.9746C289.138 67.8698 292.076 67.7298 293.997 66.4927C294.828 65.9572 295.683 65.1547 294.922 64.1618C294.12 63.1152 293.201 64.1276 292.429 64.4402C290.627 65.1694 288.343 65.1792 286.857 63.7646C286.301 63.2356 285.96 62.2704 285.591 61.8569ZM276.793 69.5545C274.204 71.9294 268.948 70.9202 267.381 67.7705C266.833 66.6685 267.068 65.3159 265.248 65.7456C264.127 66.0109 264.726 67.8649 265.052 68.6332C267.011 73.2756 274.219 74.5566 278.068 71.5583C278.877 70.9267 280.427 69.3706 279.41 68.3549C278.226 67.1715 277.421 68.9783 276.793 69.5529V69.5545Z" fill="url(#paint1_linear_2415_72877)"/>
<path d="M276.793 69.5535C277.421 68.9789 278.226 67.1721 279.41 68.3555C280.428 69.3712 278.879 70.9274 278.067 71.5589C274.219 74.5572 267.009 73.2762 265.052 68.6339C264.728 67.8639 264.126 66.0116 265.247 65.7462C267.067 65.3149 266.833 66.6692 267.38 67.7712C268.948 70.9208 274.203 71.93 276.793 69.5552V69.5535Z" fill="#334093"/>
<path d="M254.662 55.3531C254.982 55.7063 255.117 56.6699 255.458 57.2412C256.642 59.2255 259.468 59.5038 261.397 58.4816C262.166 58.0746 262.907 57.0215 263.833 58.3074C265.082 60.0442 261.449 61.475 260.15 61.6264C258.003 61.8771 255.08 61.0811 253.672 59.3524C253.154 58.7176 252.466 57.3112 252.451 56.5022C252.432 55.3514 253.765 54.3601 254.662 55.3531Z" fill="#334093"/>
<path d="M285.591 61.8563C285.959 62.2697 286.301 63.235 286.857 63.764C288.343 65.1785 290.626 65.1687 292.429 64.4395C293.202 64.127 294.121 63.1145 294.922 64.1612C295.683 65.1541 294.828 65.9582 293.997 66.4921C292.076 67.7292 289.138 67.8692 287.062 66.9739C285.473 66.2886 282.966 64.1644 283.399 62.2469C283.626 61.2459 285.038 61.2345 285.591 61.8563Z" fill="#334093"/>
<path d="M322.084 139.314C321.506 133.968 320.343 128.182 319.096 122.948C316.716 112.961 313.284 103.227 308.64 94.0836C310.304 92.1173 312.067 90.2552 313.542 88.1326C316.636 83.6758 318.778 78.5598 319.663 73.1899C319.688 73.0385 319.64 72.8562 319.663 72.7015L319.826 72.0504C319.846 71.8925 319.81 71.7216 319.826 71.5621C319.836 71.3017 319.725 70.8882 319.989 70.7482C320.638 62.6925 318.705 55.1153 314.296 48.3846C311.391 43.949 307.497 40.2475 303.219 37.1678L311.137 27.206C315.748 28.2461 319.007 24.0058 317.09 19.7363C314.891 14.8367 306.879 17.0456 307.474 22.8404C307.542 23.5012 308.201 24.7416 308.028 25.2039L300.344 35.1152L299.964 35.068C288.698 28.3877 274.581 26.2554 261.972 30.2417C261.121 28.8207 260.433 27.3183 259.708 25.8322C259.387 25.1746 259.04 24.5056 258.739 23.8691C257.703 21.6847 256.797 19.4498 255.718 17.2849C255.593 16.5556 256.383 16.0413 256.697 15.4032C258.918 10.9057 253.803 6.17549 249.5 8.70175C245.676 10.948 246.533 17.1123 250.928 18.019C251.4 18.1166 252.016 17.9164 252.357 18.2176L258.447 31.2949C255.891 32.6231 253.305 33.8651 250.919 35.488C243.41 40.5975 237.086 48.5571 234.368 57.2493C232.597 62.9106 232.212 68.152 233.467 74.0037C234.243 77.6222 235.884 80.9249 237.629 84.1495C234.213 89.4413 230.326 95.3386 229.504 101.744C228.884 106.585 229.612 110.231 233.226 113.597C233.682 114.022 234.699 114.401 234.704 115.052C232.12 123.515 230.098 132.201 228.996 140.995L322.114 140.919C322.28 140.816 322.115 139.587 322.086 139.307L322.084 139.314ZM315.756 70.7515V71.401C315.107 71.3977 315.116 70.7515 315.756 70.7515ZM248.448 90.2649V90.1021C248.554 90.1559 248.554 90.2112 248.448 90.2649ZM280.433 118.884C280.185 118.842 279.738 118.798 279.784 118.562C279.839 118.537 280.408 118.702 280.433 118.724C280.455 118.746 280.424 118.832 280.433 118.884ZM243.644 71.8893C241.125 66.9523 240.995 61.0257 243.155 55.9536C248.125 44.2827 260.741 39.9431 272.706 40.4982C287.361 41.1769 307.348 50.3721 308.267 67.0109C308.359 67.0256 308.572 66.9833 308.593 67.0109C308.639 67.0728 308.759 68.585 308.267 68.3131C308.179 70.268 307.687 72.4623 307.128 74.3293C305.336 80.308 301.277 84.0095 295.682 86.5537C291.666 88.38 287.108 89.4917 282.712 89.7766C283.708 91.6827 284.387 93.5139 285.669 95.3598C285.92 95.7211 286.839 96.6164 286.944 96.8524C287.027 97.0445 286.896 97.1747 286.702 97.0933C286.157 96.8589 284.32 94.5052 283.882 93.8932C280.682 89.4234 278.859 81.5907 271.908 82.3166C267.806 82.7447 265.222 86.1321 264.394 89.9345C262.327 99.4226 267.919 110.501 275.562 116.029C276.843 116.955 278.362 117.601 279.621 118.558C273.258 116.449 267.552 110.895 264.774 104.851C264.595 104.462 264.751 103.964 264.235 104.41C263.761 104.82 262.856 106.37 262.288 107.018C259.386 110.324 255.237 112.808 251.136 114.333C251.043 113.874 251.268 114.072 251.485 113.957C255.104 112.021 258.653 109.329 261.224 106.118C261.711 105.509 263.482 103.144 263.709 102.574C263.772 102.414 263.857 102.278 263.801 102.097C261.436 95.8139 261.289 85.5103 268.165 81.9895C268.492 81.8218 269.196 81.8576 268.862 81.34C268.623 80.9672 265.776 80.3715 265.214 80.3503C259.117 80.1127 256.138 85.1473 251.936 88.2205C250.954 88.9383 249.883 89.5894 248.774 90.1005C249.078 89.4462 249.95 89.0457 250.488 88.5623C252.257 86.9655 253.657 84.9861 255.206 83.4382C253.078 82.0155 250.895 80.5587 249.018 78.8056C247.312 77.2104 245.94 75.2669 244.694 73.5235" fill="url(#paint2_linear_2415_72877)"/>
<path d="M282.712 89.7759C283.707 91.682 284.387 93.5133 285.669 95.3591C285.92 95.7205 286.839 96.6157 286.943 96.8518C287.027 97.0438 286.896 97.1741 286.702 97.0927C286.156 96.8583 284.318 94.5045 283.882 93.8925C280.682 89.4227 278.858 81.59 271.907 82.316C267.806 82.7441 265.222 86.1314 264.394 89.9338C262.327 99.422 267.919 110.5 275.562 116.028C276.843 116.954 278.361 117.601 279.621 118.558C273.258 116.448 267.552 110.894 264.774 104.851C264.595 104.461 264.751 103.963 264.235 104.409C263.761 104.82 262.856 106.369 262.288 107.017C259.386 110.323 255.237 112.807 251.136 114.332C251.043 113.873 251.268 114.072 251.485 113.956C255.104 112.021 258.652 109.328 261.224 106.117C261.711 105.508 263.482 103.143 263.708 102.573C263.772 102.414 263.857 102.277 263.801 102.096C261.435 95.8133 261.289 85.5112 268.165 81.9888C268.492 81.8211 269.196 81.8569 268.862 81.3393C268.623 80.9666 265.776 80.3708 265.214 80.3497C259.117 80.112 256.138 85.1466 251.936 88.2198C250.954 88.9377 249.883 89.5888 248.773 90.0999C249.078 89.4455 249.95 89.0451 250.488 88.5616C252.257 86.9648 253.657 84.9855 255.206 83.4375C255.237 83.4066 255.477 83.4001 255.607 83.2747C259.122 79.8988 264.285 77.506 269.046 79.9378C269.419 80.1283 270.653 81.0984 270.772 81.1212C271.301 81.2205 272.9 80.9356 273.799 81.0431C278.51 81.6095 280.776 86.0631 282.717 89.7792L282.712 89.7759Z" fill="#09090A"/>
<path d="M280.433 118.724C280.456 118.745 280.425 118.831 280.433 118.883C280.185 118.841 279.739 118.797 279.784 118.561C279.84 118.537 280.409 118.701 280.433 118.724Z" fill="#334093"/>
<path d="M248.447 90.1016C248.553 90.1553 248.553 90.2106 248.447 90.2643V90.1016Z" fill="#334093"/>
</g>
<path d="M255.5 125.995L255.505 125.065L258.64 122.255C258.893 122.032 259.065 121.818 259.155 121.615C259.248 121.412 259.295 121.208 259.295 121.005C259.295 120.748 259.238 120.518 259.125 120.315C259.012 120.108 258.855 119.945 258.655 119.825C258.455 119.705 258.225 119.645 257.965 119.645C257.698 119.645 257.46 119.708 257.25 119.835C257.043 119.958 256.882 120.123 256.765 120.33C256.648 120.537 256.592 120.76 256.595 121H255.525C255.525 120.533 255.63 120.125 255.84 119.775C256.053 119.422 256.345 119.147 256.715 118.95C257.085 118.75 257.508 118.65 257.985 118.65C258.438 118.65 258.845 118.753 259.205 118.96C259.565 119.163 259.848 119.443 260.055 119.8C260.265 120.157 260.37 120.563 260.37 121.02C260.37 121.35 260.327 121.63 260.24 121.86C260.153 122.09 260.023 122.303 259.85 122.5C259.677 122.697 259.46 122.91 259.2 123.14L256.78 125.3L256.665 125H260.37V125.995H255.5ZM265.716 126.15C265.213 126.15 264.778 126.025 264.411 125.775C264.048 125.525 263.766 125.185 263.566 124.755C263.369 124.322 263.271 123.835 263.271 123.295C263.271 122.752 263.371 122.267 263.571 121.84C263.771 121.41 264.054 121.072 264.421 120.825C264.791 120.575 265.229 120.45 265.736 120.45C266.246 120.45 266.674 120.575 267.021 120.825C267.371 121.072 267.634 121.41 267.811 121.84C267.991 122.27 268.081 122.755 268.081 123.295C268.081 123.835 267.991 124.32 267.811 124.75C267.631 125.18 267.366 125.522 267.016 125.775C266.666 126.025 266.233 126.15 265.716 126.15ZM265.861 125.205C266.204 125.205 266.484 125.123 266.701 124.96C266.918 124.797 267.076 124.572 267.176 124.285C267.276 123.998 267.326 123.668 267.326 123.295C267.326 122.922 267.274 122.592 267.171 122.305C267.071 122.018 266.914 121.795 266.701 121.635C266.491 121.475 266.223 121.395 265.896 121.395C265.549 121.395 265.264 121.48 265.041 121.65C264.818 121.82 264.651 122.048 264.541 122.335C264.434 122.622 264.381 122.942 264.381 123.295C264.381 123.652 264.434 123.975 264.541 124.265C264.651 124.552 264.814 124.78 265.031 124.95C265.251 125.12 265.528 125.205 265.861 125.205ZM267.326 126V122.115H267.206V118.8H268.256V126H267.326ZM271.18 126.15C270.78 126.15 270.445 126.077 270.175 125.93C269.905 125.78 269.7 125.583 269.56 125.34C269.423 125.093 269.355 124.823 269.355 124.53C269.355 124.257 269.403 124.017 269.5 123.81C269.597 123.603 269.74 123.428 269.93 123.285C270.12 123.138 270.353 123.02 270.63 122.93C270.87 122.86 271.142 122.798 271.445 122.745C271.748 122.692 272.067 122.642 272.4 122.595C272.737 122.548 273.07 122.502 273.4 122.455L273.02 122.665C273.027 122.242 272.937 121.928 272.75 121.725C272.567 121.518 272.25 121.415 271.8 121.415C271.517 121.415 271.257 121.482 271.02 121.615C270.783 121.745 270.618 121.962 270.525 122.265L269.55 121.965C269.683 121.502 269.937 121.133 270.31 120.86C270.687 120.587 271.187 120.45 271.81 120.45C272.293 120.45 272.713 120.533 273.07 120.7C273.43 120.863 273.693 121.123 273.86 121.48C273.947 121.657 274 121.843 274.02 122.04C274.04 122.237 274.05 122.448 274.05 122.675V126H273.125V124.765L273.305 124.925C273.082 125.338 272.797 125.647 272.45 125.85C272.107 126.05 271.683 126.15 271.18 126.15ZM271.365 125.295C271.662 125.295 271.917 125.243 272.13 125.14C272.343 125.033 272.515 124.898 272.645 124.735C272.775 124.572 272.86 124.402 272.9 124.225C272.957 124.065 272.988 123.885 272.995 123.685C273.005 123.485 273.01 123.325 273.01 123.205L273.35 123.33C273.02 123.38 272.72 123.425 272.45 123.465C272.18 123.505 271.935 123.545 271.715 123.585C271.498 123.622 271.305 123.667 271.135 123.72C270.992 123.77 270.863 123.83 270.75 123.9C270.64 123.97 270.552 124.055 270.485 124.155C270.422 124.255 270.39 124.377 270.39 124.52C270.39 124.66 270.425 124.79 270.495 124.91C270.565 125.027 270.672 125.12 270.815 125.19C270.958 125.26 271.142 125.295 271.365 125.295ZM275.776 128.4L276.821 125.555L276.836 126.395L274.481 120.6H275.571L277.331 125.075H277.011L278.691 120.6H279.751L276.771 128.4H275.776ZM284.601 126.145C283.944 126.145 283.409 126 282.996 125.71C282.583 125.42 282.329 125.012 282.236 124.485L283.306 124.32C283.373 124.6 283.526 124.822 283.766 124.985C284.009 125.145 284.311 125.225 284.671 125.225C284.998 125.225 285.253 125.158 285.436 125.025C285.623 124.892 285.716 124.708 285.716 124.475C285.716 124.338 285.683 124.228 285.616 124.145C285.553 124.058 285.418 123.977 285.211 123.9C285.004 123.823 284.689 123.728 284.266 123.615C283.803 123.495 283.434 123.367 283.161 123.23C282.891 123.09 282.698 122.928 282.581 122.745C282.468 122.558 282.411 122.333 282.411 122.07C282.411 121.743 282.498 121.458 282.671 121.215C282.844 120.972 283.088 120.783 283.401 120.65C283.718 120.517 284.088 120.45 284.511 120.45C284.924 120.45 285.293 120.515 285.616 120.645C285.939 120.775 286.201 120.96 286.401 121.2C286.601 121.437 286.721 121.715 286.761 122.035L285.691 122.23C285.654 121.97 285.533 121.765 285.326 121.615C285.119 121.465 284.851 121.383 284.521 121.37C284.204 121.357 283.948 121.41 283.751 121.53C283.554 121.647 283.456 121.808 283.456 122.015C283.456 122.135 283.493 122.237 283.566 122.32C283.643 122.403 283.789 122.483 284.006 122.56C284.223 122.637 284.543 122.728 284.966 122.835C285.419 122.952 285.779 123.082 286.046 123.225C286.313 123.365 286.503 123.533 286.616 123.73C286.733 123.923 286.791 124.158 286.791 124.435C286.791 124.968 286.596 125.387 286.206 125.69C285.819 125.993 285.284 126.145 284.601 126.145ZM290.987 126C290.647 126.067 290.314 126.095 289.987 126.085C289.661 126.075 289.369 126.012 289.112 125.895C288.856 125.778 288.662 125.595 288.532 125.345C288.416 125.122 288.352 124.895 288.342 124.665C288.336 124.432 288.332 124.168 288.332 123.875V119.1H289.382V123.825C289.382 124.042 289.384 124.23 289.387 124.39C289.394 124.55 289.429 124.685 289.492 124.795C289.612 125.002 289.802 125.12 290.062 125.15C290.326 125.177 290.634 125.165 290.987 125.115V126ZM287.297 121.44V120.6H290.987V121.44H287.297ZM292.126 126V120.6H293.056V121.91L292.926 121.74C292.992 121.567 293.079 121.408 293.186 121.265C293.292 121.118 293.416 120.998 293.556 120.905C293.692 120.805 293.844 120.728 294.011 120.675C294.181 120.618 294.354 120.585 294.531 120.575C294.707 120.562 294.877 120.57 295.041 120.6V121.58C294.864 121.533 294.667 121.52 294.451 121.54C294.237 121.56 294.041 121.628 293.861 121.745C293.691 121.855 293.556 121.988 293.456 122.145C293.359 122.302 293.289 122.477 293.246 122.67C293.202 122.86 293.181 123.062 293.181 123.275V126H292.126ZM298.29 126.15C297.754 126.15 297.282 126.033 296.875 125.8C296.472 125.563 296.157 125.235 295.93 124.815C295.707 124.392 295.595 123.902 295.595 123.345C295.595 122.755 295.705 122.243 295.925 121.81C296.149 121.377 296.459 121.042 296.855 120.805C297.252 120.568 297.714 120.45 298.24 120.45C298.79 120.45 299.259 120.578 299.645 120.835C300.032 121.088 300.32 121.45 300.51 121.92C300.704 122.39 300.78 122.948 300.74 123.595H299.695V123.215C299.689 122.588 299.569 122.125 299.335 121.825C299.105 121.525 298.754 121.375 298.28 121.375C297.757 121.375 297.364 121.54 297.1 121.87C296.837 122.2 296.705 122.677 296.705 123.3C296.705 123.893 296.837 124.353 297.1 124.68C297.364 125.003 297.744 125.165 298.24 125.165C298.567 125.165 298.849 125.092 299.085 124.945C299.325 124.795 299.512 124.582 299.645 124.305L300.67 124.63C300.46 125.113 300.142 125.488 299.715 125.755C299.289 126.018 298.814 126.15 298.29 126.15ZM296.365 123.595V122.78H300.22V123.595H296.365ZM303.289 126.15C302.889 126.15 302.554 126.077 302.284 125.93C302.014 125.78 301.809 125.583 301.669 125.34C301.533 125.093 301.464 124.823 301.464 124.53C301.464 124.257 301.513 124.017 301.609 123.81C301.706 123.603 301.849 123.428 302.039 123.285C302.229 123.138 302.463 123.02 302.739 122.93C302.979 122.86 303.251 122.798 303.554 122.745C303.858 122.692 304.176 122.642 304.509 122.595C304.846 122.548 305.179 122.502 305.509 122.455L305.129 122.665C305.136 122.242 305.046 121.928 304.859 121.725C304.676 121.518 304.359 121.415 303.909 121.415C303.626 121.415 303.366 121.482 303.129 121.615C302.893 121.745 302.728 121.962 302.634 122.265L301.659 121.965C301.793 121.502 302.046 121.133 302.419 120.86C302.796 120.587 303.296 120.45 303.919 120.45C304.403 120.45 304.823 120.533 305.179 120.7C305.539 120.863 305.803 121.123 305.969 121.48C306.056 121.657 306.109 121.843 306.129 122.04C306.149 122.237 306.159 122.448 306.159 122.675V126H305.234V124.765L305.414 124.925C305.191 125.338 304.906 125.647 304.559 125.85C304.216 126.05 303.793 126.15 303.289 126.15ZM303.474 125.295C303.771 125.295 304.026 125.243 304.239 125.14C304.453 125.033 304.624 124.898 304.754 124.735C304.884 124.572 304.969 124.402 305.009 124.225C305.066 124.065 305.098 123.885 305.104 123.685C305.114 123.485 305.119 123.325 305.119 123.205L305.459 123.33C305.129 123.38 304.829 123.425 304.559 123.465C304.289 123.505 304.044 123.545 303.824 123.585C303.608 123.622 303.414 123.667 303.244 123.72C303.101 123.77 302.973 123.83 302.859 123.9C302.749 123.97 302.661 124.055 302.594 124.155C302.531 124.255 302.499 124.377 302.499 124.52C302.499 124.66 302.534 124.79 302.604 124.91C302.674 125.027 302.781 125.12 302.924 125.19C303.068 125.26 303.251 125.295 303.474 125.295ZM307.453 126L307.458 118.8H308.518V123.2L310.638 120.6H311.968L309.728 123.3L312.198 126H310.778L308.518 123.4V126H307.453Z" fill="#FA7315"/>
<path d="M243.686 114.012C243.949 113.956 244.294 114.101 244.4 114.371C244.472 114.553 244.459 114.75 244.446 114.943C244.336 116.592 243.888 118.347 243.746 120.008C243.741 120.159 243.815 120.251 243.953 120.271C245.087 120.434 247.108 119.782 247.79 121.039C248.169 121.737 247.988 122.283 247.641 122.915C246.087 125.739 244.207 128.45 242.62 131.261C242.172 131.801 241.41 131.36 241.514 130.677L242.224 125.461C242.202 125.321 242.146 125.249 242.013 125.23C240.484 125.01 237.603 126.016 238.046 123.13C239.714 120.339 241.309 117.469 243.046 114.722C243.208 114.465 243.378 114.079 243.686 114.013V114.012Z" fill="#FA7315"/>
<defs>
<linearGradient id="paint0_linear_2415_72877" x1="2.13543e-06" y1="136.555" x2="361" y2="4.4448" gradientUnits="userSpaceOnUse">
<stop stop-color="#4764FF"/>
<stop offset="0.610577" stop-color="#080809"/>
</linearGradient>
<linearGradient id="paint1_linear_2415_72877" x1="274.96" y1="40.4492" x2="274.96" y2="89.7728" gradientUnits="userSpaceOnUse">
<stop stop-color="#9AC0FF"/>
<stop offset="1" stop-color="#67A1FF"/>
</linearGradient>
<linearGradient id="paint2_linear_2415_72877" x1="275.592" y1="7.99609" x2="275.592" y2="140.995" gradientUnits="userSpaceOnUse">
<stop stop-color="#3D66FE"/>
<stop offset="1" stop-color="#253E9A"/>
</linearGradient>
<clipPath id="clip0_2415_72877">
<rect width="9" height="10" fill="white" transform="translate(20 113)"/>
</clipPath>
<clipPath id="clip1_2415_72877">
<rect width="151" height="133" fill="white" transform="translate(201 8)"/>
</clipPath>
</defs>
</svg>
