<svg width="361" height="141" viewBox="0 0 361 141" fill="none" xmlns="http://www.w3.org/2000/svg">
<path d="M0 12C0 5.37258 5.37258 0 12 0H349C355.627 0 361 5.37258 361 12V129C361 135.627 355.627 141 349 141H12C5.37257 141 0 135.627 0 129V12Z" fill="url(#paint0_linear_2415_72993)"/>
<path d="M19.992 35V25.056H16.16V23.48H25.496V25.056H21.664V35H19.992ZM29.247 35.24C28.383 35.24 27.6337 35.0453 26.999 34.656C26.3643 34.2667 25.8737 33.7307 25.527 33.048C25.1857 32.36 25.015 31.568 25.015 30.672C25.015 29.7707 25.191 28.9787 25.543 28.296C25.895 27.608 26.3883 27.0747 27.023 26.696C27.6577 26.312 28.399 26.12 29.247 26.12C30.111 26.12 30.8603 26.3147 31.495 26.704C32.1297 27.0933 32.6203 27.6293 32.967 28.312C33.3137 28.9947 33.487 29.7813 33.487 30.672C33.487 31.5733 33.311 32.368 32.959 33.056C32.6123 33.7387 32.1217 34.2747 31.487 34.664C30.8523 35.048 30.1057 35.24 29.247 35.24ZM29.247 33.664C30.0737 33.664 30.6897 33.3867 31.095 32.832C31.5057 32.272 31.711 31.552 31.711 30.672C31.711 29.7707 31.503 29.0507 31.087 28.512C30.6763 27.968 30.063 27.696 29.247 27.696C28.687 27.696 28.2257 27.824 27.863 28.08C27.5003 28.3307 27.231 28.68 27.055 29.128C26.879 29.5707 26.791 30.0853 26.791 30.672C26.791 31.5787 26.999 32.304 27.415 32.848C27.831 33.392 28.4417 33.664 29.247 33.664ZM38.677 35.24C37.8717 35.24 37.1757 35.04 36.589 34.64C36.0077 34.24 35.557 33.696 35.237 33.008C34.9223 32.3147 34.765 31.536 34.765 30.672C34.765 29.8027 34.925 29.0267 35.245 28.344C35.565 27.656 36.0183 27.1147 36.605 26.72C37.197 26.32 37.8983 26.12 38.709 26.12C39.525 26.12 40.2103 26.32 40.765 26.72C41.325 27.1147 41.7463 27.656 42.029 28.344C42.317 29.032 42.461 29.808 42.461 30.672C42.461 31.536 42.317 32.312 42.029 33C41.741 33.688 41.317 34.2347 40.757 34.64C40.197 35.04 39.5037 35.24 38.677 35.24ZM38.909 33.728C39.4583 33.728 39.9063 33.5973 40.253 33.336C40.5997 33.0747 40.853 32.7147 41.013 32.256C41.173 31.7973 41.253 31.2693 41.253 30.672C41.253 30.0747 41.1703 29.5467 41.005 29.088C40.845 28.6293 40.5943 28.272 40.253 28.016C39.917 27.76 39.4877 27.632 38.965 27.632C38.4103 27.632 37.9543 27.768 37.597 28.04C37.2397 28.312 36.973 28.6773 36.797 29.136C36.6263 29.5947 36.541 30.1067 36.541 30.672C36.541 31.2427 36.6263 31.76 36.797 32.224C36.973 32.6827 37.2343 33.048 37.581 33.32C37.933 33.592 38.3757 33.728 38.909 33.728ZM41.253 35V28.784H41.061V23.48H42.741V35H41.253ZM47.4194 35.24C46.7794 35.24 46.2434 35.1227 45.8114 34.888C45.3794 34.648 45.0514 34.3333 44.8274 33.944C44.6087 33.5493 44.4994 33.1173 44.4994 32.648C44.4994 32.2107 44.5767 31.8267 44.7314 31.496C44.886 31.1653 45.1154 30.8853 45.4194 30.656C45.7234 30.4213 46.0967 30.232 46.5394 30.088C46.9234 29.976 47.358 29.8773 47.8434 29.792C48.3287 29.7067 48.838 29.6267 49.3714 29.552C49.91 29.4773 50.4434 29.4027 50.9714 29.328L50.3634 29.664C50.374 28.9867 50.23 28.4853 49.9314 28.16C49.638 27.8293 49.1314 27.664 48.4114 27.664C47.958 27.664 47.542 27.7707 47.1634 27.984C46.7847 28.192 46.5207 28.5387 46.3714 29.024L44.8114 28.544C45.0247 27.8027 45.43 27.2133 46.0274 26.776C46.63 26.3387 47.43 26.12 48.4274 26.12C49.2007 26.12 49.8727 26.2533 50.4434 26.52C51.0194 26.7813 51.4407 27.1973 51.7074 27.768C51.846 28.0507 51.9314 28.3493 51.9634 28.664C51.9954 28.9787 52.0114 29.3173 52.0114 29.68V35H50.5314V33.024L50.8194 33.28C50.462 33.9413 50.006 34.4347 49.4514 34.76C48.902 35.08 48.2247 35.24 47.4194 35.24ZM47.7154 33.872C48.19 33.872 48.598 33.7893 48.9394 33.624C49.2807 33.4533 49.5554 33.2373 49.7634 32.976C49.9714 32.7147 50.1074 32.4427 50.1714 32.16C50.262 31.904 50.3127 31.616 50.3234 31.296C50.3394 30.976 50.3474 30.72 50.3474 30.528L50.8914 30.728C50.3634 30.808 49.8834 30.88 49.4514 30.944C49.0194 31.008 48.6274 31.072 48.2754 31.136C47.9287 31.1947 47.6194 31.2667 47.3474 31.352C47.118 31.432 46.9127 31.528 46.7314 31.64C46.5554 31.752 46.414 31.888 46.3074 32.048C46.206 32.208 46.1554 32.4027 46.1554 32.632C46.1554 32.856 46.2114 33.064 46.3234 33.256C46.4354 33.4427 46.606 33.592 46.8354 33.704C47.0647 33.816 47.358 33.872 47.7154 33.872ZM54.7724 38.84L56.4444 34.288L56.4684 35.632L52.7004 26.36H54.4444L57.2604 33.52H56.7484L59.4364 26.36H61.1324L56.3644 38.84H54.7724ZM62.5456 27.32L62.6496 26.576C62.879 26.592 63.0576 26.5493 63.1856 26.448C63.3136 26.3467 63.399 26.2053 63.4416 26.024C63.4843 25.8427 63.4923 25.6373 63.4656 25.408H62.5456V23.48H64.3136V25.568C64.3136 26.1973 64.1616 26.672 63.8576 26.992C63.559 27.312 63.1216 27.4213 62.5456 27.32ZM68.6271 35.232C67.5765 35.232 66.7205 35 66.0591 34.536C65.3978 34.072 64.9925 33.4187 64.8431 32.576L66.5551 32.312C66.6618 32.76 66.9071 33.1147 67.2911 33.376C67.6805 33.632 68.1631 33.76 68.7391 33.76C69.2618 33.76 69.6698 33.6533 69.9631 33.44C70.2618 33.2267 70.4111 32.9333 70.4111 32.56C70.4111 32.3413 70.3578 32.1653 70.2511 32.032C70.1498 31.8933 69.9338 31.7627 69.6031 31.64C69.2725 31.5173 68.7685 31.3653 68.0911 31.184C67.3498 30.992 66.7605 30.7867 66.3231 30.568C65.8911 30.344 65.5818 30.0853 65.3951 29.792C65.2138 29.4933 65.1231 29.1333 65.1231 28.712C65.1231 28.1893 65.2618 27.7333 65.5391 27.344C65.8165 26.9547 66.2058 26.6533 66.7071 26.44C67.2138 26.2267 67.8058 26.12 68.4831 26.12C69.1445 26.12 69.7338 26.224 70.2511 26.432C70.7685 26.64 71.1871 26.936 71.5071 27.32C71.8271 27.6987 72.0191 28.144 72.0831 28.656L70.3711 28.968C70.3125 28.552 70.1178 28.224 69.7871 27.984C69.4565 27.744 69.0271 27.6133 68.4991 27.592C67.9925 27.5707 67.5818 27.656 67.2671 27.848C66.9525 28.0347 66.7951 28.2933 66.7951 28.624C66.7951 28.816 66.8538 28.9787 66.9711 29.112C67.0938 29.2453 67.3285 29.3733 67.6751 29.496C68.0218 29.6187 68.5338 29.7653 69.2111 29.936C69.9365 30.1227 70.5125 30.3307 70.9391 30.56C71.3658 30.784 71.6698 31.0533 71.8511 31.368C72.0378 31.6773 72.1311 32.0533 72.1311 32.496C72.1311 33.3493 71.8191 34.0187 71.1951 34.504C70.5765 34.9893 69.7205 35.232 68.6271 35.232ZM81.1604 35.24C80.3337 35.24 79.6404 35.04 79.0804 34.64C78.5204 34.2347 78.0964 33.688 77.8084 33C77.5204 32.312 77.3764 31.536 77.3764 30.672C77.3764 29.808 77.5177 29.032 77.8004 28.344C78.0884 27.656 78.5097 27.1147 79.0644 26.72C79.6244 26.32 80.3124 26.12 81.1284 26.12C81.939 26.12 82.6377 26.32 83.2244 26.72C83.8164 27.1147 84.2724 27.656 84.5924 28.344C84.9124 29.0267 85.0724 29.8027 85.0724 30.672C85.0724 31.536 84.9124 32.3147 84.5924 33.008C84.2777 33.696 83.827 34.24 83.2404 34.64C82.659 35.04 81.9657 35.24 81.1604 35.24ZM77.0964 38.84V26.36H78.5844V32.576H78.7764V38.84H77.0964ZM80.9284 33.728C81.4617 33.728 81.9017 33.592 82.2484 33.32C82.6004 33.048 82.8617 32.6827 83.0324 32.224C83.2084 31.76 83.2964 31.2427 83.2964 30.672C83.2964 30.1067 83.2084 29.5947 83.0324 29.136C82.8617 28.6773 82.5977 28.312 82.2404 28.04C81.883 27.768 81.427 27.632 80.8724 27.632C80.3497 27.632 79.9177 27.76 79.5764 28.016C79.2404 28.272 78.9897 28.6293 78.8244 29.088C78.6644 29.5467 78.5844 30.0747 78.5844 30.672C78.5844 31.2693 78.6644 31.7973 78.8244 32.256C78.9844 32.7147 79.2377 33.0747 79.5844 33.336C79.931 33.5973 80.379 33.728 80.9284 33.728ZM86.8388 35V26.36H88.3268V28.456L88.1188 28.184C88.2254 27.9067 88.3641 27.6533 88.5348 27.424C88.7054 27.1893 88.9028 26.9973 89.1268 26.848C89.3454 26.688 89.5881 26.5653 89.8548 26.48C90.1268 26.3893 90.4041 26.336 90.6868 26.32C90.9694 26.2987 91.2414 26.312 91.5028 26.36V27.928C91.2201 27.8533 90.9054 27.832 90.5588 27.864C90.2174 27.896 89.9028 28.0053 89.6148 28.192C89.3428 28.368 89.1268 28.5813 88.9668 28.832C88.8121 29.0827 88.7001 29.3627 88.6308 29.672C88.5614 29.976 88.5268 30.2987 88.5268 30.64V35H86.8388ZM96.622 35.24C95.758 35.24 95.0087 35.0453 94.374 34.656C93.7393 34.2667 93.2487 33.7307 92.902 33.048C92.5607 32.36 92.39 31.568 92.39 30.672C92.39 29.7707 92.566 28.9787 92.918 28.296C93.27 27.608 93.7633 27.0747 94.398 26.696C95.0327 26.312 95.774 26.12 96.622 26.12C97.486 26.12 98.2353 26.3147 98.87 26.704C99.5047 27.0933 99.9953 27.6293 100.342 28.312C100.689 28.9947 100.862 29.7813 100.862 30.672C100.862 31.5733 100.686 32.368 100.334 33.056C99.9873 33.7387 99.4967 34.2747 98.862 34.664C98.2273 35.048 97.4807 35.24 96.622 35.24ZM96.622 33.664C97.4487 33.664 98.0647 33.3867 98.47 32.832C98.8807 32.272 99.086 31.552 99.086 30.672C99.086 29.7707 98.878 29.0507 98.462 28.512C98.0513 27.968 97.438 27.696 96.622 27.696C96.062 27.696 95.6007 27.824 95.238 28.08C94.8753 28.3307 94.606 28.68 94.43 29.128C94.254 29.5707 94.166 30.0853 94.166 30.672C94.166 31.5787 94.374 32.304 94.79 32.848C95.206 33.392 95.8167 33.664 96.622 33.664ZM106.18 39.08C105.716 39.08 105.265 39.008 104.828 38.864C104.396 38.72 104.001 38.5067 103.644 38.224C103.287 37.9467 102.991 37.6027 102.756 37.192L104.3 36.408C104.487 36.776 104.753 37.0453 105.1 37.216C105.447 37.3867 105.812 37.472 106.196 37.472C106.671 37.472 107.076 37.3867 107.412 37.216C107.748 37.0507 108.001 36.8 108.172 36.464C108.348 36.128 108.433 35.712 108.428 35.216V32.8H108.628V26.36H110.108V35.232C110.108 35.4613 110.1 35.68 110.084 35.888C110.068 36.096 110.039 36.304 109.996 36.512C109.873 37.0933 109.639 37.5733 109.292 37.952C108.951 38.3307 108.513 38.6133 107.98 38.8C107.452 38.9867 106.852 39.08 106.18 39.08ZM106.052 35.24C105.247 35.24 104.551 35.04 103.964 34.64C103.383 34.24 102.932 33.696 102.612 33.008C102.297 32.3147 102.14 31.536 102.14 30.672C102.14 29.8027 102.3 29.0267 102.62 28.344C102.94 27.656 103.393 27.1147 103.98 26.72C104.572 26.32 105.273 26.12 106.084 26.12C106.9 26.12 107.585 26.32 108.14 26.72C108.7 27.1147 109.121 27.656 109.404 28.344C109.692 29.032 109.836 29.808 109.836 30.672C109.836 31.536 109.692 32.312 109.404 33C109.116 33.688 108.692 34.2347 108.132 34.64C107.572 35.04 106.879 35.24 106.052 35.24ZM106.284 33.728C106.833 33.728 107.281 33.5973 107.628 33.336C107.975 33.0747 108.228 32.7147 108.388 32.256C108.548 31.7973 108.628 31.2693 108.628 30.672C108.628 30.0747 108.545 29.5467 108.38 29.088C108.22 28.6293 107.969 28.272 107.628 28.016C107.292 27.76 106.863 27.632 106.34 27.632C105.785 27.632 105.329 27.768 104.972 28.04C104.615 28.312 104.348 28.6773 104.172 29.136C104.001 29.5947 103.916 30.1067 103.916 30.672C103.916 31.2427 104.001 31.76 104.172 32.224C104.348 32.6827 104.609 33.048 104.956 33.32C105.308 33.592 105.751 33.728 106.284 33.728ZM112.354 35V26.36H113.842V28.456L113.634 28.184C113.741 27.9067 113.88 27.6533 114.05 27.424C114.221 27.1893 114.418 26.9973 114.642 26.848C114.861 26.688 115.104 26.5653 115.37 26.48C115.642 26.3893 115.92 26.336 116.202 26.32C116.485 26.2987 116.757 26.312 117.018 26.36V27.928C116.736 27.8533 116.421 27.832 116.074 27.864C115.733 27.896 115.418 28.0053 115.13 28.192C114.858 28.368 114.642 28.5813 114.482 28.832C114.328 29.0827 114.216 29.3627 114.146 29.672C114.077 29.976 114.042 30.2987 114.042 30.64V35H112.354ZM122.218 35.24C121.359 35.24 120.604 35.0533 119.954 34.68C119.308 34.3013 118.804 33.776 118.442 33.104C118.084 32.4267 117.906 31.6427 117.906 30.752C117.906 29.808 118.082 28.9893 118.434 28.296C118.791 27.6027 119.287 27.0667 119.922 26.688C120.556 26.3093 121.295 26.12 122.138 26.12C123.018 26.12 123.767 26.3253 124.386 26.736C125.004 27.1413 125.466 27.72 125.77 28.472C126.079 29.224 126.202 30.1173 126.138 31.152H124.466V30.544C124.455 29.5413 124.263 28.8 123.89 28.32C123.522 27.84 122.959 27.6 122.202 27.6C121.364 27.6 120.735 27.864 120.314 28.392C119.892 28.92 119.682 29.6827 119.682 30.68C119.682 31.6293 119.892 32.3653 120.314 32.888C120.735 33.4053 121.343 33.664 122.138 33.664C122.66 33.664 123.111 33.5467 123.49 33.312C123.874 33.072 124.172 32.7307 124.386 32.288L126.026 32.808C125.69 33.5813 125.18 34.1813 124.498 34.608C123.815 35.0293 123.055 35.24 122.218 35.24ZM119.138 31.152V29.848H125.306V31.152H119.138ZM131.237 35.232C130.186 35.232 129.33 35 128.669 34.536C128.007 34.072 127.602 33.4187 127.453 32.576L129.164 32.312C129.271 32.76 129.517 33.1147 129.901 33.376C130.29 33.632 130.773 33.76 131.349 33.76C131.871 33.76 132.279 33.6533 132.573 33.44C132.871 33.2267 133.021 32.9333 133.021 32.56C133.021 32.3413 132.967 32.1653 132.861 32.032C132.759 31.8933 132.543 31.7627 132.213 31.64C131.882 31.5173 131.378 31.3653 130.701 31.184C129.959 30.992 129.37 30.7867 128.933 30.568C128.501 30.344 128.191 30.0853 128.005 29.792C127.823 29.4933 127.733 29.1333 127.733 28.712C127.733 28.1893 127.871 27.7333 128.149 27.344C128.426 26.9547 128.815 26.6533 129.317 26.44C129.823 26.2267 130.415 26.12 131.093 26.12C131.754 26.12 132.343 26.224 132.861 26.432C133.378 26.64 133.797 26.936 134.117 27.32C134.437 27.6987 134.629 28.144 134.693 28.656L132.981 28.968C132.922 28.552 132.727 28.224 132.397 27.984C132.066 27.744 131.637 27.6133 131.109 27.592C130.602 27.5707 130.191 27.656 129.877 27.848C129.562 28.0347 129.405 28.2933 129.405 28.624C129.405 28.816 129.463 28.9787 129.581 29.112C129.703 29.2453 129.938 29.3733 130.285 29.496C130.631 29.6187 131.143 29.7653 131.821 29.936C132.546 30.1227 133.122 30.3307 133.549 30.56C133.975 30.784 134.279 31.0533 134.461 31.368C134.647 31.6773 134.741 32.0533 134.741 32.496C134.741 33.3493 134.429 34.0187 133.805 34.504C133.186 34.9893 132.33 35.232 131.237 35.232ZM139.815 35.232C138.764 35.232 137.908 35 137.247 34.536C136.585 34.072 136.18 33.4187 136.031 32.576L137.743 32.312C137.849 32.76 138.095 33.1147 138.479 33.376C138.868 33.632 139.351 33.76 139.927 33.76C140.449 33.76 140.857 33.6533 141.151 33.44C141.449 33.2267 141.599 32.9333 141.599 32.56C141.599 32.3413 141.545 32.1653 141.439 32.032C141.337 31.8933 141.121 31.7627 140.791 31.64C140.46 31.5173 139.956 31.3653 139.279 31.184C138.537 30.992 137.948 30.7867 137.511 30.568C137.079 30.344 136.769 30.0853 136.583 29.792C136.401 29.4933 136.311 29.1333 136.311 28.712C136.311 28.1893 136.449 27.7333 136.727 27.344C137.004 26.9547 137.393 26.6533 137.895 26.44C138.401 26.2267 138.993 26.12 139.671 26.12C140.332 26.12 140.921 26.224 141.439 26.432C141.956 26.64 142.375 26.936 142.695 27.32C143.015 27.6987 143.207 28.144 143.271 28.656L141.559 28.968C141.5 28.552 141.305 28.224 140.975 27.984C140.644 27.744 140.215 27.6133 139.687 27.592C139.18 27.5707 138.769 27.656 138.455 27.848C138.14 28.0347 137.983 28.2933 137.983 28.624C137.983 28.816 138.041 28.9787 138.159 29.112C138.281 29.2453 138.516 29.3733 138.863 29.496C139.209 29.6187 139.721 29.7653 140.399 29.936C141.124 30.1227 141.7 30.3307 142.127 30.56C142.553 30.784 142.857 31.0533 143.039 31.368C143.225 31.6773 143.319 32.0533 143.319 32.496C143.319 33.3493 143.007 34.0187 142.383 34.504C141.764 34.9893 140.908 35.232 139.815 35.232Z" fill="#DCDBDB"/>
<path d="M31.12 91.768C22.144 91.768 17.536 87.256 17.296 80.728H25.168C25.408 83.128 27.184 85.192 30.64 85.192C33.712 85.192 35.68 83.32 35.68 79.672C35.68 76.168 34 74.104 30.496 74.104C28.72 74.104 26.8 74.824 25.456 76.504H17.776L21.616 57.832H42.592V64.408H27.184L25.936 70.744V70.84C27.76 69.4 30.016 68.488 33.04 68.488C39.616 68.488 44.032 72.664 44.032 79.768C44.032 87.736 38.464 91.768 31.12 91.768Z" fill="white"/>
<path d="M51.3119 91H46.1119L57.1919 62.4H62.3919L51.3119 91ZM74.8178 91.64C65.6978 91.64 62.7378 84.76 62.7378 77.56C62.7378 67.56 67.4978 62.72 74.5778 62.72C79.9378 62.72 83.9778 65.92 84.8578 70.36H77.9778C77.7778 69.4 76.9778 67.8 74.4578 67.8C71.0178 67.8 69.5378 70.4 69.5378 74V74.44L69.6978 74.56C71.1378 73.2 73.0978 72.16 76.1378 72.16C81.8578 72.16 85.6578 76.24 85.6578 81.52C85.6578 87.64 81.4578 91.64 74.8178 91.64ZM74.4178 86.56C77.3778 86.56 79.0978 84.56 79.0978 81.88C79.0978 79.24 77.3778 77.24 74.4178 77.24C71.4178 77.24 69.6978 79.24 69.6978 81.88C69.6978 84.56 71.4178 86.56 74.4178 86.56Z" fill="#A6B4FF"/>
<path d="M36.7 121V113.8H39.53C39.9867 113.8 40.37 113.893 40.68 114.08C40.99 114.267 41.2233 114.508 41.38 114.805C41.5367 115.098 41.615 115.408 41.615 115.735C41.615 116.132 41.5167 116.472 41.32 116.755C41.1267 117.038 40.865 117.232 40.535 117.335L40.525 117.09C40.985 117.203 41.3383 117.425 41.585 117.755C41.8317 118.082 41.955 118.463 41.955 118.9C41.955 119.323 41.87 119.692 41.7 120.005C41.5333 120.318 41.2883 120.563 40.965 120.74C40.645 120.913 40.2567 121 39.8 121H36.7ZM37.76 120.005H39.64C39.8767 120.005 40.0883 119.96 40.275 119.87C40.465 119.78 40.6133 119.652 40.72 119.485C40.83 119.315 40.885 119.113 40.885 118.88C40.885 118.663 40.8367 118.468 40.74 118.295C40.6467 118.118 40.51 117.98 40.33 117.88C40.1533 117.777 39.945 117.725 39.705 117.725H37.76V120.005ZM37.76 116.74H39.515C39.7083 116.74 39.8817 116.702 40.035 116.625C40.1917 116.545 40.315 116.432 40.405 116.285C40.4983 116.135 40.545 115.955 40.545 115.745C40.545 115.465 40.4517 115.235 40.265 115.055C40.0783 114.875 39.8283 114.785 39.515 114.785H37.76V116.74ZM45.295 121.15C44.755 121.15 44.2867 121.028 43.89 120.785C43.4933 120.542 43.1867 120.207 42.97 119.78C42.7567 119.35 42.65 118.855 42.65 118.295C42.65 117.732 42.76 117.237 42.98 116.81C43.2 116.38 43.5083 116.047 43.905 115.81C44.3017 115.57 44.765 115.45 45.295 115.45C45.835 115.45 46.3033 115.572 46.7 115.815C47.0967 116.058 47.4033 116.393 47.62 116.82C47.8367 117.247 47.945 117.738 47.945 118.295C47.945 118.858 47.835 119.355 47.615 119.785C47.3983 120.212 47.0917 120.547 46.695 120.79C46.2983 121.03 45.8317 121.15 45.295 121.15ZM45.295 120.165C45.8117 120.165 46.1967 119.992 46.45 119.645C46.7067 119.295 46.835 118.845 46.835 118.295C46.835 117.732 46.705 117.282 46.445 116.945C46.1883 116.605 45.805 116.435 45.295 116.435C44.945 116.435 44.6567 116.515 44.43 116.675C44.2033 116.832 44.035 117.05 43.925 117.33C43.815 117.607 43.76 117.928 43.76 118.295C43.76 118.862 43.89 119.315 44.15 119.655C44.41 119.995 44.7917 120.165 45.295 120.165ZM51.0111 121.145C50.3544 121.145 49.8194 121 49.4061 120.71C48.9928 120.42 48.7394 120.012 48.6461 119.485L49.7161 119.32C49.7828 119.6 49.9361 119.822 50.1761 119.985C50.4194 120.145 50.7211 120.225 51.0811 120.225C51.4078 120.225 51.6628 120.158 51.8461 120.025C52.0328 119.892 52.1261 119.708 52.1261 119.475C52.1261 119.338 52.0928 119.228 52.0261 119.145C51.9628 119.058 51.8278 118.977 51.6211 118.9C51.4144 118.823 51.0994 118.728 50.6761 118.615C50.2128 118.495 49.8444 118.367 49.5711 118.23C49.3011 118.09 49.1078 117.928 48.9911 117.745C48.8778 117.558 48.8211 117.333 48.8211 117.07C48.8211 116.743 48.9078 116.458 49.0811 116.215C49.2544 115.972 49.4978 115.783 49.8111 115.65C50.1278 115.517 50.4978 115.45 50.9211 115.45C51.3344 115.45 51.7028 115.515 52.0261 115.645C52.3494 115.775 52.6111 115.96 52.8111 116.2C53.0111 116.437 53.1311 116.715 53.1711 117.035L52.1011 117.23C52.0644 116.97 51.9428 116.765 51.7361 116.615C51.5294 116.465 51.2611 116.383 50.9311 116.37C50.6144 116.357 50.3578 116.41 50.1611 116.53C49.9644 116.647 49.8661 116.808 49.8661 117.015C49.8661 117.135 49.9028 117.237 49.9761 117.32C50.0528 117.403 50.1994 117.483 50.4161 117.56C50.6328 117.637 50.9528 117.728 51.3761 117.835C51.8294 117.952 52.1894 118.082 52.4561 118.225C52.7228 118.365 52.9128 118.533 53.0261 118.73C53.1428 118.923 53.2011 119.158 53.2011 119.435C53.2011 119.968 53.0061 120.387 52.6161 120.69C52.2294 120.993 51.6944 121.145 51.0111 121.145ZM56.3724 121.145C55.7158 121.145 55.1808 121 54.7674 120.71C54.3541 120.42 54.1008 120.012 54.0074 119.485L55.0774 119.32C55.1441 119.6 55.2974 119.822 55.5374 119.985C55.7808 120.145 56.0824 120.225 56.4424 120.225C56.7691 120.225 57.0241 120.158 57.2074 120.025C57.3941 119.892 57.4874 119.708 57.4874 119.475C57.4874 119.338 57.4541 119.228 57.3874 119.145C57.3241 119.058 57.1891 118.977 56.9824 118.9C56.7758 118.823 56.4608 118.728 56.0374 118.615C55.5741 118.495 55.2058 118.367 54.9324 118.23C54.6624 118.09 54.4691 117.928 54.3524 117.745C54.2391 117.558 54.1824 117.333 54.1824 117.07C54.1824 116.743 54.2691 116.458 54.4424 116.215C54.6158 115.972 54.8591 115.783 55.1724 115.65C55.4891 115.517 55.8591 115.45 56.2824 115.45C56.6958 115.45 57.0641 115.515 57.3874 115.645C57.7108 115.775 57.9724 115.96 58.1724 116.2C58.3724 116.437 58.4924 116.715 58.5324 117.035L57.4624 117.23C57.4258 116.97 57.3041 116.765 57.0974 116.615C56.8908 116.465 56.6224 116.383 56.2924 116.37C55.9758 116.357 55.7191 116.41 55.5224 116.53C55.3258 116.647 55.2274 116.808 55.2274 117.015C55.2274 117.135 55.2641 117.237 55.3374 117.32C55.4141 117.403 55.5608 117.483 55.7774 117.56C55.9941 117.637 56.3141 117.728 56.7374 117.835C57.1908 117.952 57.5508 118.082 57.8174 118.225C58.0841 118.365 58.2741 118.533 58.3874 118.73C58.5041 118.923 58.5624 119.158 58.5624 119.435C58.5624 119.968 58.3674 120.387 57.9774 120.69C57.5908 120.993 57.0558 121.145 56.3724 121.145ZM61.7707 121V113.65H62.8157V121H61.7707ZM66.7122 121.15C66.1755 121.15 65.7039 121.033 65.2972 120.8C64.8939 120.563 64.5789 120.235 64.3522 119.815C64.1289 119.392 64.0172 118.902 64.0172 118.345C64.0172 117.755 64.1272 117.243 64.3472 116.81C64.5705 116.377 64.8805 116.042 65.2772 115.805C65.6739 115.568 66.1355 115.45 66.6622 115.45C67.2122 115.45 67.6805 115.578 68.0672 115.835C68.4539 116.088 68.7422 116.45 68.9322 116.92C69.1255 117.39 69.2022 117.948 69.1622 118.595H68.1172V118.215C68.1105 117.588 67.9905 117.125 67.7572 116.825C67.5272 116.525 67.1755 116.375 66.7022 116.375C66.1789 116.375 65.7855 116.54 65.5222 116.87C65.2589 117.2 65.1272 117.677 65.1272 118.3C65.1272 118.893 65.2589 119.353 65.5222 119.68C65.7855 120.003 66.1655 120.165 66.6622 120.165C66.9889 120.165 67.2705 120.092 67.5072 119.945C67.7472 119.795 67.9339 119.582 68.0672 119.305L69.0922 119.63C68.8822 120.113 68.5639 120.488 68.1372 120.755C67.7105 121.018 67.2355 121.15 66.7122 121.15ZM64.7872 118.595V117.78H68.6422V118.595H64.7872ZM71.5487 121L69.5887 115.6H70.6437L72.0787 119.69L73.5137 115.6H74.5687L72.6087 121H71.5487ZM77.6692 121.15C77.1326 121.15 76.6609 121.033 76.2542 120.8C75.8509 120.563 75.5359 120.235 75.3092 119.815C75.0859 119.392 74.9742 118.902 74.9742 118.345C74.9742 117.755 75.0842 117.243 75.3042 116.81C75.5276 116.377 75.8376 116.042 76.2342 115.805C76.6309 115.568 77.0926 115.45 77.6192 115.45C78.1692 115.45 78.6376 115.578 79.0242 115.835C79.4109 116.088 79.6992 116.45 79.8892 116.92C80.0826 117.39 80.1592 117.948 80.1192 118.595H79.0742V118.215C79.0676 117.588 78.9476 117.125 78.7142 116.825C78.4842 116.525 78.1326 116.375 77.6592 116.375C77.1359 116.375 76.7426 116.54 76.4792 116.87C76.2159 117.2 76.0842 117.677 76.0842 118.3C76.0842 118.893 76.2159 119.353 76.4792 119.68C76.7426 120.003 77.1226 120.165 77.6192 120.165C77.9459 120.165 78.2276 120.092 78.4642 119.945C78.7042 119.795 78.8909 119.582 79.0242 119.305L80.0492 119.63C79.8392 120.113 79.5209 120.488 79.0942 120.755C78.6676 121.018 78.1926 121.15 77.6692 121.15ZM75.7442 118.595V117.78H79.5992V118.595H75.7442ZM81.341 121V113.65H82.386V121H81.341ZM87.4145 121.15C87.0145 121.15 86.6795 121.077 86.4095 120.93C86.1395 120.78 85.9345 120.583 85.7945 120.34C85.6578 120.093 85.5895 119.823 85.5895 119.53C85.5895 119.257 85.6378 119.017 85.7345 118.81C85.8311 118.603 85.9745 118.428 86.1645 118.285C86.3545 118.138 86.5878 118.02 86.8645 117.93C87.1045 117.86 87.3761 117.798 87.6795 117.745C87.9828 117.692 88.3011 117.642 88.6345 117.595C88.9711 117.548 89.3045 117.502 89.6345 117.455L89.2545 117.665C89.2611 117.242 89.1711 116.928 88.9845 116.725C88.8011 116.518 88.4845 116.415 88.0345 116.415C87.7511 116.415 87.4911 116.482 87.2545 116.615C87.0178 116.745 86.8528 116.962 86.7595 117.265L85.7845 116.965C85.9178 116.502 86.1711 116.133 86.5445 115.86C86.9211 115.587 87.4211 115.45 88.0445 115.45C88.5278 115.45 88.9478 115.533 89.3045 115.7C89.6645 115.863 89.9278 116.123 90.0945 116.48C90.1811 116.657 90.2345 116.843 90.2545 117.04C90.2745 117.237 90.2845 117.448 90.2845 117.675V121H89.3595V119.765L89.5395 119.925C89.3161 120.338 89.0311 120.647 88.6845 120.85C88.3411 121.05 87.9178 121.15 87.4145 121.15ZM87.5995 120.295C87.8961 120.295 88.1511 120.243 88.3645 120.14C88.5778 120.033 88.7495 119.898 88.8795 119.735C89.0095 119.572 89.0945 119.402 89.1345 119.225C89.1911 119.065 89.2228 118.885 89.2295 118.685C89.2395 118.485 89.2445 118.325 89.2445 118.205L89.5845 118.33C89.2545 118.38 88.9545 118.425 88.6845 118.465C88.4145 118.505 88.1695 118.545 87.9495 118.585C87.7328 118.622 87.5395 118.667 87.3695 118.72C87.2261 118.77 87.0978 118.83 86.9845 118.9C86.8745 118.97 86.7861 119.055 86.7195 119.155C86.6561 119.255 86.6245 119.377 86.6245 119.52C86.6245 119.66 86.6595 119.79 86.7295 119.91C86.7995 120.027 86.9061 120.12 87.0495 120.19C87.1928 120.26 87.3761 120.295 87.5995 120.295ZM94.1178 121.15C93.6011 121.15 93.1678 121.025 92.8178 120.775C92.4678 120.522 92.2028 120.18 92.0228 119.75C91.8428 119.32 91.7528 118.835 91.7528 118.295C91.7528 117.755 91.8411 117.27 92.0178 116.84C92.1978 116.41 92.4611 116.072 92.8078 115.825C93.1578 115.575 93.5878 115.45 94.0978 115.45C94.6045 115.45 95.0411 115.575 95.4078 115.825C95.7778 116.072 96.0628 116.41 96.2628 116.84C96.4628 117.267 96.5628 117.752 96.5628 118.295C96.5628 118.835 96.4628 119.322 96.2628 119.755C96.0661 120.185 95.7845 120.525 95.4178 120.775C95.0545 121.025 94.6211 121.15 94.1178 121.15ZM91.5778 123.4V115.6H92.5078V119.485H92.6278V123.4H91.5778ZM93.9728 120.205C94.3061 120.205 94.5811 120.12 94.7978 119.95C95.0178 119.78 95.1811 119.552 95.2878 119.265C95.3978 118.975 95.4528 118.652 95.4528 118.295C95.4528 117.942 95.3978 117.622 95.2878 117.335C95.1811 117.048 95.0161 116.82 94.7928 116.65C94.5695 116.48 94.2845 116.395 93.9378 116.395C93.6111 116.395 93.3411 116.475 93.1278 116.635C92.9178 116.795 92.7611 117.018 92.6578 117.305C92.5578 117.592 92.5078 117.922 92.5078 118.295C92.5078 118.668 92.5578 118.998 92.6578 119.285C92.7578 119.572 92.9161 119.797 93.1328 119.96C93.3495 120.123 93.6295 120.205 93.9728 120.205ZM100.202 121.15C99.6851 121.15 99.2518 121.025 98.9018 120.775C98.5518 120.522 98.2868 120.18 98.1068 119.75C97.9268 119.32 97.8368 118.835 97.8368 118.295C97.8368 117.755 97.9251 117.27 98.1018 116.84C98.2818 116.41 98.5451 116.072 98.8918 115.825C99.2418 115.575 99.6718 115.45 100.182 115.45C100.688 115.45 101.125 115.575 101.492 115.825C101.862 116.072 102.147 116.41 102.347 116.84C102.547 117.267 102.647 117.752 102.647 118.295C102.647 118.835 102.547 119.322 102.347 119.755C102.15 120.185 101.868 120.525 101.502 120.775C101.138 121.025 100.705 121.15 100.202 121.15ZM97.6618 123.4V115.6H98.5918V119.485H98.7118V123.4H97.6618ZM100.057 120.205C100.39 120.205 100.665 120.12 100.882 119.95C101.102 119.78 101.265 119.552 101.372 119.265C101.482 118.975 101.537 118.652 101.537 118.295C101.537 117.942 101.482 117.622 101.372 117.335C101.265 117.048 101.1 116.82 100.877 116.65C100.653 116.48 100.368 116.395 100.022 116.395C99.6951 116.395 99.4251 116.475 99.2118 116.635C99.0018 116.795 98.8451 117.018 98.7418 117.305C98.6418 117.592 98.5918 117.922 98.5918 118.295C98.5918 118.668 98.6418 118.998 98.7418 119.285C98.8418 119.572 99.0001 119.797 99.2168 119.96C99.4335 120.123 99.7135 120.205 100.057 120.205ZM103.751 121V115.6H104.681V116.91L104.551 116.74C104.617 116.567 104.704 116.408 104.811 116.265C104.917 116.118 105.041 115.998 105.181 115.905C105.317 115.805 105.469 115.728 105.636 115.675C105.806 115.618 105.979 115.585 106.156 115.575C106.332 115.562 106.502 115.57 106.666 115.6V116.58C106.489 116.533 106.292 116.52 106.076 116.54C105.862 116.56 105.666 116.628 105.486 116.745C105.316 116.855 105.181 116.988 105.081 117.145C104.984 117.302 104.914 117.477 104.871 117.67C104.827 117.86 104.806 118.062 104.806 118.275V121H103.751ZM109.865 121.15C109.325 121.15 108.857 121.028 108.46 120.785C108.064 120.542 107.757 120.207 107.54 119.78C107.327 119.35 107.22 118.855 107.22 118.295C107.22 117.732 107.33 117.237 107.55 116.81C107.77 116.38 108.079 116.047 108.475 115.81C108.872 115.57 109.335 115.45 109.865 115.45C110.405 115.45 110.874 115.572 111.27 115.815C111.667 116.058 111.974 116.393 112.19 116.82C112.407 117.247 112.515 117.738 112.515 118.295C112.515 118.858 112.405 119.355 112.185 119.785C111.969 120.212 111.662 120.547 111.265 120.79C110.869 121.03 110.402 121.15 109.865 121.15ZM109.865 120.165C110.382 120.165 110.767 119.992 111.02 119.645C111.277 119.295 111.405 118.845 111.405 118.295C111.405 117.732 111.275 117.282 111.015 116.945C110.759 116.605 110.375 116.435 109.865 116.435C109.515 116.435 109.227 116.515 109 116.675C108.774 116.832 108.605 117.05 108.495 117.33C108.385 117.607 108.33 117.928 108.33 118.295C108.33 118.862 108.46 119.315 108.72 119.655C108.98 119.995 109.362 120.165 109.865 120.165ZM115.139 121.15C114.739 121.15 114.404 121.077 114.134 120.93C113.864 120.78 113.659 120.583 113.519 120.34C113.382 120.093 113.314 119.823 113.314 119.53C113.314 119.257 113.362 119.017 113.459 118.81C113.556 118.603 113.699 118.428 113.889 118.285C114.079 118.138 114.312 118.02 114.589 117.93C114.829 117.86 115.101 117.798 115.404 117.745C115.707 117.692 116.026 117.642 116.359 117.595C116.696 117.548 117.029 117.502 117.359 117.455L116.979 117.665C116.986 117.242 116.896 116.928 116.709 116.725C116.526 116.518 116.209 116.415 115.759 116.415C115.476 116.415 115.216 116.482 114.979 116.615C114.742 116.745 114.577 116.962 114.484 117.265L113.509 116.965C113.642 116.502 113.896 116.133 114.269 115.86C114.646 115.587 115.146 115.45 115.769 115.45C116.252 115.45 116.672 115.533 117.029 115.7C117.389 115.863 117.652 116.123 117.819 116.48C117.906 116.657 117.959 116.843 117.979 117.04C117.999 117.237 118.009 117.448 118.009 117.675V121H117.084V119.765L117.264 119.925C117.041 120.338 116.756 120.647 116.409 120.85C116.066 121.05 115.642 121.15 115.139 121.15ZM115.324 120.295C115.621 120.295 115.876 120.243 116.089 120.14C116.302 120.033 116.474 119.898 116.604 119.735C116.734 119.572 116.819 119.402 116.859 119.225C116.916 119.065 116.947 118.885 116.954 118.685C116.964 118.485 116.969 118.325 116.969 118.205L117.309 118.33C116.979 118.38 116.679 118.425 116.409 118.465C116.139 118.505 115.894 118.545 115.674 118.585C115.457 118.622 115.264 118.667 115.094 118.72C114.951 118.77 114.822 118.83 114.709 118.9C114.599 118.97 114.511 119.055 114.444 119.155C114.381 119.255 114.349 119.377 114.349 119.52C114.349 119.66 114.384 119.79 114.454 119.91C114.524 120.027 114.631 120.12 114.774 120.19C114.917 120.26 115.101 120.295 115.324 120.295ZM121.617 121.15C121.064 121.15 120.594 121.027 120.207 120.78C119.821 120.533 119.524 120.195 119.317 119.765C119.114 119.335 119.011 118.847 119.007 118.3C119.011 117.743 119.117 117.252 119.327 116.825C119.537 116.395 119.837 116.058 120.227 115.815C120.617 115.572 121.086 115.45 121.632 115.45C122.222 115.45 122.726 115.597 123.142 115.89C123.562 116.183 123.839 116.585 123.972 117.095L122.932 117.395C122.829 117.092 122.659 116.857 122.422 116.69C122.189 116.52 121.921 116.435 121.617 116.435C121.274 116.435 120.992 116.517 120.772 116.68C120.552 116.84 120.389 117.06 120.282 117.34C120.176 117.62 120.121 117.94 120.117 118.3C120.121 118.857 120.247 119.307 120.497 119.65C120.751 119.993 121.124 120.165 121.617 120.165C121.954 120.165 122.226 120.088 122.432 119.935C122.642 119.778 122.802 119.555 122.912 119.265L123.972 119.515C123.796 120.042 123.504 120.447 123.097 120.73C122.691 121.01 122.197 121.15 121.617 121.15ZM128.781 121V118.345C128.781 118.135 128.763 117.92 128.726 117.7C128.693 117.477 128.626 117.27 128.526 117.08C128.429 116.89 128.291 116.737 128.111 116.62C127.934 116.503 127.703 116.445 127.416 116.445C127.229 116.445 127.053 116.477 126.886 116.54C126.719 116.6 126.573 116.698 126.446 116.835C126.323 116.972 126.224 117.152 126.151 117.375C126.081 117.598 126.046 117.87 126.046 118.19L125.396 117.945C125.396 117.455 125.488 117.023 125.671 116.65C125.854 116.273 126.118 115.98 126.461 115.77C126.804 115.56 127.219 115.455 127.706 115.455C128.079 115.455 128.393 115.515 128.646 115.635C128.899 115.755 129.104 115.913 129.261 116.11C129.421 116.303 129.543 116.515 129.626 116.745C129.709 116.975 129.766 117.2 129.796 117.42C129.826 117.64 129.841 117.833 129.841 118V121H128.781ZM124.986 121V113.8H125.921V117.685H126.046V121H124.986ZM131.243 114.715V113.7H132.288V114.715H131.243ZM131.243 121V115.6H132.288V121H131.243ZM137.58 121V118.345C137.58 118.135 137.562 117.92 137.525 117.7C137.492 117.477 137.425 117.27 137.325 117.08C137.228 116.89 137.09 116.737 136.91 116.62C136.733 116.503 136.502 116.445 136.215 116.445C136.028 116.445 135.852 116.477 135.685 116.54C135.518 116.6 135.372 116.698 135.245 116.835C135.122 116.972 135.023 117.152 134.95 117.375C134.88 117.598 134.845 117.87 134.845 118.19L134.195 117.945C134.195 117.455 134.287 117.023 134.47 116.65C134.653 116.273 134.917 115.98 135.26 115.77C135.603 115.56 136.018 115.455 136.505 115.455C136.878 115.455 137.192 115.515 137.445 115.635C137.698 115.755 137.903 115.913 138.06 116.11C138.22 116.303 138.342 116.515 138.425 116.745C138.508 116.975 138.565 117.2 138.595 117.42C138.625 117.64 138.64 117.833 138.64 118V121H137.58ZM133.785 121V115.6H134.72V117.16H134.845V121H133.785ZM142.167 123.55C141.877 123.55 141.596 123.505 141.322 123.415C141.052 123.325 140.806 123.192 140.582 123.015C140.359 122.842 140.174 122.627 140.027 122.37L140.992 121.88C141.109 122.11 141.276 122.278 141.492 122.385C141.709 122.492 141.937 122.545 142.177 122.545C142.474 122.545 142.727 122.492 142.937 122.385C143.147 122.282 143.306 122.125 143.412 121.915C143.522 121.705 143.576 121.445 143.572 121.135V119.625H143.697V115.6H144.622V121.145C144.622 121.288 144.617 121.425 144.607 121.555C144.597 121.685 144.579 121.815 144.552 121.945C144.476 122.308 144.329 122.608 144.112 122.845C143.899 123.082 143.626 123.258 143.292 123.375C142.962 123.492 142.587 123.55 142.167 123.55ZM142.087 121.15C141.584 121.15 141.149 121.025 140.782 120.775C140.419 120.525 140.137 120.185 139.937 119.755C139.741 119.322 139.642 118.835 139.642 118.295C139.642 117.752 139.742 117.267 139.942 116.84C140.142 116.41 140.426 116.072 140.792 115.825C141.162 115.575 141.601 115.45 142.107 115.45C142.617 115.45 143.046 115.575 143.392 115.825C143.742 116.072 144.006 116.41 144.182 116.84C144.362 117.27 144.452 117.755 144.452 118.295C144.452 118.835 144.362 119.32 144.182 119.75C144.002 120.18 143.737 120.522 143.387 120.775C143.037 121.025 142.604 121.15 142.087 121.15ZM142.232 120.205C142.576 120.205 142.856 120.123 143.072 119.96C143.289 119.797 143.447 119.572 143.547 119.285C143.647 118.998 143.697 118.668 143.697 118.295C143.697 117.922 143.646 117.592 143.542 117.305C143.442 117.018 143.286 116.795 143.072 116.635C142.862 116.475 142.594 116.395 142.267 116.395C141.921 116.395 141.636 116.48 141.412 116.65C141.189 116.82 141.022 117.048 140.912 117.335C140.806 117.622 140.752 117.942 140.752 118.295C140.752 118.652 140.806 118.975 140.912 119.265C141.022 119.552 141.186 119.78 141.402 119.95C141.622 120.12 141.899 120.205 142.232 120.205ZM146.206 121V119.895H147.311V121H146.206Z" fill="#34D399"/>
<g clip-path="url(#clip0_2415_72993)">
<path d="M27.6314 114.184H28.2556C28.569 114.184 28.9405 114.594 28.9803 114.92C29.1678 116.453 27.9575 118.132 26.5815 118.481C26.2583 119.059 25.8543 119.535 25.2846 119.838C25.2235 119.87 25.0845 119.895 25.0722 119.961C25.0635 120.008 25.0689 120.435 25.082 120.456C25.796 120.702 26.3354 121.357 26.4244 122.164C26.7094 122.206 27.147 122.038 27.3123 122.364C27.4739 122.682 27.2512 123.011 26.9256 123H22.0326C21.7419 122.983 21.5544 122.704 21.6652 122.407C21.8042 122.033 22.2845 122.204 22.574 122.163C22.6807 121.359 23.2048 120.716 23.9172 120.455C23.925 120.367 23.9488 119.956 23.9066 119.918C23.8705 119.886 23.6211 119.791 23.5395 119.741C23.0949 119.468 22.7512 119.034 22.4735 118.58C21.2714 118.473 20.2194 117.446 20.0439 116.162C20.0025 115.862 19.9828 115.217 20.0189 114.921C20.0587 114.594 20.4302 114.185 20.7436 114.185H21.3678C21.3731 114.168 21.3473 114.158 21.3473 114.152V113.538C21.3477 113.315 21.6713 112.986 21.8903 113H27.1093C27.6765 113.083 27.7069 113.691 27.6314 114.184ZM23.7085 116.94C23.9431 117.192 24.2716 116.846 24.507 116.754C24.7297 116.858 25.0439 117.173 25.2764 116.957C25.4843 116.764 25.2776 116.375 25.3022 116.13C25.4388 115.934 25.7682 115.78 25.7267 115.491C25.6759 115.134 25.221 115.233 24.9922 115.137C24.847 114.932 24.8047 114.506 24.5066 114.5C24.2084 114.493 24.1543 114.926 24.0074 115.137C23.7901 115.23 23.3812 115.138 23.2877 115.44C23.1872 115.764 23.5596 115.91 23.6978 116.129C23.7228 116.37 23.5247 116.742 23.7089 116.94H23.7085ZM21.4297 115.017H20.826L20.7953 115.05V115.972C20.7953 116.025 20.849 116.224 20.867 116.29C21.0254 116.871 21.4646 117.407 22.0027 117.605C21.7086 116.776 21.5019 115.905 21.4297 115.018V115.017ZM28.2048 115.423C28.215 115.304 28.1974 115.171 28.2048 115.05L28.174 115.017H27.5703C27.5096 115.803 27.3304 116.574 27.0999 117.319C27.5961 116.971 27.9833 116.402 28.1334 115.784C28.1576 115.685 28.1962 115.52 28.2048 115.422V115.423Z" fill="#34D399"/>
</g>
<path d="M325.121 137.45C325.089 138.56 325.69 139.519 325.652 140.622C325.446 140.625 324.897 140.793 324.416 140.798C322.964 134.898 321.562 128.971 319.986 123.103C319.226 120.272 318.49 117.169 317.574 114.407C317.449 114.029 317.109 112.789 316.915 112.597C316.559 112.248 315.617 112.609 315.408 112.077C317.753 112.204 320.28 110.999 322.301 109.875C332.258 104.337 339.574 90.7371 338.733 79.3793C338.158 71.6217 330.924 67.0179 323.618 69.7784C322.626 70.1541 321.1 70.8826 320.708 71.8968H323.798C324.016 71.8968 325.698 72.6835 326.01 72.8687C326.108 72.927 326.689 73.0328 326.359 73.3062C326.258 73.3891 324.29 72.8194 323.795 72.7806C319.341 72.4401 314.708 74.4175 315.939 79.6509L317.758 78.3827C318.902 78.0246 320.133 77.5907 321.236 78.3298C313.856 79.0336 314.123 87.6714 321.236 88.3717C319.413 89.363 317.343 88.3646 315.856 87.2269C315.693 87.7772 312.551 90.924 312.229 90.5748C312.082 89.5694 313.09 89.0931 313.465 88.287C312.072 88.2588 310.806 88.9749 309.524 89.3753C309.349 89.43 308.995 89.6734 308.873 89.4318C310.406 88.5639 311.925 87.719 313.297 86.6131C313.43 86.5055 313.431 86.2021 313.465 86.1721C313.592 86.061 314.312 85.8528 314.522 85.6429C314.455 86.2761 313.858 86.7083 313.996 87.4051C314.204 87.3257 315.408 86.6783 315.421 86.5972C315.472 86.292 314.625 84.7786 314.538 84.1313C314.321 82.4891 315.041 81.4766 315.041 80.6211C315.041 80.1184 314.351 78.9683 314.333 77.9805C314.296 75.7368 315.702 73.6696 317.636 72.6253C318.024 72.4172 318.657 72.3607 318.931 72.1544C319.159 71.9833 319.535 71.1119 319.825 70.7574C320.764 69.6091 322.642 68.5983 324.06 68.1979C324.329 68.1221 325.146 67.8663 325.296 67.8452C332.613 66.8327 338.848 70.8755 339.937 78.351C341.454 88.765 334.871 101.959 326.792 108.371C324.274 110.369 321.399 111.833 318.43 113.04L325.119 137.45H325.121Z" fill="#27265F"/>
<path d="M313.463 86.1709C313.221 85.3595 312.749 84.6257 312.593 83.7773C312.369 82.5531 312.3 78.7413 312.395 77.4396C312.719 72.9663 317.463 68.8317 321.498 67.4876C322.129 67.2777 324.012 66.5598 324.416 67.2266C324.442 67.2707 323.737 67.5247 324.064 68.195C322.646 68.5954 320.768 69.6061 319.829 70.7544C319.537 71.1107 319.162 71.9821 318.934 72.1514C318.66 72.356 318.025 72.4124 317.64 72.6223C315.705 73.6666 314.3 75.7321 314.337 77.9776C314.353 78.9653 315.044 80.1172 315.044 80.6181C315.044 81.4736 314.324 82.4843 314.542 84.1283C314.629 84.7756 315.476 86.2908 315.424 86.5942C315.41 86.6753 314.208 87.3227 313.999 87.4021C313.861 86.7071 314.459 86.2749 314.526 85.6399C314.316 85.8498 313.596 86.0562 313.469 86.1691L313.463 86.1709Z" fill="url(#paint1_linear_2415_72993)"/>
<path d="M228.141 72.6031C228.262 72.6649 228.039 72.903 227.789 72.776C227.669 72.7143 227.892 72.4761 228.141 72.6031Z" fill="#2F3684"/>
<path d="M308.694 89.5211C308.814 89.5828 308.591 89.821 308.342 89.694C308.222 89.6322 308.445 89.3941 308.694 89.5211Z" fill="#2F3684"/>
<path d="M314.698 111.724C314.818 111.786 314.595 112.024 314.346 111.897C314.226 111.835 314.449 111.597 314.698 111.724Z" fill="#2F3684"/>
<path d="M315.229 111.9C315.349 111.962 315.127 112.2 314.877 112.073C314.757 112.011 314.98 111.773 315.229 111.9Z" fill="#2F3684"/>
<path d="M321.5 78.418C321.615 78.4762 321.615 78.5362 321.5 78.5944V78.418Z" fill="#2F3684"/>
<path d="M249.783 85.2891C249.898 85.3473 249.898 85.4072 249.783 85.4655V85.2891Z" fill="#2F3684"/>
<path d="M325.325 68.0841L324.063 68.197C324.804 63.3657 324.133 56.6717 322.477 52.0696C320.671 47.0566 316.695 41.3822 312.76 37.7962C311.188 36.3639 308.625 34.921 307.298 33.554C307.152 33.4023 307.015 33.2523 306.975 33.0372C309.701 29.7034 312.976 26.5848 315.581 23.1681C315.761 22.9318 316.5 22.0904 316.291 21.8523C315.579 22.1027 314.424 20.4764 313.995 20.6934L304.704 31.7319C301.529 30.3666 298.475 28.765 295.188 27.659C281.987 23.2175 266.418 23.8349 254.169 30.6312C233.913 41.869 228.617 66.7594 246.69 82.9132C247.607 83.7334 248.757 84.3226 249.519 85.2874C248.454 85.4038 246.368 83.4829 245.689 83.3789C245.581 83.363 244.43 84.0615 244.089 84.1903C242.586 84.7565 239.7 85.3015 238.167 84.8958C236.609 84.4831 234.201 81.3222 233.002 80.188C232.604 80.6237 230.831 81.7667 230.353 81.7667H227.703C227.674 81.7667 227.186 81.5938 227.262 81.4156C231.968 81.6114 235.769 75.7288 230.618 73.0424L228.323 72.4286C229.729 71.6913 232.954 73.1729 233.702 74.3724C233.99 74.8328 233.95 75.937 234.369 75.1961C234.71 74.5946 234.829 72.5009 234.675 71.8447C234.646 71.723 234.399 71.7318 234.344 71.5819C234.169 71.1092 234.215 70.8375 233.874 70.3225C233.253 69.3876 231.083 68.0188 230 68.0188H226.113C226 68.0188 225.199 68.5074 225.142 68.0206C227.147 66.957 229.209 66.7735 231.414 67.3097C229.126 63.1805 222.35 63.8084 218.902 66.112C208.169 73.2823 218.361 92.2195 224.697 99.3863C228.833 104.066 234.415 108.059 240.331 110.134C241.063 108.151 241.931 106.024 243.159 104.318C242.92 105.406 242.621 106.662 242.264 107.71C241.684 109.411 240.812 112.201 240.253 114.185C238.416 120.715 236.876 127.335 235.05 133.849L233.621 140.794C233.151 140.79 232.678 140.804 232.208 140.794L239.642 111.303C230.279 107.62 222.502 100.342 217.693 91.5704C213.783 84.4407 209.831 71.8624 217.286 65.7293C221.226 62.4872 229.071 61.6476 232.385 66.165C232.839 66.7841 232.958 67.6008 233.288 68.0823C233.67 68.6362 234.982 69.3753 235.387 70.1302C235.651 70.6223 236.082 72.5485 236.095 73.1253C236.107 73.7444 235.943 74.7481 235.752 75.3372C235.492 76.1363 233.706 78.5652 233.826 79.179C233.863 79.3713 234.519 79.9128 234.558 80.2973C235.707 81.1158 237.209 83.5306 238.651 83.7017C240.733 83.9486 242.727 83.5835 244.573 82.638C244.646 82.3717 244.502 82.3452 244.4 82.1971C243.924 81.5074 242.794 80.6977 242.186 79.9992C240.752 78.3518 239.627 76.4979 238.391 74.7111C237.619 72.8396 236.568 70.9892 235.918 69.0719C230.972 54.4703 238.572 39.1314 250.947 31.111C252.984 29.7916 255.387 28.481 257.645 27.659L251.377 16.7317C242.485 16.1513 244.515 3.0438 252.878 5.36509C257.027 6.51692 258.204 11.1295 256.139 14.6326L262.706 25.7011C276.44 21.6723 291.694 23.401 304.179 30.2996L313.386 19.7232C312.99 18.3386 312.605 17.2785 312.778 15.7827C313.455 9.91419 321.808 8.59832 324.273 13.793C326.471 18.425 322.22 22.6231 317.607 22.5384C314.712 26.098 311.558 29.4529 308.695 33.0283C316.818 38.8316 323.518 47.3671 325.244 57.4072C325.769 60.4605 325.916 65.0572 325.325 68.077V68.0841ZM255.877 10.8896C255.877 8.39194 253.847 6.36522 251.342 6.36522C248.836 6.36522 246.806 8.39018 246.806 10.8896C246.806 13.3891 248.836 15.414 251.342 15.414C253.847 15.414 255.877 13.3891 255.877 10.8896ZM323.465 16.4494C323.465 13.853 321.354 11.7469 318.751 11.7469C316.148 11.7469 314.037 13.853 314.037 16.4494C314.037 19.0459 316.148 21.152 318.751 21.152C321.354 21.152 323.465 19.0459 323.465 16.4494ZM255.166 15.3329C255.044 15.25 253.195 16.453 252.696 16.2148L252.956 17.1021L258.729 27.1122C259.716 27.3574 260.384 26.3255 261.355 26.4331L261.256 25.7399L255.168 15.3347L255.166 15.3329Z" fill="#27265F"/>
<path d="M317.171 13.3947C317.502 13.6187 317.373 15.0421 316.563 14.8005C315.813 14.3613 316.634 13.0295 317.171 13.3947Z" fill="#D1D8EE"/>
<path d="M269.089 33.1815C281.118 32.4353 294.555 36.4447 302.871 45.3718C310.568 53.6339 312.361 65.7977 304.46 74.6331C289.62 91.2314 251.234 84.9237 242.897 64.1414C235.858 46.5942 253.306 34.1622 269.089 33.1815ZM263.857 53.2494C264.03 53.0465 265.654 52.8119 264.522 51.7306C263.672 50.9193 258.622 48.6879 257.233 48.0776C255.845 47.4673 254.48 46.8958 253.096 46.3913C252.396 46.1356 250.242 45.056 249.782 45.8163C248.743 47.5379 252.974 48.4763 253.211 49.2824C253.283 49.5275 252.744 50.8046 252.691 51.362C251.925 59.4654 261.762 61.1305 263.565 54.985C263.664 54.6446 263.802 53.3164 263.859 53.2511L263.857 53.2494ZM294.58 50.413C295.513 50.4571 298.813 48.7108 297.036 47.8377C296.504 47.5767 292.934 48.6632 292.09 48.8996C288.329 49.9562 284.621 51.2597 280.858 52.3216C279.285 53.678 281.177 54.3677 282.549 53.745C282.515 59.0967 288.499 61.8325 292.621 58.4176C295.133 56.3362 295.183 53.394 294.578 50.413H294.58ZM263.691 61.0141C262.844 61.8554 264.239 66.6268 264.734 67.731C267.256 73.349 273.51 76.6369 278.899 72.3965C281.889 70.0435 283.323 63.4412 281.527 60.1427C280.293 57.8778 278.954 59.2272 277.343 59.7423C273.747 60.8941 270.532 61.3316 266.732 61.1552C266.004 61.1217 264.175 60.5307 263.689 61.0141H263.691Z" fill="url(#paint2_linear_2415_72993)"/>
<path d="M263.691 61.0137C264.177 60.5304 266.004 61.1213 266.734 61.1548C270.534 61.3312 273.747 60.8938 277.345 59.742C278.956 59.2251 280.294 57.8775 281.529 60.1424C283.325 63.4409 281.891 70.0431 278.901 72.3962C273.512 76.6366 267.257 73.3487 264.736 67.7307C264.241 66.6265 262.846 61.8569 263.693 61.0137H263.691ZM268.449 72.0434C268.501 72.1298 269.972 72.9518 270.184 73.0418C273.703 74.5552 278.144 73.4757 280.148 70.1172C281.009 68.6743 280.418 68.7467 279.009 68.2898C276.155 67.362 271.927 67.7554 269.65 69.865C269.282 70.2054 268.175 71.576 268.449 72.0416V72.0434Z" fill="#2F3684"/>
<path d="M268.449 72.0449C268.175 71.5793 269.282 70.2087 269.65 69.8683C271.927 67.7586 276.155 67.3653 279.009 68.2931C280.418 68.75 281.009 68.6776 280.148 70.1205C278.144 73.479 273.703 74.5585 270.184 73.0451C269.972 72.9533 268.499 72.1331 268.449 72.0467V72.0449Z" fill="#2D4CBC"/>
<path d="M294.58 50.4124C295.183 53.3951 295.134 56.3356 292.623 58.417C288.501 61.8319 282.518 59.0961 282.551 53.7444C281.179 54.367 279.287 53.6791 280.861 52.3209C284.622 51.2591 288.331 49.9555 292.092 48.8989C292.934 48.6626 296.506 47.576 297.038 47.8371C298.815 48.7085 295.516 50.4547 294.582 50.4124H294.58ZM289.672 54.2206C291.001 55.6529 293.707 54.0443 292.771 52.2715C291.771 50.3736 287.93 52.3456 289.672 54.2206Z" fill="#2F3684"/>
<path d="M289.672 54.2207C287.93 52.3457 291.771 50.3737 292.771 52.2716C293.707 54.0443 291 55.653 289.672 54.2207Z" fill="#D1D8EE"/>
<path d="M263.856 53.2486C263.8 53.3156 263.662 54.6438 263.563 54.9825C261.759 61.1279 251.923 59.4628 252.688 51.3595C252.742 50.8021 253.281 49.525 253.208 49.2798C252.971 48.4737 248.738 47.5353 249.78 45.8137C250.24 45.0535 252.395 46.133 253.093 46.3888C254.48 46.8933 255.882 47.4824 257.231 48.0751C258.58 48.6677 263.671 50.9167 264.52 51.7281C265.651 52.8094 264.03 53.0457 263.855 53.2468L263.856 53.2486ZM259.71 51.6681C258.239 52.0985 258.96 54.4533 260.737 54.4216C263.154 54.3775 262.578 50.8285 259.71 51.6681Z" fill="#2F3684"/>
<path d="M259.709 51.6675C262.577 50.8279 263.154 54.3769 260.737 54.421C258.958 54.4527 258.236 52.0979 259.709 51.6675Z" fill="#D1D8EE"/>
<path d="M322.3 109.874C332.256 104.336 339.573 90.7359 338.732 79.3782C338.157 71.6205 330.923 67.0168 323.617 69.7773C322.625 70.153 321.099 70.8815 320.706 71.8957H323.797C324.015 71.8957 325.696 72.6824 326.009 72.8676C326.107 72.9258 326.688 73.0316 326.358 73.3051C326.257 73.388 324.289 72.8182 323.795 72.7794C319.341 72.439 314.709 74.4163 315.939 79.6498L317.759 78.3816C318.903 78.0235 320.134 77.5896 321.237 78.3287C313.856 79.0324 314.123 87.6703 321.237 88.3705C319.414 89.3618 317.343 88.3635 315.856 87.2258C315.694 87.7761 312.551 90.9229 312.23 90.5736C312.083 89.5682 313.091 89.092 313.466 88.2859C312.072 88.2576 310.806 88.9738 309.524 89.3742C309.349 89.4289 308.996 89.6723 308.874 89.4306C310.407 88.5628 311.926 87.7179 313.298 86.6119C313.43 86.5043 313.432 86.2009 313.466 86.1709C313.223 85.3596 312.751 84.6258 312.596 83.7773C312.371 82.5532 312.302 78.7414 312.398 77.4396C312.721 72.9664 317.465 68.8318 321.5 67.4877C322.132 67.2778 324.015 66.5599 324.418 67.2267C324.444 67.2708 323.739 67.5248 324.066 68.195C324.335 68.1192 325.152 67.8634 325.302 67.8423C325.256 67.4701 325.41 67.1349 325.479 66.7857H324.243C324.984 61.9526 324.137 56.6715 322.48 52.0677C320.675 47.0547 316.698 41.3802 312.764 37.7942C311.192 36.3619 308.628 34.9191 307.302 33.552C307.155 33.4003 307.019 33.2504 306.978 33.0352C309.705 29.7014 312.979 26.5829 315.584 23.1662C315.678 23.0427 315.925 22.7534 316.109 22.4712L317.292 20.9172C317.754 21.0672 318.245 21.1501 318.756 21.1501C321.359 21.1501 323.47 19.044 323.47 16.4475C323.47 13.851 321.359 11.7449 318.756 11.7449C316.153 11.7449 314.042 13.851 314.042 16.4475C314.042 17.5358 314.413 18.536 315.036 19.3332L314.001 20.6932L304.711 31.7317C301.536 30.3664 298.482 28.7648 295.195 27.6588C284.727 24.1363 272.77 23.8012 262.161 27.1985C261.861 26.7116 261.562 26.2248 261.261 25.7362C259.051 21.8274 256.839 17.9186 254.629 14.0116C255.407 13.2002 255.886 12.0995 255.886 10.8877C255.886 8.39 253.856 6.36328 251.35 6.36328C248.845 6.36328 246.815 8.38824 246.815 10.8877C246.815 13.3871 248.845 15.4121 251.35 15.4121C251.594 15.4121 251.833 15.3927 252.068 15.3556C252.367 15.9377 252.664 16.5181 252.963 17.1001C255.055 20.8149 257.148 24.5297 259.24 28.2445C257.502 28.9341 255.808 29.7261 254.176 30.6328C233.919 41.8706 228.624 66.761 246.696 82.9148C247.614 83.735 248.763 84.3241 249.526 85.289C248.461 85.4054 246.375 83.4845 245.696 83.3805C245.588 83.3646 244.437 84.0631 244.095 84.1919C242.592 84.7581 239.707 85.3031 238.174 84.8974C236.616 84.4847 234.208 81.3238 233.009 80.1896C232.611 80.6252 230.837 81.7683 230.36 81.7683H227.709C227.681 81.7683 227.193 81.5954 227.269 81.4172C231.974 81.613 235.776 75.7304 230.625 73.044L228.33 72.4302C229.736 71.6929 232.961 73.1745 233.709 74.374C233.997 74.8344 233.957 75.9386 234.376 75.1977C234.717 74.5962 234.835 72.5025 234.682 71.8463C234.653 71.7246 234.406 71.7334 234.351 71.5835C234.176 71.1108 234.222 70.8391 233.881 70.3241C233.26 69.3892 231.09 68.0204 230.006 68.0204H226.12C226.007 68.0204 225.206 68.509 225.149 68.0222C227.154 66.9585 229.216 66.7751 231.421 67.3113C229.133 63.182 222.357 63.81 218.909 66.1136C208.176 73.2839 218.368 92.2211 224.704 99.3879C228.839 104.067 234.422 108.061 240.338 110.135C241.07 108.153 241.938 106.025 243.165 104.32C242.927 105.408 242.628 106.664 242.271 107.712C241.691 109.412 240.819 112.203 240.26 114.187C238.423 120.717 236.883 127.337 235.056 133.851L233.628 140.795C263.86 140.993 294.203 141.127 324.425 140.795C322.973 134.895 321.571 128.968 319.996 123.1C319.235 120.269 318.5 117.166 317.584 114.404C317.458 114.026 317.119 112.786 316.924 112.594C316.569 112.245 315.626 112.607 315.418 112.074C317.762 112.201 320.289 110.996 322.31 109.872L322.3 109.874ZM321.5 78.4151C321.615 78.4733 321.615 78.5333 321.5 78.5915V78.4151ZM317.17 13.3924C317.501 13.6164 317.372 15.0399 316.562 14.7983C315.812 14.359 316.632 13.0273 317.17 13.3924ZM228.141 72.6013C228.261 72.663 228.038 72.9011 227.789 72.7741C227.669 72.7124 227.892 72.4743 228.141 72.6013ZM260.534 27.7453C260.646 27.7012 260.754 27.6659 260.86 27.6342C260.731 27.68 260.603 27.7241 260.476 27.7717C260.496 27.7629 260.515 27.7541 260.534 27.747V27.7453ZM249.782 85.4636V85.2872C249.897 85.3454 249.897 85.4054 249.782 85.4636ZM242.895 64.1381C235.856 46.5908 253.304 34.1588 269.087 33.1781C281.116 32.432 294.553 36.4413 302.869 45.3684C310.566 53.6305 312.359 65.7944 304.458 74.6297C289.618 91.2281 251.232 84.9203 242.895 64.1381ZM308.341 89.6917C308.221 89.63 308.444 89.3918 308.693 89.5188C308.813 89.5806 308.591 89.8187 308.341 89.6917ZM314.348 111.896C314.228 111.834 314.451 111.596 314.7 111.723C314.82 111.785 314.597 112.023 314.348 111.896ZM314.877 112.072C314.756 112.01 314.979 111.772 315.229 111.899C315.349 111.961 315.126 112.199 314.877 112.072Z" fill="url(#paint3_linear_2415_72993)"/>
<path d="M259.5 125.995L259.505 125.065L262.64 122.255C262.893 122.032 263.065 121.818 263.155 121.615C263.248 121.412 263.295 121.208 263.295 121.005C263.295 120.748 263.238 120.518 263.125 120.315C263.012 120.108 262.855 119.945 262.655 119.825C262.455 119.705 262.225 119.645 261.965 119.645C261.698 119.645 261.46 119.708 261.25 119.835C261.043 119.958 260.882 120.123 260.765 120.33C260.648 120.537 260.592 120.76 260.595 121H259.525C259.525 120.533 259.63 120.125 259.84 119.775C260.053 119.422 260.345 119.147 260.715 118.95C261.085 118.75 261.508 118.65 261.985 118.65C262.438 118.65 262.845 118.753 263.205 118.96C263.565 119.163 263.848 119.443 264.055 119.8C264.265 120.157 264.37 120.563 264.37 121.02C264.37 121.35 264.327 121.63 264.24 121.86C264.153 122.09 264.023 122.303 263.85 122.5C263.677 122.697 263.46 122.91 263.2 123.14L260.78 125.3L260.665 125H264.37V125.995H259.5ZM269.716 126.15C269.213 126.15 268.778 126.025 268.411 125.775C268.048 125.525 267.766 125.185 267.566 124.755C267.369 124.322 267.271 123.835 267.271 123.295C267.271 122.752 267.371 122.267 267.571 121.84C267.771 121.41 268.054 121.072 268.421 120.825C268.791 120.575 269.229 120.45 269.736 120.45C270.246 120.45 270.674 120.575 271.021 120.825C271.371 121.072 271.634 121.41 271.811 121.84C271.991 122.27 272.081 122.755 272.081 123.295C272.081 123.835 271.991 124.32 271.811 124.75C271.631 125.18 271.366 125.522 271.016 125.775C270.666 126.025 270.233 126.15 269.716 126.15ZM269.861 125.205C270.204 125.205 270.484 125.123 270.701 124.96C270.918 124.797 271.076 124.572 271.176 124.285C271.276 123.998 271.326 123.668 271.326 123.295C271.326 122.922 271.274 122.592 271.171 122.305C271.071 122.018 270.914 121.795 270.701 121.635C270.491 121.475 270.223 121.395 269.896 121.395C269.549 121.395 269.264 121.48 269.041 121.65C268.818 121.82 268.651 122.048 268.541 122.335C268.434 122.622 268.381 122.942 268.381 123.295C268.381 123.652 268.434 123.975 268.541 124.265C268.651 124.552 268.814 124.78 269.031 124.95C269.251 125.12 269.528 125.205 269.861 125.205ZM271.326 126V122.115H271.206V118.8H272.256V126H271.326ZM275.18 126.15C274.78 126.15 274.445 126.077 274.175 125.93C273.905 125.78 273.7 125.583 273.56 125.34C273.423 125.093 273.355 124.823 273.355 124.53C273.355 124.257 273.403 124.017 273.5 123.81C273.597 123.603 273.74 123.428 273.93 123.285C274.12 123.138 274.353 123.02 274.63 122.93C274.87 122.86 275.142 122.798 275.445 122.745C275.748 122.692 276.067 122.642 276.4 122.595C276.737 122.548 277.07 122.502 277.4 122.455L277.02 122.665C277.027 122.242 276.937 121.928 276.75 121.725C276.567 121.518 276.25 121.415 275.8 121.415C275.517 121.415 275.257 121.482 275.02 121.615C274.783 121.745 274.618 121.962 274.525 122.265L273.55 121.965C273.683 121.502 273.937 121.133 274.31 120.86C274.687 120.587 275.187 120.45 275.81 120.45C276.293 120.45 276.713 120.533 277.07 120.7C277.43 120.863 277.693 121.123 277.86 121.48C277.947 121.657 278 121.843 278.02 122.04C278.04 122.237 278.05 122.448 278.05 122.675V126H277.125V124.765L277.305 124.925C277.082 125.338 276.797 125.647 276.45 125.85C276.107 126.05 275.683 126.15 275.18 126.15ZM275.365 125.295C275.662 125.295 275.917 125.243 276.13 125.14C276.343 125.033 276.515 124.898 276.645 124.735C276.775 124.572 276.86 124.402 276.9 124.225C276.957 124.065 276.988 123.885 276.995 123.685C277.005 123.485 277.01 123.325 277.01 123.205L277.35 123.33C277.02 123.38 276.72 123.425 276.45 123.465C276.18 123.505 275.935 123.545 275.715 123.585C275.498 123.622 275.305 123.667 275.135 123.72C274.992 123.77 274.863 123.83 274.75 123.9C274.64 123.97 274.552 124.055 274.485 124.155C274.422 124.255 274.39 124.377 274.39 124.52C274.39 124.66 274.425 124.79 274.495 124.91C274.565 125.027 274.672 125.12 274.815 125.19C274.958 125.26 275.142 125.295 275.365 125.295ZM279.776 128.4L280.821 125.555L280.836 126.395L278.481 120.6H279.571L281.331 125.075H281.011L282.691 120.6H283.751L280.771 128.4H279.776ZM288.601 126.145C287.944 126.145 287.409 126 286.996 125.71C286.583 125.42 286.329 125.012 286.236 124.485L287.306 124.32C287.373 124.6 287.526 124.822 287.766 124.985C288.009 125.145 288.311 125.225 288.671 125.225C288.998 125.225 289.253 125.158 289.436 125.025C289.623 124.892 289.716 124.708 289.716 124.475C289.716 124.338 289.683 124.228 289.616 124.145C289.553 124.058 289.418 123.977 289.211 123.9C289.004 123.823 288.689 123.728 288.266 123.615C287.803 123.495 287.434 123.367 287.161 123.23C286.891 123.09 286.698 122.928 286.581 122.745C286.468 122.558 286.411 122.333 286.411 122.07C286.411 121.743 286.498 121.458 286.671 121.215C286.844 120.972 287.088 120.783 287.401 120.65C287.718 120.517 288.088 120.45 288.511 120.45C288.924 120.45 289.293 120.515 289.616 120.645C289.939 120.775 290.201 120.96 290.401 121.2C290.601 121.437 290.721 121.715 290.761 122.035L289.691 122.23C289.654 121.97 289.533 121.765 289.326 121.615C289.119 121.465 288.851 121.383 288.521 121.37C288.204 121.357 287.948 121.41 287.751 121.53C287.554 121.647 287.456 121.808 287.456 122.015C287.456 122.135 287.493 122.237 287.566 122.32C287.643 122.403 287.789 122.483 288.006 122.56C288.223 122.637 288.543 122.728 288.966 122.835C289.419 122.952 289.779 123.082 290.046 123.225C290.313 123.365 290.503 123.533 290.616 123.73C290.733 123.923 290.791 124.158 290.791 124.435C290.791 124.968 290.596 125.387 290.206 125.69C289.819 125.993 289.284 126.145 288.601 126.145ZM294.987 126C294.647 126.067 294.314 126.095 293.987 126.085C293.661 126.075 293.369 126.012 293.112 125.895C292.856 125.778 292.662 125.595 292.532 125.345C292.416 125.122 292.352 124.895 292.342 124.665C292.336 124.432 292.332 124.168 292.332 123.875V119.1H293.382V123.825C293.382 124.042 293.384 124.23 293.387 124.39C293.394 124.55 293.429 124.685 293.492 124.795C293.612 125.002 293.802 125.12 294.062 125.15C294.326 125.177 294.634 125.165 294.987 125.115V126ZM291.297 121.44V120.6H294.987V121.44H291.297ZM296.126 126V120.6H297.056V121.91L296.926 121.74C296.992 121.567 297.079 121.408 297.186 121.265C297.292 121.118 297.416 120.998 297.556 120.905C297.692 120.805 297.844 120.728 298.011 120.675C298.181 120.618 298.354 120.585 298.531 120.575C298.707 120.562 298.877 120.57 299.041 120.6V121.58C298.864 121.533 298.667 121.52 298.451 121.54C298.237 121.56 298.041 121.628 297.861 121.745C297.691 121.855 297.556 121.988 297.456 122.145C297.359 122.302 297.289 122.477 297.246 122.67C297.202 122.86 297.181 123.062 297.181 123.275V126H296.126ZM302.29 126.15C301.754 126.15 301.282 126.033 300.875 125.8C300.472 125.563 300.157 125.235 299.93 124.815C299.707 124.392 299.595 123.902 299.595 123.345C299.595 122.755 299.705 122.243 299.925 121.81C300.149 121.377 300.459 121.042 300.855 120.805C301.252 120.568 301.714 120.45 302.24 120.45C302.79 120.45 303.259 120.578 303.645 120.835C304.032 121.088 304.32 121.45 304.51 121.92C304.704 122.39 304.78 122.948 304.74 123.595H303.695V123.215C303.689 122.588 303.569 122.125 303.335 121.825C303.105 121.525 302.754 121.375 302.28 121.375C301.757 121.375 301.364 121.54 301.1 121.87C300.837 122.2 300.705 122.677 300.705 123.3C300.705 123.893 300.837 124.353 301.1 124.68C301.364 125.003 301.744 125.165 302.24 125.165C302.567 125.165 302.849 125.092 303.085 124.945C303.325 124.795 303.512 124.582 303.645 124.305L304.67 124.63C304.46 125.113 304.142 125.488 303.715 125.755C303.289 126.018 302.814 126.15 302.29 126.15ZM300.365 123.595V122.78H304.22V123.595H300.365ZM307.289 126.15C306.889 126.15 306.554 126.077 306.284 125.93C306.014 125.78 305.809 125.583 305.669 125.34C305.533 125.093 305.464 124.823 305.464 124.53C305.464 124.257 305.513 124.017 305.609 123.81C305.706 123.603 305.849 123.428 306.039 123.285C306.229 123.138 306.463 123.02 306.739 122.93C306.979 122.86 307.251 122.798 307.554 122.745C307.858 122.692 308.176 122.642 308.509 122.595C308.846 122.548 309.179 122.502 309.509 122.455L309.129 122.665C309.136 122.242 309.046 121.928 308.859 121.725C308.676 121.518 308.359 121.415 307.909 121.415C307.626 121.415 307.366 121.482 307.129 121.615C306.893 121.745 306.728 121.962 306.634 122.265L305.659 121.965C305.793 121.502 306.046 121.133 306.419 120.86C306.796 120.587 307.296 120.45 307.919 120.45C308.403 120.45 308.823 120.533 309.179 120.7C309.539 120.863 309.803 121.123 309.969 121.48C310.056 121.657 310.109 121.843 310.129 122.04C310.149 122.237 310.159 122.448 310.159 122.675V126H309.234V124.765L309.414 124.925C309.191 125.338 308.906 125.647 308.559 125.85C308.216 126.05 307.793 126.15 307.289 126.15ZM307.474 125.295C307.771 125.295 308.026 125.243 308.239 125.14C308.453 125.033 308.624 124.898 308.754 124.735C308.884 124.572 308.969 124.402 309.009 124.225C309.066 124.065 309.098 123.885 309.104 123.685C309.114 123.485 309.119 123.325 309.119 123.205L309.459 123.33C309.129 123.38 308.829 123.425 308.559 123.465C308.289 123.505 308.044 123.545 307.824 123.585C307.608 123.622 307.414 123.667 307.244 123.72C307.101 123.77 306.973 123.83 306.859 123.9C306.749 123.97 306.661 124.055 306.594 124.155C306.531 124.255 306.499 124.377 306.499 124.52C306.499 124.66 306.534 124.79 306.604 124.91C306.674 125.027 306.781 125.12 306.924 125.19C307.068 125.26 307.251 125.295 307.474 125.295ZM311.453 126L311.458 118.8H312.518V123.2L314.638 120.6H315.968L313.728 123.3L316.198 126H314.778L312.518 123.4V126H311.453Z" fill="#FA7315"/>
<path d="M247.686 114.012C247.949 113.956 248.294 114.101 248.4 114.371C248.472 114.553 248.459 114.75 248.446 114.943C248.336 116.592 247.888 118.347 247.746 120.008C247.741 120.159 247.815 120.251 247.953 120.271C249.087 120.434 251.108 119.782 251.79 121.039C252.169 121.737 251.988 122.283 251.641 122.915C250.087 125.739 248.207 128.45 246.62 131.261C246.172 131.801 245.41 131.36 245.514 130.677L246.224 125.461C246.202 125.321 246.146 125.249 246.013 125.23C244.484 125.01 241.603 126.016 242.046 123.13C243.714 120.339 245.309 117.469 247.046 114.722C247.208 114.465 247.378 114.079 247.686 114.013V114.012Z" fill="#FA7315"/>
<defs>
<linearGradient id="paint0_linear_2415_72993" x1="2.13543e-06" y1="136.555" x2="361" y2="4.4448" gradientUnits="userSpaceOnUse">
<stop stop-color="#4764FF"/>
<stop offset="0.610577" stop-color="#080809"/>
</linearGradient>
<linearGradient id="paint1_linear_2415_72993" x1="318.385" y1="66.9492" x2="318.385" y2="87.4021" gradientUnits="userSpaceOnUse">
<stop stop-color="#3254D1"/>
<stop offset="1" stop-color="#2F4EC1"/>
</linearGradient>
<linearGradient id="paint2_linear_2415_72993" x1="275.437" y1="33.0938" x2="275.437" y2="84.1013" gradientUnits="userSpaceOnUse">
<stop stop-color="#9CC2FF"/>
<stop offset="1" stop-color="#67A1FF"/>
</linearGradient>
<linearGradient id="paint3_linear_2415_72993" x1="276.509" y1="6.36328" x2="276.509" y2="140.997" gradientUnits="userSpaceOnUse">
<stop stop-color="#3D66FE"/>
<stop offset="1" stop-color="#253E99"/>
</linearGradient>
<clipPath id="clip0_2415_72993">
<rect width="9" height="10" fill="white" transform="translate(20 113)"/>
</clipPath>
</defs>
</svg>
