<svg width="361" height="141" viewBox="0 0 361 141" fill="none" xmlns="http://www.w3.org/2000/svg">
<path d="M0 12C0 5.37258 5.37258 0 12 0H349C355.627 0 361 5.37258 361 12V129C361 135.627 355.627 141 349 141H12C5.37257 141 0 135.627 0 129V12Z" fill="url(#paint0_linear_2415_72955)"/>
<path d="M19.992 35V25.056H16.16V23.48H25.496V25.056H21.664V35H19.992ZM29.247 35.24C28.383 35.24 27.6337 35.0453 26.999 34.656C26.3643 34.2667 25.8737 33.7307 25.527 33.048C25.1857 32.36 25.015 31.568 25.015 30.672C25.015 29.7707 25.191 28.9787 25.543 28.296C25.895 27.608 26.3883 27.0747 27.023 26.696C27.6577 26.312 28.399 26.12 29.247 26.12C30.111 26.12 30.8603 26.3147 31.495 26.704C32.1297 27.0933 32.6203 27.6293 32.967 28.312C33.3137 28.9947 33.487 29.7813 33.487 30.672C33.487 31.5733 33.311 32.368 32.959 33.056C32.6123 33.7387 32.1217 34.2747 31.487 34.664C30.8523 35.048 30.1057 35.24 29.247 35.24ZM29.247 33.664C30.0737 33.664 30.6897 33.3867 31.095 32.832C31.5057 32.272 31.711 31.552 31.711 30.672C31.711 29.7707 31.503 29.0507 31.087 28.512C30.6763 27.968 30.063 27.696 29.247 27.696C28.687 27.696 28.2257 27.824 27.863 28.08C27.5003 28.3307 27.231 28.68 27.055 29.128C26.879 29.5707 26.791 30.0853 26.791 30.672C26.791 31.5787 26.999 32.304 27.415 32.848C27.831 33.392 28.4417 33.664 29.247 33.664ZM38.677 35.24C37.8717 35.24 37.1757 35.04 36.589 34.64C36.0077 34.24 35.557 33.696 35.237 33.008C34.9223 32.3147 34.765 31.536 34.765 30.672C34.765 29.8027 34.925 29.0267 35.245 28.344C35.565 27.656 36.0183 27.1147 36.605 26.72C37.197 26.32 37.8983 26.12 38.709 26.12C39.525 26.12 40.2103 26.32 40.765 26.72C41.325 27.1147 41.7463 27.656 42.029 28.344C42.317 29.032 42.461 29.808 42.461 30.672C42.461 31.536 42.317 32.312 42.029 33C41.741 33.688 41.317 34.2347 40.757 34.64C40.197 35.04 39.5037 35.24 38.677 35.24ZM38.909 33.728C39.4583 33.728 39.9063 33.5973 40.253 33.336C40.5997 33.0747 40.853 32.7147 41.013 32.256C41.173 31.7973 41.253 31.2693 41.253 30.672C41.253 30.0747 41.1703 29.5467 41.005 29.088C40.845 28.6293 40.5943 28.272 40.253 28.016C39.917 27.76 39.4877 27.632 38.965 27.632C38.4103 27.632 37.9543 27.768 37.597 28.04C37.2397 28.312 36.973 28.6773 36.797 29.136C36.6263 29.5947 36.541 30.1067 36.541 30.672C36.541 31.2427 36.6263 31.76 36.797 32.224C36.973 32.6827 37.2343 33.048 37.581 33.32C37.933 33.592 38.3757 33.728 38.909 33.728ZM41.253 35V28.784H41.061V23.48H42.741V35H41.253ZM47.4194 35.24C46.7794 35.24 46.2434 35.1227 45.8114 34.888C45.3794 34.648 45.0514 34.3333 44.8274 33.944C44.6087 33.5493 44.4994 33.1173 44.4994 32.648C44.4994 32.2107 44.5767 31.8267 44.7314 31.496C44.886 31.1653 45.1154 30.8853 45.4194 30.656C45.7234 30.4213 46.0967 30.232 46.5394 30.088C46.9234 29.976 47.358 29.8773 47.8434 29.792C48.3287 29.7067 48.838 29.6267 49.3714 29.552C49.91 29.4773 50.4434 29.4027 50.9714 29.328L50.3634 29.664C50.374 28.9867 50.23 28.4853 49.9314 28.16C49.638 27.8293 49.1314 27.664 48.4114 27.664C47.958 27.664 47.542 27.7707 47.1634 27.984C46.7847 28.192 46.5207 28.5387 46.3714 29.024L44.8114 28.544C45.0247 27.8027 45.43 27.2133 46.0274 26.776C46.63 26.3387 47.43 26.12 48.4274 26.12C49.2007 26.12 49.8727 26.2533 50.4434 26.52C51.0194 26.7813 51.4407 27.1973 51.7074 27.768C51.846 28.0507 51.9314 28.3493 51.9634 28.664C51.9954 28.9787 52.0114 29.3173 52.0114 29.68V35H50.5314V33.024L50.8194 33.28C50.462 33.9413 50.006 34.4347 49.4514 34.76C48.902 35.08 48.2247 35.24 47.4194 35.24ZM47.7154 33.872C48.19 33.872 48.598 33.7893 48.9394 33.624C49.2807 33.4533 49.5554 33.2373 49.7634 32.976C49.9714 32.7147 50.1074 32.4427 50.1714 32.16C50.262 31.904 50.3127 31.616 50.3234 31.296C50.3394 30.976 50.3474 30.72 50.3474 30.528L50.8914 30.728C50.3634 30.808 49.8834 30.88 49.4514 30.944C49.0194 31.008 48.6274 31.072 48.2754 31.136C47.9287 31.1947 47.6194 31.2667 47.3474 31.352C47.118 31.432 46.9127 31.528 46.7314 31.64C46.5554 31.752 46.414 31.888 46.3074 32.048C46.206 32.208 46.1554 32.4027 46.1554 32.632C46.1554 32.856 46.2114 33.064 46.3234 33.256C46.4354 33.4427 46.606 33.592 46.8354 33.704C47.0647 33.816 47.358 33.872 47.7154 33.872ZM54.7724 38.84L56.4444 34.288L56.4684 35.632L52.7004 26.36H54.4444L57.2604 33.52H56.7484L59.4364 26.36H61.1324L56.3644 38.84H54.7724ZM62.5456 27.32L62.6496 26.576C62.879 26.592 63.0576 26.5493 63.1856 26.448C63.3136 26.3467 63.399 26.2053 63.4416 26.024C63.4843 25.8427 63.4923 25.6373 63.4656 25.408H62.5456V23.48H64.3136V25.568C64.3136 26.1973 64.1616 26.672 63.8576 26.992C63.559 27.312 63.1216 27.4213 62.5456 27.32ZM68.6271 35.232C67.5765 35.232 66.7205 35 66.0591 34.536C65.3978 34.072 64.9925 33.4187 64.8431 32.576L66.5551 32.312C66.6618 32.76 66.9071 33.1147 67.2911 33.376C67.6805 33.632 68.1631 33.76 68.7391 33.76C69.2618 33.76 69.6698 33.6533 69.9631 33.44C70.2618 33.2267 70.4111 32.9333 70.4111 32.56C70.4111 32.3413 70.3578 32.1653 70.2511 32.032C70.1498 31.8933 69.9338 31.7627 69.6031 31.64C69.2725 31.5173 68.7685 31.3653 68.0911 31.184C67.3498 30.992 66.7605 30.7867 66.3231 30.568C65.8911 30.344 65.5818 30.0853 65.3951 29.792C65.2138 29.4933 65.1231 29.1333 65.1231 28.712C65.1231 28.1893 65.2618 27.7333 65.5391 27.344C65.8165 26.9547 66.2058 26.6533 66.7071 26.44C67.2138 26.2267 67.8058 26.12 68.4831 26.12C69.1445 26.12 69.7338 26.224 70.2511 26.432C70.7685 26.64 71.1871 26.936 71.5071 27.32C71.8271 27.6987 72.0191 28.144 72.0831 28.656L70.3711 28.968C70.3125 28.552 70.1178 28.224 69.7871 27.984C69.4565 27.744 69.0271 27.6133 68.4991 27.592C67.9925 27.5707 67.5818 27.656 67.2671 27.848C66.9525 28.0347 66.7951 28.2933 66.7951 28.624C66.7951 28.816 66.8538 28.9787 66.9711 29.112C67.0938 29.2453 67.3285 29.3733 67.6751 29.496C68.0218 29.6187 68.5338 29.7653 69.2111 29.936C69.9365 30.1227 70.5125 30.3307 70.9391 30.56C71.3658 30.784 71.6698 31.0533 71.8511 31.368C72.0378 31.6773 72.1311 32.0533 72.1311 32.496C72.1311 33.3493 71.8191 34.0187 71.1951 34.504C70.5765 34.9893 69.7205 35.232 68.6271 35.232ZM81.1604 35.24C80.3337 35.24 79.6404 35.04 79.0804 34.64C78.5204 34.2347 78.0964 33.688 77.8084 33C77.5204 32.312 77.3764 31.536 77.3764 30.672C77.3764 29.808 77.5177 29.032 77.8004 28.344C78.0884 27.656 78.5097 27.1147 79.0644 26.72C79.6244 26.32 80.3124 26.12 81.1284 26.12C81.939 26.12 82.6377 26.32 83.2244 26.72C83.8164 27.1147 84.2724 27.656 84.5924 28.344C84.9124 29.0267 85.0724 29.8027 85.0724 30.672C85.0724 31.536 84.9124 32.3147 84.5924 33.008C84.2777 33.696 83.827 34.24 83.2404 34.64C82.659 35.04 81.9657 35.24 81.1604 35.24ZM77.0964 38.84V26.36H78.5844V32.576H78.7764V38.84H77.0964ZM80.9284 33.728C81.4617 33.728 81.9017 33.592 82.2484 33.32C82.6004 33.048 82.8617 32.6827 83.0324 32.224C83.2084 31.76 83.2964 31.2427 83.2964 30.672C83.2964 30.1067 83.2084 29.5947 83.0324 29.136C82.8617 28.6773 82.5977 28.312 82.2404 28.04C81.883 27.768 81.427 27.632 80.8724 27.632C80.3497 27.632 79.9177 27.76 79.5764 28.016C79.2404 28.272 78.9897 28.6293 78.8244 29.088C78.6644 29.5467 78.5844 30.0747 78.5844 30.672C78.5844 31.2693 78.6644 31.7973 78.8244 32.256C78.9844 32.7147 79.2377 33.0747 79.5844 33.336C79.931 33.5973 80.379 33.728 80.9284 33.728ZM86.8388 35V26.36H88.3268V28.456L88.1188 28.184C88.2254 27.9067 88.3641 27.6533 88.5348 27.424C88.7054 27.1893 88.9028 26.9973 89.1268 26.848C89.3454 26.688 89.5881 26.5653 89.8548 26.48C90.1268 26.3893 90.4041 26.336 90.6868 26.32C90.9694 26.2987 91.2414 26.312 91.5028 26.36V27.928C91.2201 27.8533 90.9054 27.832 90.5588 27.864C90.2174 27.896 89.9028 28.0053 89.6148 28.192C89.3428 28.368 89.1268 28.5813 88.9668 28.832C88.8121 29.0827 88.7001 29.3627 88.6308 29.672C88.5614 29.976 88.5268 30.2987 88.5268 30.64V35H86.8388ZM96.622 35.24C95.758 35.24 95.0087 35.0453 94.374 34.656C93.7393 34.2667 93.2487 33.7307 92.902 33.048C92.5607 32.36 92.39 31.568 92.39 30.672C92.39 29.7707 92.566 28.9787 92.918 28.296C93.27 27.608 93.7633 27.0747 94.398 26.696C95.0327 26.312 95.774 26.12 96.622 26.12C97.486 26.12 98.2353 26.3147 98.87 26.704C99.5047 27.0933 99.9953 27.6293 100.342 28.312C100.689 28.9947 100.862 29.7813 100.862 30.672C100.862 31.5733 100.686 32.368 100.334 33.056C99.9873 33.7387 99.4967 34.2747 98.862 34.664C98.2273 35.048 97.4807 35.24 96.622 35.24ZM96.622 33.664C97.4487 33.664 98.0647 33.3867 98.47 32.832C98.8807 32.272 99.086 31.552 99.086 30.672C99.086 29.7707 98.878 29.0507 98.462 28.512C98.0513 27.968 97.438 27.696 96.622 27.696C96.062 27.696 95.6007 27.824 95.238 28.08C94.8753 28.3307 94.606 28.68 94.43 29.128C94.254 29.5707 94.166 30.0853 94.166 30.672C94.166 31.5787 94.374 32.304 94.79 32.848C95.206 33.392 95.8167 33.664 96.622 33.664ZM106.18 39.08C105.716 39.08 105.265 39.008 104.828 38.864C104.396 38.72 104.001 38.5067 103.644 38.224C103.287 37.9467 102.991 37.6027 102.756 37.192L104.3 36.408C104.487 36.776 104.753 37.0453 105.1 37.216C105.447 37.3867 105.812 37.472 106.196 37.472C106.671 37.472 107.076 37.3867 107.412 37.216C107.748 37.0507 108.001 36.8 108.172 36.464C108.348 36.128 108.433 35.712 108.428 35.216V32.8H108.628V26.36H110.108V35.232C110.108 35.4613 110.1 35.68 110.084 35.888C110.068 36.096 110.039 36.304 109.996 36.512C109.873 37.0933 109.639 37.5733 109.292 37.952C108.951 38.3307 108.513 38.6133 107.98 38.8C107.452 38.9867 106.852 39.08 106.18 39.08ZM106.052 35.24C105.247 35.24 104.551 35.04 103.964 34.64C103.383 34.24 102.932 33.696 102.612 33.008C102.297 32.3147 102.14 31.536 102.14 30.672C102.14 29.8027 102.3 29.0267 102.62 28.344C102.94 27.656 103.393 27.1147 103.98 26.72C104.572 26.32 105.273 26.12 106.084 26.12C106.9 26.12 107.585 26.32 108.14 26.72C108.7 27.1147 109.121 27.656 109.404 28.344C109.692 29.032 109.836 29.808 109.836 30.672C109.836 31.536 109.692 32.312 109.404 33C109.116 33.688 108.692 34.2347 108.132 34.64C107.572 35.04 106.879 35.24 106.052 35.24ZM106.284 33.728C106.833 33.728 107.281 33.5973 107.628 33.336C107.975 33.0747 108.228 32.7147 108.388 32.256C108.548 31.7973 108.628 31.2693 108.628 30.672C108.628 30.0747 108.545 29.5467 108.38 29.088C108.22 28.6293 107.969 28.272 107.628 28.016C107.292 27.76 106.863 27.632 106.34 27.632C105.785 27.632 105.329 27.768 104.972 28.04C104.615 28.312 104.348 28.6773 104.172 29.136C104.001 29.5947 103.916 30.1067 103.916 30.672C103.916 31.2427 104.001 31.76 104.172 32.224C104.348 32.6827 104.609 33.048 104.956 33.32C105.308 33.592 105.751 33.728 106.284 33.728ZM112.354 35V26.36H113.842V28.456L113.634 28.184C113.741 27.9067 113.88 27.6533 114.05 27.424C114.221 27.1893 114.418 26.9973 114.642 26.848C114.861 26.688 115.104 26.5653 115.37 26.48C115.642 26.3893 115.92 26.336 116.202 26.32C116.485 26.2987 116.757 26.312 117.018 26.36V27.928C116.736 27.8533 116.421 27.832 116.074 27.864C115.733 27.896 115.418 28.0053 115.13 28.192C114.858 28.368 114.642 28.5813 114.482 28.832C114.328 29.0827 114.216 29.3627 114.146 29.672C114.077 29.976 114.042 30.2987 114.042 30.64V35H112.354ZM122.218 35.24C121.359 35.24 120.604 35.0533 119.954 34.68C119.308 34.3013 118.804 33.776 118.442 33.104C118.084 32.4267 117.906 31.6427 117.906 30.752C117.906 29.808 118.082 28.9893 118.434 28.296C118.791 27.6027 119.287 27.0667 119.922 26.688C120.556 26.3093 121.295 26.12 122.138 26.12C123.018 26.12 123.767 26.3253 124.386 26.736C125.004 27.1413 125.466 27.72 125.77 28.472C126.079 29.224 126.202 30.1173 126.138 31.152H124.466V30.544C124.455 29.5413 124.263 28.8 123.89 28.32C123.522 27.84 122.959 27.6 122.202 27.6C121.364 27.6 120.735 27.864 120.314 28.392C119.892 28.92 119.682 29.6827 119.682 30.68C119.682 31.6293 119.892 32.3653 120.314 32.888C120.735 33.4053 121.343 33.664 122.138 33.664C122.66 33.664 123.111 33.5467 123.49 33.312C123.874 33.072 124.172 32.7307 124.386 32.288L126.026 32.808C125.69 33.5813 125.18 34.1813 124.498 34.608C123.815 35.0293 123.055 35.24 122.218 35.24ZM119.138 31.152V29.848H125.306V31.152H119.138ZM131.237 35.232C130.186 35.232 129.33 35 128.669 34.536C128.007 34.072 127.602 33.4187 127.453 32.576L129.164 32.312C129.271 32.76 129.517 33.1147 129.901 33.376C130.29 33.632 130.773 33.76 131.349 33.76C131.871 33.76 132.279 33.6533 132.573 33.44C132.871 33.2267 133.021 32.9333 133.021 32.56C133.021 32.3413 132.967 32.1653 132.861 32.032C132.759 31.8933 132.543 31.7627 132.213 31.64C131.882 31.5173 131.378 31.3653 130.701 31.184C129.959 30.992 129.37 30.7867 128.933 30.568C128.501 30.344 128.191 30.0853 128.005 29.792C127.823 29.4933 127.733 29.1333 127.733 28.712C127.733 28.1893 127.871 27.7333 128.149 27.344C128.426 26.9547 128.815 26.6533 129.317 26.44C129.823 26.2267 130.415 26.12 131.093 26.12C131.754 26.12 132.343 26.224 132.861 26.432C133.378 26.64 133.797 26.936 134.117 27.32C134.437 27.6987 134.629 28.144 134.693 28.656L132.981 28.968C132.922 28.552 132.727 28.224 132.397 27.984C132.066 27.744 131.637 27.6133 131.109 27.592C130.602 27.5707 130.191 27.656 129.877 27.848C129.562 28.0347 129.405 28.2933 129.405 28.624C129.405 28.816 129.463 28.9787 129.581 29.112C129.703 29.2453 129.938 29.3733 130.285 29.496C130.631 29.6187 131.143 29.7653 131.821 29.936C132.546 30.1227 133.122 30.3307 133.549 30.56C133.975 30.784 134.279 31.0533 134.461 31.368C134.647 31.6773 134.741 32.0533 134.741 32.496C134.741 33.3493 134.429 34.0187 133.805 34.504C133.186 34.9893 132.33 35.232 131.237 35.232ZM139.815 35.232C138.764 35.232 137.908 35 137.247 34.536C136.585 34.072 136.18 33.4187 136.031 32.576L137.743 32.312C137.849 32.76 138.095 33.1147 138.479 33.376C138.868 33.632 139.351 33.76 139.927 33.76C140.449 33.76 140.857 33.6533 141.151 33.44C141.449 33.2267 141.599 32.9333 141.599 32.56C141.599 32.3413 141.545 32.1653 141.439 32.032C141.337 31.8933 141.121 31.7627 140.791 31.64C140.46 31.5173 139.956 31.3653 139.279 31.184C138.537 30.992 137.948 30.7867 137.511 30.568C137.079 30.344 136.769 30.0853 136.583 29.792C136.401 29.4933 136.311 29.1333 136.311 28.712C136.311 28.1893 136.449 27.7333 136.727 27.344C137.004 26.9547 137.393 26.6533 137.895 26.44C138.401 26.2267 138.993 26.12 139.671 26.12C140.332 26.12 140.921 26.224 141.439 26.432C141.956 26.64 142.375 26.936 142.695 27.32C143.015 27.6987 143.207 28.144 143.271 28.656L141.559 28.968C141.5 28.552 141.305 28.224 140.975 27.984C140.644 27.744 140.215 27.6133 139.687 27.592C139.18 27.5707 138.769 27.656 138.455 27.848C138.14 28.0347 137.983 28.2933 137.983 28.624C137.983 28.816 138.041 28.9787 138.159 29.112C138.281 29.2453 138.516 29.3733 138.863 29.496C139.209 29.6187 139.721 29.7653 140.399 29.936C141.124 30.1227 141.7 30.3307 142.127 30.56C142.553 30.784 142.857 31.0533 143.039 31.368C143.225 31.6773 143.319 32.0533 143.319 32.496C143.319 33.3493 143.007 34.0187 142.383 34.504C141.764 34.9893 140.908 35.232 139.815 35.232Z" fill="#DCDBDB"/>
<path d="M31.072 91.768C22.192 91.768 17.104 87.256 17.104 79.288H24.976C24.976 83.128 26.56 85.192 30.784 85.192C34.336 85.192 35.728 83.704 35.728 81.16C35.728 77.992 33.616 76.792 29.824 76.792H28.144V71.176H29.632C32.56 71.176 34.768 69.928 34.768 67.096C34.768 64.888 33.376 63.64 30.688 63.64C28.096 63.64 25.936 64.84 25.936 68.008H18.064C18.064 61.672 22.912 57.064 30.88 57.064C37.6 57.064 43.12 60.328 43.12 66.184C43.12 69.784 41.008 72.04 38.32 73.432V73.528C42.4 74.824 44.08 77.656 44.08 81.496C44.08 88.216 38.992 91.768 31.072 91.768Z" fill="white"/>
<path d="M51.4056 91H46.2056L57.2856 62.4H62.4856L51.4056 91ZM74.9116 91.64C65.7916 91.64 62.8316 84.76 62.8316 77.56C62.8316 67.56 67.5916 62.72 74.6716 62.72C80.0316 62.72 84.0716 65.92 84.9516 70.36H78.0716C77.8716 69.4 77.0716 67.8 74.5516 67.8C71.1116 67.8 69.6316 70.4 69.6316 74V74.44L69.7916 74.56C71.2316 73.2 73.1916 72.16 76.2316 72.16C81.9516 72.16 85.7516 76.24 85.7516 81.52C85.7516 87.64 81.5516 91.64 74.9116 91.64ZM74.5116 86.56C77.4716 86.56 79.1916 84.56 79.1916 81.88C79.1916 79.24 77.4716 77.24 74.5116 77.24C71.5116 77.24 69.7916 79.24 69.7916 81.88C69.7916 84.56 71.5116 86.56 74.5116 86.56Z" fill="#A6B4FF"/>
<path d="M36.7 122V114.8H39.61C39.68 114.8 39.7667 114.803 39.87 114.81C39.9733 114.813 40.0717 114.823 40.165 114.84C40.565 114.903 40.8983 115.04 41.165 115.25C41.435 115.46 41.6367 115.725 41.77 116.045C41.9033 116.365 41.97 116.718 41.97 117.105C41.97 117.495 41.9033 117.85 41.77 118.17C41.6367 118.49 41.435 118.755 41.165 118.965C40.8983 119.175 40.565 119.312 40.165 119.375C40.0717 119.388 39.9717 119.398 39.865 119.405C39.7617 119.412 39.6767 119.415 39.61 119.415H37.745V122H36.7ZM37.745 118.425H39.57C39.6367 118.425 39.71 118.422 39.79 118.415C39.8733 118.408 39.9517 118.397 40.025 118.38C40.2383 118.33 40.41 118.238 40.54 118.105C40.67 117.968 40.7633 117.812 40.82 117.635C40.8767 117.458 40.905 117.282 40.905 117.105C40.905 116.928 40.8767 116.753 40.82 116.58C40.7633 116.403 40.67 116.248 40.54 116.115C40.41 115.978 40.2383 115.885 40.025 115.835C39.9517 115.815 39.8733 115.802 39.79 115.795C39.71 115.788 39.6367 115.785 39.57 115.785H37.745V118.425ZM42.9695 122V116.6H43.8995V117.91L43.7695 117.74C43.8362 117.567 43.9229 117.408 44.0295 117.265C44.1362 117.118 44.2595 116.998 44.3995 116.905C44.5362 116.805 44.6879 116.728 44.8545 116.675C45.0245 116.618 45.1979 116.585 45.3745 116.575C45.5512 116.562 45.7212 116.57 45.8845 116.6V117.58C45.7079 117.533 45.5112 117.52 45.2945 117.54C45.0812 117.56 44.8845 117.628 44.7045 117.745C44.5345 117.855 44.3995 117.988 44.2995 118.145C44.2029 118.302 44.1329 118.477 44.0895 118.67C44.0462 118.86 44.0245 119.062 44.0245 119.275V122H42.9695ZM49.0841 122.15C48.5441 122.15 48.0757 122.028 47.6791 121.785C47.2824 121.542 46.9757 121.207 46.7591 120.78C46.5457 120.35 46.4391 119.855 46.4391 119.295C46.4391 118.732 46.5491 118.237 46.7691 117.81C46.9891 117.38 47.2974 117.047 47.6941 116.81C48.0907 116.57 48.5541 116.45 49.0841 116.45C49.6241 116.45 50.0924 116.572 50.4891 116.815C50.8857 117.058 51.1924 117.393 51.4091 117.82C51.6257 118.247 51.7341 118.738 51.7341 119.295C51.7341 119.858 51.6241 120.355 51.4041 120.785C51.1874 121.212 50.8807 121.547 50.4841 121.79C50.0874 122.03 49.6207 122.15 49.0841 122.15ZM49.0841 121.165C49.6007 121.165 49.9857 120.992 50.2391 120.645C50.4957 120.295 50.6241 119.845 50.6241 119.295C50.6241 118.732 50.4941 118.282 50.2341 117.945C49.9774 117.605 49.5941 117.435 49.0841 117.435C48.7341 117.435 48.4457 117.515 48.2191 117.675C47.9924 117.832 47.8241 118.05 47.7141 118.33C47.6041 118.607 47.5491 118.928 47.5491 119.295C47.5491 119.862 47.6791 120.315 47.9391 120.655C48.1991 120.995 48.5807 121.165 49.0841 121.165ZM55.0578 124.55C54.7678 124.55 54.4861 124.505 54.2128 124.415C53.9428 124.325 53.6961 124.192 53.4728 124.015C53.2495 123.842 53.0645 123.627 52.9178 123.37L53.8828 122.88C53.9995 123.11 54.1661 123.278 54.3828 123.385C54.5995 123.492 54.8278 123.545 55.0678 123.545C55.3645 123.545 55.6178 123.492 55.8278 123.385C56.0378 123.282 56.1961 123.125 56.3028 122.915C56.4128 122.705 56.4661 122.445 56.4628 122.135V120.625H56.5878V116.6H57.5128V122.145C57.5128 122.288 57.5078 122.425 57.4978 122.555C57.4878 122.685 57.4695 122.815 57.4428 122.945C57.3661 123.308 57.2195 123.608 57.0028 123.845C56.7895 124.082 56.5161 124.258 56.1828 124.375C55.8528 124.492 55.4778 124.55 55.0578 124.55ZM54.9778 122.15C54.4745 122.15 54.0395 122.025 53.6728 121.775C53.3095 121.525 53.0278 121.185 52.8278 120.755C52.6311 120.322 52.5328 119.835 52.5328 119.295C52.5328 118.752 52.6328 118.267 52.8328 117.84C53.0328 117.41 53.3161 117.072 53.6828 116.825C54.0528 116.575 54.4911 116.45 54.9978 116.45C55.5078 116.45 55.9361 116.575 56.2828 116.825C56.6328 117.072 56.8961 117.41 57.0728 117.84C57.2528 118.27 57.3428 118.755 57.3428 119.295C57.3428 119.835 57.2528 120.32 57.0728 120.75C56.8928 121.18 56.6278 121.522 56.2778 121.775C55.9278 122.025 55.4945 122.15 54.9778 122.15ZM55.1228 121.205C55.4661 121.205 55.7461 121.123 55.9628 120.96C56.1795 120.797 56.3378 120.572 56.4378 120.285C56.5378 119.998 56.5878 119.668 56.5878 119.295C56.5878 118.922 56.5361 118.592 56.4328 118.305C56.3328 118.018 56.1761 117.795 55.9628 117.635C55.7528 117.475 55.4845 117.395 55.1578 117.395C54.8111 117.395 54.5261 117.48 54.3028 117.65C54.0795 117.82 53.9128 118.048 53.8028 118.335C53.6961 118.622 53.6428 118.942 53.6428 119.295C53.6428 119.652 53.6961 119.975 53.8028 120.265C53.9128 120.552 54.0761 120.78 54.2928 120.95C54.5128 121.12 54.7895 121.205 55.1228 121.205ZM58.9168 122V116.6H59.8468V117.91L59.7168 117.74C59.7835 117.567 59.8701 117.408 59.9768 117.265C60.0835 117.118 60.2068 116.998 60.3468 116.905C60.4835 116.805 60.6351 116.728 60.8018 116.675C60.9718 116.618 61.1451 116.585 61.3218 116.575C61.4985 116.562 61.6685 116.57 61.8318 116.6V117.58C61.6551 117.533 61.4585 117.52 61.2418 117.54C61.0285 117.56 60.8318 117.628 60.6518 117.745C60.4818 117.855 60.3468 117.988 60.2468 118.145C60.1501 118.302 60.0801 118.477 60.0368 118.67C59.9935 118.86 59.9718 119.062 59.9718 119.275V122H58.9168ZM65.0813 122.15C64.5447 122.15 64.073 122.033 63.6663 121.8C63.263 121.563 62.948 121.235 62.7213 120.815C62.498 120.392 62.3863 119.902 62.3863 119.345C62.3863 118.755 62.4963 118.243 62.7163 117.81C62.9397 117.377 63.2497 117.042 63.6463 116.805C64.043 116.568 64.5047 116.45 65.0313 116.45C65.5813 116.45 66.0497 116.578 66.4363 116.835C66.823 117.088 67.1113 117.45 67.3013 117.92C67.4947 118.39 67.5713 118.948 67.5313 119.595H66.4863V119.215C66.4797 118.588 66.3597 118.125 66.1263 117.825C65.8963 117.525 65.5447 117.375 65.0713 117.375C64.548 117.375 64.1547 117.54 63.8913 117.87C63.628 118.2 63.4963 118.677 63.4963 119.3C63.4963 119.893 63.628 120.353 63.8913 120.68C64.1547 121.003 64.5347 121.165 65.0313 121.165C65.358 121.165 65.6397 121.092 65.8763 120.945C66.1163 120.795 66.303 120.582 66.4363 120.305L67.4613 120.63C67.2513 121.113 66.933 121.488 66.5063 121.755C66.0797 122.018 65.6047 122.15 65.0813 122.15ZM63.1563 119.595V118.78H67.0113V119.595H63.1563ZM70.7181 122.145C70.0615 122.145 69.5265 122 69.1131 121.71C68.6998 121.42 68.4465 121.012 68.3531 120.485L69.4231 120.32C69.4898 120.6 69.6431 120.822 69.8831 120.985C70.1265 121.145 70.4281 121.225 70.7881 121.225C71.1148 121.225 71.3698 121.158 71.5531 121.025C71.7398 120.892 71.8331 120.708 71.8331 120.475C71.8331 120.338 71.7998 120.228 71.7331 120.145C71.6698 120.058 71.5348 119.977 71.3281 119.9C71.1215 119.823 70.8065 119.728 70.3831 119.615C69.9198 119.495 69.5515 119.367 69.2781 119.23C69.0081 119.09 68.8148 118.928 68.6981 118.745C68.5848 118.558 68.5281 118.333 68.5281 118.07C68.5281 117.743 68.6148 117.458 68.7881 117.215C68.9615 116.972 69.2048 116.783 69.5181 116.65C69.8348 116.517 70.2048 116.45 70.6281 116.45C71.0415 116.45 71.4098 116.515 71.7331 116.645C72.0565 116.775 72.3181 116.96 72.5181 117.2C72.7181 117.437 72.8381 117.715 72.8781 118.035L71.8081 118.23C71.7715 117.97 71.6498 117.765 71.4431 117.615C71.2365 117.465 70.9681 117.383 70.6381 117.37C70.3215 117.357 70.0648 117.41 69.8681 117.53C69.6715 117.647 69.5731 117.808 69.5731 118.015C69.5731 118.135 69.6098 118.237 69.6831 118.32C69.7598 118.403 69.9065 118.483 70.1231 118.56C70.3398 118.637 70.6598 118.728 71.0831 118.835C71.5365 118.952 71.8965 119.082 72.1631 119.225C72.4298 119.365 72.6198 119.533 72.7331 119.73C72.8498 119.923 72.9081 120.158 72.9081 120.435C72.9081 120.968 72.7131 121.387 72.3231 121.69C71.9365 121.993 71.4015 122.145 70.7181 122.145ZM76.0795 122.145C75.4228 122.145 74.8878 122 74.4745 121.71C74.0611 121.42 73.8078 121.012 73.7145 120.485L74.7845 120.32C74.8511 120.6 75.0045 120.822 75.2445 120.985C75.4878 121.145 75.7895 121.225 76.1495 121.225C76.4761 121.225 76.7311 121.158 76.9145 121.025C77.1011 120.892 77.1945 120.708 77.1945 120.475C77.1945 120.338 77.1611 120.228 77.0945 120.145C77.0311 120.058 76.8961 119.977 76.6895 119.9C76.4828 119.823 76.1678 119.728 75.7445 119.615C75.2811 119.495 74.9128 119.367 74.6395 119.23C74.3695 119.09 74.1761 118.928 74.0595 118.745C73.9461 118.558 73.8895 118.333 73.8895 118.07C73.8895 117.743 73.9761 117.458 74.1495 117.215C74.3228 116.972 74.5661 116.783 74.8795 116.65C75.1961 116.517 75.5661 116.45 75.9895 116.45C76.4028 116.45 76.7711 116.515 77.0945 116.645C77.4178 116.775 77.6795 116.96 77.8795 117.2C78.0795 117.437 78.1995 117.715 78.2395 118.035L77.1695 118.23C77.1328 117.97 77.0111 117.765 76.8045 117.615C76.5978 117.465 76.3295 117.383 75.9995 117.37C75.6828 117.357 75.4261 117.41 75.2295 117.53C75.0328 117.647 74.9345 117.808 74.9345 118.015C74.9345 118.135 74.9711 118.237 75.0445 118.32C75.1211 118.403 75.2678 118.483 75.4845 118.56C75.7011 118.637 76.0211 118.728 76.4445 118.835C76.8978 118.952 77.2578 119.082 77.5245 119.225C77.7911 119.365 77.9811 119.533 78.0945 119.73C78.2111 119.923 78.2695 120.158 78.2695 120.435C78.2695 120.968 78.0745 121.387 77.6845 121.69C77.2978 121.993 76.7628 122.145 76.0795 122.145ZM81.4777 122V114.65H82.5227V122H81.4777ZM86.3692 122.15C85.8292 122.15 85.3609 122.028 84.9642 121.785C84.5676 121.542 84.2609 121.207 84.0442 120.78C83.8309 120.35 83.7242 119.855 83.7242 119.295C83.7242 118.732 83.8342 118.237 84.0542 117.81C84.2742 117.38 84.5826 117.047 84.9792 116.81C85.3759 116.57 85.8392 116.45 86.3692 116.45C86.9092 116.45 87.3776 116.572 87.7742 116.815C88.1709 117.058 88.4776 117.393 88.6942 117.82C88.9109 118.247 89.0192 118.738 89.0192 119.295C89.0192 119.858 88.9092 120.355 88.6892 120.785C88.4726 121.212 88.1659 121.547 87.7692 121.79C87.3726 122.03 86.9059 122.15 86.3692 122.15ZM86.3692 121.165C86.8859 121.165 87.2709 120.992 87.5242 120.645C87.7809 120.295 87.9092 119.845 87.9092 119.295C87.9092 118.732 87.7792 118.282 87.5192 117.945C87.2626 117.605 86.8792 117.435 86.3692 117.435C86.0192 117.435 85.7309 117.515 85.5042 117.675C85.2776 117.832 85.1092 118.05 84.9992 118.33C84.8892 118.607 84.8342 118.928 84.8342 119.295C84.8342 119.862 84.9642 120.315 85.2242 120.655C85.4842 120.995 85.8659 121.165 86.3692 121.165ZM92.463 122.15C91.923 122.15 91.4546 122.028 91.058 121.785C90.6613 121.542 90.3546 121.207 90.138 120.78C89.9246 120.35 89.818 119.855 89.818 119.295C89.818 118.732 89.928 118.237 90.148 117.81C90.368 117.38 90.6763 117.047 91.073 116.81C91.4696 116.57 91.933 116.45 92.463 116.45C93.003 116.45 93.4713 116.572 93.868 116.815C94.2646 117.058 94.5713 117.393 94.788 117.82C95.0046 118.247 95.113 118.738 95.113 119.295C95.113 119.858 95.003 120.355 94.783 120.785C94.5663 121.212 94.2596 121.547 93.863 121.79C93.4663 122.03 92.9996 122.15 92.463 122.15ZM92.463 121.165C92.9796 121.165 93.3646 120.992 93.618 120.645C93.8746 120.295 94.003 119.845 94.003 119.295C94.003 118.732 93.873 118.282 93.613 117.945C93.3563 117.605 92.973 117.435 92.463 117.435C92.113 117.435 91.8246 117.515 91.598 117.675C91.3713 117.832 91.203 118.05 91.093 118.33C90.983 118.607 90.928 118.928 90.928 119.295C90.928 119.862 91.058 120.315 91.318 120.655C91.578 120.995 91.9596 121.165 92.463 121.165ZM96.2067 122L96.2117 114.8H97.2717V119.2L99.3917 116.6H100.722L98.4817 119.3L100.952 122H99.5317L97.2717 119.4V122H96.2067ZM103.423 122.145C102.767 122.145 102.232 122 101.818 121.71C101.405 121.42 101.152 121.012 101.058 120.485L102.128 120.32C102.195 120.6 102.348 120.822 102.588 120.985C102.832 121.145 103.133 121.225 103.493 121.225C103.82 121.225 104.075 121.158 104.258 121.025C104.445 120.892 104.538 120.708 104.538 120.475C104.538 120.338 104.505 120.228 104.438 120.145C104.375 120.058 104.24 119.977 104.033 119.9C103.827 119.823 103.512 119.728 103.088 119.615C102.625 119.495 102.257 119.367 101.983 119.23C101.713 119.09 101.52 118.928 101.403 118.745C101.29 118.558 101.233 118.333 101.233 118.07C101.233 117.743 101.32 117.458 101.493 117.215C101.667 116.972 101.91 116.783 102.223 116.65C102.54 116.517 102.91 116.45 103.333 116.45C103.747 116.45 104.115 116.515 104.438 116.645C104.762 116.775 105.023 116.96 105.223 117.2C105.423 117.437 105.543 117.715 105.583 118.035L104.513 118.23C104.477 117.97 104.355 117.765 104.148 117.615C103.942 117.465 103.673 117.383 103.343 117.37C103.027 117.357 102.77 117.41 102.573 117.53C102.377 117.647 102.278 117.808 102.278 118.015C102.278 118.135 102.315 118.237 102.388 118.32C102.465 118.403 102.612 118.483 102.828 118.56C103.045 118.637 103.365 118.728 103.788 118.835C104.242 118.952 104.602 119.082 104.868 119.225C105.135 119.365 105.325 119.533 105.438 119.73C105.555 119.923 105.613 120.158 105.613 120.435C105.613 120.968 105.418 121.387 105.028 121.69C104.642 121.993 104.107 122.145 103.423 122.145ZM110.946 124.55C110.656 124.55 110.375 124.505 110.101 124.415C109.831 124.325 109.585 124.192 109.361 124.015C109.138 123.842 108.953 123.627 108.806 123.37L109.771 122.88C109.888 123.11 110.055 123.278 110.271 123.385C110.488 123.492 110.716 123.545 110.956 123.545C111.253 123.545 111.506 123.492 111.716 123.385C111.926 123.282 112.085 123.125 112.191 122.915C112.301 122.705 112.355 122.445 112.351 122.135V120.625H112.476V116.6H113.401V122.145C113.401 122.288 113.396 122.425 113.386 122.555C113.376 122.685 113.358 122.815 113.331 122.945C113.255 123.308 113.108 123.608 112.891 123.845C112.678 124.082 112.405 124.258 112.071 124.375C111.741 124.492 111.366 124.55 110.946 124.55ZM110.866 122.15C110.363 122.15 109.928 122.025 109.561 121.775C109.198 121.525 108.916 121.185 108.716 120.755C108.52 120.322 108.421 119.835 108.421 119.295C108.421 118.752 108.521 118.267 108.721 117.84C108.921 117.41 109.205 117.072 109.571 116.825C109.941 116.575 110.38 116.45 110.886 116.45C111.396 116.45 111.825 116.575 112.171 116.825C112.521 117.072 112.785 117.41 112.961 117.84C113.141 118.27 113.231 118.755 113.231 119.295C113.231 119.835 113.141 120.32 112.961 120.75C112.781 121.18 112.516 121.522 112.166 121.775C111.816 122.025 111.383 122.15 110.866 122.15ZM111.011 121.205C111.355 121.205 111.635 121.123 111.851 120.96C112.068 120.797 112.226 120.572 112.326 120.285C112.426 119.998 112.476 119.668 112.476 119.295C112.476 118.922 112.425 118.592 112.321 118.305C112.221 118.018 112.065 117.795 111.851 117.635C111.641 117.475 111.373 117.395 111.046 117.395C110.7 117.395 110.415 117.48 110.191 117.65C109.968 117.82 109.801 118.048 109.691 118.335C109.585 118.622 109.531 118.942 109.531 119.295C109.531 119.652 109.585 119.975 109.691 120.265C109.801 120.552 109.965 120.78 110.181 120.95C110.401 121.12 110.678 121.205 111.011 121.205ZM117.15 122.15C116.61 122.15 116.142 122.028 115.745 121.785C115.349 121.542 115.042 121.207 114.825 120.78C114.612 120.35 114.505 119.855 114.505 119.295C114.505 118.732 114.615 118.237 114.835 117.81C115.055 117.38 115.364 117.047 115.76 116.81C116.157 116.57 116.62 116.45 117.15 116.45C117.69 116.45 118.159 116.572 118.555 116.815C118.952 117.058 119.259 117.393 119.475 117.82C119.692 118.247 119.8 118.738 119.8 119.295C119.8 119.858 119.69 120.355 119.47 120.785C119.254 121.212 118.947 121.547 118.55 121.79C118.154 122.03 117.687 122.15 117.15 122.15ZM117.15 121.165C117.667 121.165 118.052 120.992 118.305 120.645C118.562 120.295 118.69 119.845 118.69 119.295C118.69 118.732 118.56 118.282 118.3 117.945C118.044 117.605 117.66 117.435 117.15 117.435C116.8 117.435 116.512 117.515 116.285 117.675C116.059 117.832 115.89 118.05 115.78 118.33C115.67 118.607 115.615 118.928 115.615 119.295C115.615 119.862 115.745 120.315 116.005 120.655C116.265 120.995 116.647 121.165 117.15 121.165ZM123.244 122.15C122.704 122.15 122.236 122.028 121.839 121.785C121.443 121.542 121.136 121.207 120.919 120.78C120.706 120.35 120.599 119.855 120.599 119.295C120.599 118.732 120.709 118.237 120.929 117.81C121.149 117.38 121.458 117.047 121.854 116.81C122.251 116.57 122.714 116.45 123.244 116.45C123.784 116.45 124.253 116.572 124.649 116.815C125.046 117.058 125.353 117.393 125.569 117.82C125.786 118.247 125.894 118.738 125.894 119.295C125.894 119.858 125.784 120.355 125.564 120.785C125.348 121.212 125.041 121.547 124.644 121.79C124.248 122.03 123.781 122.15 123.244 122.15ZM123.244 121.165C123.761 121.165 124.146 120.992 124.399 120.645C124.656 120.295 124.784 119.845 124.784 119.295C124.784 118.732 124.654 118.282 124.394 117.945C124.138 117.605 123.754 117.435 123.244 117.435C122.894 117.435 122.606 117.515 122.379 117.675C122.153 117.832 121.984 118.05 121.874 118.33C121.764 118.607 121.709 118.928 121.709 119.295C121.709 119.862 121.839 120.315 122.099 120.655C122.359 120.995 122.741 121.165 123.244 121.165ZM129.138 122.15C128.635 122.15 128.2 122.025 127.833 121.775C127.47 121.525 127.188 121.185 126.988 120.755C126.791 120.322 126.693 119.835 126.693 119.295C126.693 118.752 126.793 118.267 126.993 117.84C127.193 117.41 127.476 117.072 127.843 116.825C128.213 116.575 128.651 116.45 129.158 116.45C129.668 116.45 130.096 116.575 130.443 116.825C130.793 117.072 131.056 117.41 131.233 117.84C131.413 118.27 131.503 118.755 131.503 119.295C131.503 119.835 131.413 120.32 131.233 120.75C131.053 121.18 130.788 121.522 130.438 121.775C130.088 122.025 129.655 122.15 129.138 122.15ZM129.283 121.205C129.626 121.205 129.906 121.123 130.123 120.96C130.34 120.797 130.498 120.572 130.598 120.285C130.698 119.998 130.748 119.668 130.748 119.295C130.748 118.922 130.696 118.592 130.593 118.305C130.493 118.018 130.336 117.795 130.123 117.635C129.913 117.475 129.645 117.395 129.318 117.395C128.971 117.395 128.686 117.48 128.463 117.65C128.24 117.82 128.073 118.048 127.963 118.335C127.856 118.622 127.803 118.942 127.803 119.295C127.803 119.652 127.856 119.975 127.963 120.265C128.073 120.552 128.236 120.78 128.453 120.95C128.673 121.12 128.95 121.205 129.283 121.205ZM130.748 122V118.115H130.628V114.8H131.678V122H130.748ZM137.424 122.15C136.884 122.15 136.416 122.028 136.019 121.785C135.622 121.542 135.316 121.207 135.099 120.78C134.886 120.35 134.779 119.855 134.779 119.295C134.779 118.732 134.889 118.237 135.109 117.81C135.329 117.38 135.637 117.047 136.034 116.81C136.431 116.57 136.894 116.45 137.424 116.45C137.964 116.45 138.432 116.572 138.829 116.815C139.226 117.058 139.532 117.393 139.749 117.82C139.966 118.247 140.074 118.738 140.074 119.295C140.074 119.858 139.964 120.355 139.744 120.785C139.527 121.212 139.221 121.547 138.824 121.79C138.427 122.03 137.961 122.15 137.424 122.15ZM137.424 121.165C137.941 121.165 138.326 120.992 138.579 120.645C138.836 120.295 138.964 119.845 138.964 119.295C138.964 118.732 138.834 118.282 138.574 117.945C138.317 117.605 137.934 117.435 137.424 117.435C137.074 117.435 136.786 117.515 136.559 117.675C136.332 117.832 136.164 118.05 136.054 118.33C135.944 118.607 135.889 118.928 135.889 119.295C135.889 119.862 136.019 120.315 136.279 120.655C136.539 120.995 136.921 121.165 137.424 121.165ZM144.963 122V119.345C144.963 119.135 144.944 118.92 144.908 118.7C144.874 118.477 144.808 118.27 144.708 118.08C144.611 117.89 144.473 117.737 144.293 117.62C144.116 117.503 143.884 117.445 143.598 117.445C143.411 117.445 143.234 117.477 143.068 117.54C142.901 117.6 142.754 117.698 142.628 117.835C142.504 117.972 142.406 118.152 142.333 118.375C142.263 118.598 142.228 118.87 142.228 119.19L141.578 118.945C141.578 118.455 141.669 118.023 141.853 117.65C142.036 117.273 142.299 116.98 142.643 116.77C142.986 116.56 143.401 116.455 143.888 116.455C144.261 116.455 144.574 116.515 144.828 116.635C145.081 116.755 145.286 116.913 145.443 117.11C145.603 117.303 145.724 117.515 145.808 117.745C145.891 117.975 145.948 118.2 145.978 118.42C146.008 118.64 146.023 118.833 146.023 119V122H144.963ZM141.168 122V116.6H142.103V118.16H142.228V122H141.168ZM150.057 124.4L151.102 121.555L151.117 122.395L148.762 116.6H149.852L151.612 121.075H151.292L152.972 116.6H154.032L151.052 124.4H150.057ZM156.965 122.15C156.425 122.15 155.957 122.028 155.56 121.785C155.163 121.542 154.857 121.207 154.64 120.78C154.427 120.35 154.32 119.855 154.32 119.295C154.32 118.732 154.43 118.237 154.65 117.81C154.87 117.38 155.178 117.047 155.575 116.81C155.972 116.57 156.435 116.45 156.965 116.45C157.505 116.45 157.973 116.572 158.37 116.815C158.767 117.058 159.073 117.393 159.29 117.82C159.507 118.247 159.615 118.738 159.615 119.295C159.615 119.858 159.505 120.355 159.285 120.785C159.068 121.212 158.762 121.547 158.365 121.79C157.968 122.03 157.502 122.15 156.965 122.15ZM156.965 121.165C157.482 121.165 157.867 120.992 158.12 120.645C158.377 120.295 158.505 119.845 158.505 119.295C158.505 118.732 158.375 118.282 158.115 117.945C157.858 117.605 157.475 117.435 156.965 117.435C156.615 117.435 156.327 117.515 156.1 117.675C155.873 117.832 155.705 118.05 155.595 118.33C155.485 118.607 155.43 118.928 155.43 119.295C155.43 119.862 155.56 120.315 155.82 120.655C156.08 120.995 156.462 121.165 156.965 121.165ZM162.749 122.145C162.375 122.145 162.062 122.085 161.809 121.965C161.555 121.845 161.349 121.688 161.189 121.495C161.032 121.298 160.912 121.085 160.829 120.855C160.745 120.625 160.689 120.4 160.659 120.18C160.629 119.96 160.614 119.767 160.614 119.6V116.6H161.674V119.255C161.674 119.465 161.69 119.682 161.724 119.905C161.76 120.125 161.827 120.33 161.924 120.52C162.024 120.71 162.162 120.863 162.339 120.98C162.519 121.097 162.752 121.155 163.039 121.155C163.225 121.155 163.402 121.125 163.569 121.065C163.735 121.002 163.88 120.902 164.004 120.765C164.13 120.628 164.229 120.448 164.299 120.225C164.372 120.002 164.409 119.73 164.409 119.41L165.059 119.655C165.059 120.145 164.967 120.578 164.784 120.955C164.6 121.328 164.337 121.62 163.994 121.83C163.65 122.04 163.235 122.145 162.749 122.145ZM164.534 122V120.44H164.409V116.6H165.464V122H164.534ZM167.046 122V120.895H168.151V122H167.046Z" fill="#34D399"/>
<g clip-path="url(#clip0_2415_72955)">
<path d="M27.6314 114.184H28.2556C28.569 114.184 28.9405 114.594 28.9803 114.92C29.1678 116.453 27.9575 118.132 26.5815 118.481C26.2583 119.059 25.8543 119.535 25.2846 119.838C25.2235 119.87 25.0845 119.895 25.0722 119.961C25.0635 120.008 25.0689 120.435 25.082 120.456C25.796 120.702 26.3354 121.357 26.4244 122.164C26.7094 122.206 27.147 122.038 27.3123 122.364C27.4739 122.682 27.2512 123.011 26.9256 123H22.0326C21.7419 122.983 21.5544 122.704 21.6652 122.407C21.8042 122.033 22.2845 122.204 22.574 122.163C22.6807 121.359 23.2048 120.716 23.9172 120.455C23.925 120.367 23.9488 119.956 23.9066 119.918C23.8705 119.886 23.6211 119.791 23.5395 119.741C23.0949 119.468 22.7512 119.034 22.4735 118.58C21.2714 118.473 20.2194 117.446 20.0439 116.162C20.0025 115.862 19.9828 115.217 20.0189 114.921C20.0587 114.594 20.4302 114.185 20.7436 114.185H21.3678C21.3731 114.168 21.3473 114.158 21.3473 114.152V113.538C21.3477 113.315 21.6713 112.986 21.8903 113H27.1093C27.6765 113.083 27.7069 113.691 27.6314 114.184ZM23.7085 116.94C23.9431 117.192 24.2716 116.846 24.507 116.754C24.7297 116.858 25.0439 117.173 25.2764 116.957C25.4843 116.764 25.2776 116.375 25.3022 116.13C25.4388 115.934 25.7682 115.78 25.7267 115.491C25.6759 115.134 25.221 115.233 24.9922 115.137C24.847 114.932 24.8047 114.506 24.5066 114.5C24.2084 114.493 24.1543 114.926 24.0074 115.137C23.7901 115.23 23.3812 115.138 23.2877 115.44C23.1872 115.764 23.5596 115.91 23.6978 116.129C23.7228 116.37 23.5247 116.742 23.7089 116.94H23.7085ZM21.4297 115.017H20.826L20.7953 115.05V115.972C20.7953 116.025 20.849 116.224 20.867 116.29C21.0254 116.871 21.4646 117.407 22.0027 117.605C21.7086 116.776 21.5019 115.905 21.4297 115.018V115.017ZM28.2048 115.423C28.215 115.304 28.1974 115.171 28.2048 115.05L28.174 115.017H27.5703C27.5096 115.803 27.3304 116.574 27.0999 117.319C27.5961 116.971 27.9833 116.402 28.1334 115.784C28.1576 115.685 28.1962 115.52 28.2048 115.422V115.423Z" fill="#34D399"/>
</g>
<g clip-path="url(#clip1_2415_72955)">
<path d="M257.747 6.89396C258.116 7.11243 259.801 8.38311 260.082 8.7175C262.025 11.0404 262.236 14.8279 260.812 17.4406C260.497 18.0202 259.817 18.2632 259.857 18.9342L264.43 31.3869L264.763 31.7436L271.075 31.0949C282.796 30.6223 292.454 33.3331 302.6 37.7314C303.668 38.1951 304.676 38.8037 305.71 39.3298L315.246 29.7484C315.173 28.4554 314.792 27.4433 314.89 26.0746C315.339 19.8527 323.149 16.89 328.037 20.7355C333.183 24.7838 331.265 32.4703 325.044 34.0554C323.428 34.4678 322.36 34.1445 320.789 34.3251L312.423 43.4829L312.62 43.9087C322.641 51.5662 328.708 62.8174 328.032 75.522C327.554 84.5148 323.074 94.4551 316.035 100.249C315.425 100.751 312.97 102.128 312.897 102.505C312.843 102.793 314.99 107.095 315.3 107.869C318.773 116.563 322.07 127.502 323.024 136.796C323.317 139.658 323.861 141.484 320.875 143.089C316.595 145.389 303.069 146.344 297.798 146.678C285.578 147.449 272.66 147.307 260.426 146.905C252.324 146.64 240 146.332 232.461 143.668C231.448 143.31 229.589 142.293 229.235 141.274C228.705 139.752 229.131 135.057 229.287 133.206C229.643 129.015 230.423 124.784 231.484 120.723C224.084 116.144 223.352 107.222 227.605 100.151C229.414 97.1436 231.965 94.7672 234.717 92.6717C227.44 84.7467 224.848 73.5312 227.09 63.1205C229.947 49.8519 239.875 41.0419 251.852 35.5779C252.566 35.2525 256.665 33.7655 256.822 33.5493C256.978 33.3331 256.906 33.0901 256.826 32.8649L252.578 20.7711C252.371 20.4412 250.025 19.8103 249.283 19.3333C246.184 17.3358 245.182 12.8015 246.989 9.64042C248.884 6.32104 254.459 4.94781 257.747 6.89396ZM236.914 144.224L242.983 145.146C244.171 145.494 246.837 145.253 248.193 145.345C269.504 146.774 291.908 146.83 312.99 144.473C313.418 144.426 313.296 144.023 313.409 144.032C313.711 144.054 314.04 144.348 314.52 144.235C314.942 144.134 316.325 143.564 317.075 143.359C318.073 143.087 320.63 142.848 321.12 141.776C321.458 141.036 320.898 137.834 320.753 136.8C319.17 125.569 315.375 114.111 310.986 103.644C310.766 103.118 310.099 102.465 309.952 101.796C313.593 98.8802 318.402 95.3401 320.744 91.2918C330.15 75.0382 326.25 57.8862 312.453 45.8036C311.872 45.2953 309.587 43.96 309.725 43.26C311.396 41.5947 312.938 39.8113 314.525 38.0725C316.026 36.4295 317.313 35.2391 318.508 33.42C319.553 31.8261 319.973 32.7691 321.12 32.8805C325.548 33.3085 329.681 30.3102 329.109 25.6934C328.026 16.9502 314.611 18.7336 315.579 27.4188C315.681 28.3395 316.638 29.6325 316.379 30.1943L306.191 40.6807C305.06 41.3384 305.205 40.489 304.767 40.217C303.588 39.4814 301.262 38.1483 300.108 37.6266C290.847 33.4356 278.69 31.4828 268.577 32.6509L263.242 33.0054C261.181 28.237 259.576 23.2902 257.633 18.4705C258.599 17.1441 259.624 16.2145 259.837 14.4802C260.728 7.2172 251.931 4.2924 247.554 9.7764C244.264 13.8961 248.844 20.3721 253.942 19.5473L259.184 34.2136C255.416 35.2012 251.653 36.8665 248.236 38.7056C240.385 42.9345 233.706 49.5889 230.475 57.9888C226.451 68.4552 227.852 80.0318 234.504 89.1049C235.044 89.8405 237.358 91.8402 237.363 92.2281C237.37 92.908 235.152 93.7172 234.572 94.1965C228.766 99.0162 223.76 109.685 229.623 116.175C235.508 122.687 247.291 119.911 254.418 116.944C255.008 116.699 258.595 115.243 258.724 115.049C259.161 114.394 258.123 114.255 257.912 114.082C252.414 109.558 249.184 103.856 241.738 101.814C241.183 101.662 238.696 101.381 238.594 101.232C238.229 100.704 239.723 98.6461 240.151 98.2382C246.431 92.2593 260.433 94.3303 267.742 97.0009C270.057 97.8481 274.138 96.3099 276.741 96.1315C279.674 95.9309 287.219 96.3166 289.317 98.4611C289.985 99.1455 290.264 100.111 289.87 101.025C289.827 101.125 288.401 102.465 288.265 102.554C287.108 103.29 284.599 103.236 287.399 104.137L290.894 104.592C280.427 105.459 271.612 98.8312 261.911 96.6799C257.171 95.6277 251.22 95.4895 246.499 96.6844C245.475 96.9452 240.199 98.5414 241.389 100.155C241.507 100.314 244.584 101.069 245.203 101.306C251.92 103.876 257.715 111.063 263.136 115.517C270.758 121.781 281.076 124.909 290.897 122.524C291.806 122.303 292.733 121.757 293.524 121.541C293.953 121.425 293.946 121.853 293.837 121.964C293.76 122.042 293.295 121.786 293.388 122.185C294.241 122.573 294.885 121.786 295.54 121.298C295.991 121.806 294.599 122.216 294.155 122.499C284.61 128.574 271.891 124.764 263.437 118.625C262.814 118.172 261.58 116.703 260.884 116.703C254.711 119.916 247.388 122.805 240.265 122.64C238.843 122.606 235.796 122.279 234.425 121.96C234.227 121.913 234.316 121.284 233.71 121.523C233.418 121.639 232.822 123.835 232.711 124.327C231.96 127.662 231.396 132.235 231.103 135.663C230.979 137.112 230.709 139.901 230.87 141.234C231.038 142.643 232.259 142.968 233.504 143.321M241.201 144.91L239.573 144.694L287.204 99.3016C286.188 98.3251 281.168 97.5159 279.677 97.4624C278.754 97.429 272.438 98.0219 272.091 98.3519C271.69 98.7353 273.038 99.0586 273.229 99.1232C276.215 100.122 281.964 102.732 284.866 102.34C285.673 102.231 287.453 101.107 287.618 100.376C287.668 100.155 287.358 99.4531 287.201 99.3016L241.201 144.91Z" fill="#101427"/>
<path d="M248.194 145.346C247.065 145.38 245.782 145.48 243.896 145.297C243.184 145.228 242.905 145.168 241.352 144.911C238.717 144.474 236.128 143.797 233.501 143.317C232.925 143.213 231.764 142.987 231.17 142.094C231.016 141.862 230.909 141.579 230.869 141.231C230.71 139.898 230.977 137.109 231.102 135.66C231.397 132.231 231.961 127.659 232.71 124.324C232.821 123.831 233.415 121.636 233.709 121.52C234.315 121.281 234.226 121.91 234.424 121.957C235.793 122.275 238.842 122.605 240.264 122.637C247.387 122.801 254.712 119.91 260.883 116.7C261.577 116.7 262.813 118.169 263.436 118.622C271.89 124.761 284.609 128.571 294.153 122.496C294.598 122.213 295.99 121.803 295.539 121.294C294.884 121.78 294.24 122.57 293.387 122.182C293.294 121.783 293.759 122.039 293.836 121.961C293.947 121.85 293.952 121.422 293.523 121.537C292.732 121.752 291.805 122.3 290.896 122.521C281.074 124.906 270.757 121.778 263.135 115.514C257.712 111.06 251.919 103.873 245.201 101.302C244.583 101.066 241.506 100.31 241.388 100.152C240.198 98.5381 245.474 96.942 246.498 96.6812C251.218 95.484 257.17 95.6245 261.91 96.6767C271.611 98.8279 280.426 105.456 290.893 104.588L287.397 104.134C284.598 103.233 287.107 103.286 288.263 102.551C288.399 102.464 289.826 101.124 289.869 101.022C290.263 100.108 289.984 99.1423 289.315 98.4579C287.218 96.3133 279.673 95.9277 276.74 96.1283C274.139 96.3066 270.058 97.8426 267.741 96.9977C260.432 94.3271 246.43 92.2538 240.15 98.235C239.722 98.6429 238.228 100.701 238.593 101.229C238.695 101.378 241.182 101.659 241.737 101.811C249.183 103.853 252.413 109.557 257.911 114.078C258.124 114.252 259.16 114.39 258.723 115.046C258.593 115.24 255.007 116.696 254.417 116.941C247.29 119.908 235.505 122.683 229.622 116.172C223.759 109.684 228.765 99.013 234.571 94.1933C235.151 93.7118 237.366 92.9048 237.362 92.2249C237.359 91.837 235.042 89.8373 234.503 89.1017C227.853 80.0285 226.45 68.452 230.474 57.9855C233.705 49.5857 240.382 42.9313 248.235 38.7024C251.651 36.861 255.415 35.198 259.183 34.2104L253.941 19.5441C248.842 20.3689 244.265 13.8929 247.552 9.77318C251.93 4.28918 260.727 7.21398 259.836 14.4769C259.623 16.2135 258.598 17.1409 257.632 18.4673C259.577 23.287 261.18 28.2337 263.241 33.0021L268.576 32.6477C278.689 31.4796 290.846 33.4324 300.107 37.6234C301.263 38.1473 303.589 39.4782 304.766 40.2138C305.201 40.4858 305.058 41.3352 306.19 40.6775L316.378 30.191C316.634 29.6293 315.68 28.3363 315.578 27.4156C314.61 18.7304 328.027 16.947 329.108 25.6901C329.68 30.307 325.549 33.3053 321.119 32.8773C319.972 32.7658 319.555 31.8251 318.507 33.4168C317.312 35.2359 316.025 36.4263 314.524 38.0693C312.937 39.8081 311.395 41.5915 309.724 43.2568C309.586 43.9568 311.873 45.2921 312.452 45.8004C326.249 57.883 330.151 75.035 320.742 91.2886C318.401 95.3369 313.592 98.877 309.951 101.793C310.098 102.462 310.765 103.115 310.985 103.641C315.374 114.105 319.169 125.566 320.752 136.797C320.897 137.831 321.459 141.032 321.119 141.773C320.838 142.388 320.148 142.339 317.074 143.355C315.537 143.864 314.846 144.124 314.519 144.231C304.816 147.375 269.337 146.343 269.337 146.343C262.359 146.14 257.693 146.022 253.955 145.694C251.649 145.493 250.445 145.277 248.192 145.344L248.194 145.346ZM254.479 11.4429C255.526 12.4684 257.897 11.22 256.564 9.72191C255.231 8.22384 253.429 10.4152 254.479 11.4429ZM326.308 23.8844C326.308 23.0373 325.61 22.3529 324.751 22.3529C323.892 22.3529 323.193 23.0396 323.193 23.8844C323.193 24.7293 323.892 25.4159 324.751 25.4159C325.61 25.4159 326.308 24.7293 326.308 23.8844ZM264.116 42.7418C252.576 43.5176 239.438 49.5901 237.464 61.967C232.54 92.8424 295.423 106.234 304.77 77.3713C312.504 53.4891 283.84 41.4154 264.116 42.7418ZM304.931 100.582C301.887 100.219 299.375 99.0955 298.257 96.1194C297.763 94.8064 297.847 93.3997 297.346 92.1134C297.133 96.5407 295.065 100.076 290.211 100.357C290.157 100.946 290.197 100.718 290.551 100.799C295.532 101.924 296.745 103.837 297.348 108.822C297.799 107.596 297.831 106.329 298.307 105.086C299.014 103.237 300.424 101.9 302.322 101.24L304.934 100.582H304.931Z" fill="url(#paint1_linear_2415_72955)"/>
<path d="M287.204 99.3014C287.361 99.453 287.671 100.155 287.621 100.376C287.456 101.107 285.676 102.231 284.869 102.34C281.967 102.732 276.215 100.122 273.232 99.1231C273.041 99.0585 271.692 98.7352 272.094 98.3518C272.441 98.0196 278.757 97.4289 279.68 97.4623C281.171 97.5136 286.191 98.325 287.206 99.3014H287.204Z" fill="#2E4BBB"/>
<path d="M304.932 100.578L302.32 101.236C300.422 101.896 299.01 103.236 298.305 105.081C297.829 106.328 297.799 107.592 297.346 108.818C296.745 103.833 295.532 101.92 290.549 100.795C290.198 100.714 290.155 100.942 290.209 100.353C295.065 100.072 297.131 96.5367 297.344 92.1094C297.845 93.3957 297.761 94.8023 298.255 96.1154C299.373 99.0914 301.885 100.213 304.929 100.578H304.932Z" fill="#B2C4E5"/>
<path d="M324.749 25.4146C325.609 25.4146 326.306 24.7289 326.306 23.8831C326.306 23.0372 325.609 22.3516 324.749 22.3516C323.889 22.3516 323.191 23.0372 323.191 23.8831C323.191 24.7289 323.889 25.4146 324.749 25.4146Z" fill="white"/>
<path d="M254.48 11.4433C253.43 10.4156 255.244 8.23536 256.565 9.72228C257.887 11.2092 255.527 12.4687 254.48 11.4433Z" fill="white"/>
<path d="M264.118 42.7393C283.842 41.4129 312.506 53.4866 304.772 77.3687C295.425 106.231 232.541 92.8398 237.466 61.9645C239.44 49.5876 252.578 43.5151 264.118 42.7393ZM247.348 56.0681C245.525 56.4069 246.233 58.6607 247.557 59.5613C250.93 61.8619 257.503 61.8419 260.659 59.1578C261.824 58.168 261.599 56.3579 259.976 56.4604C259.301 56.5028 257.691 57.662 256.696 57.934C254.603 58.5047 252.54 58.2907 250.518 57.5416C249.609 57.205 248.04 55.941 247.348 56.0681ZM280.995 60.4196C280.206 59.8489 279.095 57.3388 277.463 58.6942C276.009 59.9024 278.326 62.4482 279.401 63.2107C282.437 65.3708 287.497 66.2803 291.124 65.5046C292.446 65.2214 295.5 64.1001 293.732 62.4772C292.689 61.5186 291.335 62.3881 290.093 62.4861C287.647 62.6801 282.99 61.8575 280.992 60.4174L280.995 60.4196ZM245.315 61.1999C243.934 61.3648 241.646 62.8294 241.751 64.3721C241.957 67.4485 249.198 67.6937 250.588 65.2883C252.12 62.6355 247.314 60.9591 245.315 61.1999ZM261.157 64.9829C260.176 65.2683 260.021 66.3874 260.377 67.2211C262.1 71.2806 273.627 72.2882 276.168 68.8396C276.855 67.9077 276.449 66.6437 275.341 66.5479C275.01 66.5189 272.568 67.8141 271.695 68.0036C269.333 68.5141 265.893 68.0482 263.862 66.6861C263.005 66.1109 262.309 64.6463 261.155 64.9807L261.157 64.9829ZM288.34 66.7775C287.576 66.9046 286.259 67.5042 286.01 68.2711C284.384 73.3048 297.125 74.8742 296.792 69.9586C296.577 66.7975 290.696 66.3896 288.338 66.7775H288.34Z" fill="url(#paint2_linear_2415_72955)"/>
<path d="M280.995 60.4203C282.992 61.8626 287.649 62.6852 290.095 62.4891C291.338 62.391 292.691 61.5216 293.734 62.4801C295.503 64.103 292.449 65.2244 291.127 65.5075C287.497 66.281 282.439 65.3715 279.404 63.2136C278.331 62.4489 276.012 59.9031 277.465 58.6971C279.098 57.3417 280.206 59.8518 280.997 60.4225L280.995 60.4203Z" fill="#27265F"/>
<path d="M288.341 66.7781C290.699 66.3902 296.58 66.7959 296.795 69.9592C297.128 74.8748 284.387 73.3054 286.013 68.2717C286.26 67.5048 287.577 66.9029 288.343 66.7781H288.341Z" fill="#6EA5FF"/>
<path d="M261.158 64.9826C262.312 64.6482 263.006 66.1129 263.865 66.688C265.894 68.0479 269.335 68.5138 271.698 68.0055C272.571 67.816 275.012 66.5208 275.343 66.5498C276.452 66.6457 276.858 67.9074 276.171 68.8415C273.629 72.2879 262.101 71.2825 260.38 67.223C260.026 66.3871 260.181 65.268 261.16 64.9849L261.158 64.9826Z" fill="#27265F"/>
<path d="M247.348 56.0678C248.04 55.9385 249.608 57.2048 250.518 57.5414C252.54 58.2904 254.603 58.5022 256.696 57.9337C257.691 57.6617 259.3 56.5025 259.976 56.4602C261.599 56.3599 261.824 58.1678 260.658 59.1576C257.503 61.8416 250.928 61.8617 247.557 59.5611C246.233 58.6582 245.525 56.4067 247.348 56.0678Z" fill="#27265F"/>
<path d="M245.315 61.1983C247.315 60.9598 252.121 62.634 250.589 65.2868C249.199 67.6922 241.958 67.447 241.751 64.3706C241.647 62.8279 243.935 61.3633 245.315 61.1983Z" fill="#6EA5FF"/>
</g>
<path d="M253.5 125.995L253.505 125.065L256.64 122.255C256.893 122.032 257.065 121.818 257.155 121.615C257.248 121.412 257.295 121.208 257.295 121.005C257.295 120.748 257.238 120.518 257.125 120.315C257.012 120.108 256.855 119.945 256.655 119.825C256.455 119.705 256.225 119.645 255.965 119.645C255.698 119.645 255.46 119.708 255.25 119.835C255.043 119.958 254.882 120.123 254.765 120.33C254.648 120.537 254.592 120.76 254.595 121H253.525C253.525 120.533 253.63 120.125 253.84 119.775C254.053 119.422 254.345 119.147 254.715 118.95C255.085 118.75 255.508 118.65 255.985 118.65C256.438 118.65 256.845 118.753 257.205 118.96C257.565 119.163 257.848 119.443 258.055 119.8C258.265 120.157 258.37 120.563 258.37 121.02C258.37 121.35 258.327 121.63 258.24 121.86C258.153 122.09 258.023 122.303 257.85 122.5C257.677 122.697 257.46 122.91 257.2 123.14L254.78 125.3L254.665 125H258.37V125.995H253.5ZM263.716 126.15C263.213 126.15 262.778 126.025 262.411 125.775C262.048 125.525 261.766 125.185 261.566 124.755C261.369 124.322 261.271 123.835 261.271 123.295C261.271 122.752 261.371 122.267 261.571 121.84C261.771 121.41 262.054 121.072 262.421 120.825C262.791 120.575 263.229 120.45 263.736 120.45C264.246 120.45 264.674 120.575 265.021 120.825C265.371 121.072 265.634 121.41 265.811 121.84C265.991 122.27 266.081 122.755 266.081 123.295C266.081 123.835 265.991 124.32 265.811 124.75C265.631 125.18 265.366 125.522 265.016 125.775C264.666 126.025 264.233 126.15 263.716 126.15ZM263.861 125.205C264.204 125.205 264.484 125.123 264.701 124.96C264.918 124.797 265.076 124.572 265.176 124.285C265.276 123.998 265.326 123.668 265.326 123.295C265.326 122.922 265.274 122.592 265.171 122.305C265.071 122.018 264.914 121.795 264.701 121.635C264.491 121.475 264.223 121.395 263.896 121.395C263.549 121.395 263.264 121.48 263.041 121.65C262.818 121.82 262.651 122.048 262.541 122.335C262.434 122.622 262.381 122.942 262.381 123.295C262.381 123.652 262.434 123.975 262.541 124.265C262.651 124.552 262.814 124.78 263.031 124.95C263.251 125.12 263.528 125.205 263.861 125.205ZM265.326 126V122.115H265.206V118.8H266.256V126H265.326ZM269.18 126.15C268.78 126.15 268.445 126.077 268.175 125.93C267.905 125.78 267.7 125.583 267.56 125.34C267.423 125.093 267.355 124.823 267.355 124.53C267.355 124.257 267.403 124.017 267.5 123.81C267.597 123.603 267.74 123.428 267.93 123.285C268.12 123.138 268.353 123.02 268.63 122.93C268.87 122.86 269.142 122.798 269.445 122.745C269.748 122.692 270.067 122.642 270.4 122.595C270.737 122.548 271.07 122.502 271.4 122.455L271.02 122.665C271.027 122.242 270.937 121.928 270.75 121.725C270.567 121.518 270.25 121.415 269.8 121.415C269.517 121.415 269.257 121.482 269.02 121.615C268.783 121.745 268.618 121.962 268.525 122.265L267.55 121.965C267.683 121.502 267.937 121.133 268.31 120.86C268.687 120.587 269.187 120.45 269.81 120.45C270.293 120.45 270.713 120.533 271.07 120.7C271.43 120.863 271.693 121.123 271.86 121.48C271.947 121.657 272 121.843 272.02 122.04C272.04 122.237 272.05 122.448 272.05 122.675V126H271.125V124.765L271.305 124.925C271.082 125.338 270.797 125.647 270.45 125.85C270.107 126.05 269.683 126.15 269.18 126.15ZM269.365 125.295C269.662 125.295 269.917 125.243 270.13 125.14C270.343 125.033 270.515 124.898 270.645 124.735C270.775 124.572 270.86 124.402 270.9 124.225C270.957 124.065 270.988 123.885 270.995 123.685C271.005 123.485 271.01 123.325 271.01 123.205L271.35 123.33C271.02 123.38 270.72 123.425 270.45 123.465C270.18 123.505 269.935 123.545 269.715 123.585C269.498 123.622 269.305 123.667 269.135 123.72C268.992 123.77 268.863 123.83 268.75 123.9C268.64 123.97 268.552 124.055 268.485 124.155C268.422 124.255 268.39 124.377 268.39 124.52C268.39 124.66 268.425 124.79 268.495 124.91C268.565 125.027 268.672 125.12 268.815 125.19C268.958 125.26 269.142 125.295 269.365 125.295ZM273.776 128.4L274.821 125.555L274.836 126.395L272.481 120.6H273.571L275.331 125.075H275.011L276.691 120.6H277.751L274.771 128.4H273.776ZM282.601 126.145C281.944 126.145 281.409 126 280.996 125.71C280.583 125.42 280.329 125.012 280.236 124.485L281.306 124.32C281.373 124.6 281.526 124.822 281.766 124.985C282.009 125.145 282.311 125.225 282.671 125.225C282.998 125.225 283.253 125.158 283.436 125.025C283.623 124.892 283.716 124.708 283.716 124.475C283.716 124.338 283.683 124.228 283.616 124.145C283.553 124.058 283.418 123.977 283.211 123.9C283.004 123.823 282.689 123.728 282.266 123.615C281.803 123.495 281.434 123.367 281.161 123.23C280.891 123.09 280.698 122.928 280.581 122.745C280.468 122.558 280.411 122.333 280.411 122.07C280.411 121.743 280.498 121.458 280.671 121.215C280.844 120.972 281.088 120.783 281.401 120.65C281.718 120.517 282.088 120.45 282.511 120.45C282.924 120.45 283.293 120.515 283.616 120.645C283.939 120.775 284.201 120.96 284.401 121.2C284.601 121.437 284.721 121.715 284.761 122.035L283.691 122.23C283.654 121.97 283.533 121.765 283.326 121.615C283.119 121.465 282.851 121.383 282.521 121.37C282.204 121.357 281.948 121.41 281.751 121.53C281.554 121.647 281.456 121.808 281.456 122.015C281.456 122.135 281.493 122.237 281.566 122.32C281.643 122.403 281.789 122.483 282.006 122.56C282.223 122.637 282.543 122.728 282.966 122.835C283.419 122.952 283.779 123.082 284.046 123.225C284.313 123.365 284.503 123.533 284.616 123.73C284.733 123.923 284.791 124.158 284.791 124.435C284.791 124.968 284.596 125.387 284.206 125.69C283.819 125.993 283.284 126.145 282.601 126.145ZM288.987 126C288.647 126.067 288.314 126.095 287.987 126.085C287.661 126.075 287.369 126.012 287.112 125.895C286.856 125.778 286.662 125.595 286.532 125.345C286.416 125.122 286.352 124.895 286.342 124.665C286.336 124.432 286.332 124.168 286.332 123.875V119.1H287.382V123.825C287.382 124.042 287.384 124.23 287.387 124.39C287.394 124.55 287.429 124.685 287.492 124.795C287.612 125.002 287.802 125.12 288.062 125.15C288.326 125.177 288.634 125.165 288.987 125.115V126ZM285.297 121.44V120.6H288.987V121.44H285.297ZM290.126 126V120.6H291.056V121.91L290.926 121.74C290.992 121.567 291.079 121.408 291.186 121.265C291.292 121.118 291.416 120.998 291.556 120.905C291.692 120.805 291.844 120.728 292.011 120.675C292.181 120.618 292.354 120.585 292.531 120.575C292.707 120.562 292.877 120.57 293.041 120.6V121.58C292.864 121.533 292.667 121.52 292.451 121.54C292.237 121.56 292.041 121.628 291.861 121.745C291.691 121.855 291.556 121.988 291.456 122.145C291.359 122.302 291.289 122.477 291.246 122.67C291.202 122.86 291.181 123.062 291.181 123.275V126H290.126ZM296.29 126.15C295.754 126.15 295.282 126.033 294.875 125.8C294.472 125.563 294.157 125.235 293.93 124.815C293.707 124.392 293.595 123.902 293.595 123.345C293.595 122.755 293.705 122.243 293.925 121.81C294.149 121.377 294.459 121.042 294.855 120.805C295.252 120.568 295.714 120.45 296.24 120.45C296.79 120.45 297.259 120.578 297.645 120.835C298.032 121.088 298.32 121.45 298.51 121.92C298.704 122.39 298.78 122.948 298.74 123.595H297.695V123.215C297.689 122.588 297.569 122.125 297.335 121.825C297.105 121.525 296.754 121.375 296.28 121.375C295.757 121.375 295.364 121.54 295.1 121.87C294.837 122.2 294.705 122.677 294.705 123.3C294.705 123.893 294.837 124.353 295.1 124.68C295.364 125.003 295.744 125.165 296.24 125.165C296.567 125.165 296.849 125.092 297.085 124.945C297.325 124.795 297.512 124.582 297.645 124.305L298.67 124.63C298.46 125.113 298.142 125.488 297.715 125.755C297.289 126.018 296.814 126.15 296.29 126.15ZM294.365 123.595V122.78H298.22V123.595H294.365ZM301.289 126.15C300.889 126.15 300.554 126.077 300.284 125.93C300.014 125.78 299.809 125.583 299.669 125.34C299.533 125.093 299.464 124.823 299.464 124.53C299.464 124.257 299.513 124.017 299.609 123.81C299.706 123.603 299.849 123.428 300.039 123.285C300.229 123.138 300.463 123.02 300.739 122.93C300.979 122.86 301.251 122.798 301.554 122.745C301.858 122.692 302.176 122.642 302.509 122.595C302.846 122.548 303.179 122.502 303.509 122.455L303.129 122.665C303.136 122.242 303.046 121.928 302.859 121.725C302.676 121.518 302.359 121.415 301.909 121.415C301.626 121.415 301.366 121.482 301.129 121.615C300.893 121.745 300.728 121.962 300.634 122.265L299.659 121.965C299.793 121.502 300.046 121.133 300.419 120.86C300.796 120.587 301.296 120.45 301.919 120.45C302.403 120.45 302.823 120.533 303.179 120.7C303.539 120.863 303.803 121.123 303.969 121.48C304.056 121.657 304.109 121.843 304.129 122.04C304.149 122.237 304.159 122.448 304.159 122.675V126H303.234V124.765L303.414 124.925C303.191 125.338 302.906 125.647 302.559 125.85C302.216 126.05 301.793 126.15 301.289 126.15ZM301.474 125.295C301.771 125.295 302.026 125.243 302.239 125.14C302.453 125.033 302.624 124.898 302.754 124.735C302.884 124.572 302.969 124.402 303.009 124.225C303.066 124.065 303.098 123.885 303.104 123.685C303.114 123.485 303.119 123.325 303.119 123.205L303.459 123.33C303.129 123.38 302.829 123.425 302.559 123.465C302.289 123.505 302.044 123.545 301.824 123.585C301.608 123.622 301.414 123.667 301.244 123.72C301.101 123.77 300.973 123.83 300.859 123.9C300.749 123.97 300.661 124.055 300.594 124.155C300.531 124.255 300.499 124.377 300.499 124.52C300.499 124.66 300.534 124.79 300.604 124.91C300.674 125.027 300.781 125.12 300.924 125.19C301.068 125.26 301.251 125.295 301.474 125.295ZM305.453 126L305.458 118.8H306.518V123.2L308.638 120.6H309.968L307.728 123.3L310.198 126H308.778L306.518 123.4V126H305.453Z" fill="#FA7315"/>
<path d="M241.686 114.012C241.949 113.956 242.294 114.101 242.4 114.371C242.472 114.553 242.459 114.75 242.446 114.943C242.336 116.592 241.888 118.347 241.746 120.008C241.741 120.159 241.815 120.251 241.953 120.271C243.087 120.434 245.108 119.782 245.79 121.039C246.169 121.737 245.988 122.283 245.641 122.915C244.087 125.739 242.207 128.45 240.62 131.261C240.172 131.801 239.41 131.36 239.514 130.677L240.224 125.461C240.202 125.321 240.146 125.249 240.013 125.23C238.484 125.01 235.603 126.016 236.046 123.13C237.714 120.339 239.309 117.469 241.046 114.722C241.208 114.465 241.378 114.079 241.686 114.013V114.012Z" fill="#FA7315"/>
<path d="M341.308 42.8171C341.338 43.2144 341.326 43.0688 341.078 43.1143C338.555 43.5875 335.487 43.7543 333.761 45.926C332.138 47.9703 332.132 51.3978 331.752 53.9092C331.703 54.2246 331.682 54.8009 331.344 54.9374C330.987 51.2673 330.96 45.8866 327.004 44.2153C325.275 43.4874 323.335 43.3236 321.527 42.8929C323.954 42.1134 326.992 42.2681 328.853 40.2419C331.032 37.8731 330.778 34.4517 331.344 31.5308C331.386 31.3094 331.344 31.0607 331.643 31C331.924 33.2202 332.011 35.7499 332.71 37.8852C333.991 41.7888 337.69 42.4197 341.308 42.8201V42.8171Z" fill="#B5C6E6"/>
<path d="M208.442 55.8451C207.391 51.8049 205.771 52.272 202.328 51.4501C202.156 51.4076 201.836 51.4015 202.102 51.1498C202.256 51.0042 205.345 50.4886 205.958 50.2459C208.654 49.1752 208.521 45.5385 209.05 43.1211L209.911 47.328C210.186 47.9347 210.461 48.7293 210.86 49.2541C212.084 50.8586 214.478 50.6038 216.143 51.3773C214.756 51.7534 213.242 51.814 211.936 52.4571C209.657 53.5793 209.503 56.4881 209.198 58.7235C209.08 59.045 208.905 59.1269 208.829 58.7963L208.442 55.8451Z" fill="#B2C4E5"/>
<defs>
<linearGradient id="paint0_linear_2415_72955" x1="2.13543e-06" y1="136.555" x2="361" y2="4.4448" gradientUnits="userSpaceOnUse">
<stop stop-color="#4764FF"/>
<stop offset="0.610577" stop-color="#080809"/>
</linearGradient>
<linearGradient id="paint1_linear_2415_72955" x1="278.082" y1="6.92969" x2="278.082" y2="146.505" gradientUnits="userSpaceOnUse">
<stop stop-color="#3D65FC"/>
<stop offset="1" stop-color="#253D99"/>
</linearGradient>
<linearGradient id="paint2_linear_2415_72955" x1="271.628" y1="42.6406" x2="271.628" y2="93.3291" gradientUnits="userSpaceOnUse">
<stop stop-color="#9DC3FF"/>
<stop offset="1" stop-color="#68A1FF"/>
</linearGradient>
<clipPath id="clip0_2415_72955">
<rect width="9" height="10" fill="white" transform="translate(20 113)"/>
</clipPath>
<clipPath id="clip1_2415_72955">
<rect width="106" height="135" fill="white" transform="translate(225 6)"/>
</clipPath>
</defs>
</svg>
