<svg width="361" height="154" viewBox="0 0 361 154" fill="none" xmlns="http://www.w3.org/2000/svg">
<path d="M0 25C0 18.3726 5.37258 13 12 13H349C355.627 13 361 18.3726 361 25V142C361 148.627 355.627 154 349 154H12C5.37257 154 0 148.627 0 142V25Z" fill="url(#paint0_linear_2415_72831)"/>
<g clip-path="url(#clip0_2415_72831)">
<path d="M319.564 10.3672V11.0779H319.025C318.983 10.7501 319.014 10.556 319.297 10.369H319.564V10.3672Z" fill="#2D2A2A"/>
<path d="M328.945 10.403C329.067 10.403 329.167 10.3049 329.167 10.1839C329.167 10.0629 329.067 9.96484 328.945 9.96484C328.822 9.96484 328.723 10.0629 328.723 10.1839C328.723 10.3049 328.822 10.403 328.945 10.403Z" fill="#2D2A2A"/>
<path d="M209.222 50.4382C209.345 50.4382 209.444 50.3401 209.444 50.2191C209.444 50.0981 209.345 50 209.222 50C209.099 50 209 50.0981 209 50.2191C209 50.3401 209.099 50.4382 209.222 50.4382Z" fill="#2D2A2A"/>
<path d="M347.692 126.026C347.505 126.208 346.97 125.674 347.153 125.494C347.335 125.314 347.875 125.846 347.692 126.026Z" fill="#4B4046"/>
<path d="M261.872 0.438158C261.995 0.438158 262.094 0.340073 262.094 0.219079C262.094 0.098085 261.995 0 261.872 0C261.75 0 261.65 0.098085 261.65 0.219079C261.65 0.340073 261.75 0.438158 261.872 0.438158Z" fill="#4B4046"/>
<path d="M259.163 19.7976L261.147 21.2208C263.527 23.807 263.569 26.785 261.537 29.6384L266.572 41.8462C281 38.0168 296.449 40.4926 309.23 47.8825L309.561 47.7471L319.657 37.4059C319.895 36.8929 319.276 35.712 319.205 35.0067C319.061 33.5836 319.312 31.6867 320.301 30.5735C322.339 28.2811 324.91 27.143 328.004 28.1066C328.48 28.2544 329.384 28.8992 329.843 29.2234L330.565 29.7577C330.63 29.8129 330.686 29.8753 330.745 29.9358L331.826 31.3589C331.895 31.4712 331.945 31.5976 332.007 31.7152L332.5 33L332.525 33.9612C332.556 34.4545 332.575 34.9604 332.548 35.452C332.503 36.2196 332.444 36.5367 332.104 37.2385C330.673 40.1898 327.412 41.2691 324.262 40.6938L314.161 50.8427C315.164 52.0842 316.578 52.7931 317.767 53.8653C318.736 54.7398 319.745 55.8459 320.649 56.8042C321.353 57.912 322.33 58.8329 323.174 59.8285C326.764 64.073 329.805 70.583 330.545 76.1312C330.653 76.9505 331.128 80.1957 330.101 80.438C329.884 80.4896 328.841 80.1388 328.404 80.1138C328.82 69.9667 323.091 60.6888 315.605 54.2215L311.634 51.0226C312.127 50.7537 312.526 50.3654 312.903 49.9575C316.332 46.2456 320.012 42.7279 323.542 39.0962C324.071 38.8575 324.649 39.3028 325.248 39.3669C330.397 39.9226 333.467 34.1696 329.648 30.577C325.889 27.0415 319.597 30.3704 320.804 35.3896C320.942 35.9596 321.81 37.2705 321.653 37.5822L309.564 49.8328C298.057 42.8027 283.169 39.7231 269.804 42.4785C268.563 42.735 267.065 43.1215 265.928 43.6327C263.677 38.9501 261.907 34.0431 259.761 29.3106C263.908 25.6932 260.382 18.9641 254.922 20.4958C253.664 20.8485 252.524 21.992 252.047 23.1747C250.547 26.9043 253.841 30.4452 257.705 30.1335C259.474 34.8945 261.335 39.6768 263.491 44.2597C254.967 47.7418 247.954 53.9561 244.478 62.5038C240.262 72.8717 241.175 86.5223 249.789 94.4412L251.414 95.5936C245.844 95.4707 239.22 92.7492 235.553 88.5617C235.127 88.0755 233.553 85.6229 233.385 85.5409C232.815 85.2631 232.369 85.6424 231.871 85.6139C230.339 85.5285 229.453 84.7198 228.157 84.2051L230.579 83.6636C232.591 83.1702 235.114 81.1665 234.385 78.8599C233.884 77.2747 231.703 77.3121 230.408 77.2694C230.191 77.2622 229.736 77.4012 229.779 77.093C231.568 76.4144 233.059 76.6299 234.889 76.9238C235.918 75.1302 235.392 72.1807 233.071 71.7959C230.362 71.3471 227.688 72.5048 225.271 73.5308C225.955 72.8432 226.901 72.0952 227.74 71.6107C228.31 71.283 230.687 70.4726 230.781 70.339C231.454 69.3736 229.021 67.9006 228.254 67.653C222.589 65.8256 216.967 70.8181 216.458 76.3147C215.141 90.5156 228.525 109.089 239.998 116.739C240.41 117.013 243.113 118.684 243.297 118.551L247.266 112.324C243.797 123.791 240.727 135.486 239.697 147.467C239.464 150.176 239.392 152.921 239.332 155.637C239.359 155.821 240.976 155.714 241.357 155.79C241.962 155.912 242.837 156.535 243.454 156.747C252.345 159.8 259.748 159.13 268.824 159.308C271.683 159.363 274.542 159.543 277.45 159.46C280.933 159.36 280.927 159.289 283.429 159.292C286.521 159.296 289.19 159.534 294.404 160.012C299.41 160.471 300.459 160.676 302.96 160.56C305.085 160.462 306.579 160.209 308.528 159.88C316.179 158.587 319.976 157.05 320.886 156.417C321.099 156.268 321.505 156.216 321.622 156.113C321.918 155.856 321.442 155.326 322.817 155.564C321.039 145.814 318.104 136.255 314.341 127.096C323.432 124.028 331.482 118.08 337.694 110.904C342.569 105.272 348.109 95.7664 346.535 88.1164C345.604 83.5906 340.453 79.25 335.658 80.78C334.66 81.0988 332.666 82.4489 332.796 83.5924C332.821 83.8132 334.905 85.662 335.259 86.0788C335.429 86.2783 335.696 86.3674 335.618 86.7022C333.373 85.0832 327.013 81.17 325.47 85.3165C324.059 89.1085 326.76 89.3561 329.273 90.5726C329.514 90.6902 329.771 90.4568 329.668 90.9734C327.655 90.4729 325.492 90.6688 324.925 92.9647C324.055 96.4895 327.477 97.4371 330.027 98.536C328.607 99.1683 327.085 99.5958 325.56 99.033C324.974 98.8157 324.396 98.146 323.849 98.2938C323.652 98.3472 321.389 100.599 320.819 101.012C317.615 103.334 313.52 104.41 309.584 104.64L309.295 104.319C312.791 103.662 316.681 101.733 319.395 99.4266C320.18 98.7587 320.601 98.0729 321.196 97.3783C321.209 97.3641 321.431 97.4104 321.559 97.2518C322.894 95.5865 322.12 95.9374 322.093 94.256C322.082 93.5346 322.459 92.0456 322.788 91.3866C322.94 91.0838 323.665 90.2484 323.67 90.1754C323.68 90.0668 322.986 88.6721 322.9 88.136C322.497 85.6211 323.817 82.83 326.387 82.1283C328.015 81.683 329.412 82.0392 330.996 82.4453C332.75 79.4121 336.456 78.6141 339.777 79.3087C344.141 80.2225 347.905 84.3814 348.701 88.6508C351.26 102.365 337.311 118.362 326.127 124.932L318.684 128.63C320.978 135.657 323.1 142.724 324.983 149.872C325.172 150.595 325.27 151.341 325.537 152.05C325.883 152.967 325.649 152.643 325.701 153.691C325.762 154.891 326.206 155.584 326.138 156.499C326.138 156.499 326.111 157.123 325.596 158.04C322.701 163.212 305.969 162.593 305.969 162.593C288.777 161.955 269.252 163.12 244.97 160.167C243.37 159.973 239.951 159.509 237.887 156.948C236.71 155.488 236.172 153.594 236.43 148.335C236.737 142.081 238.015 136.848 239.818 129.268C240.478 126.489 241.209 123.725 242.014 120.971C240.856 120.13 239.56 119.507 238.379 118.698C231.364 113.893 225.322 106.56 221.097 99.277C216.547 91.4347 210.033 74.7758 219.521 68.3014C222.838 66.0375 229.065 64.9101 232.122 68.2889C232.552 68.7645 233.154 70.2214 233.241 70.298C233.308 70.3568 234.324 70.4815 234.645 70.6026C236.955 71.4753 238.083 73.4862 237.703 75.9246C237.589 76.6602 236.667 77.8767 236.63 78.2597C236.593 78.6622 236.943 78.9525 236.984 79.3266C237.132 80.6482 237.004 81.4995 236.427 82.6715C235.696 84.157 235.243 83.5443 236.177 85.2809C237.749 88.2019 240.695 90.0169 243.662 91.3278C243.891 91.0197 242.807 89.3525 242.608 88.9001C236.23 74.3857 241.392 57.5451 253.957 48.1924C256.252 46.4843 258.808 45.1894 261.347 43.8785C260.104 40.7295 258.985 37.4949 257.631 34.3922C257.416 33.8988 256.669 32.0945 256.449 31.822C256.265 31.5976 254.15 31.0651 253.46 30.6786C248.795 28.0603 249.051 21.3187 254.142 19.3702C255.875 18.7076 257.588 19.0602 259.171 19.7941L259.163 19.7976Z" fill="#27265F"/>
<path d="M320.646 56.8086C321.552 57.7686 322.551 58.6592 323.171 59.833C322.329 58.8355 321.352 57.9165 320.646 56.8086Z" fill="#4B4046"/>
<path d="M330.566 29.7609L329.844 29.2266C330.149 29.4439 330.23 29.4741 330.566 29.7609Z" fill="#4B4046"/>
<path d="M331.827 31.3645L330.746 29.9414C331.298 30.4989 331.421 30.6984 331.827 31.3645Z" fill="#4B4046"/>
<path d="M261.148 21.22L259.164 19.7969C260.242 20.2974 260.343 20.3455 261.148 21.22Z" fill="#4B4046"/>
<path d="M327.451 30.6799C328.895 30.4074 329.55 32.5732 328.269 32.9348C326.742 33.3658 325.939 30.9667 327.451 30.6799Z" fill="#BBC4E1"/>
<path d="M257.128 21.4278C258.387 21.0573 259.485 22.8972 258.259 23.4405C256.718 24.1244 255.857 21.8018 257.128 21.4278Z" fill="#BBC4E1"/>
<path d="M321.189 97.3794C320.594 98.0741 320.175 98.7598 319.388 99.4277C316.675 101.734 312.786 103.663 309.288 104.321L309.577 104.641C313.513 104.411 317.608 103.336 320.812 101.013C321.382 100.6 323.645 98.3466 323.842 98.2949C324.389 98.1489 324.967 98.8186 325.553 99.0341C327.078 99.5969 328.6 99.1695 330.02 98.5372C327.47 97.4382 324.048 96.4907 324.918 92.9658C325.485 90.6699 327.649 90.474 329.661 90.9745C329.764 90.458 329.507 90.6913 329.266 90.5737C326.753 89.3572 324.052 89.1096 325.463 85.3176C327.004 81.1729 333.366 85.0843 335.611 86.7033C335.691 86.3703 335.424 86.2794 335.252 86.0799C334.898 85.6649 332.814 83.8144 332.789 83.5935C332.659 82.45 334.655 81.0999 335.651 80.7811C340.446 79.2511 345.597 83.5899 346.529 88.1176C348.102 95.7675 342.562 105.273 337.687 110.905C331.475 118.082 323.425 124.029 314.335 127.098C318.098 136.256 321.032 145.815 322.81 155.565C321.436 155.327 321.911 155.857 321.615 156.114C321.498 156.217 321.092 156.269 320.879 156.419C317.119 159.035 312.907 159.163 308.521 159.881C307.751 160.008 306.976 160.465 306.081 160.499C302.389 160.638 298.503 160.526 294.763 160.39C294.426 160.378 294.525 160.016 294.395 160.013C290.73 159.901 287.069 159.306 283.42 159.293C281.375 159.286 279.453 159.404 277.441 159.461C274.533 159.544 271.675 159.365 268.816 159.309C259.739 159.133 252.336 159.801 243.446 156.748C242.83 156.536 241.953 155.913 241.348 155.792C240.968 155.715 239.351 155.822 239.323 155.638C239.383 152.922 239.455 150.177 239.688 147.468C240.72 135.488 243.79 123.792 247.257 112.325L243.289 118.552C243.105 118.685 240.399 117.013 239.989 116.74C228.516 109.089 215.132 90.5167 216.449 76.3158C216.958 70.8174 222.58 65.8267 228.246 67.6542C229.013 67.9017 231.446 69.3747 230.772 70.3401C230.679 70.4737 228.302 71.2841 227.731 71.6118C226.89 72.0963 225.946 72.8444 225.262 73.5319C227.679 72.506 230.352 71.3482 233.063 71.7971C235.384 72.1818 235.909 75.1313 234.88 76.9249C233.05 76.6311 231.559 76.4155 229.771 77.0941C229.727 77.4023 230.182 77.2634 230.399 77.2705C231.696 77.3132 233.875 77.2758 234.377 78.861C235.106 81.1694 232.583 83.1714 230.57 83.6647L228.148 84.2062C229.444 84.7209 230.33 85.5278 231.862 85.6151C232.361 85.6436 232.806 85.2642 233.377 85.542C233.545 85.624 235.118 88.0784 235.544 88.5628C239.212 92.7503 245.835 95.4718 251.405 95.5947L249.78 94.4423C241.166 86.5234 240.255 72.8746 244.469 62.5049C247.945 53.9573 254.957 47.7429 263.483 44.2608C261.328 39.6779 259.467 34.8956 257.696 30.1346C253.83 30.4481 250.537 26.9055 252.038 23.1758C252.515 21.9931 253.654 20.8496 254.913 20.497C260.371 18.9634 263.899 25.6943 259.752 29.3118C261.898 34.0442 263.67 38.9512 265.919 43.6338C267.054 43.1227 268.552 42.7361 269.796 42.4797C283.16 39.7243 298.048 42.8038 309.555 49.8339L321.644 37.5833C321.801 37.2716 320.933 35.9589 320.796 35.3908C319.586 30.3733 325.88 27.0426 329.639 30.5781C333.399 34.1137 330.388 39.9237 325.239 39.368C324.64 39.3039 324.062 38.8586 323.534 39.0973C320.003 42.729 316.323 46.2468 312.894 49.9586C312.517 50.3665 312.118 50.753 311.626 51.0237L315.596 54.2227C323.082 60.6899 328.809 69.9678 328.396 80.1149C324.88 79.919 321.505 82.1169 321.186 85.7219C321.057 87.17 321.581 88.8549 321.527 89.8203C321.51 90.116 320.664 91.4305 320.539 92.0236C320.151 93.8706 320.447 95.6553 321.182 97.3723L321.189 97.3794ZM257.128 21.4285C255.857 21.8025 256.718 24.1251 258.259 23.4412C259.485 22.8979 258.389 21.0562 257.128 21.4285ZM327.452 30.6797C325.938 30.9664 326.743 33.3638 328.269 32.9346C329.551 32.573 328.896 30.4072 327.452 30.6797ZM265.475 52.5395C264.475 52.511 263.432 53.0453 262.526 53.455C258.637 55.2112 254.863 58.1376 252.674 61.7925C251.363 61.6054 250.03 61.4131 248.708 61.438L251.663 62.8861C251.827 62.968 251.91 63.196 251.953 63.2156C248.098 70.6625 250.625 79.96 255.926 86.0746C260.974 91.8989 267.542 95.4772 275.033 97.4685C288.326 101 305.439 98.84 312.27 85.64C314.298 81.7197 315.271 77.1903 314.34 72.8248C314.374 72.823 314.484 72.6698 314.627 72.6609L317.764 72.294C317.148 72.1177 314.085 71.5441 313.798 71.2218C313.78 71.2004 313.788 70.9564 313.798 70.8691C313.878 70.1655 313.219 68.7139 312.871 67.9587C310.882 63.6466 307.467 60.5065 303.701 57.7012C303.551 55.3644 304.195 53.2377 304.24 50.94L301.898 56.6325C291.549 50.9739 279.278 48.8828 267.641 51.4726C267.471 51.3052 267.901 49.0235 267.46 48.6246C267.455 47.7963 267.466 46.9628 267.46 46.1328L267.19 46.3091C266.636 48.3841 266.107 50.4876 265.479 52.5395H265.475Z" fill="url(#paint1_linear_2415_72831)"/>
<path d="M267.46 48.625C267.902 49.024 267.472 51.3056 267.64 51.473C279.277 48.8833 291.548 50.9743 301.897 56.633C302.065 57.4095 301.527 58.2235 301.267 58.9449C300.599 57.6215 299.859 56.706 298.885 55.6142C298.776 55.493 298.896 55.2722 298.473 55.388C298.556 56.8877 298.318 58.439 297.603 59.7784C297.369 60.2184 294.656 63.8252 294.412 63.9267C294.035 64.0816 294.154 63.6524 294.153 63.4832C294.144 62.3361 294.856 61.3957 295.586 60.5479C295.226 60.2682 292.406 62.0903 292.066 62.5C291.963 62.6247 291.875 62.817 292.073 62.8598C293.335 62.6657 292.826 64.1173 292.382 64.7692C291.785 65.649 289.39 66.8923 288.731 68.1052L282.605 68.3777C282.696 68.636 283.261 68.8871 283.506 68.9976C285.325 69.8151 287.285 70.3993 289.168 71.0601C290.216 73.527 291.12 75.3437 293.624 76.6261C294.041 76.8399 295.54 77.2727 295.672 77.4508C296.479 78.5426 295.51 84.5237 296.127 86.1677L299.215 77.832C301.384 78.0635 303.929 77.531 305.508 75.9458C306.55 74.902 306.736 73.5893 308.382 73.087C310.45 72.4565 312.325 72.9552 314.334 72.8234C315.265 77.189 314.292 81.7184 312.264 85.6387C305.433 98.8386 288.319 100.999 275.027 97.4672C267.535 95.4776 260.97 91.8993 255.92 86.0733C250.619 79.9569 248.092 70.6594 251.947 63.2142C253.595 64.0193 255.315 64.7033 256.997 65.4371C257.412 67.7882 258.098 69.8204 260.302 71.0726C260.84 71.3789 262.538 71.899 262.753 72.2125C263.217 72.8876 263.195 76.2806 263.328 77.3386C263.442 78.2381 263.771 79.1945 263.85 80.1172L265.875 72.6881C267.131 72.3265 268.326 72.558 269.62 72.2036C270.688 71.9115 272.103 71.0352 272.87 70.2515C273.121 69.995 274.078 68.5523 274.215 68.5523H280.795C280.884 68.1319 280.741 68.2655 280.562 68.1533C278.98 67.147 276.63 66.6981 274.87 66.0373C274.96 64.9473 274.684 64.1636 274.222 63.2071C274.036 62.8242 273.497 62.2952 273.405 62.0547C273.206 61.5346 274.554 61.8944 274.457 61.3779C274.309 60.5942 273.605 59.8746 273.271 59.1639C273.085 58.7668 272.444 56.747 272.318 56.633C271.842 56.2001 271.64 58.1327 271.584 58.3054C271.519 58.5031 271.524 58.7347 271.242 58.7668C271.091 57.4826 270.317 56.1912 270.178 54.9231C270.053 53.776 270.336 52.7733 270.338 51.6511L269.797 51.9165L267.817 53.7867C267.465 52.0786 267.467 50.3598 267.454 48.6268L267.46 48.625ZM276.547 89.119C281.882 92.4283 286.868 88.6612 289.487 83.9751C290.547 82.08 293.187 75.8425 289.186 75.8353C286.775 75.8318 285.396 77.2175 282.598 75.5877C282.194 75.3526 281.367 74.4799 281.227 74.4532C281.044 74.4193 280.106 74.9465 279.723 75.0516C278.397 75.4132 277.543 75.3437 276.247 74.9163C274.69 74.4015 270.903 71.3647 270.524 74.6918C269.966 79.6006 272.165 86.401 276.547 89.119Z" fill="url(#paint2_linear_2415_72831)"/>
<path d="M303.7 57.6987C303.789 59.0612 304.193 59.1182 304.384 59.9589C304.604 60.919 304.612 62.1372 304.868 63.2184C305.003 63.7866 305.435 64.3476 305.492 64.9247C305.539 65.3718 305.314 65.9827 305.352 66.1359C305.375 66.2338 306.485 67.2544 306.734 67.6035C307.113 68.1325 307.508 69.2119 307.839 69.5378C308.589 70.2788 311.822 70.7828 312.932 70.9325C313.246 70.9752 313.5 71.1106 313.796 70.8648C313.785 70.9521 313.778 71.1961 313.796 71.2174C314.083 71.5398 317.146 72.1133 317.761 72.2897L314.625 72.6566C314.482 72.6655 314.372 72.8187 314.338 72.8205C312.329 72.9523 310.454 72.4536 308.385 73.0841C306.74 73.5863 306.552 74.899 305.512 75.9428C303.931 77.5262 301.386 78.0605 299.219 77.829L296.131 86.1647C295.515 84.5207 296.485 78.5397 295.676 77.4478C295.544 77.2697 294.045 76.8369 293.628 76.6232C291.124 75.3408 290.22 73.524 289.172 71.0571C287.289 70.3946 285.329 69.8121 283.51 68.9946C283.265 68.8842 282.7 68.633 282.609 68.3748L288.735 68.1022C289.394 66.8893 291.789 65.6461 292.386 64.7662C292.83 64.1143 293.339 62.6609 292.077 62.8568C291.879 62.8141 291.967 62.6217 292.07 62.497C292.409 62.0874 295.232 60.2653 295.589 60.5449C294.86 61.391 294.147 62.3332 294.156 63.4802C294.156 63.6476 294.037 64.0787 294.416 63.9237C294.66 63.824 297.373 60.2154 297.607 59.7755C298.322 58.4361 298.56 56.8847 298.477 55.385C298.898 55.2692 298.78 55.4918 298.889 55.6112C299.863 56.703 300.603 57.6185 301.271 58.9419C301.533 58.2205 302.069 57.4066 301.901 56.63L304.243 50.9375C304.198 53.2352 303.554 55.3618 303.704 57.6987H303.7Z" fill="#F7F0C8"/>
<path d="M267.459 48.6243C267.472 50.3591 267.47 52.0761 267.822 53.7842L269.802 51.914L270.343 51.6486C270.341 52.7707 270.058 53.7735 270.182 54.9206C270.321 56.1887 271.096 57.48 271.247 58.7642C271.529 58.7322 271.525 58.5006 271.588 58.3029C271.644 58.1284 271.846 56.1976 272.323 56.6304C272.449 56.7444 273.09 58.766 273.276 59.1614C273.61 59.8721 274.314 60.5917 274.462 61.3754C274.559 61.8919 273.211 61.5321 273.409 62.0522C273.501 62.2927 274.041 62.8217 274.227 63.2046C274.689 64.1611 274.965 64.9448 274.875 66.0348C276.634 66.6956 278.984 67.1445 280.567 68.1508C280.746 68.2648 280.887 68.1294 280.8 68.5498H274.22C274.084 68.5498 273.128 69.9907 272.875 70.249C272.108 71.0344 270.693 71.909 269.625 72.2011C268.329 72.5555 267.134 72.324 265.88 72.6856L263.855 80.1146C263.775 79.1938 263.447 78.2373 263.333 77.3361C263.2 76.2781 263.223 72.885 262.757 72.21C262.543 71.8965 260.844 71.3764 260.306 71.0701C258.105 69.8179 257.417 67.7857 257.002 65.4346C255.318 64.7007 253.6 64.0168 251.952 63.2117C251.909 63.1904 251.826 62.9641 251.661 62.8822L248.707 61.4342C250.03 61.4092 251.364 61.6016 252.672 61.7886C253.824 61.9525 255.212 62.3853 256.208 62.4815C257.928 62.6453 258.377 61.126 259.644 60.2176C260.386 59.6869 261.393 59.5658 261.752 59.3146C261.931 59.1899 262.911 56.1994 263.589 55.3943C264.035 54.8653 264.627 54.8475 264.911 54.3844C265.143 54.0033 265.315 53.0504 265.472 52.5356C266.1 50.4838 266.629 48.3803 267.183 46.3052L267.453 46.1289C267.461 46.9571 267.45 47.7907 267.453 48.6207L267.459 48.6243Z" fill="#F7F0C8"/>
<path d="M313.797 70.8692C313.501 71.115 313.247 70.9797 312.933 70.9369C311.823 70.7873 308.59 70.2832 307.84 69.5423C307.509 69.2146 307.114 68.1352 306.735 67.608C306.484 67.2589 305.376 66.2365 305.353 66.1403C305.315 65.9872 305.54 65.3762 305.493 64.9292C305.434 64.3539 305.002 63.791 304.869 63.2228C304.613 62.1399 304.605 60.9234 304.385 59.9634C304.192 59.1227 303.788 59.0657 303.701 57.7031C307.466 60.5084 310.882 63.6468 312.871 67.9607C313.22 68.7159 313.878 70.1693 313.799 70.871L313.797 70.8692Z" fill="#93BCFF"/>
<path d="M265.475 52.54C265.318 53.0548 265.147 54.0077 264.914 54.3888C264.631 54.8519 264.039 54.8697 263.593 55.3987C262.914 56.2038 261.934 59.1943 261.756 59.319C261.395 59.5701 260.388 59.6913 259.648 60.222C258.381 61.1304 257.93 62.6497 256.211 62.4859C255.215 62.3897 253.827 61.9586 252.676 61.793C254.865 58.1363 258.639 55.2099 262.528 53.4555C263.434 53.0459 264.477 52.5133 265.477 52.54H265.475Z" fill="#93BCFF"/>
<path d="M276.545 89.1195C272.163 86.4015 269.965 79.6029 270.523 74.6923C270.9 71.3652 274.688 74.402 276.246 74.9168C277.542 75.3442 278.395 75.4137 279.722 75.0521C280.104 74.947 281.043 74.4198 281.225 74.4537C281.366 74.4804 282.193 75.3514 282.597 75.5882C285.394 77.218 286.773 75.8323 289.184 75.8358C293.186 75.8429 290.543 82.0822 289.486 83.9756C286.867 88.6617 281.88 92.4288 276.545 89.1195ZM280.039 81.5924C278.384 81.7795 276.04 82.7804 274.849 83.9435C273.907 84.8644 274.538 85.6374 275.242 86.5832C278.733 91.2711 284.784 89.8765 287.657 85.372C288.071 84.7237 288.708 83.9774 288.006 83.4181C286.1 81.9006 282.411 81.3235 280.041 81.5924H280.039Z" fill="#2E3587"/>
<path d="M280.039 81.5911C282.409 81.3221 286.1 81.8992 288.004 83.4168C288.706 83.976 288.071 84.7223 287.655 85.3707C284.782 89.8733 278.731 91.2698 275.24 86.5818C274.536 85.636 273.905 84.8612 274.847 83.9422C276.038 82.7791 278.382 81.7781 280.037 81.5911H280.039Z" fill="#5D6EB4"/>
</g>
<path d="M259.5 138.995L259.505 138.065L262.64 135.255C262.893 135.032 263.065 134.818 263.155 134.615C263.248 134.412 263.295 134.208 263.295 134.005C263.295 133.748 263.238 133.518 263.125 133.315C263.012 133.108 262.855 132.945 262.655 132.825C262.455 132.705 262.225 132.645 261.965 132.645C261.698 132.645 261.46 132.708 261.25 132.835C261.043 132.958 260.882 133.123 260.765 133.33C260.648 133.537 260.592 133.76 260.595 134H259.525C259.525 133.533 259.63 133.125 259.84 132.775C260.053 132.422 260.345 132.147 260.715 131.95C261.085 131.75 261.508 131.65 261.985 131.65C262.438 131.65 262.845 131.753 263.205 131.96C263.565 132.163 263.848 132.443 264.055 132.8C264.265 133.157 264.37 133.563 264.37 134.02C264.37 134.35 264.327 134.63 264.24 134.86C264.153 135.09 264.023 135.303 263.85 135.5C263.677 135.697 263.46 135.91 263.2 136.14L260.78 138.3L260.665 138H264.37V138.995H259.5ZM269.716 139.15C269.213 139.15 268.778 139.025 268.411 138.775C268.048 138.525 267.766 138.185 267.566 137.755C267.369 137.322 267.271 136.835 267.271 136.295C267.271 135.752 267.371 135.267 267.571 134.84C267.771 134.41 268.054 134.072 268.421 133.825C268.791 133.575 269.229 133.45 269.736 133.45C270.246 133.45 270.674 133.575 271.021 133.825C271.371 134.072 271.634 134.41 271.811 134.84C271.991 135.27 272.081 135.755 272.081 136.295C272.081 136.835 271.991 137.32 271.811 137.75C271.631 138.18 271.366 138.522 271.016 138.775C270.666 139.025 270.233 139.15 269.716 139.15ZM269.861 138.205C270.204 138.205 270.484 138.123 270.701 137.96C270.918 137.797 271.076 137.572 271.176 137.285C271.276 136.998 271.326 136.668 271.326 136.295C271.326 135.922 271.274 135.592 271.171 135.305C271.071 135.018 270.914 134.795 270.701 134.635C270.491 134.475 270.223 134.395 269.896 134.395C269.549 134.395 269.264 134.48 269.041 134.65C268.818 134.82 268.651 135.048 268.541 135.335C268.434 135.622 268.381 135.942 268.381 136.295C268.381 136.652 268.434 136.975 268.541 137.265C268.651 137.552 268.814 137.78 269.031 137.95C269.251 138.12 269.528 138.205 269.861 138.205ZM271.326 139V135.115H271.206V131.8H272.256V139H271.326ZM275.18 139.15C274.78 139.15 274.445 139.077 274.175 138.93C273.905 138.78 273.7 138.583 273.56 138.34C273.423 138.093 273.355 137.823 273.355 137.53C273.355 137.257 273.403 137.017 273.5 136.81C273.597 136.603 273.74 136.428 273.93 136.285C274.12 136.138 274.353 136.02 274.63 135.93C274.87 135.86 275.142 135.798 275.445 135.745C275.748 135.692 276.067 135.642 276.4 135.595C276.737 135.548 277.07 135.502 277.4 135.455L277.02 135.665C277.027 135.242 276.937 134.928 276.75 134.725C276.567 134.518 276.25 134.415 275.8 134.415C275.517 134.415 275.257 134.482 275.02 134.615C274.783 134.745 274.618 134.962 274.525 135.265L273.55 134.965C273.683 134.502 273.937 134.133 274.31 133.86C274.687 133.587 275.187 133.45 275.81 133.45C276.293 133.45 276.713 133.533 277.07 133.7C277.43 133.863 277.693 134.123 277.86 134.48C277.947 134.657 278 134.843 278.02 135.04C278.04 135.237 278.05 135.448 278.05 135.675V139H277.125V137.765L277.305 137.925C277.082 138.338 276.797 138.647 276.45 138.85C276.107 139.05 275.683 139.15 275.18 139.15ZM275.365 138.295C275.662 138.295 275.917 138.243 276.13 138.14C276.343 138.033 276.515 137.898 276.645 137.735C276.775 137.572 276.86 137.402 276.9 137.225C276.957 137.065 276.988 136.885 276.995 136.685C277.005 136.485 277.01 136.325 277.01 136.205L277.35 136.33C277.02 136.38 276.72 136.425 276.45 136.465C276.18 136.505 275.935 136.545 275.715 136.585C275.498 136.622 275.305 136.667 275.135 136.72C274.992 136.77 274.863 136.83 274.75 136.9C274.64 136.97 274.552 137.055 274.485 137.155C274.422 137.255 274.39 137.377 274.39 137.52C274.39 137.66 274.425 137.79 274.495 137.91C274.565 138.027 274.672 138.12 274.815 138.19C274.958 138.26 275.142 138.295 275.365 138.295ZM279.776 141.4L280.821 138.555L280.836 139.395L278.481 133.6H279.571L281.331 138.075H281.011L282.691 133.6H283.751L280.771 141.4H279.776ZM288.601 139.145C287.944 139.145 287.409 139 286.996 138.71C286.583 138.42 286.329 138.012 286.236 137.485L287.306 137.32C287.373 137.6 287.526 137.822 287.766 137.985C288.009 138.145 288.311 138.225 288.671 138.225C288.998 138.225 289.253 138.158 289.436 138.025C289.623 137.892 289.716 137.708 289.716 137.475C289.716 137.338 289.683 137.228 289.616 137.145C289.553 137.058 289.418 136.977 289.211 136.9C289.004 136.823 288.689 136.728 288.266 136.615C287.803 136.495 287.434 136.367 287.161 136.23C286.891 136.09 286.698 135.928 286.581 135.745C286.468 135.558 286.411 135.333 286.411 135.07C286.411 134.743 286.498 134.458 286.671 134.215C286.844 133.972 287.088 133.783 287.401 133.65C287.718 133.517 288.088 133.45 288.511 133.45C288.924 133.45 289.293 133.515 289.616 133.645C289.939 133.775 290.201 133.96 290.401 134.2C290.601 134.437 290.721 134.715 290.761 135.035L289.691 135.23C289.654 134.97 289.533 134.765 289.326 134.615C289.119 134.465 288.851 134.383 288.521 134.37C288.204 134.357 287.948 134.41 287.751 134.53C287.554 134.647 287.456 134.808 287.456 135.015C287.456 135.135 287.493 135.237 287.566 135.32C287.643 135.403 287.789 135.483 288.006 135.56C288.223 135.637 288.543 135.728 288.966 135.835C289.419 135.952 289.779 136.082 290.046 136.225C290.313 136.365 290.503 136.533 290.616 136.73C290.733 136.923 290.791 137.158 290.791 137.435C290.791 137.968 290.596 138.387 290.206 138.69C289.819 138.993 289.284 139.145 288.601 139.145ZM294.987 139C294.647 139.067 294.314 139.095 293.987 139.085C293.661 139.075 293.369 139.012 293.112 138.895C292.856 138.778 292.662 138.595 292.532 138.345C292.416 138.122 292.352 137.895 292.342 137.665C292.336 137.432 292.332 137.168 292.332 136.875V132.1H293.382V136.825C293.382 137.042 293.384 137.23 293.387 137.39C293.394 137.55 293.429 137.685 293.492 137.795C293.612 138.002 293.802 138.12 294.062 138.15C294.326 138.177 294.634 138.165 294.987 138.115V139ZM291.297 134.44V133.6H294.987V134.44H291.297ZM296.126 139V133.6H297.056V134.91L296.926 134.74C296.992 134.567 297.079 134.408 297.186 134.265C297.292 134.118 297.416 133.998 297.556 133.905C297.692 133.805 297.844 133.728 298.011 133.675C298.181 133.618 298.354 133.585 298.531 133.575C298.707 133.562 298.877 133.57 299.041 133.6V134.58C298.864 134.533 298.667 134.52 298.451 134.54C298.237 134.56 298.041 134.628 297.861 134.745C297.691 134.855 297.556 134.988 297.456 135.145C297.359 135.302 297.289 135.477 297.246 135.67C297.202 135.86 297.181 136.062 297.181 136.275V139H296.126ZM302.29 139.15C301.754 139.15 301.282 139.033 300.875 138.8C300.472 138.563 300.157 138.235 299.93 137.815C299.707 137.392 299.595 136.902 299.595 136.345C299.595 135.755 299.705 135.243 299.925 134.81C300.149 134.377 300.459 134.042 300.855 133.805C301.252 133.568 301.714 133.45 302.24 133.45C302.79 133.45 303.259 133.578 303.645 133.835C304.032 134.088 304.32 134.45 304.51 134.92C304.704 135.39 304.78 135.948 304.74 136.595H303.695V136.215C303.689 135.588 303.569 135.125 303.335 134.825C303.105 134.525 302.754 134.375 302.28 134.375C301.757 134.375 301.364 134.54 301.1 134.87C300.837 135.2 300.705 135.677 300.705 136.3C300.705 136.893 300.837 137.353 301.1 137.68C301.364 138.003 301.744 138.165 302.24 138.165C302.567 138.165 302.849 138.092 303.085 137.945C303.325 137.795 303.512 137.582 303.645 137.305L304.67 137.63C304.46 138.113 304.142 138.488 303.715 138.755C303.289 139.018 302.814 139.15 302.29 139.15ZM300.365 136.595V135.78H304.22V136.595H300.365ZM307.289 139.15C306.889 139.15 306.554 139.077 306.284 138.93C306.014 138.78 305.809 138.583 305.669 138.34C305.533 138.093 305.464 137.823 305.464 137.53C305.464 137.257 305.513 137.017 305.609 136.81C305.706 136.603 305.849 136.428 306.039 136.285C306.229 136.138 306.463 136.02 306.739 135.93C306.979 135.86 307.251 135.798 307.554 135.745C307.858 135.692 308.176 135.642 308.509 135.595C308.846 135.548 309.179 135.502 309.509 135.455L309.129 135.665C309.136 135.242 309.046 134.928 308.859 134.725C308.676 134.518 308.359 134.415 307.909 134.415C307.626 134.415 307.366 134.482 307.129 134.615C306.893 134.745 306.728 134.962 306.634 135.265L305.659 134.965C305.793 134.502 306.046 134.133 306.419 133.86C306.796 133.587 307.296 133.45 307.919 133.45C308.403 133.45 308.823 133.533 309.179 133.7C309.539 133.863 309.803 134.123 309.969 134.48C310.056 134.657 310.109 134.843 310.129 135.04C310.149 135.237 310.159 135.448 310.159 135.675V139H309.234V137.765L309.414 137.925C309.191 138.338 308.906 138.647 308.559 138.85C308.216 139.05 307.793 139.15 307.289 139.15ZM307.474 138.295C307.771 138.295 308.026 138.243 308.239 138.14C308.453 138.033 308.624 137.898 308.754 137.735C308.884 137.572 308.969 137.402 309.009 137.225C309.066 137.065 309.098 136.885 309.104 136.685C309.114 136.485 309.119 136.325 309.119 136.205L309.459 136.33C309.129 136.38 308.829 136.425 308.559 136.465C308.289 136.505 308.044 136.545 307.824 136.585C307.608 136.622 307.414 136.667 307.244 136.72C307.101 136.77 306.973 136.83 306.859 136.9C306.749 136.97 306.661 137.055 306.594 137.155C306.531 137.255 306.499 137.377 306.499 137.52C306.499 137.66 306.534 137.79 306.604 137.91C306.674 138.027 306.781 138.12 306.924 138.19C307.068 138.26 307.251 138.295 307.474 138.295ZM311.453 139L311.458 131.8H312.518V136.2L314.638 133.6H315.968L313.728 136.3L316.198 139H314.778L312.518 136.4V139H311.453Z" fill="#FA7315"/>
<path d="M247.686 127.012C247.949 126.956 248.294 127.101 248.4 127.371C248.472 127.553 248.459 127.75 248.446 127.943C248.336 129.592 247.888 131.347 247.746 133.008C247.741 133.159 247.815 133.251 247.953 133.271C249.087 133.434 251.108 132.782 251.79 134.039C252.169 134.737 251.988 135.283 251.641 135.915C250.087 138.739 248.207 141.45 246.62 144.261C246.172 144.801 245.41 144.36 245.514 143.677L246.224 138.461C246.202 138.321 246.146 138.249 246.013 138.23C244.484 138.01 241.603 139.016 242.046 136.13C243.714 133.339 245.309 130.469 247.046 127.722C247.208 127.465 247.378 127.079 247.686 127.013V127.012Z" fill="#FA7315"/>
<path d="M19.992 48V38.056H16.16V36.48H25.496V38.056H21.664V48H19.992ZM29.247 48.24C28.383 48.24 27.6337 48.0453 26.999 47.656C26.3643 47.2667 25.8737 46.7307 25.527 46.048C25.1857 45.36 25.015 44.568 25.015 43.672C25.015 42.7707 25.191 41.9787 25.543 41.296C25.895 40.608 26.3883 40.0747 27.023 39.696C27.6577 39.312 28.399 39.12 29.247 39.12C30.111 39.12 30.8603 39.3147 31.495 39.704C32.1297 40.0933 32.6203 40.6293 32.967 41.312C33.3137 41.9947 33.487 42.7813 33.487 43.672C33.487 44.5733 33.311 45.368 32.959 46.056C32.6123 46.7387 32.1217 47.2747 31.487 47.664C30.8523 48.048 30.1057 48.24 29.247 48.24ZM29.247 46.664C30.0737 46.664 30.6897 46.3867 31.095 45.832C31.5057 45.272 31.711 44.552 31.711 43.672C31.711 42.7707 31.503 42.0507 31.087 41.512C30.6763 40.968 30.063 40.696 29.247 40.696C28.687 40.696 28.2257 40.824 27.863 41.08C27.5003 41.3307 27.231 41.68 27.055 42.128C26.879 42.5707 26.791 43.0853 26.791 43.672C26.791 44.5787 26.999 45.304 27.415 45.848C27.831 46.392 28.4417 46.664 29.247 46.664ZM38.677 48.24C37.8717 48.24 37.1757 48.04 36.589 47.64C36.0077 47.24 35.557 46.696 35.237 46.008C34.9223 45.3147 34.765 44.536 34.765 43.672C34.765 42.8027 34.925 42.0267 35.245 41.344C35.565 40.656 36.0183 40.1147 36.605 39.72C37.197 39.32 37.8983 39.12 38.709 39.12C39.525 39.12 40.2103 39.32 40.765 39.72C41.325 40.1147 41.7463 40.656 42.029 41.344C42.317 42.032 42.461 42.808 42.461 43.672C42.461 44.536 42.317 45.312 42.029 46C41.741 46.688 41.317 47.2347 40.757 47.64C40.197 48.04 39.5037 48.24 38.677 48.24ZM38.909 46.728C39.4583 46.728 39.9063 46.5973 40.253 46.336C40.5997 46.0747 40.853 45.7147 41.013 45.256C41.173 44.7973 41.253 44.2693 41.253 43.672C41.253 43.0747 41.1703 42.5467 41.005 42.088C40.845 41.6293 40.5943 41.272 40.253 41.016C39.917 40.76 39.4877 40.632 38.965 40.632C38.4103 40.632 37.9543 40.768 37.597 41.04C37.2397 41.312 36.973 41.6773 36.797 42.136C36.6263 42.5947 36.541 43.1067 36.541 43.672C36.541 44.2427 36.6263 44.76 36.797 45.224C36.973 45.6827 37.2343 46.048 37.581 46.32C37.933 46.592 38.3757 46.728 38.909 46.728ZM41.253 48V41.784H41.061V36.48H42.741V48H41.253ZM47.4194 48.24C46.7794 48.24 46.2434 48.1227 45.8114 47.888C45.3794 47.648 45.0514 47.3333 44.8274 46.944C44.6087 46.5493 44.4994 46.1173 44.4994 45.648C44.4994 45.2107 44.5767 44.8267 44.7314 44.496C44.886 44.1653 45.1154 43.8853 45.4194 43.656C45.7234 43.4213 46.0967 43.232 46.5394 43.088C46.9234 42.976 47.358 42.8773 47.8434 42.792C48.3287 42.7067 48.838 42.6267 49.3714 42.552C49.91 42.4773 50.4434 42.4027 50.9714 42.328L50.3634 42.664C50.374 41.9867 50.23 41.4853 49.9314 41.16C49.638 40.8293 49.1314 40.664 48.4114 40.664C47.958 40.664 47.542 40.7707 47.1634 40.984C46.7847 41.192 46.5207 41.5387 46.3714 42.024L44.8114 41.544C45.0247 40.8027 45.43 40.2133 46.0274 39.776C46.63 39.3387 47.43 39.12 48.4274 39.12C49.2007 39.12 49.8727 39.2533 50.4434 39.52C51.0194 39.7813 51.4407 40.1973 51.7074 40.768C51.846 41.0507 51.9314 41.3493 51.9634 41.664C51.9954 41.9787 52.0114 42.3173 52.0114 42.68V48H50.5314V46.024L50.8194 46.28C50.462 46.9413 50.006 47.4347 49.4514 47.76C48.902 48.08 48.2247 48.24 47.4194 48.24ZM47.7154 46.872C48.19 46.872 48.598 46.7893 48.9394 46.624C49.2807 46.4533 49.5554 46.2373 49.7634 45.976C49.9714 45.7147 50.1074 45.4427 50.1714 45.16C50.262 44.904 50.3127 44.616 50.3234 44.296C50.3394 43.976 50.3474 43.72 50.3474 43.528L50.8914 43.728C50.3634 43.808 49.8834 43.88 49.4514 43.944C49.0194 44.008 48.6274 44.072 48.2754 44.136C47.9287 44.1947 47.6194 44.2667 47.3474 44.352C47.118 44.432 46.9127 44.528 46.7314 44.64C46.5554 44.752 46.414 44.888 46.3074 45.048C46.206 45.208 46.1554 45.4027 46.1554 45.632C46.1554 45.856 46.2114 46.064 46.3234 46.256C46.4354 46.4427 46.606 46.592 46.8354 46.704C47.0647 46.816 47.358 46.872 47.7154 46.872ZM54.7724 51.84L56.4444 47.288L56.4684 48.632L52.7004 39.36H54.4444L57.2604 46.52H56.7484L59.4364 39.36H61.1324L56.3644 51.84H54.7724ZM62.5456 40.32L62.6496 39.576C62.879 39.592 63.0576 39.5493 63.1856 39.448C63.3136 39.3467 63.399 39.2053 63.4416 39.024C63.4843 38.8427 63.4923 38.6373 63.4656 38.408H62.5456V36.48H64.3136V38.568C64.3136 39.1973 64.1616 39.672 63.8576 39.992C63.559 40.312 63.1216 40.4213 62.5456 40.32ZM68.6271 48.232C67.5765 48.232 66.7205 48 66.0591 47.536C65.3978 47.072 64.9925 46.4187 64.8431 45.576L66.5551 45.312C66.6618 45.76 66.9071 46.1147 67.2911 46.376C67.6805 46.632 68.1631 46.76 68.7391 46.76C69.2618 46.76 69.6698 46.6533 69.9631 46.44C70.2618 46.2267 70.4111 45.9333 70.4111 45.56C70.4111 45.3413 70.3578 45.1653 70.2511 45.032C70.1498 44.8933 69.9338 44.7627 69.6031 44.64C69.2725 44.5173 68.7685 44.3653 68.0911 44.184C67.3498 43.992 66.7605 43.7867 66.3231 43.568C65.8911 43.344 65.5818 43.0853 65.3951 42.792C65.2138 42.4933 65.1231 42.1333 65.1231 41.712C65.1231 41.1893 65.2618 40.7333 65.5391 40.344C65.8165 39.9547 66.2058 39.6533 66.7071 39.44C67.2138 39.2267 67.8058 39.12 68.4831 39.12C69.1445 39.12 69.7338 39.224 70.2511 39.432C70.7685 39.64 71.1871 39.936 71.5071 40.32C71.8271 40.6987 72.0191 41.144 72.0831 41.656L70.3711 41.968C70.3125 41.552 70.1178 41.224 69.7871 40.984C69.4565 40.744 69.0271 40.6133 68.4991 40.592C67.9925 40.5707 67.5818 40.656 67.2671 40.848C66.9525 41.0347 66.7951 41.2933 66.7951 41.624C66.7951 41.816 66.8538 41.9787 66.9711 42.112C67.0938 42.2453 67.3285 42.3733 67.6751 42.496C68.0218 42.6187 68.5338 42.7653 69.2111 42.936C69.9365 43.1227 70.5125 43.3307 70.9391 43.56C71.3658 43.784 71.6698 44.0533 71.8511 44.368C72.0378 44.6773 72.1311 45.0533 72.1311 45.496C72.1311 46.3493 71.8191 47.0187 71.1951 47.504C70.5765 47.9893 69.7205 48.232 68.6271 48.232ZM81.1604 48.24C80.3337 48.24 79.6404 48.04 79.0804 47.64C78.5204 47.2347 78.0964 46.688 77.8084 46C77.5204 45.312 77.3764 44.536 77.3764 43.672C77.3764 42.808 77.5177 42.032 77.8004 41.344C78.0884 40.656 78.5097 40.1147 79.0644 39.72C79.6244 39.32 80.3124 39.12 81.1284 39.12C81.939 39.12 82.6377 39.32 83.2244 39.72C83.8164 40.1147 84.2724 40.656 84.5924 41.344C84.9124 42.0267 85.0724 42.8027 85.0724 43.672C85.0724 44.536 84.9124 45.3147 84.5924 46.008C84.2777 46.696 83.827 47.24 83.2404 47.64C82.659 48.04 81.9657 48.24 81.1604 48.24ZM77.0964 51.84V39.36H78.5844V45.576H78.7764V51.84H77.0964ZM80.9284 46.728C81.4617 46.728 81.9017 46.592 82.2484 46.32C82.6004 46.048 82.8617 45.6827 83.0324 45.224C83.2084 44.76 83.2964 44.2427 83.2964 43.672C83.2964 43.1067 83.2084 42.5947 83.0324 42.136C82.8617 41.6773 82.5977 41.312 82.2404 41.04C81.883 40.768 81.427 40.632 80.8724 40.632C80.3497 40.632 79.9177 40.76 79.5764 41.016C79.2404 41.272 78.9897 41.6293 78.8244 42.088C78.6644 42.5467 78.5844 43.0747 78.5844 43.672C78.5844 44.2693 78.6644 44.7973 78.8244 45.256C78.9844 45.7147 79.2377 46.0747 79.5844 46.336C79.931 46.5973 80.379 46.728 80.9284 46.728ZM86.8388 48V39.36H88.3268V41.456L88.1188 41.184C88.2254 40.9067 88.3641 40.6533 88.5348 40.424C88.7054 40.1893 88.9028 39.9973 89.1268 39.848C89.3454 39.688 89.5881 39.5653 89.8548 39.48C90.1268 39.3893 90.4041 39.336 90.6868 39.32C90.9694 39.2987 91.2414 39.312 91.5028 39.36V40.928C91.2201 40.8533 90.9054 40.832 90.5588 40.864C90.2174 40.896 89.9028 41.0053 89.6148 41.192C89.3428 41.368 89.1268 41.5813 88.9668 41.832C88.8121 42.0827 88.7001 42.3627 88.6308 42.672C88.5614 42.976 88.5268 43.2987 88.5268 43.64V48H86.8388ZM96.622 48.24C95.758 48.24 95.0087 48.0453 94.374 47.656C93.7393 47.2667 93.2487 46.7307 92.902 46.048C92.5607 45.36 92.39 44.568 92.39 43.672C92.39 42.7707 92.566 41.9787 92.918 41.296C93.27 40.608 93.7633 40.0747 94.398 39.696C95.0327 39.312 95.774 39.12 96.622 39.12C97.486 39.12 98.2353 39.3147 98.87 39.704C99.5047 40.0933 99.9953 40.6293 100.342 41.312C100.689 41.9947 100.862 42.7813 100.862 43.672C100.862 44.5733 100.686 45.368 100.334 46.056C99.9873 46.7387 99.4967 47.2747 98.862 47.664C98.2273 48.048 97.4807 48.24 96.622 48.24ZM96.622 46.664C97.4487 46.664 98.0647 46.3867 98.47 45.832C98.8807 45.272 99.086 44.552 99.086 43.672C99.086 42.7707 98.878 42.0507 98.462 41.512C98.0513 40.968 97.438 40.696 96.622 40.696C96.062 40.696 95.6007 40.824 95.238 41.08C94.8753 41.3307 94.606 41.68 94.43 42.128C94.254 42.5707 94.166 43.0853 94.166 43.672C94.166 44.5787 94.374 45.304 94.79 45.848C95.206 46.392 95.8167 46.664 96.622 46.664ZM106.18 52.08C105.716 52.08 105.265 52.008 104.828 51.864C104.396 51.72 104.001 51.5067 103.644 51.224C103.287 50.9467 102.991 50.6027 102.756 50.192L104.3 49.408C104.487 49.776 104.753 50.0453 105.1 50.216C105.447 50.3867 105.812 50.472 106.196 50.472C106.671 50.472 107.076 50.3867 107.412 50.216C107.748 50.0507 108.001 49.8 108.172 49.464C108.348 49.128 108.433 48.712 108.428 48.216V45.8H108.628V39.36H110.108V48.232C110.108 48.4613 110.1 48.68 110.084 48.888C110.068 49.096 110.039 49.304 109.996 49.512C109.873 50.0933 109.639 50.5733 109.292 50.952C108.951 51.3307 108.513 51.6133 107.98 51.8C107.452 51.9867 106.852 52.08 106.18 52.08ZM106.052 48.24C105.247 48.24 104.551 48.04 103.964 47.64C103.383 47.24 102.932 46.696 102.612 46.008C102.297 45.3147 102.14 44.536 102.14 43.672C102.14 42.8027 102.3 42.0267 102.62 41.344C102.94 40.656 103.393 40.1147 103.98 39.72C104.572 39.32 105.273 39.12 106.084 39.12C106.9 39.12 107.585 39.32 108.14 39.72C108.7 40.1147 109.121 40.656 109.404 41.344C109.692 42.032 109.836 42.808 109.836 43.672C109.836 44.536 109.692 45.312 109.404 46C109.116 46.688 108.692 47.2347 108.132 47.64C107.572 48.04 106.879 48.24 106.052 48.24ZM106.284 46.728C106.833 46.728 107.281 46.5973 107.628 46.336C107.975 46.0747 108.228 45.7147 108.388 45.256C108.548 44.7973 108.628 44.2693 108.628 43.672C108.628 43.0747 108.545 42.5467 108.38 42.088C108.22 41.6293 107.969 41.272 107.628 41.016C107.292 40.76 106.863 40.632 106.34 40.632C105.785 40.632 105.329 40.768 104.972 41.04C104.615 41.312 104.348 41.6773 104.172 42.136C104.001 42.5947 103.916 43.1067 103.916 43.672C103.916 44.2427 104.001 44.76 104.172 45.224C104.348 45.6827 104.609 46.048 104.956 46.32C105.308 46.592 105.751 46.728 106.284 46.728ZM112.354 48V39.36H113.842V41.456L113.634 41.184C113.741 40.9067 113.88 40.6533 114.05 40.424C114.221 40.1893 114.418 39.9973 114.642 39.848C114.861 39.688 115.104 39.5653 115.37 39.48C115.642 39.3893 115.92 39.336 116.202 39.32C116.485 39.2987 116.757 39.312 117.018 39.36V40.928C116.736 40.8533 116.421 40.832 116.074 40.864C115.733 40.896 115.418 41.0053 115.13 41.192C114.858 41.368 114.642 41.5813 114.482 41.832C114.328 42.0827 114.216 42.3627 114.146 42.672C114.077 42.976 114.042 43.2987 114.042 43.64V48H112.354ZM122.218 48.24C121.359 48.24 120.604 48.0533 119.954 47.68C119.308 47.3013 118.804 46.776 118.442 46.104C118.084 45.4267 117.906 44.6427 117.906 43.752C117.906 42.808 118.082 41.9893 118.434 41.296C118.791 40.6027 119.287 40.0667 119.922 39.688C120.556 39.3093 121.295 39.12 122.138 39.12C123.018 39.12 123.767 39.3253 124.386 39.736C125.004 40.1413 125.466 40.72 125.77 41.472C126.079 42.224 126.202 43.1173 126.138 44.152H124.466V43.544C124.455 42.5413 124.263 41.8 123.89 41.32C123.522 40.84 122.959 40.6 122.202 40.6C121.364 40.6 120.735 40.864 120.314 41.392C119.892 41.92 119.682 42.6827 119.682 43.68C119.682 44.6293 119.892 45.3653 120.314 45.888C120.735 46.4053 121.343 46.664 122.138 46.664C122.66 46.664 123.111 46.5467 123.49 46.312C123.874 46.072 124.172 45.7307 124.386 45.288L126.026 45.808C125.69 46.5813 125.18 47.1813 124.498 47.608C123.815 48.0293 123.055 48.24 122.218 48.24ZM119.138 44.152V42.848H125.306V44.152H119.138ZM131.237 48.232C130.186 48.232 129.33 48 128.669 47.536C128.007 47.072 127.602 46.4187 127.453 45.576L129.164 45.312C129.271 45.76 129.517 46.1147 129.901 46.376C130.29 46.632 130.773 46.76 131.349 46.76C131.871 46.76 132.279 46.6533 132.573 46.44C132.871 46.2267 133.021 45.9333 133.021 45.56C133.021 45.3413 132.967 45.1653 132.861 45.032C132.759 44.8933 132.543 44.7627 132.213 44.64C131.882 44.5173 131.378 44.3653 130.701 44.184C129.959 43.992 129.37 43.7867 128.933 43.568C128.501 43.344 128.191 43.0853 128.005 42.792C127.823 42.4933 127.733 42.1333 127.733 41.712C127.733 41.1893 127.871 40.7333 128.149 40.344C128.426 39.9547 128.815 39.6533 129.317 39.44C129.823 39.2267 130.415 39.12 131.093 39.12C131.754 39.12 132.343 39.224 132.861 39.432C133.378 39.64 133.797 39.936 134.117 40.32C134.437 40.6987 134.629 41.144 134.693 41.656L132.981 41.968C132.922 41.552 132.727 41.224 132.397 40.984C132.066 40.744 131.637 40.6133 131.109 40.592C130.602 40.5707 130.191 40.656 129.877 40.848C129.562 41.0347 129.405 41.2933 129.405 41.624C129.405 41.816 129.463 41.9787 129.581 42.112C129.703 42.2453 129.938 42.3733 130.285 42.496C130.631 42.6187 131.143 42.7653 131.821 42.936C132.546 43.1227 133.122 43.3307 133.549 43.56C133.975 43.784 134.279 44.0533 134.461 44.368C134.647 44.6773 134.741 45.0533 134.741 45.496C134.741 46.3493 134.429 47.0187 133.805 47.504C133.186 47.9893 132.33 48.232 131.237 48.232ZM139.815 48.232C138.764 48.232 137.908 48 137.247 47.536C136.585 47.072 136.18 46.4187 136.031 45.576L137.743 45.312C137.849 45.76 138.095 46.1147 138.479 46.376C138.868 46.632 139.351 46.76 139.927 46.76C140.449 46.76 140.857 46.6533 141.151 46.44C141.449 46.2267 141.599 45.9333 141.599 45.56C141.599 45.3413 141.545 45.1653 141.439 45.032C141.337 44.8933 141.121 44.7627 140.791 44.64C140.46 44.5173 139.956 44.3653 139.279 44.184C138.537 43.992 137.948 43.7867 137.511 43.568C137.079 43.344 136.769 43.0853 136.583 42.792C136.401 42.4933 136.311 42.1333 136.311 41.712C136.311 41.1893 136.449 40.7333 136.727 40.344C137.004 39.9547 137.393 39.6533 137.895 39.44C138.401 39.2267 138.993 39.12 139.671 39.12C140.332 39.12 140.921 39.224 141.439 39.432C141.956 39.64 142.375 39.936 142.695 40.32C143.015 40.6987 143.207 41.144 143.271 41.656L141.559 41.968C141.5 41.552 141.305 41.224 140.975 40.984C140.644 40.744 140.215 40.6133 139.687 40.592C139.18 40.5707 138.769 40.656 138.455 40.848C138.14 41.0347 137.983 41.2933 137.983 41.624C137.983 41.816 138.041 41.9787 138.159 42.112C138.281 42.2453 138.516 42.3733 138.863 42.496C139.209 42.6187 139.721 42.7653 140.399 42.936C141.124 43.1227 141.7 43.3307 142.127 43.56C142.553 43.784 142.857 44.0533 143.039 44.368C143.225 44.6773 143.319 45.0533 143.319 45.496C143.319 46.3493 143.007 47.0187 142.383 47.504C141.764 47.9893 140.908 48.232 139.815 48.232Z" fill="#DCDBDB"/>
<g filter="url(#filter0_d_2415_72831)">
<path d="M32.272 104.768C21.328 104.768 17.776 96.512 17.776 87.872C17.776 75.872 23.488 70.064 31.984 70.064C38.416 70.064 43.264 73.904 44.32 79.232H36.064C35.824 78.08 34.864 76.16 31.84 76.16C27.712 76.16 25.936 79.28 25.936 83.6V84.128L26.128 84.272C27.856 82.64 30.208 81.392 33.856 81.392C40.72 81.392 45.28 86.288 45.28 92.624C45.28 99.968 40.24 104.768 32.272 104.768ZM31.792 98.672C35.344 98.672 37.408 96.272 37.408 93.056C37.408 89.888 35.344 87.488 31.792 87.488C28.192 87.488 26.128 89.888 26.128 93.056C26.128 96.272 28.192 98.672 31.792 98.672Z" fill="white"/>
<path d="M52.4838 104H47.2838L58.3638 75.4H63.5638L52.4838 104ZM75.9897 104.64C66.8697 104.64 63.9097 97.76 63.9097 90.56C63.9097 80.56 68.6697 75.72 75.7497 75.72C81.1097 75.72 85.1497 78.92 86.0297 83.36H79.1497C78.9497 82.4 78.1497 80.8 75.6297 80.8C72.1897 80.8 70.7097 83.4 70.7097 87V87.44L70.8697 87.56C72.3097 86.2 74.2697 85.16 77.3097 85.16C83.0297 85.16 86.8297 89.24 86.8297 94.52C86.8297 100.64 82.6297 104.64 75.9897 104.64ZM75.5897 99.56C78.5497 99.56 80.2697 97.56 80.2697 94.88C80.2697 92.24 78.5497 90.24 75.5897 90.24C72.5897 90.24 70.8697 92.24 70.8697 94.88C70.8697 97.56 72.5897 99.56 75.5897 99.56Z" fill="#A6B4FF"/>
</g>
<path d="M36.7 134V126.8H39.61C39.68 126.8 39.7667 126.803 39.87 126.81C39.9733 126.813 40.0717 126.823 40.165 126.84C40.565 126.903 40.8983 127.04 41.165 127.25C41.435 127.46 41.6367 127.725 41.77 128.045C41.9033 128.365 41.97 128.718 41.97 129.105C41.97 129.495 41.9033 129.85 41.77 130.17C41.6367 130.49 41.435 130.755 41.165 130.965C40.8983 131.175 40.565 131.312 40.165 131.375C40.0717 131.388 39.9717 131.398 39.865 131.405C39.7617 131.412 39.6767 131.415 39.61 131.415H37.745V134H36.7ZM37.745 130.425H39.57C39.6367 130.425 39.71 130.422 39.79 130.415C39.8733 130.408 39.9517 130.397 40.025 130.38C40.2383 130.33 40.41 130.238 40.54 130.105C40.67 129.968 40.7633 129.812 40.82 129.635C40.8767 129.458 40.905 129.282 40.905 129.105C40.905 128.928 40.8767 128.753 40.82 128.58C40.7633 128.403 40.67 128.248 40.54 128.115C40.41 127.978 40.2383 127.885 40.025 127.835C39.9517 127.815 39.8733 127.802 39.79 127.795C39.71 127.788 39.6367 127.785 39.57 127.785H37.745V130.425ZM45.2462 134.15C44.7062 134.15 44.2378 134.028 43.8412 133.785C43.4445 133.542 43.1378 133.207 42.9212 132.78C42.7078 132.35 42.6012 131.855 42.6012 131.295C42.6012 130.732 42.7112 130.237 42.9312 129.81C43.1512 129.38 43.4595 129.047 43.8562 128.81C44.2528 128.57 44.7162 128.45 45.2462 128.45C45.7862 128.45 46.2545 128.572 46.6512 128.815C47.0478 129.058 47.3545 129.393 47.5712 129.82C47.7878 130.247 47.8962 130.738 47.8962 131.295C47.8962 131.858 47.7862 132.355 47.5662 132.785C47.3495 133.212 47.0428 133.547 46.6462 133.79C46.2495 134.03 45.7828 134.15 45.2462 134.15ZM45.2462 133.165C45.7628 133.165 46.1478 132.992 46.4012 132.645C46.6578 132.295 46.7862 131.845 46.7862 131.295C46.7862 130.732 46.6562 130.282 46.3962 129.945C46.1395 129.605 45.7562 129.435 45.2462 129.435C44.8962 129.435 44.6078 129.515 44.3812 129.675C44.1545 129.832 43.9862 130.05 43.8762 130.33C43.7662 130.607 43.7112 130.928 43.7112 131.295C43.7112 131.862 43.8412 132.315 44.1012 132.655C44.3612 132.995 44.7428 133.165 45.2462 133.165ZM49.9496 134L48.2996 128.595L49.3346 128.6L50.4646 132.305L51.6046 128.6H52.5046L53.6446 132.305L54.7746 128.6H55.8046L54.1546 134H53.3146L52.0546 130.09L50.7896 134H49.9496ZM58.8997 134.15C58.363 134.15 57.8914 134.033 57.4847 133.8C57.0814 133.563 56.7664 133.235 56.5397 132.815C56.3164 132.392 56.2047 131.902 56.2047 131.345C56.2047 130.755 56.3147 130.243 56.5347 129.81C56.758 129.377 57.068 129.042 57.4647 128.805C57.8614 128.568 58.323 128.45 58.8497 128.45C59.3997 128.45 59.868 128.578 60.2547 128.835C60.6414 129.088 60.9297 129.45 61.1197 129.92C61.313 130.39 61.3897 130.948 61.3497 131.595H60.3047V131.215C60.298 130.588 60.178 130.125 59.9447 129.825C59.7147 129.525 59.363 129.375 58.8897 129.375C58.3664 129.375 57.973 129.54 57.7097 129.87C57.4464 130.2 57.3147 130.677 57.3147 131.3C57.3147 131.893 57.4464 132.353 57.7097 132.68C57.973 133.003 58.353 133.165 58.8497 133.165C59.1764 133.165 59.458 133.092 59.6947 132.945C59.9347 132.795 60.1214 132.582 60.2547 132.305L61.2797 132.63C61.0697 133.113 60.7514 133.488 60.3247 133.755C59.898 134.018 59.423 134.15 58.8997 134.15ZM56.9747 131.595V130.78H60.8297V131.595H56.9747ZM62.4715 134V128.6H63.4015V129.91L63.2715 129.74C63.3382 129.567 63.4248 129.408 63.5315 129.265C63.6382 129.118 63.7615 128.998 63.9015 128.905C64.0382 128.805 64.1898 128.728 64.3565 128.675C64.5265 128.618 64.6998 128.585 64.8765 128.575C65.0532 128.562 65.2232 128.57 65.3865 128.6V129.58C65.2098 129.533 65.0132 129.52 64.7965 129.54C64.5832 129.56 64.3865 129.628 64.2065 129.745C64.0365 129.855 63.9015 129.988 63.8015 130.145C63.7048 130.302 63.6348 130.477 63.5915 130.67C63.5482 130.86 63.5265 131.062 63.5265 131.275V134H62.4715ZM68.4406 134V126.65H69.4856V134H68.4406ZM73.3821 134.15C72.8454 134.15 72.3738 134.033 71.9671 133.8C71.5638 133.563 71.2488 133.235 71.0221 132.815C70.7988 132.392 70.6871 131.902 70.6871 131.345C70.6871 130.755 70.7971 130.243 71.0171 129.81C71.2404 129.377 71.5504 129.042 71.9471 128.805C72.3438 128.568 72.8054 128.45 73.3321 128.45C73.8821 128.45 74.3504 128.578 74.7371 128.835C75.1238 129.088 75.4121 129.45 75.6021 129.92C75.7954 130.39 75.8721 130.948 75.8321 131.595H74.7871V131.215C74.7804 130.588 74.6604 130.125 74.4271 129.825C74.1971 129.525 73.8454 129.375 73.3721 129.375C72.8488 129.375 72.4554 129.54 72.1921 129.87C71.9288 130.2 71.7971 130.677 71.7971 131.3C71.7971 131.893 71.9288 132.353 72.1921 132.68C72.4554 133.003 72.8354 133.165 73.3321 133.165C73.6588 133.165 73.9404 133.092 74.1771 132.945C74.4171 132.795 74.6038 132.582 74.7371 132.305L75.7621 132.63C75.5521 133.113 75.2338 133.488 74.8071 133.755C74.3804 134.018 73.9054 134.15 73.3821 134.15ZM71.4571 131.595V130.78H75.3121V131.595H71.4571ZM78.2186 134L76.2586 128.6H77.3136L78.7486 132.69L80.1836 128.6H81.2386L79.2786 134H78.2186ZM84.3391 134.15C83.8025 134.15 83.3308 134.033 82.9241 133.8C82.5208 133.563 82.2058 133.235 81.9791 132.815C81.7558 132.392 81.6441 131.902 81.6441 131.345C81.6441 130.755 81.7541 130.243 81.9741 129.81C82.1975 129.377 82.5075 129.042 82.9041 128.805C83.3008 128.568 83.7625 128.45 84.2891 128.45C84.8391 128.45 85.3075 128.578 85.6941 128.835C86.0808 129.088 86.3691 129.45 86.5591 129.92C86.7525 130.39 86.8291 130.948 86.7891 131.595H85.7441V131.215C85.7375 130.588 85.6175 130.125 85.3841 129.825C85.1541 129.525 84.8025 129.375 84.3291 129.375C83.8058 129.375 83.4125 129.54 83.1491 129.87C82.8858 130.2 82.7541 130.677 82.7541 131.3C82.7541 131.893 82.8858 132.353 83.1491 132.68C83.4125 133.003 83.7925 133.165 84.2891 133.165C84.6158 133.165 84.8975 133.092 85.1341 132.945C85.3741 132.795 85.5608 132.582 85.6941 132.305L86.7191 132.63C86.5091 133.113 86.1908 133.488 85.7641 133.755C85.3375 134.018 84.8625 134.15 84.3391 134.15ZM82.4141 131.595V130.78H86.2691V131.595H82.4141ZM88.0109 134V126.65H89.0559V134H88.0109ZM90.9574 133.3V132.195H92.0624V133.3H90.9574ZM90.9624 130.405V129.3H92.0674V130.405H90.9624ZM95.8406 134V126.8H96.7856L99.3956 132.215L101.991 126.8H102.946V133.995H101.956V129.07L99.6306 134H99.1556L96.8256 129.07V134H95.8406ZM103.846 134L106.186 126.8H107.691L110.031 134H108.946L106.791 127.43H107.061L104.931 134H103.846ZM105.061 132.375V131.395H108.821V132.375H105.061ZM110.329 134L112.784 130.355L110.394 126.8H111.674L113.429 129.47L115.174 126.8H116.459L114.069 130.355L116.519 134H115.239L113.429 131.245L111.614 134H110.329ZM117.495 134V132.895H118.6V134H117.495Z" fill="#34D399"/>
<g clip-path="url(#clip1_2415_72831)">
<path d="M27.6314 127.184H28.2556C28.569 127.184 28.9405 127.594 28.9803 127.92C29.1678 129.453 27.9575 131.132 26.5815 131.481C26.2583 132.059 25.8543 132.535 25.2846 132.838C25.2235 132.87 25.0845 132.895 25.0722 132.961C25.0635 133.008 25.0689 133.435 25.082 133.456C25.796 133.702 26.3354 134.357 26.4244 135.164C26.7094 135.206 27.147 135.038 27.3123 135.364C27.4739 135.682 27.2512 136.011 26.9256 136H22.0326C21.7419 135.983 21.5544 135.704 21.6652 135.407C21.8042 135.033 22.2845 135.204 22.574 135.163C22.6807 134.359 23.2048 133.716 23.9172 133.455C23.925 133.367 23.9488 132.956 23.9066 132.918C23.8705 132.886 23.6211 132.791 23.5395 132.741C23.0949 132.468 22.7512 132.034 22.4735 131.58C21.2714 131.473 20.2194 130.446 20.0439 129.162C20.0025 128.862 19.9828 128.217 20.0189 127.921C20.0587 127.594 20.4302 127.185 20.7436 127.185H21.3678C21.3731 127.168 21.3473 127.158 21.3473 127.152V126.538C21.3477 126.315 21.6713 125.986 21.8903 126H27.1093C27.6765 126.083 27.7069 126.691 27.6314 127.184ZM23.7085 129.94C23.9431 130.192 24.2716 129.846 24.507 129.754C24.7297 129.858 25.0439 130.173 25.2764 129.957C25.4843 129.764 25.2776 129.375 25.3022 129.13C25.4388 128.934 25.7682 128.78 25.7267 128.491C25.6759 128.134 25.221 128.233 24.9922 128.137C24.847 127.932 24.8047 127.506 24.5066 127.5C24.2084 127.493 24.1543 127.926 24.0074 128.137C23.7901 128.23 23.3812 128.138 23.2877 128.44C23.1872 128.764 23.5596 128.91 23.6978 129.129C23.7228 129.37 23.5247 129.742 23.7089 129.94H23.7085ZM21.4297 128.017H20.826L20.7953 128.05V128.972C20.7953 129.025 20.849 129.224 20.867 129.29C21.0254 129.871 21.4646 130.407 22.0027 130.605C21.7086 129.776 21.5019 128.905 21.4297 128.018V128.017ZM28.2048 128.423C28.215 128.304 28.1974 128.171 28.2048 128.05L28.174 128.017H27.5703C27.5096 128.803 27.3304 129.574 27.0999 130.319C27.5961 129.971 27.9833 129.402 28.1334 128.784C28.1576 128.685 28.1962 128.52 28.2048 128.422V128.423Z" fill="#34D399"/>
</g>
<defs>
<filter id="filter0_d_2415_72831" x="13.2764" y="65.564" width="78.0537" height="43.7041" filterUnits="userSpaceOnUse" color-interpolation-filters="sRGB">
<feFlood flood-opacity="0" result="BackgroundImageFix"/>
<feColorMatrix in="SourceAlpha" type="matrix" values="0 0 0 0 0 0 0 0 0 0 0 0 0 0 0 0 0 0 127 0" result="hardAlpha"/>
<feOffset/>
<feGaussianBlur stdDeviation="2.25"/>
<feComposite in2="hardAlpha" operator="out"/>
<feColorMatrix type="matrix" values="0 0 0 0 0 0 0 0 0 0 0 0 0 0 0 0 0 0 0.25 0"/>
<feBlend mode="normal" in2="BackgroundImageFix" result="effect1_dropShadow_2415_72831"/>
<feBlend mode="normal" in="SourceGraphic" in2="effect1_dropShadow_2415_72831" result="shape"/>
</filter>
<linearGradient id="paint0_linear_2415_72831" x1="2.13543e-06" y1="149.555" x2="361" y2="17.4448" gradientUnits="userSpaceOnUse">
<stop stop-color="#4764FF"/>
<stop offset="0.610577" stop-color="#080809"/>
</linearGradient>
<linearGradient id="paint1_linear_2415_72831" x1="281.58" y1="20.2734" x2="281.58" y2="160.563" gradientUnits="userSpaceOnUse">
<stop stop-color="#3D66FE"/>
<stop offset="1" stop-color="#253E9A"/>
</linearGradient>
<linearGradient id="paint2_linear_2415_72831" x1="282.387" y1="48.625" x2="282.387" y2="98.9784" gradientUnits="userSpaceOnUse">
<stop stop-color="#9CC2FF"/>
<stop offset="1" stop-color="#66A1FF"/>
</linearGradient>
<clipPath id="clip0_2415_72831">
<rect width="140" height="154" fill="white" transform="translate(209)"/>
</clipPath>
<clipPath id="clip1_2415_72831">
<rect width="9" height="10" fill="white" transform="translate(20 126)"/>
</clipPath>
</defs>
</svg>
