<svg width="361" height="141" viewBox="0 0 361 141" fill="none" xmlns="http://www.w3.org/2000/svg">
<path d="M0 12C0 5.37258 5.37258 0 12 0H349C355.627 0 361 5.37258 361 12V129C361 135.627 355.627 141 349 141H12C5.37257 141 0 135.627 0 129V12Z" fill="url(#paint0_linear_2415_72920)"/>
<path d="M19.992 35V25.056H16.16V23.48H25.496V25.056H21.664V35H19.992ZM29.247 35.24C28.383 35.24 27.6337 35.0453 26.999 34.656C26.3643 34.2667 25.8737 33.7307 25.527 33.048C25.1857 32.36 25.015 31.568 25.015 30.672C25.015 29.7707 25.191 28.9787 25.543 28.296C25.895 27.608 26.3883 27.0747 27.023 26.696C27.6577 26.312 28.399 26.12 29.247 26.12C30.111 26.12 30.8603 26.3147 31.495 26.704C32.1297 27.0933 32.6203 27.6293 32.967 28.312C33.3137 28.9947 33.487 29.7813 33.487 30.672C33.487 31.5733 33.311 32.368 32.959 33.056C32.6123 33.7387 32.1217 34.2747 31.487 34.664C30.8523 35.048 30.1057 35.24 29.247 35.24ZM29.247 33.664C30.0737 33.664 30.6897 33.3867 31.095 32.832C31.5057 32.272 31.711 31.552 31.711 30.672C31.711 29.7707 31.503 29.0507 31.087 28.512C30.6763 27.968 30.063 27.696 29.247 27.696C28.687 27.696 28.2257 27.824 27.863 28.08C27.5003 28.3307 27.231 28.68 27.055 29.128C26.879 29.5707 26.791 30.0853 26.791 30.672C26.791 31.5787 26.999 32.304 27.415 32.848C27.831 33.392 28.4417 33.664 29.247 33.664ZM38.677 35.24C37.8717 35.24 37.1757 35.04 36.589 34.64C36.0077 34.24 35.557 33.696 35.237 33.008C34.9223 32.3147 34.765 31.536 34.765 30.672C34.765 29.8027 34.925 29.0267 35.245 28.344C35.565 27.656 36.0183 27.1147 36.605 26.72C37.197 26.32 37.8983 26.12 38.709 26.12C39.525 26.12 40.2103 26.32 40.765 26.72C41.325 27.1147 41.7463 27.656 42.029 28.344C42.317 29.032 42.461 29.808 42.461 30.672C42.461 31.536 42.317 32.312 42.029 33C41.741 33.688 41.317 34.2347 40.757 34.64C40.197 35.04 39.5037 35.24 38.677 35.24ZM38.909 33.728C39.4583 33.728 39.9063 33.5973 40.253 33.336C40.5997 33.0747 40.853 32.7147 41.013 32.256C41.173 31.7973 41.253 31.2693 41.253 30.672C41.253 30.0747 41.1703 29.5467 41.005 29.088C40.845 28.6293 40.5943 28.272 40.253 28.016C39.917 27.76 39.4877 27.632 38.965 27.632C38.4103 27.632 37.9543 27.768 37.597 28.04C37.2397 28.312 36.973 28.6773 36.797 29.136C36.6263 29.5947 36.541 30.1067 36.541 30.672C36.541 31.2427 36.6263 31.76 36.797 32.224C36.973 32.6827 37.2343 33.048 37.581 33.32C37.933 33.592 38.3757 33.728 38.909 33.728ZM41.253 35V28.784H41.061V23.48H42.741V35H41.253ZM47.4194 35.24C46.7794 35.24 46.2434 35.1227 45.8114 34.888C45.3794 34.648 45.0514 34.3333 44.8274 33.944C44.6087 33.5493 44.4994 33.1173 44.4994 32.648C44.4994 32.2107 44.5767 31.8267 44.7314 31.496C44.886 31.1653 45.1154 30.8853 45.4194 30.656C45.7234 30.4213 46.0967 30.232 46.5394 30.088C46.9234 29.976 47.358 29.8773 47.8434 29.792C48.3287 29.7067 48.838 29.6267 49.3714 29.552C49.91 29.4773 50.4434 29.4027 50.9714 29.328L50.3634 29.664C50.374 28.9867 50.23 28.4853 49.9314 28.16C49.638 27.8293 49.1314 27.664 48.4114 27.664C47.958 27.664 47.542 27.7707 47.1634 27.984C46.7847 28.192 46.5207 28.5387 46.3714 29.024L44.8114 28.544C45.0247 27.8027 45.43 27.2133 46.0274 26.776C46.63 26.3387 47.43 26.12 48.4274 26.12C49.2007 26.12 49.8727 26.2533 50.4434 26.52C51.0194 26.7813 51.4407 27.1973 51.7074 27.768C51.846 28.0507 51.9314 28.3493 51.9634 28.664C51.9954 28.9787 52.0114 29.3173 52.0114 29.68V35H50.5314V33.024L50.8194 33.28C50.462 33.9413 50.006 34.4347 49.4514 34.76C48.902 35.08 48.2247 35.24 47.4194 35.24ZM47.7154 33.872C48.19 33.872 48.598 33.7893 48.9394 33.624C49.2807 33.4533 49.5554 33.2373 49.7634 32.976C49.9714 32.7147 50.1074 32.4427 50.1714 32.16C50.262 31.904 50.3127 31.616 50.3234 31.296C50.3394 30.976 50.3474 30.72 50.3474 30.528L50.8914 30.728C50.3634 30.808 49.8834 30.88 49.4514 30.944C49.0194 31.008 48.6274 31.072 48.2754 31.136C47.9287 31.1947 47.6194 31.2667 47.3474 31.352C47.118 31.432 46.9127 31.528 46.7314 31.64C46.5554 31.752 46.414 31.888 46.3074 32.048C46.206 32.208 46.1554 32.4027 46.1554 32.632C46.1554 32.856 46.2114 33.064 46.3234 33.256C46.4354 33.4427 46.606 33.592 46.8354 33.704C47.0647 33.816 47.358 33.872 47.7154 33.872ZM54.7724 38.84L56.4444 34.288L56.4684 35.632L52.7004 26.36H54.4444L57.2604 33.52H56.7484L59.4364 26.36H61.1324L56.3644 38.84H54.7724ZM62.5456 27.32L62.6496 26.576C62.879 26.592 63.0576 26.5493 63.1856 26.448C63.3136 26.3467 63.399 26.2053 63.4416 26.024C63.4843 25.8427 63.4923 25.6373 63.4656 25.408H62.5456V23.48H64.3136V25.568C64.3136 26.1973 64.1616 26.672 63.8576 26.992C63.559 27.312 63.1216 27.4213 62.5456 27.32ZM68.6271 35.232C67.5765 35.232 66.7205 35 66.0591 34.536C65.3978 34.072 64.9925 33.4187 64.8431 32.576L66.5551 32.312C66.6618 32.76 66.9071 33.1147 67.2911 33.376C67.6805 33.632 68.1631 33.76 68.7391 33.76C69.2618 33.76 69.6698 33.6533 69.9631 33.44C70.2618 33.2267 70.4111 32.9333 70.4111 32.56C70.4111 32.3413 70.3578 32.1653 70.2511 32.032C70.1498 31.8933 69.9338 31.7627 69.6031 31.64C69.2725 31.5173 68.7685 31.3653 68.0911 31.184C67.3498 30.992 66.7605 30.7867 66.3231 30.568C65.8911 30.344 65.5818 30.0853 65.3951 29.792C65.2138 29.4933 65.1231 29.1333 65.1231 28.712C65.1231 28.1893 65.2618 27.7333 65.5391 27.344C65.8165 26.9547 66.2058 26.6533 66.7071 26.44C67.2138 26.2267 67.8058 26.12 68.4831 26.12C69.1445 26.12 69.7338 26.224 70.2511 26.432C70.7685 26.64 71.1871 26.936 71.5071 27.32C71.8271 27.6987 72.0191 28.144 72.0831 28.656L70.3711 28.968C70.3125 28.552 70.1178 28.224 69.7871 27.984C69.4565 27.744 69.0271 27.6133 68.4991 27.592C67.9925 27.5707 67.5818 27.656 67.2671 27.848C66.9525 28.0347 66.7951 28.2933 66.7951 28.624C66.7951 28.816 66.8538 28.9787 66.9711 29.112C67.0938 29.2453 67.3285 29.3733 67.6751 29.496C68.0218 29.6187 68.5338 29.7653 69.2111 29.936C69.9365 30.1227 70.5125 30.3307 70.9391 30.56C71.3658 30.784 71.6698 31.0533 71.8511 31.368C72.0378 31.6773 72.1311 32.0533 72.1311 32.496C72.1311 33.3493 71.8191 34.0187 71.1951 34.504C70.5765 34.9893 69.7205 35.232 68.6271 35.232ZM81.1604 35.24C80.3337 35.24 79.6404 35.04 79.0804 34.64C78.5204 34.2347 78.0964 33.688 77.8084 33C77.5204 32.312 77.3764 31.536 77.3764 30.672C77.3764 29.808 77.5177 29.032 77.8004 28.344C78.0884 27.656 78.5097 27.1147 79.0644 26.72C79.6244 26.32 80.3124 26.12 81.1284 26.12C81.939 26.12 82.6377 26.32 83.2244 26.72C83.8164 27.1147 84.2724 27.656 84.5924 28.344C84.9124 29.0267 85.0724 29.8027 85.0724 30.672C85.0724 31.536 84.9124 32.3147 84.5924 33.008C84.2777 33.696 83.827 34.24 83.2404 34.64C82.659 35.04 81.9657 35.24 81.1604 35.24ZM77.0964 38.84V26.36H78.5844V32.576H78.7764V38.84H77.0964ZM80.9284 33.728C81.4617 33.728 81.9017 33.592 82.2484 33.32C82.6004 33.048 82.8617 32.6827 83.0324 32.224C83.2084 31.76 83.2964 31.2427 83.2964 30.672C83.2964 30.1067 83.2084 29.5947 83.0324 29.136C82.8617 28.6773 82.5977 28.312 82.2404 28.04C81.883 27.768 81.427 27.632 80.8724 27.632C80.3497 27.632 79.9177 27.76 79.5764 28.016C79.2404 28.272 78.9897 28.6293 78.8244 29.088C78.6644 29.5467 78.5844 30.0747 78.5844 30.672C78.5844 31.2693 78.6644 31.7973 78.8244 32.256C78.9844 32.7147 79.2377 33.0747 79.5844 33.336C79.931 33.5973 80.379 33.728 80.9284 33.728ZM86.8388 35V26.36H88.3268V28.456L88.1188 28.184C88.2254 27.9067 88.3641 27.6533 88.5348 27.424C88.7054 27.1893 88.9028 26.9973 89.1268 26.848C89.3454 26.688 89.5881 26.5653 89.8548 26.48C90.1268 26.3893 90.4041 26.336 90.6868 26.32C90.9694 26.2987 91.2414 26.312 91.5028 26.36V27.928C91.2201 27.8533 90.9054 27.832 90.5588 27.864C90.2174 27.896 89.9028 28.0053 89.6148 28.192C89.3428 28.368 89.1268 28.5813 88.9668 28.832C88.8121 29.0827 88.7001 29.3627 88.6308 29.672C88.5614 29.976 88.5268 30.2987 88.5268 30.64V35H86.8388ZM96.622 35.24C95.758 35.24 95.0087 35.0453 94.374 34.656C93.7393 34.2667 93.2487 33.7307 92.902 33.048C92.5607 32.36 92.39 31.568 92.39 30.672C92.39 29.7707 92.566 28.9787 92.918 28.296C93.27 27.608 93.7633 27.0747 94.398 26.696C95.0327 26.312 95.774 26.12 96.622 26.12C97.486 26.12 98.2353 26.3147 98.87 26.704C99.5047 27.0933 99.9953 27.6293 100.342 28.312C100.689 28.9947 100.862 29.7813 100.862 30.672C100.862 31.5733 100.686 32.368 100.334 33.056C99.9873 33.7387 99.4967 34.2747 98.862 34.664C98.2273 35.048 97.4807 35.24 96.622 35.24ZM96.622 33.664C97.4487 33.664 98.0647 33.3867 98.47 32.832C98.8807 32.272 99.086 31.552 99.086 30.672C99.086 29.7707 98.878 29.0507 98.462 28.512C98.0513 27.968 97.438 27.696 96.622 27.696C96.062 27.696 95.6007 27.824 95.238 28.08C94.8753 28.3307 94.606 28.68 94.43 29.128C94.254 29.5707 94.166 30.0853 94.166 30.672C94.166 31.5787 94.374 32.304 94.79 32.848C95.206 33.392 95.8167 33.664 96.622 33.664ZM106.18 39.08C105.716 39.08 105.265 39.008 104.828 38.864C104.396 38.72 104.001 38.5067 103.644 38.224C103.287 37.9467 102.991 37.6027 102.756 37.192L104.3 36.408C104.487 36.776 104.753 37.0453 105.1 37.216C105.447 37.3867 105.812 37.472 106.196 37.472C106.671 37.472 107.076 37.3867 107.412 37.216C107.748 37.0507 108.001 36.8 108.172 36.464C108.348 36.128 108.433 35.712 108.428 35.216V32.8H108.628V26.36H110.108V35.232C110.108 35.4613 110.1 35.68 110.084 35.888C110.068 36.096 110.039 36.304 109.996 36.512C109.873 37.0933 109.639 37.5733 109.292 37.952C108.951 38.3307 108.513 38.6133 107.98 38.8C107.452 38.9867 106.852 39.08 106.18 39.08ZM106.052 35.24C105.247 35.24 104.551 35.04 103.964 34.64C103.383 34.24 102.932 33.696 102.612 33.008C102.297 32.3147 102.14 31.536 102.14 30.672C102.14 29.8027 102.3 29.0267 102.62 28.344C102.94 27.656 103.393 27.1147 103.98 26.72C104.572 26.32 105.273 26.12 106.084 26.12C106.9 26.12 107.585 26.32 108.14 26.72C108.7 27.1147 109.121 27.656 109.404 28.344C109.692 29.032 109.836 29.808 109.836 30.672C109.836 31.536 109.692 32.312 109.404 33C109.116 33.688 108.692 34.2347 108.132 34.64C107.572 35.04 106.879 35.24 106.052 35.24ZM106.284 33.728C106.833 33.728 107.281 33.5973 107.628 33.336C107.975 33.0747 108.228 32.7147 108.388 32.256C108.548 31.7973 108.628 31.2693 108.628 30.672C108.628 30.0747 108.545 29.5467 108.38 29.088C108.22 28.6293 107.969 28.272 107.628 28.016C107.292 27.76 106.863 27.632 106.34 27.632C105.785 27.632 105.329 27.768 104.972 28.04C104.615 28.312 104.348 28.6773 104.172 29.136C104.001 29.5947 103.916 30.1067 103.916 30.672C103.916 31.2427 104.001 31.76 104.172 32.224C104.348 32.6827 104.609 33.048 104.956 33.32C105.308 33.592 105.751 33.728 106.284 33.728ZM112.354 35V26.36H113.842V28.456L113.634 28.184C113.741 27.9067 113.88 27.6533 114.05 27.424C114.221 27.1893 114.418 26.9973 114.642 26.848C114.861 26.688 115.104 26.5653 115.37 26.48C115.642 26.3893 115.92 26.336 116.202 26.32C116.485 26.2987 116.757 26.312 117.018 26.36V27.928C116.736 27.8533 116.421 27.832 116.074 27.864C115.733 27.896 115.418 28.0053 115.13 28.192C114.858 28.368 114.642 28.5813 114.482 28.832C114.328 29.0827 114.216 29.3627 114.146 29.672C114.077 29.976 114.042 30.2987 114.042 30.64V35H112.354ZM122.218 35.24C121.359 35.24 120.604 35.0533 119.954 34.68C119.308 34.3013 118.804 33.776 118.442 33.104C118.084 32.4267 117.906 31.6427 117.906 30.752C117.906 29.808 118.082 28.9893 118.434 28.296C118.791 27.6027 119.287 27.0667 119.922 26.688C120.556 26.3093 121.295 26.12 122.138 26.12C123.018 26.12 123.767 26.3253 124.386 26.736C125.004 27.1413 125.466 27.72 125.77 28.472C126.079 29.224 126.202 30.1173 126.138 31.152H124.466V30.544C124.455 29.5413 124.263 28.8 123.89 28.32C123.522 27.84 122.959 27.6 122.202 27.6C121.364 27.6 120.735 27.864 120.314 28.392C119.892 28.92 119.682 29.6827 119.682 30.68C119.682 31.6293 119.892 32.3653 120.314 32.888C120.735 33.4053 121.343 33.664 122.138 33.664C122.66 33.664 123.111 33.5467 123.49 33.312C123.874 33.072 124.172 32.7307 124.386 32.288L126.026 32.808C125.69 33.5813 125.18 34.1813 124.498 34.608C123.815 35.0293 123.055 35.24 122.218 35.24ZM119.138 31.152V29.848H125.306V31.152H119.138ZM131.237 35.232C130.186 35.232 129.33 35 128.669 34.536C128.007 34.072 127.602 33.4187 127.453 32.576L129.164 32.312C129.271 32.76 129.517 33.1147 129.901 33.376C130.29 33.632 130.773 33.76 131.349 33.76C131.871 33.76 132.279 33.6533 132.573 33.44C132.871 33.2267 133.021 32.9333 133.021 32.56C133.021 32.3413 132.967 32.1653 132.861 32.032C132.759 31.8933 132.543 31.7627 132.213 31.64C131.882 31.5173 131.378 31.3653 130.701 31.184C129.959 30.992 129.37 30.7867 128.933 30.568C128.501 30.344 128.191 30.0853 128.005 29.792C127.823 29.4933 127.733 29.1333 127.733 28.712C127.733 28.1893 127.871 27.7333 128.149 27.344C128.426 26.9547 128.815 26.6533 129.317 26.44C129.823 26.2267 130.415 26.12 131.093 26.12C131.754 26.12 132.343 26.224 132.861 26.432C133.378 26.64 133.797 26.936 134.117 27.32C134.437 27.6987 134.629 28.144 134.693 28.656L132.981 28.968C132.922 28.552 132.727 28.224 132.397 27.984C132.066 27.744 131.637 27.6133 131.109 27.592C130.602 27.5707 130.191 27.656 129.877 27.848C129.562 28.0347 129.405 28.2933 129.405 28.624C129.405 28.816 129.463 28.9787 129.581 29.112C129.703 29.2453 129.938 29.3733 130.285 29.496C130.631 29.6187 131.143 29.7653 131.821 29.936C132.546 30.1227 133.122 30.3307 133.549 30.56C133.975 30.784 134.279 31.0533 134.461 31.368C134.647 31.6773 134.741 32.0533 134.741 32.496C134.741 33.3493 134.429 34.0187 133.805 34.504C133.186 34.9893 132.33 35.232 131.237 35.232ZM139.815 35.232C138.764 35.232 137.908 35 137.247 34.536C136.585 34.072 136.18 33.4187 136.031 32.576L137.743 32.312C137.849 32.76 138.095 33.1147 138.479 33.376C138.868 33.632 139.351 33.76 139.927 33.76C140.449 33.76 140.857 33.6533 141.151 33.44C141.449 33.2267 141.599 32.9333 141.599 32.56C141.599 32.3413 141.545 32.1653 141.439 32.032C141.337 31.8933 141.121 31.7627 140.791 31.64C140.46 31.5173 139.956 31.3653 139.279 31.184C138.537 30.992 137.948 30.7867 137.511 30.568C137.079 30.344 136.769 30.0853 136.583 29.792C136.401 29.4933 136.311 29.1333 136.311 28.712C136.311 28.1893 136.449 27.7333 136.727 27.344C137.004 26.9547 137.393 26.6533 137.895 26.44C138.401 26.2267 138.993 26.12 139.671 26.12C140.332 26.12 140.921 26.224 141.439 26.432C141.956 26.64 142.375 26.936 142.695 27.32C143.015 27.6987 143.207 28.144 143.271 28.656L141.559 28.968C141.5 28.552 141.305 28.224 140.975 27.984C140.644 27.744 140.215 27.6133 139.687 27.592C139.18 27.5707 138.769 27.656 138.455 27.848C138.14 28.0347 137.983 28.2933 137.983 28.624C137.983 28.816 138.041 28.9787 138.159 29.112C138.281 29.2453 138.516 29.3733 138.863 29.496C139.209 29.6187 139.721 29.7653 140.399 29.936C141.124 30.1227 141.7 30.3307 142.127 30.56C142.553 30.784 142.857 31.0533 143.039 31.368C143.225 31.6773 143.319 32.0533 143.319 32.496C143.319 33.3493 143.007 34.0187 142.383 34.504C141.764 34.9893 140.908 35.232 139.815 35.232Z" fill="#DCDBDB"/>
<path d="M32.32 91.768C22.384 91.768 17.728 84.328 17.728 74.44C17.728 64.552 22.384 57.064 32.32 57.064C42.256 57.064 46.864 64.552 46.864 74.44C46.864 84.328 42.256 91.768 32.32 91.768ZM32.32 85.048C37.072 85.048 38.368 80.44 38.368 74.44C38.368 68.44 37.072 63.784 32.32 63.784C27.568 63.784 26.224 68.44 26.224 74.44C26.224 80.44 27.568 85.048 32.32 85.048Z" fill="white"/>
<path d="M54.2181 91H49.0181L60.0981 62.4H65.2981L54.2181 91ZM77.7241 91.64C68.6041 91.64 65.6441 84.76 65.6441 77.56C65.6441 67.56 70.4041 62.72 77.4841 62.72C82.8441 62.72 86.8841 65.92 87.7641 70.36H80.8841C80.6841 69.4 79.8841 67.8 77.3641 67.8C73.9241 67.8 72.4441 70.4 72.4441 74V74.44L72.6041 74.56C74.0441 73.2 76.0041 72.16 79.0441 72.16C84.7641 72.16 88.5641 76.24 88.5641 81.52C88.5641 87.64 84.3641 91.64 77.7241 91.64ZM77.3241 86.56C80.2841 86.56 82.0041 84.56 82.0041 81.88C82.0041 79.24 80.2841 77.24 77.3241 77.24C74.3241 77.24 72.6041 79.24 72.6041 81.88C72.6041 84.56 74.3241 86.56 77.3241 86.56Z" fill="#A6B4FF"/>
<path d="M39.31 122.15C38.7933 122.15 38.3267 122.062 37.91 121.885C37.4967 121.705 37.155 121.45 36.885 121.12C36.6183 120.787 36.445 120.392 36.365 119.935L37.455 119.77C37.565 120.21 37.795 120.553 38.145 120.8C38.495 121.043 38.9033 121.165 39.37 121.165C39.66 121.165 39.9267 121.12 40.17 121.03C40.4133 120.937 40.6083 120.805 40.755 120.635C40.905 120.462 40.98 120.255 40.98 120.015C40.98 119.885 40.9567 119.77 40.91 119.67C40.8667 119.57 40.805 119.483 40.725 119.41C40.6483 119.333 40.5533 119.268 40.44 119.215C40.33 119.158 40.2083 119.11 40.075 119.07L38.23 118.525C38.05 118.472 37.8667 118.403 37.68 118.32C37.4933 118.233 37.3217 118.122 37.165 117.985C37.0117 117.845 36.8867 117.673 36.79 117.47C36.6933 117.263 36.645 117.013 36.645 116.72C36.645 116.277 36.7583 115.902 36.985 115.595C37.215 115.285 37.525 115.052 37.915 114.895C38.305 114.735 38.7417 114.655 39.225 114.655C39.7117 114.662 40.1467 114.748 40.53 114.915C40.9167 115.082 41.2367 115.322 41.49 115.635C41.7467 115.945 41.9233 116.322 42.02 116.765L40.9 116.955C40.85 116.685 40.7433 116.453 40.58 116.26C40.4167 116.063 40.2167 115.913 39.98 115.81C39.7433 115.703 39.4867 115.648 39.21 115.645C38.9433 115.638 38.6983 115.678 38.475 115.765C38.255 115.852 38.0783 115.973 37.945 116.13C37.815 116.287 37.75 116.467 37.75 116.67C37.75 116.87 37.8083 117.032 37.925 117.155C38.0417 117.278 38.185 117.377 38.355 117.45C38.5283 117.52 38.7 117.578 38.87 117.625L40.2 118C40.3667 118.047 40.555 118.11 40.765 118.19C40.9783 118.267 41.1833 118.375 41.38 118.515C41.58 118.655 41.745 118.842 41.875 119.075C42.005 119.305 42.07 119.595 42.07 119.945C42.07 120.308 41.9967 120.628 41.85 120.905C41.7033 121.178 41.5017 121.408 41.245 121.595C40.9917 121.778 40.6983 121.917 40.365 122.01C40.0317 122.103 39.68 122.15 39.31 122.15ZM46.2255 122C45.8855 122.067 45.5522 122.095 45.2255 122.085C44.8989 122.075 44.6072 122.012 44.3505 121.895C44.0939 121.778 43.9005 121.595 43.7705 121.345C43.6539 121.122 43.5905 120.895 43.5805 120.665C43.5739 120.432 43.5705 120.168 43.5705 119.875V115.1H44.6205V119.825C44.6205 120.042 44.6222 120.23 44.6255 120.39C44.6322 120.55 44.6672 120.685 44.7305 120.795C44.8505 121.002 45.0405 121.12 45.3005 121.15C45.5639 121.177 45.8722 121.165 46.2255 121.115V122ZM42.5355 117.44V116.6H46.2255V117.44H42.5355ZM47.4641 115.715V114.7H48.5091V115.715H47.4641ZM47.4641 122V116.6H48.5091V122H47.4641ZM50.1105 122V114.65H51.1555V122H50.1105ZM52.757 122V114.65H53.802V122H52.757ZM58.8305 122.15C58.4305 122.15 58.0955 122.077 57.8255 121.93C57.5555 121.78 57.3505 121.583 57.2105 121.34C57.0738 121.093 57.0055 120.823 57.0055 120.53C57.0055 120.257 57.0538 120.017 57.1505 119.81C57.2471 119.603 57.3905 119.428 57.5805 119.285C57.7705 119.138 58.0038 119.02 58.2805 118.93C58.5205 118.86 58.7921 118.798 59.0955 118.745C59.3988 118.692 59.7171 118.642 60.0505 118.595C60.3871 118.548 60.7205 118.502 61.0505 118.455L60.6705 118.665C60.6771 118.242 60.5871 117.928 60.4005 117.725C60.2171 117.518 59.9005 117.415 59.4505 117.415C59.1671 117.415 58.9071 117.482 58.6705 117.615C58.4338 117.745 58.2688 117.962 58.1755 118.265L57.2005 117.965C57.3338 117.502 57.5871 117.133 57.9605 116.86C58.3371 116.587 58.8371 116.45 59.4605 116.45C59.9438 116.45 60.3638 116.533 60.7205 116.7C61.0805 116.863 61.3438 117.123 61.5105 117.48C61.5971 117.657 61.6505 117.843 61.6705 118.04C61.6905 118.237 61.7005 118.448 61.7005 118.675V122H60.7755V120.765L60.9555 120.925C60.7321 121.338 60.4471 121.647 60.1005 121.85C59.7571 122.05 59.3338 122.15 58.8305 122.15ZM59.0155 121.295C59.3121 121.295 59.5671 121.243 59.7805 121.14C59.9938 121.033 60.1655 120.898 60.2955 120.735C60.4255 120.572 60.5105 120.402 60.5505 120.225C60.6071 120.065 60.6388 119.885 60.6455 119.685C60.6555 119.485 60.6605 119.325 60.6605 119.205L61.0005 119.33C60.6705 119.38 60.3705 119.425 60.1005 119.465C59.8305 119.505 59.5855 119.545 59.3655 119.585C59.1488 119.622 58.9555 119.667 58.7855 119.72C58.6421 119.77 58.5138 119.83 58.4005 119.9C58.2905 119.97 58.2021 120.055 58.1355 120.155C58.0721 120.255 58.0405 120.377 58.0405 120.52C58.0405 120.66 58.0755 120.79 58.1455 120.91C58.2155 121.027 58.3221 121.12 58.4655 121.19C58.6088 121.26 58.7921 121.295 59.0155 121.295ZM66.0888 122C65.7488 122.067 65.4155 122.095 65.0888 122.085C64.7622 122.075 64.4705 122.012 64.2138 121.895C63.9572 121.778 63.7638 121.595 63.6338 121.345C63.5172 121.122 63.4538 120.895 63.4438 120.665C63.4372 120.432 63.4338 120.168 63.4338 119.875V115.1H64.4838V119.825C64.4838 120.042 64.4855 120.23 64.4888 120.39C64.4955 120.55 64.5305 120.685 64.5938 120.795C64.7138 121.002 64.9038 121.12 65.1638 121.15C65.4272 121.177 65.7355 121.165 66.0888 121.115V122ZM62.3988 117.44V116.6H66.0888V117.44H62.3988ZM68.7293 122V121.835L71.7943 117.535H69.0093V116.6H73.4543V116.77L70.3943 121.065H73.3043V122H68.7293ZM76.5462 122.15C76.0095 122.15 75.5378 122.033 75.1312 121.8C74.7278 121.563 74.4128 121.235 74.1862 120.815C73.9628 120.392 73.8512 119.902 73.8512 119.345C73.8512 118.755 73.9612 118.243 74.1812 117.81C74.4045 117.377 74.7145 117.042 75.1112 116.805C75.5078 116.568 75.9695 116.45 76.4962 116.45C77.0462 116.45 77.5145 116.578 77.9012 116.835C78.2878 117.088 78.5762 117.45 78.7662 117.92C78.9595 118.39 79.0362 118.948 78.9962 119.595H77.9512V119.215C77.9445 118.588 77.8245 118.125 77.5912 117.825C77.3612 117.525 77.0095 117.375 76.5362 117.375C76.0128 117.375 75.6195 117.54 75.3562 117.87C75.0928 118.2 74.9612 118.677 74.9612 119.3C74.9612 119.893 75.0928 120.353 75.3562 120.68C75.6195 121.003 75.9995 121.165 76.4962 121.165C76.8228 121.165 77.1045 121.092 77.3412 120.945C77.5812 120.795 77.7678 120.582 77.9012 120.305L78.9262 120.63C78.7162 121.113 78.3978 121.488 77.9712 121.755C77.5445 122.018 77.0695 122.15 76.5462 122.15ZM74.6212 119.595V118.78H78.4762V119.595H74.6212ZM80.118 122V116.6H81.048V117.91L80.918 117.74C80.9846 117.567 81.0713 117.408 81.178 117.265C81.2846 117.118 81.408 116.998 81.548 116.905C81.6846 116.805 81.8363 116.728 82.003 116.675C82.173 116.618 82.3463 116.585 82.523 116.575C82.6996 116.562 82.8696 116.57 83.033 116.6V117.58C82.8563 117.533 82.6596 117.52 82.443 117.54C82.2296 117.56 82.033 117.628 81.853 117.745C81.683 117.855 81.548 117.988 81.448 118.145C81.3513 118.302 81.2813 118.477 81.238 118.67C81.1946 118.86 81.173 119.062 81.173 119.275V122H80.118ZM86.2325 122.15C85.6925 122.15 85.2242 122.028 84.8275 121.785C84.4308 121.542 84.1242 121.207 83.9075 120.78C83.6942 120.35 83.5875 119.855 83.5875 119.295C83.5875 118.732 83.6975 118.237 83.9175 117.81C84.1375 117.38 84.4458 117.047 84.8425 116.81C85.2392 116.57 85.7025 116.45 86.2325 116.45C86.7725 116.45 87.2408 116.572 87.6375 116.815C88.0342 117.058 88.3408 117.393 88.5575 117.82C88.7742 118.247 88.8825 118.738 88.8825 119.295C88.8825 119.858 88.7725 120.355 88.5525 120.785C88.3358 121.212 88.0292 121.547 87.6325 121.79C87.2358 122.03 86.7692 122.15 86.2325 122.15ZM86.2325 121.165C86.7492 121.165 87.1342 120.992 87.3875 120.645C87.6442 120.295 87.7725 119.845 87.7725 119.295C87.7725 118.732 87.6425 118.282 87.3825 117.945C87.1258 117.605 86.7425 117.435 86.2325 117.435C85.8825 117.435 85.5942 117.515 85.3675 117.675C85.1408 117.832 84.9725 118.05 84.8625 118.33C84.7525 118.607 84.6975 118.928 84.6975 119.295C84.6975 119.862 84.8275 120.315 85.0875 120.655C85.3475 120.995 85.7292 121.165 86.2325 121.165ZM90.0813 122V120.895H91.1863V122H90.0813ZM92.1463 122V120.895H93.2513V122H92.1463ZM94.2163 122V120.895H95.3213V122H94.2163ZM99.3141 122V116.41C99.3141 116.273 99.3191 116.128 99.3291 115.975C99.3391 115.818 99.3675 115.665 99.4141 115.515C99.4641 115.362 99.5458 115.222 99.6591 115.095C99.7958 114.945 99.9458 114.838 100.109 114.775C100.272 114.712 100.434 114.675 100.594 114.665C100.757 114.655 100.907 114.65 101.044 114.65H101.724V115.51H101.094C100.847 115.51 100.662 115.572 100.539 115.695C100.419 115.815 100.359 115.987 100.359 116.21V122H99.3141ZM98.4191 117.44V116.6H101.724V117.44H98.4191ZM104.67 122.15C104.13 122.15 103.662 122.028 103.265 121.785C102.868 121.542 102.562 121.207 102.345 120.78C102.132 120.35 102.025 119.855 102.025 119.295C102.025 118.732 102.135 118.237 102.355 117.81C102.575 117.38 102.883 117.047 103.28 116.81C103.677 116.57 104.14 116.45 104.67 116.45C105.21 116.45 105.678 116.572 106.075 116.815C106.472 117.058 106.778 117.393 106.995 117.82C107.212 118.247 107.32 118.738 107.32 119.295C107.32 119.858 107.21 120.355 106.99 120.785C106.773 121.212 106.467 121.547 106.07 121.79C105.673 122.03 105.207 122.15 104.67 122.15ZM104.67 121.165C105.187 121.165 105.572 120.992 105.825 120.645C106.082 120.295 106.21 119.845 106.21 119.295C106.21 118.732 106.08 118.282 105.82 117.945C105.563 117.605 105.18 117.435 104.67 117.435C104.32 117.435 104.032 117.515 103.805 117.675C103.578 117.832 103.41 118.05 103.3 118.33C103.19 118.607 103.135 118.928 103.135 119.295C103.135 119.862 103.265 120.315 103.525 120.655C103.785 120.995 104.167 121.165 104.67 121.165ZM108.419 122V116.6H109.349V117.91L109.219 117.74C109.285 117.567 109.372 117.408 109.479 117.265C109.585 117.118 109.709 116.998 109.849 116.905C109.985 116.805 110.137 116.728 110.304 116.675C110.474 116.618 110.647 116.585 110.824 116.575C111 116.562 111.17 116.57 111.334 116.6V117.58C111.157 117.533 110.96 117.52 110.744 117.54C110.53 117.56 110.334 117.628 110.154 117.745C109.984 117.855 109.849 117.988 109.749 118.145C109.652 118.302 109.582 118.477 109.539 118.67C109.495 118.86 109.474 119.062 109.474 119.275V122H108.419ZM118.078 122V119.345C118.078 119.135 118.06 118.92 118.023 118.7C117.99 118.477 117.923 118.27 117.823 118.08C117.726 117.89 117.588 117.737 117.408 117.62C117.231 117.503 117 117.445 116.713 117.445C116.526 117.445 116.35 117.477 116.183 117.54C116.016 117.6 115.87 117.698 115.743 117.835C115.62 117.972 115.521 118.152 115.448 118.375C115.378 118.598 115.343 118.87 115.343 119.19L114.693 118.945C114.693 118.455 114.785 118.023 114.968 117.65C115.151 117.273 115.415 116.98 115.758 116.77C116.101 116.56 116.516 116.455 117.003 116.455C117.376 116.455 117.69 116.515 117.943 116.635C118.196 116.755 118.401 116.913 118.558 117.11C118.718 117.303 118.84 117.515 118.923 117.745C119.006 117.975 119.063 118.2 119.093 118.42C119.123 118.64 119.138 118.833 119.138 119V122H118.078ZM114.283 122V116.6H115.218V118.16H115.343V122H114.283ZM122.717 122.15C122.177 122.15 121.709 122.028 121.312 121.785C120.915 121.542 120.609 121.207 120.392 120.78C120.179 120.35 120.072 119.855 120.072 119.295C120.072 118.732 120.182 118.237 120.402 117.81C120.622 117.38 120.93 117.047 121.327 116.81C121.724 116.57 122.187 116.45 122.717 116.45C123.257 116.45 123.725 116.572 124.122 116.815C124.519 117.058 124.825 117.393 125.042 117.82C125.259 118.247 125.367 118.738 125.367 119.295C125.367 119.858 125.257 120.355 125.037 120.785C124.82 121.212 124.514 121.547 124.117 121.79C123.72 122.03 123.254 122.15 122.717 122.15ZM122.717 121.165C123.234 121.165 123.619 120.992 123.872 120.645C124.129 120.295 124.257 119.845 124.257 119.295C124.257 118.732 124.127 118.282 123.867 117.945C123.61 117.605 123.227 117.435 122.717 117.435C122.367 117.435 122.079 117.515 121.852 117.675C121.625 117.832 121.457 118.05 121.347 118.33C121.237 118.607 121.182 118.928 121.182 119.295C121.182 119.862 121.312 120.315 121.572 120.655C121.832 120.995 122.214 121.165 122.717 121.165ZM127.42 122L125.77 116.595L126.805 116.6L127.935 120.305L129.075 116.6H129.975L131.115 120.305L132.245 116.6H133.275L131.625 122H130.785L129.525 118.09L128.26 122H127.42ZM133.55 122V120.895H134.655V122H133.55Z" fill="#34D399"/>
<g clip-path="url(#clip0_2415_72920)">
<path d="M27.6314 114.184H28.2556C28.569 114.184 28.9405 114.594 28.9803 114.92C29.1678 116.453 27.9575 118.132 26.5815 118.481C26.2583 119.059 25.8543 119.535 25.2846 119.838C25.2235 119.87 25.0845 119.895 25.0722 119.961C25.0635 120.008 25.0689 120.435 25.082 120.456C25.796 120.702 26.3354 121.357 26.4244 122.164C26.7094 122.206 27.147 122.038 27.3123 122.364C27.4739 122.682 27.2512 123.011 26.9256 123H22.0326C21.7419 122.983 21.5544 122.704 21.6652 122.407C21.8042 122.033 22.2845 122.204 22.574 122.163C22.6807 121.359 23.2048 120.716 23.9172 120.455C23.925 120.367 23.9488 119.956 23.9066 119.918C23.8705 119.886 23.6211 119.791 23.5395 119.741C23.0949 119.468 22.7512 119.034 22.4735 118.58C21.2714 118.473 20.2194 117.446 20.0439 116.162C20.0025 115.862 19.9828 115.217 20.0189 114.921C20.0587 114.594 20.4302 114.185 20.7436 114.185H21.3678C21.3731 114.168 21.3473 114.158 21.3473 114.152V113.538C21.3477 113.315 21.6713 112.986 21.8903 113H27.1093C27.6765 113.083 27.7069 113.691 27.6314 114.184ZM23.7085 116.94C23.9431 117.192 24.2716 116.846 24.507 116.754C24.7297 116.858 25.0439 117.173 25.2764 116.957C25.4843 116.764 25.2776 116.375 25.3022 116.13C25.4388 115.934 25.7682 115.78 25.7267 115.491C25.6759 115.134 25.221 115.233 24.9922 115.137C24.847 114.932 24.8047 114.506 24.5066 114.5C24.2084 114.493 24.1543 114.926 24.0074 115.137C23.7901 115.23 23.3812 115.138 23.2877 115.44C23.1872 115.764 23.5596 115.91 23.6978 116.129C23.7228 116.37 23.5247 116.742 23.7089 116.94H23.7085ZM21.4297 115.017H20.826L20.7953 115.05V115.972C20.7953 116.025 20.849 116.224 20.867 116.29C21.0254 116.871 21.4646 117.407 22.0027 117.605C21.7086 116.776 21.5019 115.905 21.4297 115.018V115.017ZM28.2048 115.423C28.215 115.304 28.1974 115.171 28.2048 115.05L28.174 115.017H27.5703C27.5096 115.803 27.3304 116.574 27.0999 117.319C27.5961 116.971 27.9833 116.402 28.1334 115.784C28.1576 115.685 28.1962 115.52 28.2048 115.422V115.423Z" fill="#34D399"/>
</g>
<path d="M231.016 63.6212C231.381 48.8384 240.217 37.5422 252.673 31.7512C253.317 31.4517 253.982 31.1216 254.672 30.9792L247.507 14.4266C247.326 14.2129 246.557 14.1994 246.214 14.0965C238.849 11.8814 239.827 0.639428 247.122 0.0291286C253.222 -0.481715 256.753 5.82246 253.943 11.4067C253.783 11.7254 253.402 11.9401 253.513 12.3719L260.352 28.9449C261.649 28.6228 262.948 28.2645 264.273 28.0622C275.346 26.3715 287.194 27.4632 297.56 32.4293C300.114 33.6521 302.543 35.1553 304.911 36.7296C307.76 33.5538 310.545 30.3249 313.381 27.14C313.693 26.7896 315.223 25.3306 315.313 25.1057C315.386 24.9203 314.944 23.876 314.875 23.5336C313.465 16.5468 321.351 12.3142 326.282 16.6937C332.115 21.8745 327.837 31.6664 320.289 29.1144L309.799 40.6389C314.633 44.9811 318.791 50.345 321.449 56.4672C327.582 70.5979 325.109 88.9329 312.68 98.2478C316.715 107.694 319.12 118.145 320.756 128.363C321.143 130.777 321.573 133.317 321.776 135.747C321.895 137.162 321.683 137.918 320.345 138.399C318.412 139.093 315.054 139.394 312.953 139.634C307.756 140.226 302.055 140.625 296.845 140.651C296.122 140.655 295.281 140.554 294.598 140.764C279.663 140.995 264.593 141.403 249.695 139.973C246.783 139.694 242.734 139.349 239.985 138.473C237.868 137.799 238.123 136.288 238.184 134.266C238.264 131.597 238.537 128.574 238.831 125.914C239.315 121.529 240.119 117.107 241.489 112.94C238.947 110.918 237.009 108.279 236.507 104.872C235.654 99.083 237.943 93.6943 241.187 89.203C241.187 88.969 239.207 87.0432 238.884 86.6657C233.972 80.9413 231.209 73.9907 231.016 66.2184C230.995 65.3606 230.995 64.479 231.016 63.6201V63.6212ZM297.487 88.1304C293.62 90.5671 289.041 91.6001 284.536 91.4068C287.04 94.0876 290.33 95.923 293.903 96.374C294.186 96.4102 295.305 96.3322 295.454 96.4893C295.668 96.7153 294.908 96.886 294.834 96.9086C290.629 98.1371 286.16 96.3005 283.362 92.9281C282.212 91.5424 281.534 89.8472 280.511 88.3689C274.777 80.0892 266.433 83.3723 266.876 93.4943C267.191 100.696 272.917 108.438 278.229 112.573C283.223 116.461 289.206 119.173 295.56 118.287L295.407 118.632C291.507 119.933 287.717 119.218 283.973 117.806C277.425 115.336 271.363 110.553 268.058 104.011C267.843 103.715 267.666 104.458 267.533 104.694C263.611 111.705 254.611 116.933 246.838 115.539C245.595 115.316 244.512 114.872 243.33 114.448C242.136 117.886 241.472 121.509 240.986 125.134C240.629 127.793 240.316 130.567 240.223 133.251C240.197 133.98 240.11 136.231 240.305 136.776C240.456 137.2 240.933 137.674 241.339 137.83C242.287 138.195 244.543 138.471 245.628 138.612C252.779 139.547 260.37 139.701 267.574 139.852C281.736 140.148 296.735 140.311 310.813 138.84C312.986 138.612 316.551 138.312 318.551 137.631C319.826 137.197 319.925 136.349 319.856 135.058C319.641 130.976 318.39 125.414 317.56 121.33C315.921 113.26 313.806 105.133 310.458 97.6703C323.163 88.5045 325.739 70.174 319.307 56.0117C317.316 51.6288 314.579 47.7399 311.405 44.2453L307.443 40.5225L319.641 27.079C321.733 28.0159 324.239 28.0894 325.848 26.176C328.005 23.6116 327.19 19.3293 324.385 17.6736C320.326 15.2776 315.527 18.867 316.807 23.7494C316.935 24.2343 317.413 25.0345 317.234 25.4425L305.23 38.8679C303.52 37.7377 301.852 36.5364 300.057 35.5508C290.263 30.1712 277.669 28.1368 266.726 29.5247C264.267 29.8366 261.801 30.3249 259.43 31.0663C256.391 24.8039 253.782 18.3008 251.476 11.6915C251.449 11.409 252.044 10.8235 252.229 10.5003C253.634 8.05909 253.313 5.01776 251.189 3.19704C248.673 1.04064 244.394 1.95609 243.324 5.2811C242.08 9.14407 244.682 12.6036 248.446 12.5866C251.118 18.9518 253.842 25.2978 256.763 31.5398L256.81 31.8766C245.741 35.9871 235.917 45.4716 233.509 57.9477C232.566 62.8335 232.691 68.9308 234.011 73.7285C235.645 79.6687 238.994 84.7693 243.201 88.9905C242.622 90.0472 241.822 90.9785 241.182 92.0216C237.631 97.8059 236.34 106.256 242.203 110.94C250.087 117.238 261.596 111.088 266.061 103.14C266.262 102.783 266.787 101.941 266.717 101.568C266.612 101.008 266.01 99.9273 265.799 99.2571C264.239 94.3148 264.26 87.823 268.049 84.0052C265.08 82.3021 261.981 83.8029 259.913 86.2611C258.79 87.597 258.012 89.342 256.87 90.6168C254.641 93.1055 251.013 94.7951 247.772 94.9093C247.53 94.9183 246.38 94.9613 246.858 94.5103C247.022 94.3555 249.299 93.6875 249.819 93.4558C253.058 92.007 255.356 89.3974 257.56 86.6024C256.131 86.0531 254.76 85.4089 253.421 84.6461L252.636 84.0618C254.216 85.0473 255.921 85.9209 257.707 86.408C258.25 85.8486 258.808 85.323 259.383 84.7998C262.195 82.2422 264.561 80.8995 268.398 82.3936C268.676 82.5021 269.433 83.0016 269.6 83.0028C269.721 83.0028 270.523 82.4964 270.803 82.3947C275.116 80.843 279.212 84.4279 281.749 87.6512C282.469 88.5667 283.434 90.3761 284.152 91.0689C284.267 91.1797 284.303 91.252 284.481 91.287C285 91.3899 286.456 91.3266 287.046 91.2893C290.547 91.0666 294.395 89.8404 297.483 88.1282L297.487 88.1304Z" fill="#0A1677"/>
<path d="M252.639 84.0617L253.423 84.646C254.762 85.4089 256.134 86.0531 257.562 86.6023C255.358 89.3973 253.061 92.0057 249.821 93.4558C249.301 93.6886 247.023 94.3565 246.861 94.5102C246.383 94.9612 247.532 94.9171 247.774 94.9092C251.016 94.795 254.643 93.1054 256.872 90.6167C258.014 89.3408 258.792 87.5969 259.916 86.261C261.984 83.8029 265.082 82.302 268.051 84.0052C264.264 87.8229 264.241 94.3147 265.801 99.257C266.012 99.9272 266.614 101.008 266.719 101.568C266.789 101.942 266.265 102.783 266.064 103.14C261.597 111.088 250.089 117.238 242.204 110.94C236.341 106.256 237.632 97.8058 241.183 92.0216C241.824 90.9784 242.623 90.0471 243.203 88.9904C238.995 84.7692 235.646 79.6686 234.012 73.7284C232.692 68.9308 232.568 62.8334 233.511 57.9476C235.917 45.4715 245.741 35.9859 256.811 31.8765L256.765 31.5397C253.843 25.2966 251.121 18.9517 248.447 12.5865C244.683 12.6035 242.081 9.144 243.325 5.28103C244.395 1.95602 248.676 1.04058 251.19 3.19697C253.315 5.01769 253.636 8.05902 252.231 10.5002C252.045 10.8223 251.449 11.4089 251.477 11.6914C253.783 18.3008 256.392 24.8038 259.432 31.0662C261.803 30.3248 264.268 29.8365 266.727 29.5246C277.67 28.1368 290.264 30.1711 300.058 35.5508C301.852 36.5363 303.521 37.7365 305.232 38.8679L317.235 25.4424C317.414 25.0344 316.936 24.2342 316.808 23.7494C315.528 18.867 320.326 15.2775 324.387 17.6735C327.192 19.3292 328.006 23.6115 325.849 26.1759C324.24 28.0893 321.734 28.0158 319.642 27.0789L307.444 40.5224L311.406 44.2453C314.58 47.7409 317.317 51.6288 319.308 56.0116C325.74 70.174 323.164 88.5044 310.459 97.6702C313.806 105.133 315.921 113.26 317.562 121.33C318.392 125.413 319.642 130.976 319.858 135.058C319.926 136.349 319.828 137.198 318.553 137.631C316.552 138.312 312.988 138.612 310.814 138.839C296.736 140.311 281.738 140.148 267.575 139.852C260.372 139.702 252.78 139.547 245.629 138.612C244.544 138.47 242.288 138.195 241.341 137.83C240.935 137.674 240.458 137.2 240.307 136.776C240.113 136.231 240.2 133.98 240.224 133.251C240.317 130.567 240.631 127.793 240.987 125.134C241.473 121.509 242.138 117.886 243.331 114.448C244.513 114.872 245.596 115.316 246.839 115.538C254.613 116.933 263.613 111.705 267.536 104.694C267.668 104.458 267.845 103.714 268.061 104.011C271.365 110.552 277.426 115.335 283.976 117.806C287.719 119.217 291.509 119.931 295.409 118.632L295.562 118.287C289.209 119.174 283.226 116.461 278.232 112.573C272.92 108.438 267.193 100.696 266.878 93.4942C266.434 83.3723 274.78 80.0879 280.513 88.3688C281.536 89.846 282.214 91.5424 283.364 92.928C286.164 96.3016 290.631 98.137 294.837 96.9085C294.911 96.887 295.67 96.7164 295.456 96.4892C295.307 96.3321 294.189 96.4089 293.906 96.3739C290.333 95.923 287.042 94.0875 284.538 91.4067C289.044 91.6 293.623 90.5659 297.49 88.1303C300.377 86.5289 303.486 83.127 305.089 80.1117C309.027 72.7067 308.152 62.3994 303.207 55.7246C303.103 55.5833 302.999 55.4533 302.841 55.3765C302.384 54.7097 301.833 53.9468 301.342 53.3433C300.808 52.6855 300.21 52.0921 299.63 51.4796C299.581 51.4276 299.354 51.084 299.309 51.3101C294.978 47.1521 288.702 43.6644 282.932 41.9352C282.221 41.5735 281.355 41.3848 280.578 41.1994C275.026 39.8794 268.943 39.598 263.326 40.6162C263.291 40.623 262.615 40.675 262.916 40.805C258.884 41.5611 254.603 43.2044 251.142 45.3223C251.065 45.3924 250.939 45.502 250.778 45.6264C250.437 45.8863 250.155 46.0377 250.092 46.0728C249.803 46.2333 249.207 46.6627 247.873 47.8178C247.773 47.8686 247.646 47.9398 247.502 48.0336C247.502 48.0336 247.285 48.1749 247.08 48.3456C246.46 48.8609 245.949 49.6137 245.949 49.6137C245.477 50.3076 244.464 51.6977 243.114 53.5682C242.845 53.8518 242.683 54.2259 242.522 54.5819C241.939 55.8771 241.303 57.5973 241.08 58.9897C241.074 59.0258 241.086 59.0654 241.08 59.1027C240.52 60.8703 240.447 63.0606 240.54 64.9243C240.698 68.0447 241.831 72.119 243.541 74.6891C244.402 75.982 245.368 77.3811 246.324 78.6424C246.581 78.9815 246.825 79.1555 247.073 79.4336C247.26 79.6438 247.514 79.9015 247.714 80.1117C247.931 80.3377 248.136 80.5649 248.356 80.7898C248.521 80.9571 248.875 81.2464 249.105 81.4679C249.222 81.5798 249.263 81.8329 249.534 81.807C249.571 81.8431 249.604 81.8827 249.641 81.92C250.288 82.571 250.892 82.9564 251.625 83.4966C251.697 83.5497 251.951 83.8322 251.996 83.6141C252.212 83.7588 252.418 83.9283 252.638 84.0662L252.639 84.0617Z" fill="url(#paint1_linear_2415_72920)"/>
<path d="M282.929 41.9333C276.885 40.1228 269.102 39.6436 262.913 40.8043C262.612 40.6754 263.288 40.6223 263.323 40.6155C268.94 39.5961 275.023 39.8787 280.575 41.1987C281.352 41.3829 282.218 41.5728 282.929 41.9345V41.9333Z" fill="#303A8D"/>
<path d="M251.996 83.6121C251.952 83.8302 251.697 83.5466 251.625 83.4946C250.892 82.9543 250.287 82.569 249.641 81.918C250.443 82.4593 251.19 83.0708 251.996 83.6121Z" fill="#303A8D"/>
<path d="M249.534 81.8039C249.264 81.831 249.222 81.5779 249.105 81.4648C249.268 81.5519 249.4 81.6751 249.534 81.8039Z" fill="#303A8D"/>
<path d="M247.073 79.4318C246.826 79.1537 246.58 78.9797 246.324 78.6406L247.073 79.4318Z" fill="#303A8D"/>
<path d="M248.357 80.7875C248.135 80.5626 247.93 80.3354 247.715 80.1094L248.357 80.7875Z" fill="#303A8D"/>
<path d="M251.14 45.3224C256.564 41.9737 263.034 40.6559 263.034 40.6559C270.959 39.042 278.148 40.5869 281.516 41.5182C281.671 41.5611 282.205 41.7081 282.93 41.9341C292.443 44.8941 297.895 49.7482 299.312 51.0615C299.781 51.4966 300.521 52.2052 301.389 53.1467C302.359 54.2949 303.604 55.962 304.75 58.1647C305.591 59.7797 307 62.5464 307.517 66.5066C307.989 70.1277 307.49 73.0131 307.196 74.3568C306.591 77.1348 305.601 79.1522 305.086 80.1095C304.573 81.0611 302.408 85.3999 297.486 88.1281C294.397 89.8404 290.549 91.0666 287.049 91.2893C286.459 91.3266 285.003 91.3899 284.484 91.287C284.306 91.252 284.27 91.1796 284.155 91.0689C283.437 90.3761 282.472 88.5667 281.752 87.6512C279.215 84.4279 275.119 80.8418 270.806 82.3947C270.526 82.4964 269.724 83.0028 269.603 83.0028C269.436 83.0028 268.679 82.5021 268.401 82.3936C264.564 80.8983 262.198 82.2421 259.385 84.7998C258.81 85.323 258.251 85.8474 257.709 86.408C255.923 85.9209 254.218 85.0473 252.638 84.0617C252.418 83.9239 252.212 83.7555 251.997 83.6097C251.191 83.0683 250.445 82.4569 249.642 81.9155C249.605 81.8794 249.572 81.8387 249.534 81.8025C249.4 81.6737 249.269 81.5516 249.106 81.4634C248.747 81.1481 248.38 80.8102 248.01 80.4474C247.384 79.8337 246.823 79.2268 246.323 78.6402C245.879 78.0763 245.428 77.4795 244.974 76.8478C244.434 76.0939 243.938 75.3559 243.482 74.6405C242.571 72.9181 241.344 70.6232 240.809 67.4326C240.639 66.4245 240.235 63.5608 240.809 60.1538C241.013 58.5738 241.337 57.4967 241.463 57.0944C241.548 56.8265 241.936 55.6218 242.738 54.1175C243.927 51.8922 245.17 50.3562 245.294 50.1708C245.418 49.9855 246.367 49.0415 246.98 48.3962C247.187 48.1786 247.888 47.547 248.054 47.4283C248.966 46.7796 248.652 47.0731 249.437 46.465C249.437 46.465 250.025 46.0095 251.14 45.3213V45.3224ZM262.288 63.1838C262.319 63.133 263.046 62.8685 263.293 62.6074C263.998 61.8593 263.946 60.294 262.762 60.3516C262.352 60.3719 261.01 61.3202 260.491 61.5711C258.504 62.5306 255.839 63.1827 253.651 63.0606C252.722 63.0087 250.305 62.126 250.384 63.9015C250.446 65.2848 253.051 65.6058 254.03 65.5403C253.914 67.04 255.043 68.7918 256.311 69.401C259.247 70.8115 262.33 68.5375 262.484 65.2566C262.503 64.8373 262.22 63.298 262.286 63.185L262.288 63.1838ZM294.453 67.5C293.685 66.6072 292.059 66.8151 291.025 66.6558C288.54 66.2726 286.026 65.3063 283.902 63.8936C283.011 63.3014 282.234 62.5283 281.302 61.9971C280.321 61.8773 280.057 62.855 280.328 63.7082C280.479 64.0292 281.708 65.0385 281.738 65.1662C281.783 65.3538 281.419 66.7247 281.423 67.1779C281.425 67.4571 281.528 68.0787 281.587 68.3703C282.489 72.7972 288.561 73.6663 290.066 69.2597C291.185 69.3965 293.579 69.9853 294.438 69.0416C294.82 68.6212 294.826 67.9329 294.454 67.5011L294.453 67.5ZM270.493 72.8017C268.966 72.8526 267.127 73.5103 265.969 74.5784C265.449 75.0576 264.484 76.251 265.443 76.8206C266.39 77.3835 267.014 76.1832 267.696 75.7221C270.139 74.072 273.185 74.4981 275.384 76.3844C276.052 76.9585 276.351 77.857 277.397 77.5993C278.2 77.4016 277.896 76.4059 277.582 75.8713C276.336 73.7465 272.723 72.7271 270.494 72.8006L270.493 72.8017Z" fill="url(#paint2_linear_2415_72920)"/>
<path d="M294.452 67.4982C294.824 67.93 294.82 68.6182 294.436 69.0387C293.577 69.9824 291.184 69.3935 290.065 69.2568C288.561 73.6634 282.489 72.7943 281.586 68.3673C281.527 68.0757 281.424 67.4541 281.422 67.175C281.418 66.7218 281.782 65.3509 281.737 65.1633C281.707 65.0355 280.478 64.0263 280.327 63.7053C280.056 62.852 280.319 61.8756 281.301 61.9942C282.234 62.5254 283.011 63.2973 283.901 63.8907C286.025 65.3034 288.537 66.2697 291.024 66.6528C292.057 66.8122 293.683 66.6042 294.451 67.4971L294.452 67.4982Z" fill="#303A8D"/>
<path d="M262.287 63.1826C262.22 63.2956 262.504 64.836 262.484 65.2542C262.331 68.5351 259.248 70.8102 256.312 69.3986C255.043 68.7883 253.914 67.0365 254.031 65.5379C253.051 65.6034 250.446 65.2825 250.385 63.8991C250.305 62.1236 252.723 63.0063 253.651 63.0583C255.839 63.1803 258.505 62.5293 260.491 61.5687C261.011 61.3178 262.353 60.3695 262.763 60.3492C263.947 60.2916 263.997 61.8569 263.293 62.6051C263.047 62.8673 262.319 63.1306 262.288 63.1814L262.287 63.1826Z" fill="#303A8D"/>
<path d="M270.493 72.8007C272.724 72.7261 276.336 73.7467 277.582 75.8714C277.896 76.4071 278.2 77.4017 277.396 77.5995C276.351 77.8571 276.052 76.9575 275.383 76.3845C273.186 74.4982 270.14 74.0721 267.696 75.7222C267.013 76.1833 266.39 77.3836 265.443 76.8208C264.484 76.2511 265.45 75.0577 265.969 74.5785C267.127 73.5104 268.965 72.8527 270.492 72.8018L270.493 72.8007Z" fill="#303A8D"/>
<path d="M259.5 125.995L259.505 125.065L262.64 122.255C262.893 122.032 263.065 121.818 263.155 121.615C263.248 121.412 263.295 121.208 263.295 121.005C263.295 120.748 263.238 120.518 263.125 120.315C263.012 120.108 262.855 119.945 262.655 119.825C262.455 119.705 262.225 119.645 261.965 119.645C261.698 119.645 261.46 119.708 261.25 119.835C261.043 119.958 260.882 120.123 260.765 120.33C260.648 120.537 260.592 120.76 260.595 121H259.525C259.525 120.533 259.63 120.125 259.84 119.775C260.053 119.422 260.345 119.147 260.715 118.95C261.085 118.75 261.508 118.65 261.985 118.65C262.438 118.65 262.845 118.753 263.205 118.96C263.565 119.163 263.848 119.443 264.055 119.8C264.265 120.157 264.37 120.563 264.37 121.02C264.37 121.35 264.327 121.63 264.24 121.86C264.153 122.09 264.023 122.303 263.85 122.5C263.677 122.697 263.46 122.91 263.2 123.14L260.78 125.3L260.665 125H264.37V125.995H259.5ZM269.716 126.15C269.213 126.15 268.778 126.025 268.411 125.775C268.048 125.525 267.766 125.185 267.566 124.755C267.369 124.322 267.271 123.835 267.271 123.295C267.271 122.752 267.371 122.267 267.571 121.84C267.771 121.41 268.054 121.072 268.421 120.825C268.791 120.575 269.229 120.45 269.736 120.45C270.246 120.45 270.674 120.575 271.021 120.825C271.371 121.072 271.634 121.41 271.811 121.84C271.991 122.27 272.081 122.755 272.081 123.295C272.081 123.835 271.991 124.32 271.811 124.75C271.631 125.18 271.366 125.522 271.016 125.775C270.666 126.025 270.233 126.15 269.716 126.15ZM269.861 125.205C270.204 125.205 270.484 125.123 270.701 124.96C270.918 124.797 271.076 124.572 271.176 124.285C271.276 123.998 271.326 123.668 271.326 123.295C271.326 122.922 271.274 122.592 271.171 122.305C271.071 122.018 270.914 121.795 270.701 121.635C270.491 121.475 270.223 121.395 269.896 121.395C269.549 121.395 269.264 121.48 269.041 121.65C268.818 121.82 268.651 122.048 268.541 122.335C268.434 122.622 268.381 122.942 268.381 123.295C268.381 123.652 268.434 123.975 268.541 124.265C268.651 124.552 268.814 124.78 269.031 124.95C269.251 125.12 269.528 125.205 269.861 125.205ZM271.326 126V122.115H271.206V118.8H272.256V126H271.326ZM275.18 126.15C274.78 126.15 274.445 126.077 274.175 125.93C273.905 125.78 273.7 125.583 273.56 125.34C273.423 125.093 273.355 124.823 273.355 124.53C273.355 124.257 273.403 124.017 273.5 123.81C273.597 123.603 273.74 123.428 273.93 123.285C274.12 123.138 274.353 123.02 274.63 122.93C274.87 122.86 275.142 122.798 275.445 122.745C275.748 122.692 276.067 122.642 276.4 122.595C276.737 122.548 277.07 122.502 277.4 122.455L277.02 122.665C277.027 122.242 276.937 121.928 276.75 121.725C276.567 121.518 276.25 121.415 275.8 121.415C275.517 121.415 275.257 121.482 275.02 121.615C274.783 121.745 274.618 121.962 274.525 122.265L273.55 121.965C273.683 121.502 273.937 121.133 274.31 120.86C274.687 120.587 275.187 120.45 275.81 120.45C276.293 120.45 276.713 120.533 277.07 120.7C277.43 120.863 277.693 121.123 277.86 121.48C277.947 121.657 278 121.843 278.02 122.04C278.04 122.237 278.05 122.448 278.05 122.675V126H277.125V124.765L277.305 124.925C277.082 125.338 276.797 125.647 276.45 125.85C276.107 126.05 275.683 126.15 275.18 126.15ZM275.365 125.295C275.662 125.295 275.917 125.243 276.13 125.14C276.343 125.033 276.515 124.898 276.645 124.735C276.775 124.572 276.86 124.402 276.9 124.225C276.957 124.065 276.988 123.885 276.995 123.685C277.005 123.485 277.01 123.325 277.01 123.205L277.35 123.33C277.02 123.38 276.72 123.425 276.45 123.465C276.18 123.505 275.935 123.545 275.715 123.585C275.498 123.622 275.305 123.667 275.135 123.72C274.992 123.77 274.863 123.83 274.75 123.9C274.64 123.97 274.552 124.055 274.485 124.155C274.422 124.255 274.39 124.377 274.39 124.52C274.39 124.66 274.425 124.79 274.495 124.91C274.565 125.027 274.672 125.12 274.815 125.19C274.958 125.26 275.142 125.295 275.365 125.295ZM279.776 128.4L280.821 125.555L280.836 126.395L278.481 120.6H279.571L281.331 125.075H281.011L282.691 120.6H283.751L280.771 128.4H279.776ZM288.601 126.145C287.944 126.145 287.409 126 286.996 125.71C286.583 125.42 286.329 125.012 286.236 124.485L287.306 124.32C287.373 124.6 287.526 124.822 287.766 124.985C288.009 125.145 288.311 125.225 288.671 125.225C288.998 125.225 289.253 125.158 289.436 125.025C289.623 124.892 289.716 124.708 289.716 124.475C289.716 124.338 289.683 124.228 289.616 124.145C289.553 124.058 289.418 123.977 289.211 123.9C289.004 123.823 288.689 123.728 288.266 123.615C287.803 123.495 287.434 123.367 287.161 123.23C286.891 123.09 286.698 122.928 286.581 122.745C286.468 122.558 286.411 122.333 286.411 122.07C286.411 121.743 286.498 121.458 286.671 121.215C286.844 120.972 287.088 120.783 287.401 120.65C287.718 120.517 288.088 120.45 288.511 120.45C288.924 120.45 289.293 120.515 289.616 120.645C289.939 120.775 290.201 120.96 290.401 121.2C290.601 121.437 290.721 121.715 290.761 122.035L289.691 122.23C289.654 121.97 289.533 121.765 289.326 121.615C289.119 121.465 288.851 121.383 288.521 121.37C288.204 121.357 287.948 121.41 287.751 121.53C287.554 121.647 287.456 121.808 287.456 122.015C287.456 122.135 287.493 122.237 287.566 122.32C287.643 122.403 287.789 122.483 288.006 122.56C288.223 122.637 288.543 122.728 288.966 122.835C289.419 122.952 289.779 123.082 290.046 123.225C290.313 123.365 290.503 123.533 290.616 123.73C290.733 123.923 290.791 124.158 290.791 124.435C290.791 124.968 290.596 125.387 290.206 125.69C289.819 125.993 289.284 126.145 288.601 126.145ZM294.987 126C294.647 126.067 294.314 126.095 293.987 126.085C293.661 126.075 293.369 126.012 293.112 125.895C292.856 125.778 292.662 125.595 292.532 125.345C292.416 125.122 292.352 124.895 292.342 124.665C292.336 124.432 292.332 124.168 292.332 123.875V119.1H293.382V123.825C293.382 124.042 293.384 124.23 293.387 124.39C293.394 124.55 293.429 124.685 293.492 124.795C293.612 125.002 293.802 125.12 294.062 125.15C294.326 125.177 294.634 125.165 294.987 125.115V126ZM291.297 121.44V120.6H294.987V121.44H291.297ZM296.126 126V120.6H297.056V121.91L296.926 121.74C296.992 121.567 297.079 121.408 297.186 121.265C297.292 121.118 297.416 120.998 297.556 120.905C297.692 120.805 297.844 120.728 298.011 120.675C298.181 120.618 298.354 120.585 298.531 120.575C298.707 120.562 298.877 120.57 299.041 120.6V121.58C298.864 121.533 298.667 121.52 298.451 121.54C298.237 121.56 298.041 121.628 297.861 121.745C297.691 121.855 297.556 121.988 297.456 122.145C297.359 122.302 297.289 122.477 297.246 122.67C297.202 122.86 297.181 123.062 297.181 123.275V126H296.126ZM302.29 126.15C301.754 126.15 301.282 126.033 300.875 125.8C300.472 125.563 300.157 125.235 299.93 124.815C299.707 124.392 299.595 123.902 299.595 123.345C299.595 122.755 299.705 122.243 299.925 121.81C300.149 121.377 300.459 121.042 300.855 120.805C301.252 120.568 301.714 120.45 302.24 120.45C302.79 120.45 303.259 120.578 303.645 120.835C304.032 121.088 304.32 121.45 304.51 121.92C304.704 122.39 304.78 122.948 304.74 123.595H303.695V123.215C303.689 122.588 303.569 122.125 303.335 121.825C303.105 121.525 302.754 121.375 302.28 121.375C301.757 121.375 301.364 121.54 301.1 121.87C300.837 122.2 300.705 122.677 300.705 123.3C300.705 123.893 300.837 124.353 301.1 124.68C301.364 125.003 301.744 125.165 302.24 125.165C302.567 125.165 302.849 125.092 303.085 124.945C303.325 124.795 303.512 124.582 303.645 124.305L304.67 124.63C304.46 125.113 304.142 125.488 303.715 125.755C303.289 126.018 302.814 126.15 302.29 126.15ZM300.365 123.595V122.78H304.22V123.595H300.365ZM307.289 126.15C306.889 126.15 306.554 126.077 306.284 125.93C306.014 125.78 305.809 125.583 305.669 125.34C305.533 125.093 305.464 124.823 305.464 124.53C305.464 124.257 305.513 124.017 305.609 123.81C305.706 123.603 305.849 123.428 306.039 123.285C306.229 123.138 306.463 123.02 306.739 122.93C306.979 122.86 307.251 122.798 307.554 122.745C307.858 122.692 308.176 122.642 308.509 122.595C308.846 122.548 309.179 122.502 309.509 122.455L309.129 122.665C309.136 122.242 309.046 121.928 308.859 121.725C308.676 121.518 308.359 121.415 307.909 121.415C307.626 121.415 307.366 121.482 307.129 121.615C306.893 121.745 306.728 121.962 306.634 122.265L305.659 121.965C305.793 121.502 306.046 121.133 306.419 120.86C306.796 120.587 307.296 120.45 307.919 120.45C308.403 120.45 308.823 120.533 309.179 120.7C309.539 120.863 309.803 121.123 309.969 121.48C310.056 121.657 310.109 121.843 310.129 122.04C310.149 122.237 310.159 122.448 310.159 122.675V126H309.234V124.765L309.414 124.925C309.191 125.338 308.906 125.647 308.559 125.85C308.216 126.05 307.793 126.15 307.289 126.15ZM307.474 125.295C307.771 125.295 308.026 125.243 308.239 125.14C308.453 125.033 308.624 124.898 308.754 124.735C308.884 124.572 308.969 124.402 309.009 124.225C309.066 124.065 309.098 123.885 309.104 123.685C309.114 123.485 309.119 123.325 309.119 123.205L309.459 123.33C309.129 123.38 308.829 123.425 308.559 123.465C308.289 123.505 308.044 123.545 307.824 123.585C307.608 123.622 307.414 123.667 307.244 123.72C307.101 123.77 306.973 123.83 306.859 123.9C306.749 123.97 306.661 124.055 306.594 124.155C306.531 124.255 306.499 124.377 306.499 124.52C306.499 124.66 306.534 124.79 306.604 124.91C306.674 125.027 306.781 125.12 306.924 125.19C307.068 125.26 307.251 125.295 307.474 125.295ZM311.453 126L311.458 118.8H312.518V123.2L314.638 120.6H315.968L313.728 123.3L316.198 126H314.778L312.518 123.4V126H311.453Z" fill="#FA7315"/>
<path d="M247.686 114.012C247.949 113.956 248.294 114.101 248.4 114.371C248.472 114.553 248.459 114.75 248.446 114.943C248.336 116.592 247.888 118.347 247.746 120.008C247.741 120.159 247.815 120.251 247.953 120.271C249.087 120.434 251.108 119.782 251.79 121.039C252.169 121.737 251.988 122.283 251.641 122.915C250.087 125.739 248.207 128.45 246.62 131.261C246.172 131.801 245.41 131.36 245.514 130.677L246.224 125.461C246.202 125.321 246.146 125.249 246.013 125.23C244.484 125.01 241.603 126.016 242.046 123.13C243.714 120.339 245.309 117.469 247.046 114.722C247.208 114.465 247.378 114.079 247.686 114.013V114.012Z" fill="#FA7315"/>
<defs>
<linearGradient id="paint0_linear_2415_72920" x1="2.13543e-06" y1="136.555" x2="361" y2="4.4448" gradientUnits="userSpaceOnUse">
<stop stop-color="#4764FF"/>
<stop offset="0.610577" stop-color="#080809"/>
</linearGradient>
<linearGradient id="paint1_linear_2415_72920" x1="279.986" y1="2.03125" x2="279.986" y2="140.05" gradientUnits="userSpaceOnUse">
<stop stop-color="#3C64F9"/>
<stop offset="1" stop-color="#253E9A"/>
</linearGradient>
<linearGradient id="paint2_linear_2415_72920" x1="274.112" y1="39.9531" x2="274.112" y2="91.343" gradientUnits="userSpaceOnUse">
<stop stop-color="#9CC3FF"/>
<stop offset="1" stop-color="#4167D1"/>
</linearGradient>
<clipPath id="clip0_2415_72920">
<rect width="9" height="10" fill="white" transform="translate(20 113)"/>
</clipPath>
</defs>
</svg>
