<svg width="122" height="168" viewBox="0 0 122 168" fill="none" xmlns="http://www.w3.org/2000/svg">
<g clip-path="url(#clip0_113_4939)">
<path d="M88.4471 151.762C91.4643 155.53 97.2352 155.811 100.326 151.96C104.575 151.965 109.043 152.304 113.237 153.006C116.912 153.621 126.559 155.781 118.809 159.836C110.346 164.265 91.2345 165.986 81.4182 166.779C64.0102 168.186 42.4499 168.842 25.2263 166.154C22.2031 165.683 11.2793 163.814 19.281 160.287C21.2205 159.433 23.5919 158.873 25.6542 158.339C25.9989 158.25 26.3991 158.459 26.2822 157.888C30.3355 160.827 38.7671 164.356 43.7832 163.796C48.4012 163.28 53.3262 157.069 56.3751 153.738C58.6038 153.853 60.7989 153.344 63.0078 153.146C68.44 152.66 73.993 152.209 79.4311 151.952C82.4206 151.809 85.4556 151.878 88.4471 151.762Z" fill="#072948"/>
<path d="M23.9023 31.2169C23.9598 31.7272 23.9023 31.5314 23.6131 31.6164C21.9252 32.1149 18.1413 32.8448 16.8873 33.9941C15.3024 35.446 14.4485 39.6098 14.2009 41.6887C13.672 41.7381 13.882 41.6926 13.8087 41.392C13.4263 39.7977 13.357 38.3478 12.7131 36.7515C10.9737 32.4433 7.63159 32.6727 3.70703 31.5116C5.9635 30.9578 8.36856 30.7382 10.3794 29.4742C12.8973 27.8937 13.3688 23.8803 13.8087 21.1367C14.187 21.206 14.1375 21.5482 14.2128 21.8191C14.8428 24.084 14.8844 26.6258 16.5723 28.5524C18.1175 30.3169 21.638 31.0962 23.9023 31.2149V31.2169Z" fill="#FCCC11"/>
<path d="M4.89547 37.7379C5.07773 40.8197 5.90781 41.4013 8.75465 41.8938C9.00823 41.9373 9.39652 41.971 9.05577 42.2815C8.98049 42.3507 7.43524 42.6336 7.08062 42.782C5.41452 43.4802 5.30159 44.578 4.90339 46.1506C4.82019 46.4809 5.10348 46.7282 4.50321 46.6313C4.39227 43.413 3.25908 42.9798 0.44592 42.4754C0.198283 42.4318 -0.223691 42.3804 0.144793 42.0877C3.40964 41.6189 3.73652 41.1817 4.49727 38.2206C4.58245 37.8922 4.29519 37.643 4.89547 37.7399V37.7379Z" fill="#FCCC11"/>
<path d="M26.2783 157.887C21.585 154.485 15.0118 146.845 21.2344 141.687C25.4521 138.191 32.1463 139.351 36.8296 141.261L49.2194 128.578C42.8105 119.434 40.9562 107.969 42.7095 97.0242C41.4733 97.9203 39.9439 98.6502 38.4581 99.2001C29.8601 102.383 21.3374 99.6867 16.137 92.2255C11.4695 85.5278 12.4958 76.8323 20.2042 73.0779C29.03 68.7796 39.6923 75.1925 33.8976 84.964C39.1019 83.5596 42.9532 79.7242 47.4602 77.0617C47.6286 76.8145 42.658 74.599 42.1805 74.332C34.9317 70.2592 27.7284 62.976 25.5413 54.777C21.2582 38.727 33.0259 24.8431 47.4106 19.6072C48.5735 18.8278 48.0367 15.0794 47.4324 13.855C40.0845 14.6798 36.578 5.14168 42.8422 1.21524C50.0475 -3.30065 57.5875 5.76872 51.8939 12.0589C52.2425 13.3941 55.9234 16.7331 57.3102 16.9566C58.2393 17.1069 61.5398 16.4542 62.8057 16.3988C68.3053 16.1575 73.8444 17.0772 79.1359 18.4718C80.0988 18.725 81.3568 19.3481 82.2562 19.5162C84.2828 19.892 88.2213 16.9309 89.5407 15.4038C89.7586 14.9686 89.1603 14.5434 88.9998 14.1616C85.6082 6.06741 95.8208 0.554572 101.017 6.91006C105.542 12.4446 100.04 19.7496 93.4157 18.001C93.0967 18.9188 92.5282 19.7634 92.2627 20.705C91.9972 21.6466 91.4861 23.6958 92.1953 24.4119C103.553 31.6258 112.424 45.037 108.581 58.9289C105.958 68.4097 98.1089 74.4487 89.19 77.7125L83.4944 79.4354C85.7687 79.9002 88.0687 80.8398 90.2182 81.7161C100.272 85.8186 121.607 96.5574 117.24 110.257C114.144 119.976 99.8642 118.882 99.3709 107.597C99.3095 106.214 100.104 106.175 98.8043 104.97C94.0021 100.514 87.1217 97.5326 81.2141 94.8563C84.8118 105.174 87.2802 117.988 79.336 126.966C81.9372 127.975 85.1803 128.062 87.9558 127.862C92.9779 127.5 97.2788 124.302 100.752 130.093C104.147 135.756 104.585 146.65 100.322 151.963C97.2313 155.814 91.4604 155.533 88.4431 151.765C87.4447 150.519 86.8464 148.776 86.4363 147.245C81.1785 147.287 75.9622 146.179 70.9778 144.594C70.0665 144.304 66.7759 142.808 66.1736 142.87C65.8051 142.907 65.605 143.23 65.3752 143.463C62.2609 146.62 59.3824 150.449 56.3692 153.741C53.3203 157.072 48.3933 163.281 43.7773 163.799C38.7612 164.361 30.3316 160.832 26.2763 157.891L26.2783 157.887ZM42.1171 9.67735C42.1251 9.74461 42.1033 9.81582 42.1171 9.87516C42.5886 11.9482 46.5746 12.5989 48.32 12.237C48.3655 12.2488 48.8113 12.9471 48.8489 13.0361C49.469 14.5157 49.5879 16.0071 49.6413 17.5817C49.6552 17.9891 49.4155 18.7982 49.9385 18.7724C51.4105 18.7012 53.3797 17.4531 54.9864 17.5797C53.6154 16.3632 52.2346 15.2139 51.0261 13.8273C50.9627 13.2003 50.4496 12.7987 50.2337 12.2468C49.7761 11.0778 50.1346 11.5189 50.5962 10.9374C52.5338 8.49646 53.1717 5.97839 50.828 3.55132C50.2793 2.98164 49.988 2.72252 49.2451 2.36647C47.9574 1.74734 47.0877 1.61283 45.6336 1.82448C42.236 2.319 39.718 6.83885 42.1171 9.67735ZM90.2261 12.8403C90.3628 13.2932 91.0522 15.0537 91.4148 15.2119C90.2559 17.2414 88.2906 18.7447 86.2719 19.8584C85.8836 20.072 84.9366 20.3015 84.8811 20.3509C84.5245 20.6832 85.0139 20.6852 85.1624 20.7624C85.7488 21.061 86.8008 21.3004 87.2565 21.5358C87.308 21.5635 87.4526 21.8424 87.7042 21.969C88.041 22.1411 90.3153 23.4347 90.4242 23.3121C90.1885 22.1213 90.7373 21.0492 90.8205 19.9533C90.8284 18.9821 92.7084 16.743 92.7996 16.199C95.7098 17.0891 99.2381 16.6559 100.558 13.5682C101.073 12.3635 101.411 10.1996 100.324 9.28372C100.342 8.46678 99.5135 7.32743 98.7409 7.10984C98.6141 6.74983 98.3645 6.66082 98.0554 6.50851C93.4811 4.26144 88.7264 7.89908 90.2261 12.8403ZM82.3077 21.338C65.7437 15.0695 43.5138 17.7953 32.0234 32.3102C23.6692 42.8612 24.4755 57.0636 34.3948 66.1963C35.7499 67.935 37.2357 68.8726 38.9494 70.1484C42.973 73.1491 46.8421 75.0144 51.4224 77.0657C50.5606 76.9153 50.0217 77.2734 49.3105 77.6255C46.4439 79.0457 43.6089 81.8348 40.7918 83.5497C38.8166 84.7524 36.6988 85.6188 34.5929 86.5524C31.4529 86.4792 30.5317 87.2329 27.7066 88.0775C26.0346 88.576 24.0456 89.0863 22.32 89.1199C22.5716 88.7085 23.2472 88.7164 23.6969 88.4217C24.2734 88.0458 24.8499 87.2012 25.571 86.9322C27.2292 86.3131 29.2024 86.2913 30.9695 85.2073C34.1016 83.2867 34.8525 79.4314 32.8119 76.4742C32.3523 75.8096 32.3741 75.6612 31.6233 75.0916C25.2719 70.2651 14.8493 75.9303 14.7958 83.5893C14.7661 87.6107 16.7195 90.6549 19.3504 93.4697C24.7469 99.2495 31.8352 100.389 39.0841 97.2576C39.7973 96.9491 42.7669 95.4398 43.1176 94.9591C43.4682 94.4785 43.809 92.3837 44.0943 91.5866C44.5856 90.2158 45.9129 87.9509 46.0774 86.7482C46.6578 86.6394 46.4993 87.037 46.4518 87.4129C46.2735 88.8311 45.5781 90.4057 45.483 91.8852C45.3919 91.8773 45.3186 91.8852 45.2869 91.9861C42.8105 103.281 42.7907 115.772 49.4413 125.678C49.5859 126.199 49.8613 126.776 50.2357 127.158C50.9152 127.848 50.725 127.265 51.1113 126.859C52.4624 125.445 54.3247 123.601 55.7748 122.318C57.5895 120.713 60.7256 118.154 62.7542 116.933C63.0752 116.739 63.5011 116.453 63.8874 116.486L55.1805 125.283C48.9064 130.934 43.1394 137.133 37.3625 143.265C37.1089 143.178 36.8316 143.129 36.5701 143.067C32.1106 140.134 20.0636 139.705 20.335 147.217C20.5212 152.346 28.406 157.768 32.6752 159.701C35.7776 161.107 40.9681 162.781 44.2924 162.037C46.7945 161.479 48.2982 159.778 50.0336 158.085C53.6372 154.568 57.2527 150.402 60.6285 146.626C66.4549 140.106 73.6919 132.37 78.7041 125.344C86.0619 115.03 82.5712 103.621 78.7417 92.6765C85.101 94.3717 91.5872 97.6295 96.9381 101.487C98.0079 102.258 100.08 103.734 100.924 104.622C101.195 104.907 101.368 105.091 101.31 105.52C101.003 106.505 101.156 107.848 101.112 108.879C101.09 109.045 101.096 109.3 101.112 109.472C101.128 109.644 101.116 109.812 101.31 109.868C101.192 112.067 104.746 114.854 106.806 115.151C112.004 115.901 115.788 112.368 116.159 107.298C116.163 107.233 116.157 107.166 116.159 107.1C116.192 106.204 116.085 105.724 115.961 104.927C114.8 97.4713 106.002 91.5806 99.8602 88.0953C98.6498 87.4089 93.6237 84.6258 92.5995 84.5724C88.0687 82.3253 82.8366 80.3848 77.8304 79.4552C77.2896 79.3543 76.4357 79.6846 76.1683 79.0417C88.5917 77.6373 103.167 71.9801 106.907 58.8359C108.508 53.2143 108.08 48.6608 106.063 43.2706C102.031 32.4962 92.8788 25.3356 82.3057 21.336L82.3077 21.338ZM88.0212 145.86C88.0291 153.055 96.6825 156.21 100.159 149.128C102.541 144.276 102.17 135.353 99.2936 130.754C96.4171 126.155 92.4331 128.968 88.3203 129.405C86.4363 129.605 83.9243 129.67 82.066 129.375C81.2755 129.251 78.5713 128.349 78.1573 128.533L67.2652 141.386C71.7207 143.423 76.9151 144.913 81.8144 145.435C82.7455 145.534 87.8607 145.593 88.0212 145.86Z" fill="#060709"/>
<path d="M51.424 77.0625C53.9638 78.1999 56.7037 79.272 59.4931 79.7784C62.4231 80.3105 65.8643 80.0632 68.5843 81.1769C69.1093 81.3925 71.3301 82.8424 71.6095 82.5912C71.6629 82.5437 71.6471 81.6575 72.3524 81.4538C72.9625 81.2778 75.2963 81.3668 76.0709 81.4142C81.7249 81.7564 87.2205 84.2943 92.6051 84.5732C93.6294 84.6266 98.6554 87.4097 99.8659 88.0961C106.009 91.5814 114.807 97.4721 115.966 104.927L115.374 105.323C116.178 110.658 108.543 115.316 104.678 110.958C103.422 109.544 103.149 107.974 103.297 106.112C102.061 105.685 101.241 107.974 101.12 108.88C101.163 107.849 101.011 106.506 101.318 105.521C101.473 105.022 103.311 102.01 103.097 101.766L101.443 102.937C95.24 96.9123 87.5731 93.423 79.4903 90.6478C78.8959 90.444 78.0342 90.4164 77.5686 90.1948C76.6414 89.7537 75.0368 86.8044 73.9967 86.1537C74.49 88.5629 75.6232 90.8199 76.374 93.1659C80.8315 107.068 82.0419 116.307 73.2835 128.624C66.9598 137.518 58.5124 146.627 51.0338 154.632C50.7108 154.978 49.4053 155.997 49.334 156.109C49.1022 156.477 49.8669 157.656 50.0393 158.084C48.3038 159.777 46.7982 161.478 44.298 162.036C42.7924 157.52 38.6499 153.882 34.8581 151.204C30.993 148.474 26.3988 146.103 21.5312 146.227C22.3475 145.311 22.6129 144.625 23.8036 143.851C27.2428 141.618 32.7423 142.162 36.5777 143.066C36.8392 143.128 37.1166 143.177 37.3701 143.264C37.8793 143.436 39.1095 144.461 39.5176 144.223C39.6246 144.162 40.7578 142.564 41.0312 142.273C48.4544 134.387 55.935 126.739 63.1046 118.657C63.479 118.234 64.5092 117.791 64.6934 117.179C64.7826 116.883 64.5548 116.513 64.8777 116.078C65.4502 115.304 67.3739 114.499 67.7641 113.429C64.3963 114.499 61.4623 116.641 58.1637 117.876C57.611 118.081 56.9176 118.018 56.2282 118.309C55.9865 118.412 56.0004 118.722 55.8439 118.758C54.8494 118.977 53.5438 118.736 52.6761 118.206C52.159 117.89 49.9323 115.381 49.647 115.601L49.538 116.382C51.4914 118.653 52.7712 121.213 55.7825 122.318C54.3303 123.6 52.4701 125.446 51.119 126.86C50.7326 127.266 50.9228 127.849 50.2433 127.159C49.8689 126.777 49.5935 126.199 49.4489 125.679C48.6307 122.752 47.7531 119.614 47.131 116.63C45.1658 107.202 45.5917 97.6165 46.8735 88.1337C46.5862 88.1297 46.4891 88.739 46.4238 88.9664C46.1325 89.9693 45.9186 91.0671 45.6848 92.0878C45.5976 92.0581 45.5224 91.89 45.4907 91.888C45.5857 90.4084 46.2811 88.8339 46.4594 87.4157C46.507 87.0398 46.6654 86.6422 46.085 86.751C46.1979 85.9183 46.6298 86.571 46.8774 86.3534C46.4792 85.5385 46.9666 85.9084 47.135 85.5187C47.2954 85.1488 47.4658 84.587 47.5767 84.1875C47.6164 84.045 47.8482 83.4101 47.4698 83.685C46.5109 84.9609 45.4827 86.1912 44.5377 87.479C43.7849 88.5036 40.6013 93.5971 39.6662 93.6505C39.1828 93.6782 36.758 93.065 36.4905 92.6713L35.5832 86.5631C35.2583 86.5255 34.9294 86.5611 34.6025 86.5532C36.7084 85.6216 38.8262 84.7532 40.8014 83.5505C43.6165 81.8356 46.4535 79.0465 49.3201 77.6263C50.0313 77.2742 50.5702 76.9161 51.432 77.0665L51.424 77.0625ZM48.0582 114.804C48.0146 114.634 47.6758 114.256 47.5609 114.214C46.9844 114.009 47.3034 115.039 48.0582 114.804ZM49.0467 115.991C49.2349 115.791 48.5376 115.097 48.2582 115.004C48.0443 115.397 48.813 116.238 49.0467 115.991Z" fill="#3151C4"/>
<path d="M88.0216 145.861C87.8611 145.594 82.7459 145.537 81.8148 145.436C76.9156 144.914 71.7211 143.424 67.2656 141.387L78.1577 128.533C78.5717 128.349 81.276 129.251 82.0664 129.376C83.9267 129.671 86.4387 129.606 88.3207 129.406C92.4335 128.969 96.5324 126.338 99.294 130.755C102.056 135.172 102.543 144.277 100.16 149.129C96.683 156.21 88.0295 153.055 88.0216 145.861Z" fill="#1638AF"/>
<path d="M50.0338 158.086C49.8614 157.659 49.0967 156.48 49.3285 156.112C49.3998 155.999 50.7054 154.979 51.0283 154.634C58.5089 146.629 66.9544 137.518 73.278 128.627C82.0365 116.31 80.824 107.07 76.3685 93.1685C75.6157 90.8225 74.4845 88.5655 73.9912 86.1562C75.0313 86.807 76.636 89.7543 77.5631 90.1974C78.0287 90.419 78.8905 90.4466 79.4848 90.6504C87.5677 93.4236 95.2345 96.9149 101.437 102.94L103.092 101.769C103.306 102.012 101.467 105.027 101.313 105.523C101.37 105.092 101.198 104.91 100.926 104.625C100.08 103.737 98.0101 102.262 96.9403 101.49C91.5893 97.6349 85.1052 94.3751 78.7439 92.6799C82.5733 103.624 86.064 115.034 78.7062 125.347C73.6941 132.373 66.4571 140.11 60.6307 146.629C57.2549 150.405 53.6394 154.571 50.0358 158.088L50.0338 158.086Z" fill="#1638AF"/>
<path d="M32.8112 76.4688C34.8498 79.4259 34.0989 83.2812 30.9688 85.2019C29.2016 86.2858 27.2285 86.3076 25.5703 86.9267C24.8492 87.1957 24.2727 88.0384 23.6962 88.4162C23.2465 88.7109 22.5729 88.703 22.3193 89.1144C24.0448 89.0808 26.0358 88.5705 27.7059 88.072C30.5329 87.2294 31.4522 86.4737 34.5922 86.5469C34.9191 86.5548 35.248 86.5192 35.5729 86.5568L36.4802 92.6651C36.7496 93.0587 39.1745 93.6719 39.6559 93.6442C40.591 93.5908 43.7746 88.4973 44.5274 87.4727C45.4724 86.1869 46.5006 84.9566 47.4594 83.6788C47.8398 83.4038 47.606 84.0388 47.5664 84.1812C47.4555 84.5807 47.2851 85.1425 47.1246 85.5124C46.9562 85.9021 46.4689 85.5342 46.8671 86.3471C46.6195 86.5628 46.1896 85.91 46.0747 86.7447C45.9102 87.9474 44.5829 90.2123 44.0916 91.5831C43.8063 92.3802 43.4517 94.4928 43.1149 94.9556C42.7781 95.4185 39.7946 96.9456 39.0814 97.2541C31.8325 100.385 24.7442 99.246 19.3477 93.4662C19.6943 93.1892 19.8707 93.3356 20.1995 93.4939C22.5174 94.6115 24.8373 95.7884 27.4642 96.0317C26.6183 95.3592 25.812 94.7875 25.0829 93.9627C23.8547 92.5721 23.0424 90.8354 21.3268 89.8048C21.1505 89.4131 22.0677 89.5951 21.6259 89.1125C21.2733 88.7267 20.2035 88.8435 19.94 88.3272C20.6968 88.1907 22.4917 88.2421 23.0048 87.7259C23.6031 87.1265 22.563 85.3205 23.502 84.8656C24.1082 84.5728 25.8516 84.8557 26.7213 84.7212C27.9535 84.5293 28.8094 83.7599 29.8376 83.1882C29.7999 83.388 29.3681 85.8111 30.0317 85.1643C30.3507 84.8537 31.0124 82.7629 31.0243 82.2012C31.472 81.0855 32.5299 79.8848 32.7577 78.698C32.9202 77.8573 32.5636 77.2105 32.8053 76.4707L32.8112 76.4688ZM29.5444 85.3621V85.5599C29.6731 85.4946 29.6731 85.4274 29.5444 85.3621Z" fill="#1638AF"/>
<path d="M31.6226 75.0878C32.3715 75.6575 32.3517 75.8058 32.8113 76.4705C32.5696 77.2103 32.9262 77.8571 32.7637 78.6978C32.5359 79.8846 31.478 81.0872 31.0303 82.2009C31.064 80.6837 30.852 80.6343 30.0397 79.6314C29.8713 79.4237 29.8674 78.8204 29.3008 78.672C29.2176 78.6503 27.8546 78.6424 27.5713 78.6364C27.3118 78.6305 26.9453 78.5316 27.0681 78.9371C28.2409 79.2991 28.7421 80.8677 30.0397 80.8163C30.2339 82.2879 30.0714 81.9477 29.8416 83.1879C28.8134 83.7596 27.9576 84.5291 26.7254 84.7209C25.8537 84.8554 24.1103 84.5726 23.5061 84.8653C22.567 85.3203 23.6071 87.1262 23.0088 87.7256C22.4957 88.2399 20.7008 88.1885 19.9441 88.3269C20.2075 88.8432 21.2754 88.7245 21.63 89.1122C22.0718 89.5949 21.1545 89.4129 21.3308 89.8045C23.0445 90.8351 23.8587 92.5718 25.087 93.9624C25.816 94.7872 26.6223 95.3569 27.4683 96.0314C24.8413 95.7862 22.5195 94.6112 20.2036 93.4936C19.8747 93.3354 19.6984 93.189 19.3517 93.4659C16.7228 90.6492 14.7694 87.6069 14.7972 83.5855C15.3796 83.9693 15.0943 83.722 15.2449 83.3442C17.3944 77.9382 22.4561 73.8753 28.5539 74.4964C29.6059 74.6032 30.5449 75.2203 31.6246 75.0878H31.6226Z" fill="#3151C4"/>
<path d="M44.2934 162.036C40.9711 162.778 35.7806 161.104 32.6762 159.7C28.4069 157.765 20.5222 152.343 20.3359 147.216C20.6688 146.926 21.2532 146.532 21.5246 146.227C26.3922 146.103 30.9863 148.474 34.8514 151.204C38.6433 153.882 42.7857 157.52 44.2914 162.036H44.2934Z" fill="#1638AF"/>
<path d="M64.6866 117.18C64.5043 117.791 63.4742 118.234 63.0977 118.657C55.9282 126.74 48.4475 134.387 41.0243 142.273C40.751 142.564 39.6178 144.162 39.5108 144.224C39.1027 144.461 37.8724 143.436 37.3633 143.264C43.1402 137.132 48.9091 130.933 55.1813 125.282C55.5458 124.953 56.3105 124.603 56.7681 124.198C59.3951 121.862 61.9012 119.35 64.6846 117.18H64.6866Z" fill="#4E72F6"/>
<path d="M49.4443 125.676C42.7917 115.77 42.8135 103.281 45.2899 91.9841C45.3216 91.8852 45.3949 91.8753 45.486 91.8833C45.5177 91.8852 45.593 92.0553 45.6802 92.083C45.9159 91.0624 46.1279 89.9645 46.4191 88.9617C46.4845 88.7342 46.5836 88.1269 46.8689 88.1289C45.5871 97.6117 45.1611 107.197 47.1264 116.625C47.7485 119.61 48.6261 122.747 49.4443 125.674V125.676Z" fill="#4E72F6"/>
<path d="M116.162 107.1L115.968 107.199L116.162 107.297C115.792 112.367 112.008 115.9 106.809 115.15C104.749 114.854 101.195 112.067 101.314 109.867C101.32 109.77 101.896 109.392 101.116 109.471C101.1 109.299 101.094 109.044 101.116 108.878C101.237 107.972 102.057 105.683 103.293 106.111C103.144 107.972 103.42 109.543 104.674 110.957C108.541 115.315 116.176 110.656 115.37 105.321L115.962 104.926C116.087 105.723 116.194 106.204 116.16 107.1H116.162Z" fill="#3E71D0"/>
<path d="M64.6886 117.178C61.9051 119.346 59.399 121.86 56.7721 124.196C56.3145 124.602 55.5518 124.952 55.1852 125.28L63.8922 116.484C63.5039 116.45 63.0779 116.737 62.759 116.931C60.7303 118.151 57.5943 120.713 55.7796 122.315C52.7683 121.209 51.4885 118.65 49.5352 116.379L49.6441 115.598C49.9294 115.38 52.1562 117.886 52.6732 118.203C53.5409 118.733 54.8465 118.974 55.841 118.755C55.9975 118.721 55.9817 118.409 56.2253 118.306C56.9147 118.015 57.6081 118.078 58.1609 117.872C61.4594 116.638 64.3914 114.498 67.7613 113.426C67.369 114.498 65.4454 115.301 64.8748 116.074C64.5539 116.51 64.7797 116.877 64.6906 117.176L64.6886 117.178Z" fill="#1638AF"/>
<path d="M31.6243 75.0873C30.5446 75.2199 29.6056 74.6027 28.5536 74.4959C22.4538 73.8748 17.3941 77.9357 15.2446 83.3437C15.094 83.7215 15.3793 83.9688 14.7969 83.5851C14.8523 75.926 25.2749 70.2609 31.6243 75.0873Z" fill="#4E72F6"/>
<path d="M36.5756 143.064C32.7402 142.16 27.2407 141.616 23.8015 143.85C22.6109 144.623 22.3454 145.31 21.5292 146.225C21.2597 146.528 20.6733 146.924 20.3405 147.214C20.0671 139.702 32.1162 140.131 36.5756 143.064Z" fill="#4E72F6"/>
<path d="M101.117 109.472C101.898 109.393 101.321 109.77 101.315 109.867C101.121 109.812 101.133 109.64 101.117 109.472Z" fill="#538DED"/>
<path d="M116.163 107.299L115.969 107.2L116.163 107.102C116.161 107.167 116.167 107.234 116.163 107.299Z" fill="#538DED"/>
<path d="M49.0444 115.991C48.8107 116.238 48.042 115.398 48.2559 115.004C48.5353 115.097 49.2326 115.791 49.0444 115.991Z" fill="#1638AF"/>
<path d="M48.055 114.804C47.3002 115.04 46.9812 114.009 47.5577 114.215C47.6726 114.256 48.0114 114.634 48.055 114.804Z" fill="#1638AF"/>
<path d="M30.0416 79.6328C30.8538 80.6337 31.0658 80.6851 31.0321 82.2023C31.0202 82.7641 30.3586 84.8549 30.0396 85.1654C29.374 85.8142 29.8078 83.3891 29.8455 83.1894C30.0753 81.9511 30.2377 82.2913 30.0436 80.8177C29.996 80.4596 29.9802 80.1016 29.891 79.7495L30.0436 79.6328H30.0416Z" fill="#060709"/>
<path d="M29.5469 85.3633C29.6756 85.4286 29.6756 85.4958 29.5469 85.5611V85.3633Z" fill="#060709"/>
<path d="M30.0397 79.6348L29.8871 79.7515C29.9763 80.1036 29.9921 80.4636 30.0397 80.8196C28.7421 80.8711 28.2408 79.3025 27.068 78.9405C26.9432 78.535 27.3117 78.6339 27.5712 78.6398C27.8545 78.6457 29.2156 78.6537 29.3007 78.6754C29.8673 78.8238 29.8713 79.4271 30.0397 79.6348Z" fill="#3E71D0"/>
<path d="M82.3065 21.3359C92.8796 25.3375 102.032 32.498 106.064 43.2705C105.757 45.0448 106.545 46.9378 106.666 48.6963C107.857 66.0023 89.2898 74.9273 74.6594 76.6422C61.2256 78.2168 51.6549 75.9697 39.7426 70.2412C39.5405 70.1443 39.067 69.7487 38.9481 70.1443C37.2365 68.8685 35.7506 67.9309 34.3936 66.1922C22.921 51.4735 28.904 33.9855 44.2892 25.381C56.3224 18.6497 68.1812 18.4835 81.3496 21.4031C81.6388 21.4664 82.1163 21.7097 82.3065 21.3359ZM37.4346 60.9859C49.0478 72.3558 71.2777 73.9837 84.7868 65.2111C95.5263 58.2364 98.0344 45.3613 89.4384 35.4592C77.9976 22.2814 53.842 20.3627 39.8753 30.4626C28.9654 38.3511 27.6896 51.4478 37.4326 60.9859H37.4346Z" fill="#3151C4"/>
<path d="M106.067 43.2734C108.084 48.6617 108.51 53.2171 106.911 58.8387C103.17 71.9809 88.5955 77.6401 76.1721 79.0446C76.4415 79.6874 77.2934 79.3571 77.8342 79.458C82.8405 80.3876 88.0725 82.3281 92.6033 84.5752C87.2187 84.2963 81.7231 81.7565 76.0691 81.4162C75.2944 81.3688 72.9627 81.2798 72.3505 81.4558C71.6453 81.6595 71.6611 82.5457 71.6076 82.5932C71.3283 82.8444 69.1075 81.3945 68.5825 81.1789C65.8624 80.0652 62.4193 80.3125 59.4912 79.7804C56.7018 79.274 53.962 78.2019 51.4222 77.0645C46.8419 75.0133 42.9728 73.148 38.9492 70.1473C39.0681 69.7517 39.5416 70.1473 39.7436 70.2442C51.656 75.9726 61.2267 78.2197 74.6605 76.6452C89.2909 74.9302 107.856 66.0052 106.667 48.6992C106.546 46.9407 105.758 45.0478 106.065 43.2734H106.067Z" fill="#1638AF"/>
<path d="M82.3077 21.336C82.1175 21.7099 81.64 21.4686 81.3508 21.4033C68.1824 18.4857 56.3236 18.6518 44.2904 25.3812C28.9052 33.9857 22.9223 51.4737 34.3948 66.1923C24.4754 57.0597 23.6691 42.8573 32.0234 32.3063C43.5138 17.7914 65.7437 15.0676 82.3077 21.3341V21.336Z" fill="#4E72F6"/>
<path d="M98.7405 7.10902C99.5131 7.32661 100.343 8.46596 100.323 9.2829C100.309 9.89412 99.9568 11.2788 99.6597 11.8801C97.7281 15.7848 93.0626 15.3219 90.4258 12.4438C91.1925 8.37497 92.9576 6.62638 97.2626 6.9033C97.6192 6.92704 98.4255 7.02001 98.7405 7.10902Z" fill="#538DED"/>
<path d="M100.322 9.28323C101.41 10.201 101.071 12.365 100.556 13.5677C99.2367 16.6574 95.7083 17.0886 92.7981 16.1985C92.9526 15.2926 91.6867 15.3301 91.4113 15.2095C91.0508 15.0512 90.3613 13.2908 90.2227 12.8378C90.4227 12.7765 90.391 12.6044 90.4208 12.4422C93.0576 15.3202 97.7231 15.7831 99.6547 11.8784C99.9518 11.2771 100.306 9.89247 100.318 9.28125L100.322 9.28323Z" fill="#3E71D0"/>
<path d="M92.7998 16.2C92.7067 16.7439 90.8266 18.9831 90.8207 19.9543C90.8207 19.9345 90.6523 19.8257 90.6483 19.6635C90.6424 19.3451 91.1119 18.6607 90.3353 18.9752C90.0639 19.084 89.7351 19.978 89.3309 20.1462L87.2567 21.5348C86.8011 21.2994 85.7491 21.062 85.1627 20.7614C85.0141 20.6862 84.5248 20.6842 84.8814 20.3499C84.9349 20.3005 85.8818 20.071 86.2721 19.8574C88.2908 18.7437 90.2561 17.2384 91.415 15.2109C91.6884 15.3296 92.9543 15.292 92.8018 16.2H92.7998Z" fill="#538DED"/>
<path d="M98.7401 7.10829C98.4251 7.01928 97.6188 6.92433 97.2622 6.90257C92.9572 6.62564 91.1921 8.37424 90.4254 12.4431C90.3957 12.6053 90.4254 12.7774 90.2273 12.8387C88.7276 7.89753 93.4822 4.26187 98.0566 6.50696C98.3656 6.65927 98.6153 6.7463 98.742 7.10829H98.7401Z" fill="#C7E1FA"/>
<path d="M50.8283 3.55011C50.6659 5.33036 51.2325 6.86137 50.123 8.47744C48.9403 10.2003 46.6561 10.9085 44.6433 10.6118C43.7063 10.4733 43.0545 9.84823 42.1174 9.87197C42.1036 9.81263 42.1254 9.74142 42.1174 9.67416C41.745 6.61214 43.4269 3.22967 46.6621 2.6501C47.5555 2.48988 48.4649 2.749 49.2454 2.36328C49.9883 2.72131 50.2796 2.98043 50.8283 3.54814V3.55011Z" fill="#538DED"/>
<path d="M50.8262 3.55078C53.1698 5.97785 52.5299 8.49394 50.5944 10.9368C50.1328 11.5184 49.7762 11.0793 50.2318 12.2463C49.6038 12.1949 49.7148 13.2314 48.8451 13.0375C48.8074 12.9485 48.3636 12.2503 48.3161 12.2384C46.5708 12.6004 42.5848 11.9496 42.1133 9.87659C43.0523 9.85286 43.7021 10.4779 44.6392 10.6164C46.652 10.9111 48.9362 10.205 50.1189 8.48207C51.2283 6.86402 50.6617 5.33498 50.8242 3.55474L50.8262 3.55078Z" fill="#3E71D0"/>
<path d="M49.2436 2.36588C48.4631 2.7516 47.5537 2.49248 46.6603 2.6527C43.4251 3.23227 41.7452 6.61474 42.1156 9.67676C39.7165 6.83628 42.2345 2.31841 45.6321 1.82389C47.0862 1.61224 47.9559 1.74675 49.2436 2.36588Z" fill="#C7E1FA"/>
<path d="M50.2305 12.2459C50.4465 12.7978 50.9596 13.1993 51.023 13.8264C51.4826 16.0101 52.9169 17.193 49.6362 17.5807C49.5827 16.0081 49.4638 14.5147 48.8438 13.0351C49.7135 13.229 49.6005 12.1945 50.2305 12.2439V12.2459Z" fill="#538DED"/>
<path d="M51.0262 13.8281C52.2347 15.2147 53.6155 16.364 54.9864 17.5805C53.3817 17.4519 51.4105 18.702 49.9386 18.7733C49.4156 18.799 49.6533 17.9899 49.6414 17.5825C52.9221 17.1948 51.4878 16.0119 51.0282 13.8281H51.0262Z" fill="#3E71D0"/>
<path d="M87.2578 21.5347L89.332 20.1461C89.7362 19.9779 90.065 19.0839 90.3364 18.9751C91.115 18.6606 90.6435 19.347 90.6495 19.6634C90.6534 19.8256 90.8218 19.9344 90.8218 19.9542C90.7366 21.0501 90.1898 22.1202 90.4256 23.3129C90.3166 23.4356 88.0423 22.14 87.7055 21.9698C87.4559 21.8413 87.3113 21.5624 87.2578 21.5367V21.5347Z" fill="#3E71D0"/>
<path d="M37.4377 60.9856C27.6947 51.4454 28.9705 38.3507 39.8804 30.4622C53.8452 20.3623 78.0027 22.281 89.4435 35.4588C98.0395 45.3609 95.5294 58.2361 84.7919 65.2107C71.2828 73.9833 49.0509 72.3554 37.4397 60.9856H37.4377ZM43.2542 33.635C37.0692 34.5667 37.2713 45.6517 44.5756 44.635C50.6734 43.7864 50.1643 32.5926 43.2542 33.635ZM71.6889 47.1511C77.1944 52.3652 83.9361 42.5244 78.3315 38.05C72.727 33.5757 66.8808 42.5976 71.6889 47.1511ZM36.1282 43.5154C34.3175 43.824 33.5409 45.5923 33.8519 47.2757C34.579 51.2278 43.3513 51.1863 42.226 47.0185C41.707 45.0998 38.1152 43.1771 36.1302 43.5154H36.1282ZM50.3802 46.4706C49.0509 46.8583 49.5184 49.952 49.7344 50.9845C51.8918 61.2486 64.8086 60.4713 67.1641 50.7828C68.1626 46.6724 64.4619 48.3557 61.8211 48.0115L50.3782 46.4726L50.3802 46.4706ZM55.8778 61.0548C56.7059 61.2012 57.8727 60.948 58.7484 61.0548C58.8058 60.6374 58.7741 60.7343 58.4988 60.6117C57.2665 60.0638 55.7589 60.139 54.495 59.6682C54.2176 60.2062 55.4915 60.9856 55.8778 61.0548Z" fill="#90BAFF"/>
<path d="M36.1297 43.5194C38.1147 43.1812 41.7084 45.1038 42.2255 47.0226C43.3508 51.1903 34.5785 51.2319 33.8514 47.2797C33.5423 45.5964 34.317 43.828 36.1277 43.5194H36.1297Z" fill="#538DED"/>
<path d="M82.1765 51.4085C80.2804 50.7307 76.4073 52 75.5648 53.7998C73.7327 57.7087 82.3645 59.2731 83.767 55.5073C84.3638 53.9033 83.9081 52.0272 82.1785 51.4089L82.1765 51.4085Z" fill="#538DED"/>
<path d="M55.8751 61.0585C55.4868 60.9893 54.215 60.2099 54.4923 59.6719C55.7563 60.1427 57.2639 60.0675 58.4961 60.6154C58.7715 60.738 58.8032 60.6411 58.7457 61.0585C57.8701 60.9517 56.7032 61.2049 55.8751 61.0585Z" fill="#538DED"/>
<path d="M43.2538 33.6388C50.1639 32.5963 50.673 43.7921 44.5752 44.6387C37.2709 45.6535 37.0688 34.5704 43.2538 33.6388ZM45.6569 37.0924C45.6569 36.0421 44.803 35.1896 43.751 35.1896C42.6991 35.1896 41.8452 36.0421 41.8452 37.0924C41.8452 38.1428 42.6991 38.9953 43.751 38.9953C44.803 38.9953 45.6569 38.1428 45.6569 37.0924ZM42.0057 39.6145C42.0057 39.2248 41.6887 38.9083 41.2984 38.9083C40.9082 38.9083 40.5912 39.2248 40.5912 39.6145C40.5912 40.0041 40.9082 40.3206 41.2984 40.3206C41.6887 40.3206 42.0057 40.0041 42.0057 39.6145Z" fill="#060709"/>
<path d="M43.7496 38.9972C44.8021 38.9972 45.6554 38.1452 45.6554 37.0943C45.6554 36.0434 44.8021 35.1914 43.7496 35.1914C42.697 35.1914 41.8438 36.0434 41.8438 37.0943C41.8438 38.1452 42.697 38.9972 43.7496 38.9972Z" fill="#FDFDFD"/>
<path d="M41.2971 40.3225C41.6877 40.3225 42.0043 40.0063 42.0043 39.6163C42.0043 39.2263 41.6877 38.9102 41.2971 38.9102C40.9065 38.9102 40.5898 39.2263 40.5898 39.6163C40.5898 40.0063 40.9065 40.3225 41.2971 40.3225Z" fill="#FDFDFD"/>
<path d="M50.3796 46.4707L61.8225 48.0097C64.4633 48.3538 68.164 46.6705 67.1655 50.7809C64.81 60.4694 51.8932 61.2488 49.7358 50.9827C49.5199 49.9501 49.0503 46.8564 50.3816 46.4688L50.3796 46.4707ZM58.3536 53.744C58.6349 51.76 55.1977 53.1882 54.328 53.7757C52.9254 54.7232 53.1987 55.3067 54.5281 56.0781C56.9193 57.4667 60.3941 57.1265 62.5773 55.4867C62.7992 55.3205 63.655 54.5887 63.6926 54.4205C63.8194 53.8607 61.4778 53.0161 61.0063 52.9647C59.8037 52.8361 59.3798 53.4117 58.3555 53.744H58.3536Z" fill="#060709"/>
<path d="M58.3542 53.7435C59.3784 53.4112 59.8024 52.8356 61.0049 52.9642C61.4764 53.0156 63.818 53.8602 63.6913 54.42C63.6536 54.5882 62.7958 55.32 62.5759 55.4862C60.3947 57.128 56.9199 57.4682 54.5267 56.0776C53.1974 55.3062 52.924 54.7227 54.3266 53.7752C55.1963 53.1877 58.6335 51.7596 58.3522 53.7435H58.3542Z" fill="#3151C4"/>
<path d="M71.6875 47.1533C66.8794 42.5998 72.8821 33.7025 78.3302 38.0523C83.7782 42.402 77.193 52.3674 71.6875 47.1533ZM76.8998 40.5466C76.8998 39.4685 76.0242 38.5962 74.9464 38.5962C73.8687 38.5962 72.9931 39.4685 72.9931 40.5466C72.9931 41.6246 73.8687 42.4969 74.9464 42.4969C76.0242 42.4969 76.8998 41.6246 76.8998 40.5466ZM73.0248 43.118C73.0248 42.7244 72.7038 42.404 72.3096 42.404C71.9154 42.404 71.5944 42.7244 71.5944 43.118C71.5944 43.5117 71.9154 43.8321 72.3096 43.8321C72.7038 43.8321 73.0248 43.5117 73.0248 43.118Z" fill="#060709"/>
<path d="M74.9455 42.4984C76.0244 42.4984 76.8989 41.6252 76.8989 40.548C76.8989 39.4709 76.0244 38.5977 74.9455 38.5977C73.8667 38.5977 72.9922 39.4709 72.9922 40.548C72.9922 41.6252 73.8667 42.4984 74.9455 42.4984Z" fill="#FDFDFD"/>
<path d="M72.3089 43.8305C72.7039 43.8305 73.0241 43.5108 73.0241 43.1164C73.0241 42.722 72.7039 42.4023 72.3089 42.4023C71.9139 42.4023 71.5938 42.722 71.5938 43.1164C71.5938 43.5108 71.9139 43.8305 72.3089 43.8305Z" fill="#D1D6EE"/>
</g>
<defs>
<clipPath id="clip0_113_4939">
<rect width="122" height="168" fill="white"/>
</clipPath>
</defs>
</svg>
