<svg width="183" height="168" viewBox="0 0 183 168" fill="none" xmlns="http://www.w3.org/2000/svg">
<g clip-path="url(#clip0_113_4741)">
<path d="M16.6397 13.4656L25.029 27.0335C25.0251 27.5419 24.6583 27.2767 24.4131 27.1391C23.8737 26.8361 20.341 23.963 20.1311 24.1185L21.9808 31.2763L15.1921 27.7552L19.4878 34.5023C17.6479 34.1693 15.7982 34.0078 13.9387 33.8024C13.719 33.7785 13.4267 33.5871 13.4287 33.9181C14.6841 34.6139 15.8806 35.6447 16.9202 36.6456C17.2654 36.9786 18.4462 38.117 18.5953 38.3782C18.7679 38.6793 18.8738 38.8528 18.7463 39.2216L2.83465 31.1925L2.90134 30.7958L12.5166 30.8476L0.000286546 15.7984C-0.00952095 15.4734 0.233705 15.2461 0.533814 15.3119L17.2262 23.642C17.1928 20.3702 16.3494 17.1143 16.2238 13.8564C16.2062 13.4098 16.1885 13.3241 16.6397 13.4636V13.4656ZM14.9312 27.508L14.8998 27.7054C15.0352 27.6595 15.0469 27.5937 14.9312 27.508Z" fill="#FCCC11"/>
<path d="M38.2534 119.645L38.7928 127.6C40.1561 127 40.417 127.622 40.1796 128.94C40.1051 129.356 38.6183 132.255 38.4319 132.381C37.969 132.694 37.9239 131.003 37.6434 130.704C37.5277 130.579 36.8254 130.258 36.7784 130.297C36.6823 130.589 36.2311 132.634 36.1134 132.612C35.5917 132.517 35.0307 129.859 34.7953 129.235C34.5089 128.475 33.3359 126.166 33.3438 125.606C33.3477 125.355 33.436 125.199 33.6812 125.359C33.9617 125.54 35.8761 128.214 36.1487 127.977L37.8199 119.874L38.2534 119.645Z" fill="#FCCC11"/>
<path d="M137.391 132.671C137.62 132.442 137.594 131.995 138.001 131.724C139.687 130.6 141.976 132.775 141.168 134.97C140.105 137.855 135.427 136.842 136.049 134.051C136.3 132.92 136.984 133.078 137.391 132.671ZM139.183 132.647C139.048 132.659 137.367 133.977 137.3 134.121C136.582 135.66 140.262 136.416 140.394 134.145C140.429 133.532 139.821 132.587 139.183 132.645V132.647Z" fill="#466179"/>
<path d="M39.4768 133.36C39.3336 133.13 40.5145 129.328 40.8185 128.884C41.1598 128.383 43.2527 126.706 43.8726 126.206C44.2374 125.911 44.663 125.582 45.0926 125.398C45.1005 125.747 44.9376 126.003 44.7945 126.3C43.8019 128.353 41.8757 131.809 40.0986 133.156C39.8848 133.32 39.7867 133.487 39.4749 133.36H39.4768Z" fill="#FCCC11"/>
<path d="M177.773 120.779C180.244 120.61 180.399 124.298 177.753 124.121C175.483 123.969 175.85 120.911 177.773 120.779ZM178.536 122.538C178.6 122.127 178.326 121.74 177.92 121.674C177.514 121.609 177.135 121.888 177.07 122.3C177.006 122.713 177.28 123.098 177.686 123.164C178.092 123.229 178.471 122.95 178.536 122.538Z" fill="#466179"/>
<path d="M172.215 120.096C172.314 119.466 171.892 118.874 171.273 118.773C170.654 118.673 170.071 119.102 169.972 119.731C169.873 120.361 170.295 120.953 170.914 121.053C171.534 121.154 172.116 120.725 172.215 120.096Z" fill="#758898"/>
<path d="M135.781 140.741C135.881 140.015 136.272 139.082 137.109 139.148C137.786 140.242 136.915 141.088 135.781 140.741Z" fill="#758898"/>
<path d="M145.09 128.153C145.358 128.709 144.234 129.708 143.881 128.955C143.475 128.091 144.799 127.553 145.09 128.153Z" fill="#758898"/>
<path d="M142.377 137.077L142.152 137.883L143.252 138.2L143.478 137.395L142.377 137.077Z" fill="#758898"/>
<path d="M14.9298 27.5078C15.0456 27.5935 15.0357 27.6593 14.8984 27.7052L14.9298 27.5078Z" fill="#FDFDFD"/>
<path d="M152.797 125.958C152.82 127.222 153.793 125.685 154.072 125.464C155.347 124.451 156.357 124 157.877 123.476C157.971 123.444 158.05 123.193 158.246 123.149C158.817 123.021 160.247 123.265 160.839 123.43C163.032 124.042 164.142 126.56 163.679 128.734C167.985 126.457 170.776 131.136 168.391 134.747C168.106 135.176 167.467 135.493 167.365 135.73C167.222 136.059 167.632 136.805 167.469 137.518C167.202 138.677 165.474 139.985 164.495 140.567C164.093 140.806 163.006 141.041 162.783 141.301C162.44 141.699 163.199 143.163 161.531 144.329C159.725 145.593 158.84 144.07 157.55 144.507C156.243 144.949 155.151 147.517 153.53 148.229C151.897 148.947 152.259 147.246 150.939 147.465C150.551 147.529 149.504 149.822 147.848 150.34C146.193 150.859 145.673 149.882 145.186 149.95C144.902 149.99 144.366 150.933 143.599 151.102C142.717 151.299 141.977 150.859 141.267 150.951C141.028 150.982 139.523 152.007 138.594 152.243C136.069 152.883 133.272 153.086 130.84 153.249C132.537 152.709 134.257 151.684 135.875 151.068C136.242 150.929 136.909 151.03 137.087 150.847C137.319 150.608 137.358 149.415 137.568 148.881C138.28 147.085 140.675 146.714 142.305 147.242C141.964 146.151 141.214 146.389 141.293 144.943C141.363 143.625 141.681 143.432 142.436 142.626C143.85 142.15 145.182 142.798 146.5 143.286C146.561 143.308 146.636 143.294 146.695 143.318C146.808 143.364 146.969 143.845 147.371 143.426C147.593 143.197 147.832 142.23 148.089 141.793C149.078 140.112 150.094 139.879 151.865 140.728C152.067 140.326 151.64 140.232 151.573 140.076C151.471 139.843 151.461 139.578 151.298 139.327C151.067 138.966 150.374 138.645 150.478 138.188C150.508 138.059 150.684 138.128 150.688 138.118C152.52 137.871 150.633 135.351 150.608 134.077C150.6 133.744 150.631 132.293 150.649 132.061C150.88 129.214 151.232 128.147 152.801 125.956L152.797 125.958Z" fill="#466179"/>
<path d="M150.687 138.124C150.724 138.01 150.775 137.739 150.636 137.695C147.527 138.058 147.703 132.276 150.646 132.066C150.626 132.298 150.597 133.751 150.605 134.082C150.632 135.356 152.519 137.876 150.685 138.124H150.687Z" fill="#758898"/>
<path d="M146.692 143.323C147.373 142.35 146.425 141.698 146.763 140.432C147.304 138.404 148.891 137.854 150.513 139.206L151.568 140.081C151.637 140.236 152.065 140.33 151.861 140.733C150.089 139.882 149.073 140.117 148.085 141.798C147.828 142.234 147.588 143.201 147.367 143.431C146.965 143.849 146.804 143.369 146.69 143.323H146.692Z" fill="#758898"/>
<path d="M146.498 143.289C145.18 142.801 143.848 142.153 142.434 142.629C142.698 142.348 142.61 142.164 143.163 141.851C144.503 141.098 147.051 141.195 146.498 143.289Z" fill="#758898"/>
<path d="M152.796 125.958C152.859 125.873 152.845 125.59 152.994 125.406C156.386 121.195 164.196 120.182 165.821 126.461C166.419 126.511 166.709 126.082 167.354 126.096C175.242 126.266 173.969 137.766 168.198 140.244L166.527 140.896C167.429 141.528 170.834 139.369 171.256 139.851C171.281 139.881 171.103 140.657 171.579 140.306C172.056 139.955 171.275 139.885 171.256 139.851C171.079 139.554 172.356 138.182 172.609 137.788C173.198 136.865 173.151 135.455 174.349 136.272C175.795 137.257 174.904 139.213 175.253 139.694C175.648 140.236 175.816 138.781 175.908 138.577C177.342 135.397 184.066 136.896 182.85 141.837C182.23 144.351 179.335 146.174 177.038 146.885C176.391 147.087 173.57 147.382 173.286 147.637C173.131 147.775 173.353 148.516 173.102 149.037C172.494 150.289 169.714 150.775 168.47 150.951C166.774 151.19 165.12 150.819 163.781 152.055C163.643 152.508 163.861 152.338 164.151 152.337C166.325 152.323 171.627 151.752 173.355 150.48L174.871 150.931C172.594 152.813 168.778 153.16 165.875 153.555C157.007 154.761 148.193 154.572 139.295 154.679C138.754 154.685 135.994 154.905 135.645 155.03C135.366 155.132 135.57 155.668 135.06 155.941C134.544 156.218 131.277 156.771 130.449 156.914C125.106 157.835 119.629 157.993 114.274 158.834L114.898 159.109C123.05 159.082 131.22 158.962 139.37 159.105C142.712 159.163 146.978 158.986 150.201 159.417C150.737 159.488 152.765 159.811 151.915 160.619C151.249 161.251 146.782 162.335 145.635 162.613C125.671 167.458 99.3787 168.207 78.7633 167.958C62.5653 167.761 40.6985 167.015 25.3144 162.302C20.4028 160.796 15.5403 158.336 23.5922 156.103C25.3458 155.616 27.1622 155.507 28.9138 155.044C32.6269 158.834 38.7801 163.783 44.2978 163.54C47.5029 163.398 50.7943 161.622 53.5365 160.055C53.6836 160.425 54.223 160.378 54.5466 160.397C65.2133 161.01 77.5335 160.318 88.3217 159.997C92.1093 159.885 95.8892 159.502 99.6807 159.484C99.769 159.139 99.0609 159.169 98.8432 159.151C96.9562 158.988 95.0026 159.151 93.1019 159.022C90.4793 158.84 87.4802 158.615 84.8871 158.302C83.9475 158.188 83.0119 157.953 82.0743 157.835L84.1849 157.078C96.5855 154.402 109.496 153.347 122.173 152.747C123.515 152.683 125.21 152.528 126.502 152.572C126.822 152.582 127.371 152.554 127.514 152.917C127.459 152.937 127.328 153.156 127.144 153.228C126.814 153.353 125.671 153.527 125.6 153.722C126.032 155.499 126.232 154.484 126.846 154.271C127.926 153.898 129.76 153.327 130.835 153.256C133.267 153.092 136.067 152.889 138.589 152.249C139.517 152.014 141.023 150.989 141.263 150.957C141.973 150.863 142.712 151.304 143.595 151.108C144.364 150.937 144.897 149.994 145.182 149.956C145.668 149.888 146.115 150.889 147.843 150.347C149.571 149.804 150.546 147.535 150.935 147.472C152.257 147.252 151.894 148.953 153.526 148.235C155.144 147.523 156.237 144.955 157.545 144.513C158.836 144.076 159.72 145.599 161.527 144.335C163.194 143.167 162.435 141.706 162.778 141.307C163.002 141.048 164.09 140.812 164.491 140.573C165.469 139.991 167.197 138.683 167.464 137.525C167.629 136.811 167.219 136.067 167.36 135.736C167.462 135.499 168.102 135.184 168.386 134.753C170.769 131.144 167.978 126.463 163.675 128.74C164.138 126.567 163.027 124.048 160.834 123.436C160.242 123.271 158.812 123.026 158.241 123.155C158.045 123.199 157.967 123.45 157.873 123.482C156.352 124.007 155.342 124.457 154.067 125.47C153.789 125.691 152.818 127.229 152.792 125.964L152.796 125.958Z" fill="#072948"/>
<path d="M93.5987 146.398L79.6113 153.303C80.494 154.118 81.7336 153.76 82.7811 153.909C84.8034 154.198 86.9885 154.523 88.9853 154.926C89.2167 154.972 89.7287 154.896 89.6287 155.229L64.0664 158.742L73.2384 154.685C71.4083 153.877 69.384 154.876 67.5343 154.366L72.7127 151.786L77.3085 148.39L76.4847 150.474L77.283 150.516L93.5987 146.398ZM79.3053 153.353L79.2739 153.55C79.4093 153.504 79.421 153.439 79.3053 153.353Z" fill="#FCCC11"/>
<path d="M79.3048 153.352C79.4206 153.437 79.4107 153.503 79.2734 153.549L79.3048 153.352Z" fill="#FDFDFD"/>
<path d="M98.7194 72.186C98.8921 72.3076 98.2762 72.503 98.0977 72.3874C98.3017 72.2039 98.4468 72.0743 98.7194 72.186Z" fill="#FDFDFD"/>
<path d="M28.9151 155.042C24.8705 150.911 16.2282 140.833 22.1028 135.282C26.8301 130.814 36.5983 134.572 41.1235 137.987C41.3196 138.113 41.4805 138.125 41.7021 138.065C42.1258 137.95 44.2325 136.159 44.8523 135.742C52.4472 130.632 60.0225 125.414 68.0765 121.078C68.6139 120.763 67.9745 120.633 67.8156 120.42C67.4017 119.866 66.9525 119.411 66.5583 118.903C61.6761 112.59 58.316 104.842 57.1176 96.8911C50.7721 100.757 43.9892 104.547 36.2884 103.802C26.9909 102.902 12.2188 96.2272 15.4337 84.39C17.1324 78.1354 24.9549 72.7102 31.1473 75.9183C31.7711 76.2413 32.2693 76.981 32.5772 77.1265C33.6973 77.6629 34.627 77.1843 36.0079 78.255C38.705 80.3425 38.8913 83.8656 36.9102 86.5453L39.415 87.7475C43.3969 86.0408 47.3297 84.2324 51.1075 82.0971C36.3139 79.1084 20.6298 68.3239 20.618 51.4942C20.6082 36.3133 31.1355 24.3086 44.5365 19.1048C43.9029 18.5027 42.9712 14.9976 42.6162 14.6965C42.2965 14.4273 40.3664 14.6945 39.7897 14.6008C34.2465 13.7096 32.3046 7.53077 36.0236 3.31586C42.2474 -3.73423 55.0756 2.92308 48.6792 11.4665C48.3771 11.8693 47.4827 12.4654 47.5219 12.8921L50.3425 17.0911C60.3285 14.4772 71.2403 14.529 81.0204 18.072L85.8398 12.5013C78.8294 3.0786 91.6792 -4.28851 98.9701 2.87124C104.282 8.08704 100.339 15.9626 93.3464 15.7891C92.7305 15.7732 90.6415 15.2986 90.414 15.3983C90.106 15.5319 87.5816 19.6491 87.0363 20.2612C92.7639 22.9668 98.2757 26.761 102.412 31.6438C103.536 32.9717 105.062 34.9595 105.931 36.4469C106.153 36.8277 106.616 37.7529 106.845 38.2094C107.379 39.2761 108.577 41.9438 108.876 42.9766C108.982 43.3475 109.182 44.8887 109.278 45.4629C109.666 47.7358 109.809 50.0686 109.582 52.3714C109.531 52.8938 109.415 53.4242 109.335 53.9446C108.572 58.8772 106.802 62.7811 103.789 66.6929L98.9485 72.0224L106.153 69.5281C116.837 65.6562 131.953 73.1509 134.534 84.5275C136.67 93.9463 127.477 101.347 118.842 97.9897C115.566 96.7157 112.799 92.8955 113.709 89.2489C113.895 88.5052 114.435 87.8731 114.423 87.0676C113.454 86.8284 111.39 84.8944 110.596 85.1117L96.681 91.6534C96.526 91.8448 96.6418 92.1538 96.6967 92.3751C97.1106 94.026 98.8484 96.9689 99.5879 98.7693C102.603 106.106 105.863 115.222 101.671 122.763C102.363 123.05 103.313 125.387 103.713 125.412C105.347 124.918 106.997 124.453 108.597 123.853C114.58 121.608 118.95 118.061 124.005 124.802C128.183 130.373 133.422 144.224 125.009 148.317C119.854 150.826 114.397 147.165 111.938 142.539C108.952 143.251 105.971 144.013 102.887 144.174C95.765 144.545 89.5058 142.42 84.1607 137.635L62.9452 153.926C59.795 155.954 56.7919 158.197 53.5398 160.057C50.7976 161.626 47.5062 163.4 44.3011 163.542C38.7834 163.785 32.6302 158.837 28.9171 155.046L28.9151 155.042ZM85.9045 9.78975C86.3655 10.8744 86.9676 11.5004 87.4325 12.5252C86.0477 14.0764 84.7198 15.6854 83.3448 17.2406C83.1447 17.4679 82.1306 18.0082 82.3542 18.4907C82.4346 18.6622 85.7064 19.7329 85.9143 19.6431C87.0206 17.6314 89.0213 15.8908 89.4784 13.5979C92.4559 14.8381 96.681 14.7284 98.8288 11.951C101.547 8.43795 99.5624 4.27488 95.9788 2.55024C95.2569 2.20332 94.9176 2.02786 94.1055 1.84244C88.7879 0.622232 83.3801 3.84622 85.9084 9.78975H85.9045ZM37.1593 11.7517C37.5987 12.1404 37.6673 12.2421 38.2283 12.5312C40.0015 13.4464 41.4452 13.4863 43.3714 13.1493C43.4204 13.6019 43.7539 13.9189 43.9127 14.2619C44.4482 15.4262 44.7778 16.7501 45.3231 17.9205C45.4172 18.1199 45.4388 18.5445 45.5937 18.6821C45.9429 18.9892 48.2241 17.5955 48.9244 17.6892C49.2284 17.0133 48.6027 16.8817 48.3889 16.5348C47.5415 15.1571 46.7098 13.7674 45.8056 12.4256C45.8017 12.1245 47.0727 11.3708 47.363 11.0598C50.4681 7.72417 49.0617 3.04471 44.6405 2.07771C44.1834 1.97802 43.544 1.84643 43.0928 1.82649C37.8164 1.57726 32.5871 7.71021 37.1632 11.7556L37.1593 11.7517ZM78.5214 18.8775C75.4968 18.1059 72.3368 17.2924 69.1886 16.9495C66.9702 16.7083 64.4732 16.784 62.5431 16.7262C53.987 16.469 41.1215 21.1445 34.4407 26.5477C19.3057 38.7876 17.0951 60.9847 33.7502 72.9615C35.4567 74.1897 37.6026 75.4338 39.517 76.2831C40.027 76.7198 40.1486 76.9351 40.8097 76.8972C42.0258 77.8503 43.6185 78.3786 45.0543 78.903C52.3197 81.5568 60.4168 82.5975 68.1078 82.5457L66.0345 83.1139C63.1139 83.3532 60.1167 83.4588 57.1882 83.1877C55.6915 83.0481 53.8674 82.2805 52.5786 82.8447C51.7784 83.1957 51.3723 83.6662 50.8133 83.9693C48.2967 85.339 45.5957 86.5712 42.9791 87.7435C42.1827 88.1004 40.5135 88.559 39.9132 88.9637C39.7132 89.0993 39.619 89.1173 39.6367 89.4123C39.7426 89.4622 39.9839 89.4323 40.0231 89.4762C40.3919 89.8889 40.7214 90.81 40.5174 91.3703C39.9387 91.3862 40.2565 90.9097 39.9741 90.4691C39.3366 89.4742 37.5104 88.2121 36.3865 87.8871C36.004 87.7754 36.1491 87.8392 36.0668 88.1244C35.8961 88.7125 35.8922 89.1392 35.6078 89.7672L35.6215 87.1474C35.5254 87.0537 33.254 87.5621 33.0558 87.7455C32.9656 89.201 30.8884 89.8211 30.4294 90.5428C30.1489 90.9855 30.0587 91.7311 29.6781 92.3692C28.3836 94.5444 26.0337 94.8494 23.8407 93.9044C23.2739 93.6611 22.7286 93.2484 22.4461 92.6702C24.7077 93.5854 28.0305 94.3012 29.0171 91.2048C29.1485 90.7901 29.4977 89.2947 28.7406 89.2548C28.7641 89.207 28.7582 89.1252 28.7719 89.0574C28.7935 88.9478 28.7366 88.8282 28.6091 88.8302C28.2619 87.4823 26.7202 86.627 25.4335 86.296C25.1628 85.991 25.5119 85.9411 25.7826 85.9511C26.6594 85.979 27.648 86.2063 28.3365 86.7706C28.5503 86.944 29.278 87.7854 29.4565 88.0326C29.9037 88.6567 29.7233 89.5998 30.6491 89.1731C32.8244 88.1702 32.4223 85.0519 31.2473 83.411C30.3882 82.2127 29.3722 81.9555 28.1384 81.4371C27.954 81.3594 27.5656 81.2836 27.6558 81.0144C29.3643 80.7612 30.5961 81.473 31.877 82.5018C32.3576 82.4699 32.2928 81.1759 32.9421 81.469C32.9892 82.113 32.4968 82.7132 32.4596 83.2874C32.4321 83.738 32.7518 84.2344 32.8342 84.6791C32.9166 85.1237 32.844 86.308 33.2618 86.5373C35.2017 87.598 37.1809 84.2923 37.0553 82.5257C37.0161 81.9635 36.7435 81.8658 36.6807 81.6744C36.2707 80.4143 35.4116 79.0605 34.0327 78.6618C32.3987 78.1892 32.3066 77.9759 30.8178 77.292C22.6854 73.5596 14.0293 83.1059 17.1167 91.2028C17.3697 91.8667 17.4992 92.1319 17.868 92.736C21.7851 99.166 32.4733 102.833 39.6014 102.458C43.3518 102.26 47.3493 100.719 50.6858 99.0404C51.7156 98.522 56.7782 95.7267 57.0273 94.9531C57.2764 94.1795 56.9528 91.8867 57.0764 90.8359C57.1391 90.3056 57.1372 89.4303 57.7099 89.3246C57.708 89.518 57.6119 89.7373 57.6197 89.9148C57.861 95.1565 58.9221 99.9915 60.6188 104.926C61.882 108.601 63.3375 111.53 65.4206 114.784C65.5343 114.961 65.6501 115.095 65.7462 115.24C65.7972 115.318 65.856 115.392 65.909 115.467C66.4994 116.347 68.7728 120.045 69.628 120.111C70.291 120.161 70.8069 119.549 71.207 119.353C73.5843 118.199 81.3578 114.359 83.6625 114.923C83.69 115.416 83.3624 115.292 83.0662 115.394C81.5108 115.93 80.4005 116.51 78.9412 117.18C66.3268 122.97 55.6131 130.251 44.2737 138.173C44.0755 138.312 42.2278 138.982 42.4789 139.491C43.2635 139.654 46.8354 143.913 46.2783 144.348L43.5754 141.73C43.3635 141.411 42.828 141.307 42.6162 141.132C40.6508 139.493 38.8109 137.946 36.3512 136.785C31.8358 134.656 22.1538 132.355 21.5634 139.929C21.5438 140.175 21.5811 140.669 21.6027 140.944C22.1068 147.737 34.7114 160.105 41.0784 161.656C47.0963 163.121 54.0419 158.276 58.9025 154.977C68.4727 148.479 77.2229 140.799 86.44 133.826C89.7667 131.31 93.7525 129.017 96.8556 126.35C107.581 117.124 99.5683 102.502 95.204 92.1239C95.0078 91.8607 94.592 91.8647 94.3135 91.6933C93.5544 91.2247 94.5469 91.2626 94.8431 91.127C99.9959 88.7723 105.117 86.304 110.253 83.9154C110.512 83.7938 110.635 83.407 110.772 83.407L116.78 86.7526C117.675 86.0927 118.142 85.8036 119.238 85.6062C119.85 85.4965 120.962 85.3849 121.574 85.4028C121.784 85.4088 122.486 85.3609 122.396 85.7138C120.911 86.1684 118.085 86.3718 117.288 87.911C116.559 88.2739 116.076 87.4385 115.384 87.4006C115.284 88.1862 115.099 88.9737 115.011 89.7593C114.997 89.8909 114.96 90.0205 114.948 90.1521C114.907 90.6645 114.895 90.6645 114.988 91.1669C115.127 91.9345 115.262 92.1319 115.739 92.7001C117.292 94.5544 120.331 94.7916 120.633 91.8807C120.762 91.8249 120.941 91.4859 121.366 91.3523C122.516 90.9934 123.891 91.45 125.044 91.5916C124.566 92.7998 123.087 92.1399 122.18 92.1339C121.325 92.1279 120.727 94.0101 120.013 94.4946C119.825 94.6222 118.854 94.9272 118.618 94.9392C117.469 94.989 115.378 94.1955 117.881 95.9082C123.073 99.4591 131.456 96.3647 133.01 90.16C134.328 84.8924 132.455 81.3374 129.016 77.7147C123.102 71.4801 117.151 69.0337 108.505 70.549C106.8 70.848 105.79 71.1252 104.162 71.6595C97.9187 73.7052 88.7605 78.4823 83.8292 82.8707C83.2663 83.3711 82.5445 84.4019 82.009 85.0021C81.5696 84.9861 81.5363 84.9303 81.7677 84.5435L86.0046 79.8062C85.3043 78.9708 79.4414 81.6285 78.086 80.9367L87.2462 77.3458C101.171 71.6655 112.591 57.2383 106.616 41.4175C102.342 30.0986 90.514 21.9918 79.2884 19.0071C79.0393 18.9413 78.7647 18.9453 78.5136 18.8815L78.5214 18.8775ZM113.197 141.712C112.977 141.929 114.219 143.548 114.448 143.831C117.041 147.013 121.38 149.053 125.138 146.577C131.482 142.396 126.078 129.364 122.194 124.914C117.897 119.987 113.475 123.516 108.768 125.291C107.752 125.674 105.147 126.212 104.45 126.679C103.666 127.205 105.576 128.052 105.494 128.858L104.052 127.921C103.864 128.194 104.093 129.271 104.029 129.326C103.68 129.631 103.65 129.003 103.603 128.866C103.03 127.203 102.473 125.488 101.165 124.218C101.02 124.079 101.004 123.917 100.71 123.949C98.1462 127.39 94.0428 129.273 90.7161 131.9C88.8213 133.398 87.0834 135.132 85.2062 136.656C86.7107 137.836 88.2642 139.034 89.9472 139.953C98.5503 144.655 108.497 142.677 117.083 139.118C116.445 140.5 114.542 141.289 113.199 141.714L113.197 141.712Z" fill="#07090D"/>
<path d="M108.509 70.5508C108.513 70.8459 107.939 71.0652 108.515 71.1649C109.261 71.2925 110.308 71.117 111.093 71.1748C118.301 71.7132 123.901 73.7209 129.027 78.9287C129.968 79.8858 131.214 83.2354 131.434 84.7227C132.02 88.6964 130.245 92.058 127.609 94.8273C127.191 95.266 125.1 96.4822 124.529 96.5081C123.762 96.544 121.534 95.906 121.195 95.2161C120.704 94.2172 122.901 94.6639 123.127 93.8025C123.317 93.0788 122.301 92.8335 122.183 92.1397C123.087 92.1477 124.568 92.8056 125.047 91.5974C123.894 91.4578 122.519 91.0012 121.369 91.3581C120.941 91.4917 120.763 91.8307 120.635 91.8865C120.318 92.0241 120.082 92.1018 119.653 92.3012C118.909 92.6441 118.019 93.2044 117.246 92.9133C116.82 92.7518 115.757 91.398 115.742 92.7059C115.265 92.1357 115.13 91.9403 114.99 91.1727C115.028 90.8557 115.239 90.3772 114.951 90.1579C114.961 90.0263 114.998 89.8967 115.014 89.7651C115.318 89.7392 116.222 89.6136 116.383 89.803C116.571 90.0263 116.163 91.392 116.508 91.6213C116.762 90.5167 116.773 88.9177 117.291 87.9168C118.087 86.3776 120.914 86.1742 122.399 85.7196C122.489 85.3667 121.787 85.4146 121.577 85.4086C120.965 85.3907 119.853 85.5023 119.241 85.612C118.472 84.8962 117.364 84.4197 116.43 83.9412C115.541 83.4846 111.314 81.6623 111.122 81.0601C111.059 80.8607 111.254 79.8459 110.763 80.1988C110.671 80.2646 110.079 81.8257 109.292 81.8576C104.7 83.5344 100.354 86.1683 95.8304 87.9427C94.165 88.5967 91.7956 89.6714 90.1008 89.147L92.9587 95.4773C95.6911 103.325 100.116 112.915 95.7656 120.982C92.4919 127.053 80.7543 135.306 75.0149 139.65C68.6283 144.487 61.8023 149.651 55.0057 153.836C53.7189 154.63 49.1133 157.485 47.96 157.66C46.8066 157.836 43.529 154.432 42.6227 154.438C42.4796 154.438 42.4992 154.972 42.1598 154.779C41.899 154.632 39.147 150.656 38.5409 149.962C36.4695 147.583 29.6317 141.046 26.7228 140.573L23.4314 140.039C23.0999 139.985 21.978 140.789 21.6014 140.952C21.5817 140.677 21.5425 140.182 21.5621 139.937C23.6197 137.752 25.6067 136.081 28.7903 136.273C33.9019 136.58 37.9838 138.867 42.3364 141.257C42.5953 141.399 42.866 141.839 42.6129 141.139C42.8248 141.315 43.3603 141.419 43.5721 141.738L46.2751 144.355C46.8302 143.921 43.2583 139.662 42.4756 139.499C42.2246 138.988 44.0703 138.318 44.2704 138.181L44.6568 138.845C47.8737 137.325 50.967 135.569 53.9994 133.705C61.7101 128.967 69.7954 123.696 77.3197 118.641C77.7414 118.358 78.1416 118.031 78.5515 117.73C78.6555 117.654 79.3087 117.333 78.934 117.188C80.3934 116.518 81.5055 115.938 83.059 115.401C83.3552 115.3 83.6828 115.421 83.6553 114.931C83.7534 114.955 83.9456 115.262 84.0104 115.19L83.8515 114.361C81.99 114.863 79.903 114.602 78.0611 114.885C75.2052 115.324 72.3983 117.545 69.3285 116.346C68.132 115.88 66.6511 113.816 65.4154 114.791C63.3322 111.537 61.8768 108.609 60.6136 104.934C61.0706 104.97 61.0569 105.337 61.2256 105.614C62.1946 107.193 63.1596 109.041 64.3052 110.479C64.5464 110.782 65.7076 112.124 65.9195 112.249C66.1313 112.375 66.3137 112.257 66.251 112.006C66.1313 111.535 65.076 109.928 64.772 109.268C61.8768 103.014 59.4504 96.4722 58.0499 89.6953L57.6164 89.9246C57.6086 89.7471 57.7047 89.5278 57.7067 89.3344C57.1359 89.4401 57.1359 90.3154 57.0731 90.8457L55.5588 92.684C43.8271 102.771 30.8694 101.477 18.6493 92.9432C18.3708 92.7498 18.2923 92.4826 17.8667 92.7458C17.4979 92.1417 17.3684 91.8745 17.1154 91.2126C16.882 85.594 20.7795 78.841 26.5502 77.9179C27.7742 77.7225 29.0041 77.868 30.1986 77.7424C30.5399 77.7065 30.8361 77.7963 30.8184 77.3018C32.3072 77.9857 32.3994 78.197 34.0333 78.6715C35.4123 79.0703 36.2694 80.4241 36.6814 81.6842C36.089 81.4768 36.2832 81.9394 36.191 82.3063C36.0988 82.6731 36.1125 83.0061 35.9281 83.3889C35.6908 83.8774 33.4331 85.594 32.8349 84.6908C32.7525 84.2462 32.4308 83.7518 32.4602 83.2992C32.4955 82.7269 32.9898 82.1248 32.9427 81.4808C32.2935 81.1877 32.3582 82.4817 31.8777 82.5136C30.5968 81.4848 29.3669 80.773 27.6565 81.0262C27.5663 81.2934 27.9547 81.3712 28.139 81.4489C29.3728 81.9693 30.3889 82.2265 31.248 83.4228C30.536 84.0967 30.738 86.0885 29.9907 86.3397C29.5101 86.5012 28.3862 86.0646 28.3371 86.7823C27.6467 86.2181 26.6601 85.9928 25.7833 85.9629C25.5106 85.9549 25.1634 86.0028 25.4341 86.3078C26.7209 86.6388 28.2626 87.4941 28.6098 88.8419C28.6314 88.9277 28.7118 89.0054 28.7726 89.0692C28.7589 89.137 28.7648 89.2188 28.7412 89.2666C28.2155 90.3752 26.8739 92.3291 25.4341 91.9782C25.0222 91.8785 24.8123 91.4798 24.5613 91.4498C23.9316 91.3761 22.5684 92.6202 21.5739 91.9363C21.3385 92.3869 22.1604 92.5664 22.4487 92.682C22.7292 93.2622 23.2765 93.6729 23.8434 93.9162C23.5393 94.6718 24.2376 94.7556 24.7751 94.8832C26.4914 95.2899 28.5843 95.276 29.8926 93.8763C30.4556 93.2742 31.3245 90.9474 32.4955 91.9862C32.7054 92.1716 32.0385 93.6929 32.6995 93.1366C32.727 93.1127 32.7643 92.686 32.9957 92.4767C33.9588 91.6034 35.0102 91.1129 35.6123 89.777C35.8948 89.149 35.9007 88.7203 36.0713 88.1341C36.1537 87.851 36.0086 87.7872 36.3911 87.8969C37.515 88.2239 39.3412 89.4859 39.9786 90.4789C40.2611 90.9195 39.9433 91.396 40.522 91.3801C40.726 90.8178 40.3964 89.8967 40.0277 89.4859C40.5651 88.8459 41.5125 89.2068 42.2363 89.1011C44.1704 88.82 46.7399 87.4981 48.4896 86.5889C49.2801 86.1782 50.9493 85.3827 51.575 84.9062C51.8339 84.7108 51.8477 84.6569 51.9516 84.3619C51.5515 84.2861 51.1415 84.2821 50.8218 83.9771C51.3808 83.674 51.7869 83.2015 52.5872 82.8526C51.9732 83.2314 52.1282 83.8594 51.9516 84.3639C58.8836 85.6798 61.3158 87.1871 68.7205 85.6798C71.4254 85.1295 74.3676 83.5863 77.0588 84.2343C79.2067 84.7527 79.6401 85.919 82.1744 85.3448C88.0373 84.0189 95.8264 77.9618 101.201 74.8215C102.78 73.8984 104.875 73.1208 106.289 72.1159C106.53 71.9445 106.795 71.8448 106.781 71.4879L104.173 71.6673C105.801 71.133 106.811 70.8558 108.515 70.5568L108.509 70.5508ZM107.095 71.3284L107.064 71.5257C107.199 71.4799 107.211 71.4141 107.095 71.3284ZM66.2745 112.506L66.1686 112.584L66.7355 113.38L66.8414 113.302L66.2745 112.506Z" fill="#3151C4"/>
<path d="M21.6055 140.944C21.984 140.781 23.106 139.977 23.4355 140.031L26.7269 140.566C29.6358 141.038 36.4736 147.576 38.545 149.954C39.1491 150.648 41.9031 154.624 42.1639 154.771C42.5052 154.965 42.4837 154.43 42.6269 154.43C43.5331 154.424 46.8205 157.826 47.9641 157.652C49.1076 157.479 53.7211 154.622 55.0098 153.828C61.8064 149.643 68.6304 144.477 75.019 139.642C80.7584 135.298 92.496 127.046 95.7697 120.974C100.12 112.907 95.6932 103.315 92.9628 95.4696L90.1049 89.1393C91.8016 89.6637 94.1711 88.589 95.8345 87.935C100.358 86.1605 104.702 83.5287 109.296 81.8499C110.083 81.816 110.675 80.2569 110.767 80.1911C111.258 79.8382 111.064 80.853 111.126 81.0524C111.319 81.6525 115.546 83.4769 116.434 83.9335C117.368 84.412 118.474 84.8885 119.245 85.6043C118.148 85.8017 117.68 86.0908 116.787 86.7507L110.779 83.4051C110.642 83.4051 110.52 83.7919 110.259 83.9135C105.124 86.3021 100.001 88.7704 94.8498 91.1251C94.5536 91.2607 93.5611 91.2228 94.3202 91.6914C94.5987 91.8628 95.0126 91.8568 95.2107 92.122C99.5731 102.5 107.588 117.122 96.8623 126.348C93.7612 129.015 89.7734 131.308 86.4467 133.824C77.2316 140.799 68.4814 148.477 58.9093 154.975C54.0487 158.274 47.103 163.119 41.0851 161.654C34.7201 160.105 22.1135 147.735 21.6094 140.942L21.6055 140.944ZM110.397 83.1599L110.365 83.3573C110.501 83.3114 110.512 83.2456 110.397 83.1599Z" fill="#1638AF"/>
<path d="M57.0795 90.832C56.9559 91.8808 57.2737 94.1916 57.0305 94.9492C56.7872 95.7069 51.7187 98.5181 50.6889 99.0365C47.3524 100.715 43.3549 102.257 39.6045 102.454C32.4764 102.829 21.7882 99.1621 17.8711 92.7321C18.2987 92.467 18.3772 92.7341 18.6537 92.9295C30.8739 101.463 43.8315 102.757 55.5633 92.6703L57.0775 90.832H57.0795Z" fill="#1638AF"/>
<path d="M78.9409 117.18C79.3136 117.325 78.6605 117.646 78.5585 117.722C78.1485 118.023 77.7484 118.352 77.3266 118.633C69.8023 123.685 61.717 128.959 54.0064 133.696C50.9719 135.561 47.8806 137.317 44.6638 138.836L44.2773 138.172C55.6148 130.251 66.3285 122.97 78.9449 117.18H78.9409Z" fill="#4E72F6"/>
<path d="M129.017 77.7149C132.455 81.3397 134.329 84.8926 133.01 90.1603C131.459 96.365 123.075 99.4614 117.881 95.9084C115.377 94.1957 117.47 94.9893 118.619 94.9394C118.854 94.9294 119.825 94.6244 120.014 94.4948C120.728 94.0083 121.326 92.1261 122.181 92.1341C122.299 92.828 123.315 93.0712 123.125 93.797C122.899 94.6583 120.702 94.2117 121.192 95.2106C121.532 95.9024 123.76 96.5384 124.527 96.5026C125.098 96.4766 127.189 95.2604 127.607 94.8218C130.243 92.0524 132.018 88.6908 131.431 84.7172C131.212 83.2298 129.966 79.8802 129.025 78.9232C128.989 78.5723 128.595 77.8525 129.017 77.7109V77.7149Z" fill="#1638AF"/>
<path d="M57.6231 89.9129L58.0565 89.6836C59.4571 96.4625 61.8834 103.002 64.7786 109.257C65.0846 109.917 66.1399 111.524 66.2576 111.994C66.3223 112.245 66.1458 112.369 65.9261 112.238C65.7064 112.106 64.555 110.772 64.3118 110.467C63.1682 109.029 62.2012 107.181 61.2322 105.602C61.0635 105.325 61.0773 104.958 60.6202 104.922C58.9235 99.9896 57.8624 95.1526 57.6211 89.9109L57.6231 89.9129Z" fill="#4E72F6"/>
<path d="M65.4238 114.782C66.6596 113.807 68.1405 115.871 69.337 116.337C72.4068 117.536 75.2156 115.315 78.0696 114.876C79.9115 114.593 81.9985 114.856 83.86 114.352L84.0188 115.181C83.9541 115.253 83.7639 114.946 83.6638 114.922C81.3591 114.358 73.5856 118.198 71.2083 119.352C70.8082 119.547 70.2923 120.16 69.6293 120.11C68.7741 120.046 66.5027 116.345 65.9103 115.466L65.7475 115.239C65.6514 115.095 65.5356 114.96 65.4219 114.782H65.4238Z" fill="#1638AF"/>
<path d="M30.8229 77.2865C30.8405 77.781 30.5443 77.6913 30.203 77.7272C29.0104 77.8528 27.7786 77.7072 26.5546 77.9026C20.7839 78.8258 16.8884 85.5788 17.1198 91.1973C14.0344 83.1005 22.6885 73.5541 30.8209 77.2865H30.8229Z" fill="#4E72F6"/>
<path d="M21.5664 139.927C22.1568 132.355 31.8368 134.656 36.3541 136.783C38.8139 137.942 40.6518 139.491 42.6192 141.13C42.8722 141.828 42.6015 141.389 42.3426 141.247C37.99 138.857 33.9082 136.57 28.7965 136.263C25.613 136.071 23.626 137.742 21.5684 139.927H21.5664Z" fill="#4E72F6"/>
<path d="M129.018 77.7149C128.597 77.8565 128.991 78.5742 129.026 78.9272C123.901 73.7213 118.301 71.7116 111.092 71.1732C110.308 71.1154 109.26 71.2889 108.515 71.1633C107.938 71.0656 108.513 70.8443 108.509 70.5492C117.155 69.0339 123.104 71.4803 129.02 77.7149H129.018Z" fill="#4E72F6"/>
<path d="M23.8413 93.9051C26.0343 94.8502 28.3822 94.5452 29.6787 92.3699C30.0593 91.7319 30.1495 90.9842 30.43 90.5436C30.889 89.8218 32.9662 89.2018 33.0564 87.7463C33.2546 87.5628 35.526 87.0544 35.6221 87.1481L35.6084 89.768C35.0062 91.1038 33.9529 91.5943 32.9917 92.4676C32.7622 92.677 32.723 93.1036 32.6955 93.1276C32.0345 93.6838 32.7014 92.1626 32.4915 91.9771C31.3205 90.9384 30.4516 93.2651 29.8886 93.8673C28.5803 95.2669 26.4894 95.2809 24.7711 94.8741C24.2356 94.7465 23.5353 94.6628 23.8394 93.9071L23.8413 93.9051Z" fill="#1638AF"/>
<path d="M51.9449 84.3516C51.8409 84.6486 51.8272 84.7005 51.5683 84.8959C50.9425 85.3724 49.2733 86.1679 48.4828 86.5786C46.7332 87.4858 44.1656 88.8097 42.2296 89.0908C41.5058 89.1965 40.5584 88.8356 40.0209 89.4756C39.9817 89.4318 39.7404 89.4617 39.6345 89.4118C39.6188 89.1148 39.713 89.0968 39.9111 88.9632C40.5113 88.5585 42.1805 88.0999 42.9769 87.743C45.5935 86.5727 48.2945 85.3385 50.8111 83.9688C51.1328 84.2738 51.5408 84.2778 51.9409 84.3536L51.9449 84.3516Z" fill="#4E72F6"/>
<path d="M28.7418 89.2539C29.4989 89.2938 29.1498 90.7891 29.0184 91.2038C28.0337 94.3022 24.709 93.5844 22.4474 92.6693C22.159 92.5517 21.3391 92.3722 21.5725 91.9236C22.567 92.6075 23.9302 91.3633 24.5599 91.4371C24.8129 91.467 25.0228 91.8658 25.4328 91.9655C26.8725 92.3164 28.2142 90.3645 28.7398 89.2539H28.7418Z" fill="#1638AF"/>
<path d="M31.2507 83.4102C32.4276 85.0511 32.8278 88.1694 30.6525 89.1723C29.7266 89.5989 29.9071 88.6559 29.4599 88.0318C29.2814 87.7846 28.5536 86.9432 28.3398 86.7697C28.3869 86.0519 29.5128 86.4886 29.9934 86.3271C30.7407 86.0759 30.5387 84.0841 31.2507 83.4102Z" fill="#1638AF"/>
<path d="M36.6863 81.6709C36.7491 81.8623 37.0218 81.96 37.061 82.5223C37.1865 84.2888 35.2074 87.5945 33.2675 86.5338C32.8497 86.3045 32.9183 85.1023 32.8398 84.6756C33.4401 85.5788 35.6977 83.8641 35.9331 83.3736C36.1175 82.9908 36.1038 82.6618 36.196 82.291C36.2882 81.9201 36.094 81.4616 36.6863 81.6689V81.6709Z" fill="#1638AF"/>
<path d="M120.636 91.8828C120.334 94.7938 117.296 94.5565 115.742 92.7023C115.758 91.3943 116.821 92.7481 117.247 92.9096C118.018 93.2007 118.91 92.6405 119.653 92.2975C120.083 92.1001 120.318 92.0204 120.636 91.8828Z" fill="#3369DA"/>
<path d="M117.289 87.9128C116.771 88.9136 116.759 90.5127 116.506 91.6173C116.161 91.39 116.571 90.0222 116.381 89.7989C116.22 89.6095 115.318 89.7351 115.012 89.761C115.1 88.9735 115.284 88.1879 115.384 87.4023C116.077 87.4402 116.559 88.2756 117.289 87.9128Z" fill="#1638AF"/>
<path d="M114.992 91.1672C114.9 90.6628 114.912 90.6648 114.953 90.1523C115.239 90.3717 115.029 90.8502 114.992 91.1672Z" fill="#3369DA"/>
<path d="M28.7722 89.0593C28.7114 88.9955 28.631 88.9178 28.6094 88.832C28.7369 88.832 28.7938 88.9497 28.7722 89.0593Z" fill="#3369DA"/>
<path d="M65.9089 115.466C65.8559 115.388 65.7971 115.316 65.7461 115.238L65.9089 115.466Z" fill="#4883F7"/>
<path d="M107.094 71.3281C107.21 71.4139 107.2 71.4797 107.062 71.5255L107.094 71.3281Z" fill="#3369DA"/>
<path d="M66.2767 112.497L66.1719 112.574L66.7393 113.37L66.8441 113.293L66.2767 112.497Z" fill="#C9E2FB"/>
<path d="M113.196 141.712C114.539 141.287 116.442 140.5 117.079 139.116C108.494 142.673 98.5472 144.651 89.9441 139.951C88.2611 139.032 86.7076 137.834 85.2031 136.654C87.0803 135.13 88.8182 133.396 90.713 131.898C94.0397 129.271 98.1431 127.389 100.707 123.947C101.001 123.915 101.017 124.077 101.162 124.216C102.472 125.486 103.029 127.199 103.6 128.864C103.647 129.002 103.675 129.63 104.026 129.324C104.09 129.269 103.861 128.192 104.049 127.919L105.491 128.856C105.573 128.05 103.663 127.203 104.447 126.677C105.142 126.21 107.749 125.672 108.765 125.289C113.472 123.515 117.893 119.986 122.191 124.912C126.075 129.364 131.481 142.394 125.135 146.575C121.379 149.051 117.038 147.012 114.445 143.829C114.216 143.546 112.974 141.927 113.194 141.71L113.196 141.712ZM105.766 129.003L105.734 129.201C105.869 129.155 105.881 129.089 105.766 129.003Z" fill="#3151C4"/>
<path d="M105.766 129.004C105.881 129.09 105.872 129.155 105.734 129.201L105.766 129.004Z" fill="#07090D"/>
<path d="M110.395 83.1602C110.51 83.2459 110.501 83.3117 110.363 83.3575L110.395 83.1602Z" fill="#07090D"/>
<path d="M79.2925 19.0035C79.0826 19.5917 79.5318 19.3883 79.8712 19.5259C102.634 28.807 113.591 53.4325 91.8186 71.2691C80.4008 80.622 66.2505 83.7683 51.8864 80.307C49.2404 79.669 42.9499 76.77 40.8079 76.8956C40.1469 76.9335 40.0233 76.7182 39.5153 76.2815C28.8565 67.1559 20.1729 58.5765 24.957 42.7736C31.3829 21.5516 58.7027 14.968 77.7782 19.169C78.1333 19.2467 78.5471 19.4581 78.5197 18.8759C78.7708 18.9397 79.0434 18.9357 79.2945 19.0015L79.2925 19.0035ZM64.9834 21.3761C49.87 19.9705 30.7709 27.9876 26.8852 44.277C21.9265 65.0604 42.7302 77.6852 60.5504 78.058C74.222 78.3431 92.6523 70.7966 96.1163 55.9248C100.596 36.6846 81.9209 22.9512 64.9853 21.3761H64.9834Z" fill="#3151C4"/>
<path d="M79.2932 19.002C90.5188 21.9867 102.347 30.0955 106.621 41.4124C112.596 57.2332 101.176 71.6604 87.251 77.3407L78.0908 80.9316C79.4462 81.6234 85.3091 78.9657 86.0094 79.8011L81.7725 84.5384C81.5411 84.9271 81.5724 84.983 82.0138 84.9969C82.5493 84.3968 83.2711 83.366 83.8341 82.8656C88.7653 78.4772 97.9235 73.7 104.167 71.6544L106.776 71.475C106.789 71.8318 106.525 71.9315 106.283 72.103C104.869 73.1079 102.774 73.8855 101.195 74.8086C95.8227 77.9488 88.0317 84.004 82.1687 85.3319C79.6364 85.9041 79.203 84.7397 77.0532 84.2213C74.362 83.5714 71.4197 85.1166 68.7148 85.6669C61.3102 87.1742 58.8779 85.6669 51.946 84.3509C52.1205 83.8465 51.9656 83.2185 52.5815 82.8396C53.8682 82.2754 55.6924 83.045 57.191 83.1826C60.1195 83.4537 63.1167 83.3481 66.0374 83.1088L68.1107 82.5406C60.4196 82.5924 52.3226 81.5516 45.0572 78.8979C43.6214 78.3735 42.0267 77.8452 40.8125 76.8921C42.9545 76.7665 49.245 79.6655 51.891 80.3035C66.2571 83.7648 80.4073 80.6205 91.8232 71.2656C113.596 53.429 102.637 28.8035 79.8758 19.5224C79.5384 19.3848 79.0872 19.5882 79.2971 19L79.2932 19.002Z" fill="#1638AF"/>
<path d="M78.5204 18.8761C78.5479 19.4563 78.136 19.247 77.779 19.1692C58.7054 14.9683 31.3836 21.5498 24.9578 42.7739C20.1737 58.5768 28.8572 67.1561 39.516 76.2818C37.6016 75.4324 35.4557 74.1883 33.7492 72.9601C17.0941 60.9833 19.3047 38.7863 34.4397 26.5463C41.1205 21.1431 53.986 16.4696 62.5421 16.7248C64.4722 16.7826 66.9692 16.7069 69.1876 16.9481C72.3358 17.2911 75.4958 18.1045 78.5204 18.8761Z" fill="#4E72F6"/>
<path d="M64.9845 21.3761C81.9201 22.9492 100.596 36.6845 96.1155 55.9247C92.6534 70.7965 74.2212 78.3451 60.5496 78.058C42.7294 77.6851 21.9257 65.0603 26.8844 44.2769C30.7701 27.9895 49.8692 19.9724 64.9826 21.3761H64.9845ZM78.8249 35.871C79.1387 35.7514 80.806 35.4882 80.9021 35.2988C81.1081 34.8861 80.7334 34.9997 80.5314 35.0197C79.6683 35.1074 79.1289 35.5839 78.8563 35.6737C78.5836 35.7634 77.4852 35.7554 76.8967 35.9249C72.2735 37.2587 66.9049 39.9922 63.2741 43.2242C62.8897 43.5671 61.0988 45.4433 60.9851 45.7783C60.8477 46.179 61.2557 46.2069 61.3283 46.1391C61.3695 46.1013 61.2871 45.7663 61.5519 45.5589C61.7677 45.3895 62.4189 45.1781 62.7053 44.9508C63.023 56.6305 79.2721 54.4453 77.5656 42.973C77.2753 41.021 76.2396 39.1628 74.7312 37.9306C74.894 37.6655 78.2835 36.0804 78.8268 35.871H78.8249ZM46.315 46.9307C45.1793 46.0295 44.2927 44.8791 43.2001 43.916C40.1382 41.2164 36.1348 39.1209 32.2393 37.9845C32.2393 38.2975 32.5414 38.4131 32.7473 38.5647C33.8477 39.3821 35.3541 40.1797 36.5448 40.9034C32 44.8751 33.2161 54.4374 40.2344 54.1203C43.5983 53.9688 45.5559 50.0689 45.5127 47.0005C45.9619 47.1061 46.315 47.6504 46.315 46.9327V46.9307ZM46.5445 47.3673L46.5131 47.5647C46.6485 47.5189 46.6602 47.4531 46.5445 47.3673ZM46.215 56.3913C46.266 63.7085 51.4424 72.5192 59.7885 70.2682C66.8774 68.3561 67.05 57.0014 61.0105 54.8082C57.166 53.4125 50.2713 53.9588 46.4386 55.3824C45.144 55.8629 43.6336 56.9476 46.215 56.3913Z" fill="url(#paint0_linear_113_4741)"/>
<path d="M44.6363 2.07153C45.109 3.48514 46.1996 4.25076 46.484 5.84182C47.3353 10.613 42.4982 12.7165 38.5144 11.9688C35.3662 9.12163 36.9452 4.93264 40.3229 3.10233C41.0291 2.71952 41.7489 2.54805 42.4923 2.29085C42.7885 2.18917 43.1161 2.31079 43.0886 1.82031C43.5398 1.84224 44.1812 1.97184 44.6363 2.07153Z" fill="#4883F7"/>
<path d="M44.6348 2.07231C49.056 3.0393 50.4644 7.71876 47.3574 11.0544C47.067 11.3654 45.796 12.1191 45.7999 12.4202C46.7042 13.762 47.5358 15.1537 48.3832 16.5294C48.597 16.8783 49.2227 17.0079 48.9187 17.6838C48.2185 17.5901 45.9372 18.9858 45.5881 18.6767C45.4331 18.5391 45.4096 18.1165 45.3174 17.9151C45.7313 17.0338 46.9199 17.283 46.6355 16.1685C46.2471 14.6572 45.4194 14.087 43.909 14.2564C43.7521 13.9135 43.4167 13.5965 43.3677 13.1439C41.4434 13.4809 39.9978 13.441 38.2246 12.5258C38.0442 12.2846 37.7597 12.3085 37.9167 11.9735L38.1246 11.9038C38.2501 11.9357 38.3835 11.9436 38.511 11.9676C42.4948 12.7152 47.3338 10.6118 46.4806 5.8406C46.1961 4.24755 45.1056 3.48392 44.6328 2.07031L44.6348 2.07231Z" fill="#3369DA"/>
<path d="M43.0891 1.82186C43.1165 2.31433 42.7889 2.19071 42.4928 2.2924C41.7494 2.5496 41.0295 2.72106 40.3233 3.10387C36.9456 4.93419 35.3666 9.12317 38.5148 11.9703C38.3873 11.9464 38.252 11.9404 38.1284 11.9065C38.0049 11.8726 37.4968 11.2645 37.1614 11.749C32.5833 7.70358 37.8146 1.57064 43.091 1.81986L43.0891 1.82186Z" fill="#C9E2FB"/>
<path d="M45.3205 17.918C44.7752 16.7476 44.4456 15.4257 43.9102 14.2594C45.4225 14.0899 46.2502 14.6581 46.6366 16.1714C46.923 17.286 45.7344 17.0367 45.3185 17.918H45.3205Z" fill="#4883F7"/>
<path d="M38.1291 11.9066L37.9212 11.9764C37.7643 12.3114 38.0507 12.2874 38.2292 12.5287C37.6682 12.2396 37.5995 12.1379 37.1602 11.7491C37.4956 11.2646 37.9997 11.8727 38.1272 11.9066H38.1291Z" fill="#4883F7"/>
<path d="M95.9758 2.54964C96.5858 4.11876 97.951 5.42471 97.9667 7.25701C97.9922 10.4551 94.7283 12.6582 91.8468 12.722C91.3251 12.734 90.3483 12.403 90.0207 12.5665C89.8344 12.6602 89.8167 13.047 89.6774 13.1587C87.8768 14.5942 87.2805 15.8124 85.8133 17.2221C84.6305 18.3585 84.6815 17.4852 83.3438 17.238C84.7188 15.6828 86.0467 14.0738 87.4315 12.5227C86.9666 11.4978 86.3645 10.8718 85.9035 9.78715C85.7446 9.22889 86.388 9.23088 86.4115 9.13518C86.5371 8.62476 86.3743 7.60194 86.5783 6.77052C86.6351 6.54124 87.1549 5.20539 87.2275 5.16152C87.7493 4.83653 87.508 5.76963 87.5316 5.79755C88.3103 6.72068 91.1466 4.26032 87.6453 5.02594C88.4515 2.80086 91.3937 2.47188 93.4141 2.18477C93.7573 2.13692 94.1261 2.44197 94.1006 1.83984C94.9127 2.02726 95.252 2.20072 95.9738 2.54764L95.9758 2.54964ZM86.4508 9.47412L86.4194 9.67151C86.5547 9.62565 86.5665 9.55986 86.4508 9.47412Z" fill="#4883F7"/>
<path d="M95.9769 2.55078C99.5626 4.27542 101.546 8.43649 98.827 11.9516C96.6792 14.7269 92.4541 14.8366 89.4765 13.5985C89.0215 15.8913 87.0207 17.6319 85.9125 19.6437C85.7065 19.7334 82.4328 18.6627 82.3524 18.4913C82.1288 18.0087 83.1409 17.4704 83.3429 17.2411C84.6826 17.4884 84.6297 18.3617 85.8125 17.2252C87.2797 15.8156 87.876 14.5974 89.6766 13.1618C89.8159 13.0502 89.8335 12.6634 90.0199 12.5697C90.3474 12.4062 91.3262 12.7371 91.846 12.7252C94.7275 12.6594 97.9914 10.4562 97.9659 7.26015C97.9522 5.42585 96.585 4.1219 95.975 2.55278L95.9769 2.55078Z" fill="#3369DA"/>
<path d="M94.104 1.84186C94.1295 2.44398 93.7607 2.13893 93.4175 2.18678C91.3971 2.47389 88.4549 2.80287 87.6487 5.02796C91.15 4.26233 88.3156 6.72269 87.5349 5.79956C87.5094 5.76965 87.7527 4.83854 87.2309 5.16353C87.1583 5.20939 86.6385 6.54325 86.5817 6.77254C86.3757 7.60395 86.5405 8.62677 86.4149 9.13719C86.3914 9.2309 85.748 9.2309 85.9069 9.78916C83.3785 3.84563 88.7864 0.621647 94.104 1.84186Z" fill="#C9E2FB"/>
<path d="M86.4533 9.47266C86.569 9.55839 86.5592 9.62419 86.4219 9.67004L86.4533 9.47266Z" fill="#C9E2FB"/>
<path d="M46.5431 47.3672C46.6588 47.4529 46.649 47.5187 46.5117 47.5646L46.5431 47.3672Z" fill="#07090D"/>
<path d="M78.8544 35.6719L78.823 35.8693C78.2797 36.0766 74.8922 37.6617 74.7274 37.9289C76.2358 39.161 77.2715 41.0213 77.5618 42.9712C79.2683 54.4435 63.0193 56.6288 62.7015 44.9491C62.4151 45.1744 61.7639 45.3877 61.5481 45.5572C61.2833 45.7645 61.3657 46.0975 61.3245 46.1374C61.25 46.2071 60.844 46.1792 60.9813 45.7765C61.095 45.4415 62.8859 43.5654 63.2703 43.2224C66.9011 39.9905 72.2697 37.257 76.8929 35.9231C77.4814 35.7536 78.5916 35.7576 78.8525 35.6719H78.8544ZM70.5318 40.0164C69.2745 40.8398 66.0243 41.7869 67.1011 43.7149C69.0097 47.1382 73.8232 42.7519 70.5318 40.0164ZM72.8111 44.5902C71.9617 44.7178 72.4227 46.3068 73.4976 45.8024C74.1037 45.5173 73.5623 44.4765 72.8111 44.5902Z" fill="#07090D"/>
<path d="M78.8556 35.6716C79.1283 35.5818 79.6677 35.1053 80.5307 35.0176C80.7328 34.9977 81.1074 34.884 80.9014 35.2967C80.8073 35.4861 79.14 35.7493 78.8242 35.8689L78.8556 35.6716Z" fill="#3369DA"/>
<path d="M70.532 40.0156C73.8234 42.7511 69.0099 47.1375 67.1013 43.7141C66.0264 41.7861 69.2747 40.8391 70.532 40.0156Z" fill="#FDFDFD"/>
<path d="M72.8101 44.5907C73.5613 44.477 74.1027 45.5178 73.4966 45.8029C72.4237 46.3073 71.9627 44.7203 72.8101 44.5907Z" fill="#C9E2FB"/>
<path d="M46.314 46.9287C46.314 47.6484 45.9609 47.1021 45.5117 46.9965C45.5549 50.0649 43.5973 53.9648 40.2334 54.1163C33.2131 54.4334 31.999 44.8711 36.5438 40.8994C35.3551 40.1776 33.8467 39.3781 32.7463 38.5607C32.5404 38.4091 32.2383 38.2915 32.2383 37.9805C36.1338 39.1169 40.1372 41.2124 43.1991 43.912C44.2917 44.875 45.1783 46.0255 46.314 46.9267V46.9287ZM39.1702 42.7636C38.1326 42.8952 37.4049 45.0485 37.9109 46.0673C38.9937 48.2466 41.9595 46.7851 41.8339 44.9249C41.7908 44.2909 39.7685 42.6878 39.1702 42.7636ZM42.7598 49.3133C42.8108 48.9903 42.593 48.6852 42.2753 48.6334C41.9575 48.5815 41.6574 48.8028 41.6064 49.1258C41.5554 49.4488 41.7731 49.7539 42.0909 49.8057C42.4087 49.8576 42.7088 49.6363 42.7598 49.3133Z" fill="#07090D"/>
<path d="M39.1701 42.7643C39.7684 42.6885 41.7907 44.2916 41.8338 44.9256C41.9594 46.7858 38.9936 48.2473 37.9108 46.0681C37.4048 45.0492 38.1325 42.8959 39.1701 42.7643Z" fill="#FDFDFD"/>
<path d="M42.7584 49.3118C42.8093 48.9877 42.5922 48.6831 42.2734 48.6313C41.9546 48.5795 41.6549 48.8002 41.604 49.1242C41.553 49.4483 41.7701 49.7529 42.0889 49.8047C42.4077 49.8565 42.7074 49.6358 42.7584 49.3118Z" fill="#C9E2FB"/>
<path d="M57.3763 62.4388C57.4959 62.69 56.8624 63.0928 56.931 63.3679C58.7258 62.056 60.0302 61.416 62.282 62.044C64.0395 62.5345 64.2043 62.8236 63.7688 64.5602C62.2153 70.735 54.03 70.4818 50.6484 66.0855C50.3522 65.7007 49.7382 65.0208 50.0442 64.5323C50.7876 63.348 53.977 61.8287 55.3736 61.9104C55.7267 61.9304 57.2704 62.2175 57.3763 62.4388Z" fill="#3151C4"/>
<path d="M46.214 56.3892C43.6326 56.9455 45.143 55.8608 46.4376 55.3803C50.2703 53.9567 57.165 53.4124 61.0095 54.8061C67.049 56.9973 66.8764 68.354 59.7875 70.2661C51.4414 72.5171 46.265 63.7065 46.214 56.3892ZM57.3749 62.4404C57.2709 62.2191 55.7253 61.932 55.3722 61.912C53.9756 61.8303 50.7862 63.3516 50.0428 64.5339C49.7368 65.0204 50.3508 65.7023 50.6469 66.0871C54.0286 70.4834 62.2139 70.7366 63.7674 64.5618C64.2048 62.8252 64.0381 62.5381 62.2806 62.0456C60.0288 61.4176 58.7244 62.0576 56.9296 63.3695C56.861 63.0944 57.4945 62.6916 57.3749 62.4404Z" fill="#07090D"/>
</g>
<defs>
<linearGradient id="paint0_linear_113_4741" x1="61.4654" y1="21.2187" x2="61.4654" y2="78.0659" gradientUnits="userSpaceOnUse">
<stop stop-color="#85B3FF"/>
<stop offset="1" stop-color="#9BC1FF"/>
</linearGradient>
<clipPath id="clip0_113_4741">
<rect width="183" height="168" fill="white"/>
</clipPath>
</defs>
</svg>
