<svg width="156" height="149" viewBox="0 0 156 149" fill="none" xmlns="http://www.w3.org/2000/svg">
<g clip-path="url(#clip0_113_4851)">
<path d="M29.7175 129.877C38.9191 143.074 60.9665 144.249 75.3576 141.543C77.0274 142.943 78.4439 144.228 80.5756 144.929C86.135 146.755 95.7863 145.591 101.691 144.798C112.274 143.376 127.219 139.01 133.48 129.672C137.007 130.459 140.588 131.018 144.053 132.074C146.969 132.961 156.396 136.056 150.943 140.115C145.355 144.271 126.966 146.548 119.692 147.28C100.986 149.16 81.2501 149.381 62.4995 148.512C48.4436 147.86 31.7552 147.009 18.3269 142.83C14.7317 141.711 6.16573 138.473 12.9658 134.48C17.6422 131.734 24.4279 130.787 29.7175 129.877Z" fill="#072948"/>
<path d="M33.8052 30.5677C33.8584 30.8403 33.4312 30.8956 33.2452 30.9263C32.5257 31.0452 29.8196 31.2297 29.4108 31.5884C28.8079 32.1172 28.1191 35.1731 28.0864 36.0975C27.5938 36.159 27.7594 36.1036 27.6572 35.8126C27.4528 35.2387 26.9255 32.2114 26.6475 32.0106C21.3804 33.3941 11.4757 35.5769 8.07262 40.0901C3.74979 45.8229 12.1788 49.301 16.4424 50.7419C21.9139 52.5907 27.6838 53.4105 33.3985 54.1197L28.8018 54.7284C21.6318 55.0604 5.2357 53.6646 1.04164 46.9317C-2.43298 41.3527 3.55562 36.6468 8.13803 34.6279C13.5584 32.2401 19.964 31.3281 25.8402 30.9776C25.2842 29.2293 23.2526 28.0753 21.597 27.5547C21.3191 27.4666 18.0836 26.9768 18.6947 26.4746C23.8617 26.3906 27.3915 22.5332 27.6817 17.4625C28.3337 17.2965 28.0557 18.3746 28.1804 18.9075C29.2739 23.5785 32.1272 26.4316 37.0754 26.4746C37.1327 26.8886 37.1122 26.8107 36.822 26.9337C36.0535 27.2596 34.8353 27.3539 33.9074 27.6962C32.4808 28.2229 30.7966 29.135 30.1323 30.5677H33.8093H33.8052Z" fill="#FBB936"/>
<path d="M138.996 41.6217C138.483 41.6975 138.675 41.5951 138.566 41.3368C138.176 40.396 137.561 36.8543 136.4 36.5305C136.022 36.4239 135.476 36.7108 135.02 36.719C132.433 36.76 128.353 36.9998 125.956 36.3604C125.592 36.264 125.428 36.4178 125.516 35.8931L134.297 34.8662C134.084 34.4973 133.228 34.3128 132.823 34.196C132.116 33.9931 131.043 34.0525 130.62 33.4376C135.268 33.1814 138.321 30.0865 138.587 25.4503L139.774 29.0699C140.177 29.9041 141.769 31.9722 142.736 31.9578C143.151 31.9517 144.925 31.0109 145.389 30.7342C147.69 29.361 149.853 27.3011 148.473 24.446C146.072 19.4778 133.346 16.7949 128.245 16.057L118.773 15.0096C125.651 14.0976 132.803 14.0648 139.65 15.272C144.567 16.139 153.021 18.6477 155.31 23.5298C159.028 31.4639 146.758 34.94 141.342 36.2989C139.96 37.6947 139.002 39.65 138.994 41.6237L138.996 41.6217Z" fill="#FBB936"/>
<path d="M152.272 55.959C152.621 56.287 152.221 56.3136 151.961 56.3607C148.1 57.0556 146.252 58.5969 145.938 62.7145C145.408 62.7719 145.613 62.7145 145.525 62.4153C144.437 58.7116 143.996 57.5557 140.066 56.4161C139.806 56.3403 138.408 56.3177 139.483 55.9344C140.147 55.6967 140.84 55.6782 141.584 55.379C144.241 54.3111 145.202 52.0791 145.633 49.4023C146.373 52.0586 146.966 54.4177 149.825 55.4384C150.295 55.6065 152.18 55.8729 152.272 55.957V55.959Z" fill="#FBB936"/>
<path d="M24.8188 41.829C24.8801 42.3599 24.8188 42.1549 24.5204 42.243C21.2747 43.2002 19.8725 43.8151 19.3023 47.5597L18.5869 45.3113C17.9349 43.2822 15.7868 42.3004 13.7899 42.2348C13.7491 41.7019 13.7613 41.8925 14.0986 41.8331C17.1848 41.2756 18.6748 40.2488 19.104 36.9141L20.081 39.515C21.1071 41.1465 22.9363 41.8495 24.8208 41.829H24.8188Z" fill="#FBB936"/>
<path d="M29.7169 129.879C26.5039 125.271 26.1422 119.227 30.1257 114.933C22.1688 115.269 13.5314 111.82 8.92035 105.167C6.81718 102.134 5.37011 97.403 10.9234 98.3438C10.7026 96.5668 11.7409 94.8677 13.5252 94.5028C13.9483 94.4167 14.7761 94.5459 14.9784 94.4208C15.0643 94.3676 15.61 93.1275 16.0229 92.7053C20.2619 88.3991 27.2377 89.9835 30.8411 94.2466C31.9734 95.5871 33.0219 98.1552 34.7081 98.764C36.3473 99.3563 38.4995 99.0878 40.1735 98.6922C49.3506 96.5258 52.2979 82.7443 61.3727 79.9117L56.1935 77.8375C44.619 72.3999 34.5569 61.3894 36.2778 47.694C37.9886 34.0867 49.0951 24.6032 60.7534 18.9995C59.8092 18.0731 57.6917 13.5517 56.8782 13.0598C56.4408 12.7954 54.8854 13.0168 54.1701 12.9081C48.6148 12.0534 47.1084 5.16267 51.7051 1.73164C58.1679 -3.09313 67.5432 2.9327 62.223 10.3666L66.3946 17.0237C76.1991 14.142 86.5126 14.1871 96.3642 16.8639C96.6993 15.9149 100.53 10.7847 100.532 10.3994C100.532 10.2662 99.4095 8.72693 99.2174 8.08951C96.8363 0.223128 107.708 -2.64837 112.337 3.12742C116.437 8.24323 111.374 13.8427 105.697 13.0475L102.022 18.895C117.061 25.0602 131.629 39.9362 126.634 57.5977C123.985 66.9623 115.63 74.22 106.996 78.0445C105.564 78.6799 103.867 79.0857 102.524 79.7047C102.322 79.7969 102.046 79.8297 102.022 80.1208C102.604 80.131 103.101 80.4303 103.587 80.7029C112.337 85.5891 115.25 100.307 127.247 98.9607C130.011 98.6512 130.73 95.9847 132.257 94.1544C135.599 90.1474 141.348 88.7578 145.839 91.7892C146.873 92.486 147.868 94.3286 148.017 94.4147C148.248 94.5459 149.389 94.4372 150.08 94.7037C151.521 95.2612 152.254 96.864 152.064 98.3458C157.979 97.3641 155.989 102.72 153.781 105.7C149.007 112.146 140.723 115.183 132.862 114.933C133.62 115.919 134.497 116.839 135.004 118.006C136.686 121.886 135.768 126.251 133.475 129.674C127.215 139.012 112.272 143.378 101.686 144.8C95.7796 145.593 86.1304 146.755 80.571 144.931C78.4413 144.232 77.0248 142.945 75.3529 141.545C60.9619 144.251 38.9145 143.076 29.7129 129.879H29.7169ZM50.5524 8.04646C52.0199 13.935 62.5602 11.7009 62.1944 6.40883C62.2843 -1.48009 48.8375 1.16595 50.5524 8.04646ZM100.595 7.22662C102.016 13.5619 113.396 12.7093 112.145 6.19362C111.93 5.07454 111.495 4.70971 110.808 3.95136C110.122 3.193 109.758 2.79128 108.766 2.31372C104.92 0.460882 99.475 2.22969 100.597 7.22867L100.595 7.22662ZM64.8433 17.6591C65.2214 17.1324 61.6589 12.2359 61.1765 11.4119C60.8495 11.2029 59.0161 12.654 58.313 12.5515L61.992 18.397C62.5234 18.6798 64.1545 17.7144 64.8433 17.6591ZM104.474 12.5535C103.763 12.6622 101.819 11.1188 101.435 11.3463L97.7336 17.4644L100.977 18.2617L104.474 12.5556V12.5535ZM38.0928 53.9125C38.6099 58.8008 41.1443 64.1195 44.8336 67.4276C44.9051 67.4911 44.9644 67.5669 45.0379 67.6325C45.2546 68.3212 46.0292 68.9976 46.5647 69.4813C52.0955 74.47 59.3656 78.1388 66.6889 79.51C69.5565 80.6086 72.794 80.4426 75.6759 81.3526C74.0367 81.3321 72.097 81.6621 70.2657 81.5555C68.4344 81.4489 65.1417 80.5163 63.5638 80.7869C63.2838 80.834 63.0426 81.082 62.8075 81.1476C52.7884 83.9084 50.6873 98.3192 39.9773 100.34C38.0192 100.709 36.1777 100.635 34.2115 100.395C32.2146 99.219 31.6893 98.0732 30.3301 96.3003C29.1508 94.7611 28.7808 93.9187 26.9189 92.8611C23.994 91.1968 18.9068 91.0738 16.7975 94.0991C16.3213 94.7836 16.2559 94.9517 16.4398 95.6854C17.1388 98.4586 18.8005 95.9355 20.0044 95.4702C26.4079 92.9943 28.6275 103.363 21.2307 102.861C17.4659 102.605 16.5747 99.2805 15.2135 96.5053C14.7311 95.5215 13.28 95.6896 12.7159 96.5627C11.9126 97.8068 12.5053 99.0734 13.1696 100.193C14.5901 102.584 16.6912 104.124 18.8884 105.718C16.3642 105.425 14.7945 103.46 12.9652 102.035C12.3888 100.867 8.95305 97.9646 8.50339 100.549C8.21112 102.23 10.8375 105.153 11.9433 106.335C17.0448 111.797 24.8811 114.05 32.2636 113.294C34.4833 113.066 36.8072 111.818 39.407 111.65C43.8893 111.359 46.8979 113.15 51.3618 111.346C53.1522 110.623 56.5512 108.139 57.5854 106.53C58.6911 104.81 59.5721 99.6043 60.3528 97.3251C60.5123 96.8558 61.387 94.4823 61.571 94.3491C61.8898 94.056 61.853 94.3061 61.9859 94.4598C60.8679 99.8912 59.4065 105.286 58.5399 110.771C58.4806 111.148 58.5624 111.537 58.5133 111.863C58.36 112.914 57.3912 116.081 58.1025 116.882C58.2721 117.075 61.9839 119.018 62.595 119.342C65.3808 120.82 70.9177 123.708 73.865 124.22C75.2078 124.454 76.5956 124.347 77.965 124.616C78.9359 124.806 80.5199 125.681 81.1167 125.733C81.5562 125.772 83.7717 124.775 84.6138 124.616C87.4405 124.079 89.0491 124.542 92.0107 123.431C96.4929 121.748 100.818 118.973 105.043 116.737C105.353 116.198 104.564 111.574 104.409 110.598C104.053 108.35 103.491 104.415 102.635 102.445L101.202 94.3594C101.507 93.9597 101.531 94.2856 101.666 94.5172C102.114 95.2899 102.359 96.4582 102.635 97.3272C103.581 100.285 104.245 104.98 106.114 107.253C107.561 109.014 109.66 110.559 111.773 111.408C115.842 113.039 116.588 111.89 120.509 111.664C122.211 111.566 124.292 111.631 125.97 111.92C127.611 112.203 129.342 113.14 130.926 113.3C138.568 114.064 147.067 111.404 152.058 105.413C152.933 104.363 155.044 101.529 154.311 100.197C153.601 98.9095 151.946 99.8789 151.236 100.699C150.824 101.178 150.728 101.515 150.225 102.039C149.027 103.289 146.397 105.226 144.727 105.64C144.52 105.692 144.158 105.878 144.302 105.419C144.34 105.292 146.082 104.38 146.552 103.986C148.167 102.638 151.053 99.4547 150.632 97.2206C150.552 96.7963 150.286 96.8107 150.227 96.7143C150.196 96.6652 150.27 96.4479 150.174 96.3639C149.092 95.4272 147.335 95.8638 147.776 97.5321C147.108 98.2843 146.595 99.5223 145.839 100.402C144.036 102.496 141.35 103.886 138.72 102.209C134.599 99.5817 138.335 93.2382 143.421 95.6527C144.504 96.1671 145.477 97.9605 146.55 96.0995C146.689 95.8576 146.785 95.8658 146.754 95.4846C146.736 95.255 146.583 95.1689 146.55 95.0747C145.473 91.9121 140.907 91.1763 138.043 91.9736C133.269 93.3018 133.307 96.368 130.618 99.1698C130.113 99.6965 129.661 99.9691 128.985 100.195C128.47 100.367 127.58 100.557 127.041 100.6C115.667 101.533 112.519 90.5123 105.496 84.222C105.425 84.1585 105.365 84.0806 105.292 84.0171C105.218 83.9535 105.161 83.8736 105.087 83.8121C103.894 82.8098 103.524 82.652 102.228 81.9695C101.913 81.8035 101.684 81.4366 101.057 81.1968C99.2481 80.5102 96.9569 80.6803 95.2829 81.5596C94.7842 81.0369 93.3882 81.5493 92.7383 81.5678C90.9315 81.6211 89.0388 81.3485 87.3179 81.3546C91.7654 80.461 96.2211 79.9097 100.593 78.5897C114.408 74.4208 127.28 63.7424 125.894 47.903C125.142 39.2845 118.152 30.2621 111.011 25.8657C110.588 25.6054 110.391 25.341 109.784 25.0459C92.8303 13.0536 68.3383 13.7444 51.793 26.1896C42.6854 33.0393 36.8399 42.1068 38.0908 53.9166L38.0928 53.9125ZM21.2961 96.5422C20.3477 96.6734 18.1465 98.1798 18.312 99.2128C18.6656 101.414 22.6206 102.224 24.0022 100.498C25.4881 98.643 23.3768 96.2511 21.2961 96.5401V96.5422ZM140.786 96.5422C137.544 96.9808 137.508 101.951 141.939 101.398C145.873 100.906 144.316 96.0626 140.786 96.5422ZM56.2691 115.954L57.193 108.996C55.7806 110.406 54.2028 111.715 52.3878 112.572C51.9238 112.791 50.6259 113.029 50.5524 113.089C50.1559 113.41 50.6995 113.443 50.8446 113.515C52.5268 114.372 54.634 114.87 56.2712 115.954H56.2691ZM112.441 113.089C112.409 113.064 111.883 113.082 111.628 112.986C109.279 112.099 107.501 110.705 105.703 108.994L106.725 115.751C108.405 114.964 110.534 114.343 112.151 113.517C112.294 113.443 112.844 113.408 112.443 113.091L112.441 113.089ZM36.0489 113.906C27.3992 116.116 27.1743 123.804 32.1676 130.082C36.0632 134.978 41.4182 137.612 47.4436 139.237C56.1628 141.59 65.7896 141.592 74.6539 140.113C74.2901 138.678 74.0019 137.524 74.0408 136.02C74.1409 132.086 76.7632 129.055 79.5552 126.604C76.4832 125.77 73.7914 125.806 70.7215 124.708C59.1939 120.578 49.324 110.518 36.0489 113.906ZM89.7685 125.579C88.5197 125.837 87.5959 125.671 86.4227 125.808C80.4361 126.507 74.9278 131.299 75.8782 137.659C77.0187 145.29 87.8125 144.407 93.5436 144.005C105.267 143.183 122.418 139.943 130.52 130.701C136.384 124.013 135.402 115.386 125.921 113.499C125.855 113.486 125.782 113.511 125.716 113.499C125.59 113.476 125.436 113.519 125.308 113.499C113.717 111.691 105.594 118.883 95.7632 123.298C94.0791 124.054 91.5222 125.214 89.7665 125.579H89.7685Z" fill="#090E38"/>
<path d="M75.6761 81.35C79.5718 81.3971 83.4204 81.3643 87.3181 81.35C89.0391 81.3438 90.9337 81.6164 92.7385 81.5631C93.3885 81.5447 94.7844 81.0323 95.2831 81.5549C96.115 82.424 97.3761 82.0345 98.6515 82.1719C99.4343 82.2559 100.338 82.5264 101.108 82.5756C101.687 82.6125 102.433 82.8503 102.228 81.9648C103.524 82.6494 103.896 82.8052 105.088 83.8074L104.883 84.0103H105.292C105.366 84.0759 105.425 84.1538 105.496 84.2174C105.48 84.9101 105.92 85.4594 106.267 86.0046C110.596 92.7888 118.876 105.027 128.386 100.704C128.686 100.567 129.11 100.747 128.985 100.19C129.661 99.9645 130.115 99.6919 130.618 99.1651C130.55 99.7206 130.763 99.7124 131.115 99.3557C132.038 98.4211 132.717 97.0827 133.577 96.0907C136.347 92.8974 140.406 91.1368 144.369 93.4672C145.142 93.9222 145.708 94.7749 146.55 95.068C146.583 95.1622 146.736 95.2483 146.754 95.4779L146.55 96.0928C145.477 97.9538 144.504 96.1624 143.421 95.6459C138.336 93.2295 134.599 99.575 138.72 102.203C141.35 103.879 144.036 102.49 145.839 100.395C146.595 99.5156 147.108 98.2776 147.776 97.5254C148.367 96.8614 149.32 96.2629 150.227 96.7056C150.286 96.8019 150.552 96.7876 150.632 97.2118C151.055 99.4459 148.167 102.629 146.552 103.978C146.08 104.371 144.341 105.283 144.302 105.41C144.161 105.869 144.52 105.683 144.727 105.632C146.397 105.218 149.027 103.281 150.225 102.03L150.327 102.231C150.697 101.52 151.65 101.457 152.064 101.211C154.65 101.653 151.645 104.283 150.732 105.095C144.847 110.327 137.866 111.584 130.311 111.202C126.653 111.018 122.933 110.86 119.285 110.626C112.576 110.196 107.585 106.515 104.573 100.6C104.094 99.6611 103.91 98.5912 103.359 97.716C103.128 97.3512 103.26 97.2077 102.637 97.3205C102.359 96.4535 102.116 95.2832 101.668 94.5105C101.533 94.2789 101.511 93.953 101.204 94.3526L102.637 102.438C102.498 102.117 102.277 101.284 101.822 101.416C102.5 107.152 103.003 113.053 98.351 117.286C90.063 124.826 73.1907 124.484 64.4592 117.88C62.5441 116.431 61.3198 114.816 59.744 113.086C59.6929 112.168 59.8543 111.258 59.9831 110.356C60.5779 106.189 62.2579 100.77 62.399 96.8019C62.4194 96.2219 62.3663 94.8794 61.9902 94.4531C61.8553 94.3014 61.8941 94.0514 61.5753 94.3424C61.3913 94.4756 60.5166 96.8511 60.3571 97.3184C59.7726 97.2446 59.8482 97.2651 59.6438 97.7222C56.6495 104.465 52.7171 109.483 44.9319 110.419C43.0106 110.651 40.9197 110.497 39.0128 110.629C34.271 110.956 29.2471 111.791 24.5645 110.979C20.1599 110.215 17.278 108.536 13.3763 106.736C11.7984 105 9.58892 103.17 9.69929 100.594C9.99157 100.579 10.2838 100.575 10.572 100.641C11.3937 100.827 12.4013 101.586 12.9675 102.028C14.7968 103.455 16.3665 105.418 18.8907 105.712C16.6935 104.117 14.5924 102.578 13.1719 100.186C13.642 99.5135 13.1167 98.663 13.1657 97.8329C13.2352 96.6605 14.157 96.4063 15.2137 96.5006C16.5749 99.2758 17.4661 102.6 21.2309 102.856C28.6278 103.361 26.4081 92.9897 20.0046 95.4656C18.8028 95.9308 17.1391 98.4539 16.44 95.6808C19.1073 92.3276 22.3857 91.5119 26.2487 93.5267C27.7162 94.2912 28.8219 95.5906 30.3303 96.2936C31.6895 98.0665 32.2148 99.2123 34.2117 100.389C39.3214 103.4 45.5921 100.044 49.2281 96.0907C54.1028 90.7904 56.1038 86.5396 62.2212 81.8829C62.4991 81.6697 62.8364 81.6082 62.8098 81.1409C63.0448 81.0753 63.286 80.8294 63.566 80.7802C65.1439 80.5076 68.4121 81.4401 70.268 81.5488C72.1238 81.6574 74.041 81.3254 75.6781 81.3459L75.6761 81.35ZM138.178 104.285C137.675 103.785 135.327 103.795 134.708 104.385C133.22 105.8 136.466 104.521 136.664 104.494C136.905 104.461 138.763 104.865 138.178 104.285ZM29.104 104.492C28.7177 104.021 27.2011 104.033 26.6023 104.129C26.0034 104.226 24.4971 104.738 24.4092 105.511C25.1245 105.265 26.4531 105.761 26.9436 105.722C27.0621 105.712 27.939 104.334 29.0038 104.898C29.1796 104.922 29.1265 104.519 29.104 104.492Z" fill="#3151C4"/>
<path d="M36.0509 113.905C49.3259 110.515 59.1959 120.576 70.7234 124.706C73.7934 125.805 76.4831 125.768 79.5571 126.602C76.7652 129.055 74.1429 132.085 74.0427 136.018C72.7857 135.932 72.1153 137.028 70.8849 137.459C68.2013 138.396 62.9546 138.379 60.0421 138.281C51.6171 137.994 43.0798 136.098 35.6441 132.128C35.1393 131.31 34.4198 130.726 33.8435 129.941C29.6249 124.196 30.3321 118.18 36.0529 113.905H36.0509Z" fill="#3050C5"/>
<path d="M59.7448 113.087C61.3207 114.817 62.545 116.432 64.4601 117.881C73.1895 124.485 90.0639 124.827 98.3519 117.286C103.004 113.054 102.501 107.153 101.822 101.416C102.278 101.285 102.499 102.117 102.638 102.439C103.494 104.407 104.056 108.344 104.412 110.592C104.567 111.57 105.358 116.194 105.046 116.731C100.821 118.965 96.496 121.74 92.0138 123.425C89.0522 124.536 87.4457 124.073 84.6169 124.61C83.7749 124.769 81.5593 125.766 81.1198 125.727C80.5251 125.675 78.939 124.8 77.9682 124.61C76.5988 124.341 75.213 124.448 73.8681 124.214C70.9188 123.702 65.3839 120.814 62.5981 119.336C61.987 119.012 58.2753 117.069 58.1056 116.876C57.3943 116.075 58.3631 112.908 58.5164 111.857C58.9497 112.218 59.3647 112.671 59.7428 113.085L59.7448 113.087Z" fill="#1638AF"/>
<path d="M35.6387 132.13C43.0764 136.1 51.6137 137.996 60.0366 138.282C62.9492 138.381 68.1958 138.397 70.8794 137.461C72.1099 137.032 72.7803 135.934 74.0373 136.02C73.9984 137.524 74.2866 138.68 74.6504 140.113C65.7861 141.591 56.1593 141.591 47.4401 139.238C41.4168 137.612 36.0597 134.979 32.1641 130.082C33.3557 130.713 34.445 131.494 35.6366 132.13H35.6387Z" fill="#1638AF"/>
<path d="M102.637 97.3227C103.26 97.21 103.127 97.3535 103.358 97.7183C103.912 98.5935 104.094 99.6634 104.572 100.602C107.585 106.519 112.576 110.198 119.284 110.629C122.933 110.862 126.652 111.02 130.311 111.205C137.865 111.586 144.847 110.327 150.732 105.097C151.647 104.283 154.652 101.654 152.064 101.213C152.087 101.199 151.98 100.914 152.316 100.739C152.904 100.434 153.634 100.172 154.312 100.188C155.046 101.52 152.935 104.353 152.06 105.404C147.069 111.395 138.568 114.056 130.928 113.291C129.344 113.133 127.613 112.195 125.972 111.912C124.294 111.623 122.215 111.559 120.511 111.656C116.588 111.881 115.842 113.033 111.775 111.399C109.66 110.551 107.562 109.005 106.115 107.245C104.247 104.972 103.585 100.278 102.637 97.3186V97.3227Z" fill="#1638AF"/>
<path d="M60.3588 97.3203C59.578 99.5995 58.6971 104.805 57.5913 106.525C56.5571 108.136 53.1561 110.62 51.3677 111.342C46.9059 113.143 43.8973 111.352 39.413 111.645C36.8132 111.813 34.4893 113.061 32.2696 113.289C24.885 114.045 17.0508 111.793 11.9492 106.33C12.3825 106.027 12.9282 106.531 13.3799 106.74C17.2817 108.54 20.1636 110.221 24.5682 110.983C29.2508 111.795 34.2746 110.958 39.0165 110.633C40.9214 110.501 43.0143 110.653 44.9356 110.423C52.7208 109.487 56.6532 104.469 59.6475 97.7261C59.8498 97.2691 59.7742 97.2465 60.3608 97.3224L60.3588 97.3203Z" fill="#1638AF"/>
<path d="M62.8091 81.1445C62.8377 81.6118 62.5004 81.6733 62.2204 81.8865C56.1031 86.5432 54.1021 90.7961 49.2274 96.0943C45.5913 100.048 39.3227 103.401 34.2109 100.392C36.1772 100.632 38.0187 100.706 39.9768 100.337C50.6867 98.3182 52.7879 83.9074 62.807 81.1445H62.8091Z" fill="#5476F1"/>
<path d="M36.0491 113.906C30.3282 118.182 29.6231 124.197 33.8396 129.942C34.416 130.727 35.1354 131.314 35.6403 132.129C34.4487 131.494 33.3593 130.713 32.1677 130.082C27.1745 123.804 27.3993 116.114 36.0491 113.906Z" fill="#5476F1"/>
<path d="M128.985 100.187C129.11 100.745 128.687 100.567 128.386 100.702C118.876 105.024 110.596 92.7863 106.267 86.0021C105.92 85.4569 105.478 84.9076 105.497 84.2148C112.522 90.503 115.669 101.526 127.041 100.593C127.581 100.548 128.47 100.36 128.985 100.187Z" fill="#5476F1"/>
<path d="M59.742 113.088C59.3638 112.674 58.9489 112.219 58.5156 111.86C58.5626 111.532 58.4829 111.143 58.5422 110.768C59.4088 105.283 60.8702 99.8885 61.9882 94.457C62.3643 94.8854 62.4174 96.2279 62.397 96.8059C62.2539 100.774 60.5738 106.191 59.9811 110.36C59.8523 111.262 59.6929 112.172 59.742 113.09V113.088Z" fill="#5476F1"/>
<path d="M146.55 95.0677C145.708 94.7746 145.142 93.922 144.369 93.467C140.406 91.1345 136.347 92.8972 133.577 96.0905C132.717 97.0825 132.038 98.4208 131.115 99.3555C130.763 99.7121 130.55 99.7203 130.618 99.1649C133.308 96.363 133.269 93.2968 138.043 91.9687C140.907 91.1714 145.473 91.9072 146.55 95.0697V95.0677Z" fill="#5476F1"/>
<path d="M16.443 95.6844C16.259 94.9507 16.3224 94.7806 16.8006 94.0981C18.912 91.0728 23.9972 91.1958 26.922 92.8601C28.784 93.9197 29.1539 94.7601 30.3332 96.2993C28.8249 95.5963 27.7191 94.2969 26.2516 93.5324C22.3907 91.5176 19.1123 92.3333 16.443 95.6865V95.6844Z" fill="#5476F1"/>
<path d="M12.9687 102.032C12.4026 101.592 11.3949 100.831 10.5733 100.645C10.2851 100.579 9.99283 100.585 9.70055 100.598C9.59018 103.176 11.7976 105.006 13.3775 106.74C12.9279 106.533 12.3821 106.027 11.9468 106.33C10.841 105.146 8.21464 102.225 8.50692 100.544C8.95657 97.9597 12.3924 100.862 12.9687 102.03V102.032Z" fill="#5476F1"/>
<path d="M102.226 81.965C102.431 82.8504 101.685 82.6126 101.106 82.5757C100.336 82.5266 99.4344 82.256 98.6496 82.172C97.3762 82.0346 96.1131 82.4241 95.2812 81.555C96.9552 80.6758 99.2464 80.5056 101.055 81.1923C101.683 81.43 101.912 81.7989 102.226 81.965Z" fill="#3F76E1"/>
<path d="M15.2149 96.4996C14.1562 96.4053 13.2364 96.6594 13.1669 97.8318C13.1179 98.6619 13.6432 99.5125 13.1731 100.185C12.5088 99.0677 11.9161 97.799 12.7193 96.5549C13.2834 95.6818 14.7346 95.5158 15.217 96.4975L15.2149 96.4996Z" fill="#5476F1"/>
<path d="M154.314 100.19C153.638 100.171 152.908 100.434 152.317 100.741C151.984 100.915 152.091 101.2 152.066 101.215C151.651 101.46 150.699 101.524 150.329 102.235L150.227 102.034C150.729 101.51 150.825 101.174 151.238 100.694C151.945 99.8741 153.603 98.9046 154.312 100.192L154.314 100.19Z" fill="#5476F1"/>
<path d="M147.777 97.5248C147.335 95.8544 149.093 95.4198 150.174 96.3565C150.27 96.4405 150.197 96.6578 150.227 96.707C149.32 96.2622 148.367 96.8628 147.777 97.5268V97.5248Z" fill="#5476F1"/>
<path d="M146.551 96.0914L146.755 95.4766C146.786 95.8578 146.69 95.8475 146.551 96.0914Z" fill="#B9D7FB"/>
<path d="M105.292 84.0096H104.883L105.087 83.8047C105.161 83.8662 105.22 83.9461 105.292 84.0096Z" fill="#B9D7FB"/>
<path d="M125.312 113.495C125.301 114.511 126.706 114.884 127.36 115.434C130.728 118.268 130.002 122.556 127.725 125.844C122.971 132.708 110.9 137.121 103.05 138.988C96.0655 140.65 84.0393 142.874 77.7196 139.088C76.109 134.45 79.7798 129.359 83.9126 127.584C85.8175 126.766 87.9881 126.633 89.7703 125.573C91.526 125.208 94.083 124.048 95.7671 123.292C105.598 118.875 113.721 111.685 125.312 113.493V113.495Z" fill="#3050C5"/>
<path d="M125.717 113.495L125.819 113.696L125.922 113.495C135.403 115.385 136.384 124.009 130.52 130.697C122.418 139.939 105.268 143.179 93.5443 144.001C87.8111 144.403 77.0194 145.286 75.8789 137.656C76.5513 138.246 76.9642 138.637 77.7164 139.088C84.0361 142.874 96.0623 140.65 103.046 138.988C110.897 137.119 122.968 132.708 127.722 125.844C129.999 122.554 130.725 118.266 127.356 115.434C126.702 114.883 125.298 114.512 125.308 113.495C125.437 113.516 125.59 113.472 125.717 113.495Z" fill="#1638AF"/>
<path d="M89.7691 125.578C87.9868 126.638 85.8141 126.771 83.9113 127.589C79.7785 129.364 76.1077 134.453 77.7183 139.093C76.9661 138.642 76.5512 138.249 75.8808 137.661C74.9304 131.301 80.4387 126.509 86.4253 125.81C87.5985 125.672 88.5223 125.838 89.7711 125.58L89.7691 125.578Z" fill="#5476F1"/>
<path d="M125.719 113.496C125.784 113.508 125.858 113.483 125.923 113.496L125.821 113.697L125.719 113.496Z" fill="#4B82F4"/>
<path d="M29.105 104.491C29.1275 104.518 29.1806 104.921 29.0048 104.897C27.94 104.333 27.0631 105.711 26.9446 105.721C26.454 105.76 25.1255 105.264 24.4102 105.51C24.498 104.737 25.986 104.227 26.6033 104.128C27.2205 104.03 28.7187 104.022 29.105 104.491Z" fill="#3F76E1"/>
<path d="M138.177 104.286C138.761 104.866 136.903 104.462 136.662 104.495C136.464 104.521 133.216 105.8 134.706 104.386C135.328 103.796 137.674 103.785 138.177 104.286Z" fill="#3F76E1"/>
<path d="M109.785 25.0416C110.392 25.3347 110.589 25.6011 111.012 25.8614C110.431 25.7979 110.509 25.9864 110.805 26.3759C111.935 27.8659 113.871 29.4031 115.091 30.883C123.14 40.6432 124.945 53.3732 116.816 63.7237C105.561 78.0566 84.5248 81.418 67.5012 77.9767L59.3359 76.0275C43.9434 68.1119 34.0325 52.6825 44.8733 36.2406C52.9835 23.9368 69.3551 17.456 83.742 17.6733C93.1235 17.8147 101.583 21.0695 109.787 25.0416H109.785ZM79.5132 23.8733C67.0904 24.4902 50.1077 30.635 46.8477 44.1603C42.2899 63.072 65.114 72.8486 80.2613 73.1683C94.8669 73.4778 117.812 65.964 116.943 47.8639C116.117 30.6308 93.9615 23.1559 79.5132 23.8733Z" fill="#3151C4"/>
<path d="M111.01 25.8618C118.153 30.2603 125.141 39.2806 125.893 47.8992C127.277 63.7385 114.407 74.4169 100.592 78.5858C96.218 79.9058 91.7643 80.4571 87.3168 81.3507C83.4191 81.3651 79.5705 81.3979 75.6748 81.3507C72.7929 80.4407 69.5554 80.6067 66.6878 79.5081C64.9934 78.8584 63.6792 77.7721 61.5822 77.0507C60.8178 76.7535 60.0636 76.4009 59.3359 76.0259L67.5013 77.975C84.5269 81.4163 105.561 78.055 116.816 63.7221C124.945 53.3716 123.14 40.6415 115.091 30.8813C113.871 29.4015 111.935 27.8622 110.805 26.3742C110.509 25.9848 110.431 25.7962 111.012 25.8598L111.01 25.8618Z" fill="#2343B3"/>
<path d="M109.786 25.0426C101.581 21.0684 93.1217 17.8136 83.7403 17.6743C69.3513 17.457 52.9818 23.9379 44.8716 36.2416C34.0328 52.6835 43.9437 68.113 59.3342 76.0285C60.0638 76.4036 60.816 76.7541 61.5804 77.0533C55.3404 74.9115 50.1101 72.1527 45.0351 67.6333C44.9636 67.5698 44.9023 67.4919 44.8307 67.4284C44.5139 66.1228 43.1384 65.1185 42.4128 64.0158C40.4384 61.0213 39.1323 57.3259 38.09 53.9133C36.8391 42.1035 42.6846 33.036 51.7922 26.1863C68.3375 13.7411 92.8295 13.0504 109.784 25.0426H109.786Z" fill="#B9D7FB"/>
<path d="M61.5805 77.0528C63.6775 77.7722 64.9938 78.8605 66.6861 79.5103C59.3608 78.1391 52.0927 74.4723 46.5619 69.4816C46.0264 68.9979 45.2518 68.3215 45.0352 67.6328C50.1101 72.1522 55.3405 74.9089 61.5805 77.0528Z" fill="#4B82F4"/>
<path d="M44.8345 67.4252C41.1453 64.1172 38.6109 58.8005 38.0938 53.9102C39.1361 57.3207 40.4422 61.0182 42.4166 64.0127C43.1422 65.1133 44.5177 66.1176 44.8345 67.4252Z" fill="#4B82F4"/>
<path d="M108.763 2.31064C109.755 2.7882 110.1 3.16943 110.805 3.94828C110.36 6.04707 111.106 7.24609 109.07 8.65827C107.034 10.0704 104.788 9.5355 102.975 8.21145C102.35 7.75644 101.97 7.00219 101.203 6.81362C101.841 4.0774 102.652 2.80255 105.616 2.33114L108.759 2.30859L108.763 2.31064Z" fill="#4B82F4"/>
<path d="M100.598 7.22448C101.393 7.28187 101.109 7.24908 101.211 6.81456C101.977 7.00313 102.357 7.75738 102.983 8.21239C104.796 9.53644 107.122 10.016 109.078 8.65921C111.034 7.30237 110.365 6.04801 110.813 3.94922C111.5 4.70757 111.935 5.07445 112.15 6.19148C113.401 12.7072 102.02 13.5598 100.6 7.22448H100.598Z" fill="#3F76E1"/>
<path d="M104.475 12.5525L100.978 18.2586L97.7344 17.4613L101.436 11.3432C101.82 11.1157 103.764 12.6591 104.475 12.5505V12.5525Z" fill="#3F76E1"/>
<path d="M108.764 2.31138L105.62 2.33393C102.656 2.80533 101.843 4.08019 101.207 6.81641C101.107 7.25092 101.391 7.28372 100.594 7.22633C99.4741 2.22735 104.917 0.458538 108.764 2.31138Z" fill="#B9D7FB"/>
<path d="M61.1729 5.59168L61.9884 5.38672C61.8024 5.76385 62.1846 6.266 62.1928 6.41152C62.5586 11.7036 52.0183 13.9397 50.5508 8.04915C50.8104 8.01636 50.7777 7.62898 50.7552 7.43427L53.6207 9.16824C55.0433 9.67859 56.7295 9.57816 58.1091 8.96943C59.1147 8.52671 61.1402 6.73741 61.1729 5.58963V5.59168Z" fill="#3F76E1"/>
<path d="M64.8427 17.6624C64.156 17.7177 62.5229 18.6831 61.9915 18.4002L58.3125 12.5547C59.0136 12.6572 60.849 11.2061 61.176 11.4152C61.6584 12.2391 65.2209 17.1356 64.8427 17.6624Z" fill="#3F76E1"/>
<path d="M62.1934 6.40812C62.1832 6.26465 61.803 5.76045 61.989 5.38332L61.1735 5.58828C61.2226 3.83382 59.0172 2.6389 57.5088 2.40525C55.1481 2.03837 52.7752 3.27223 51.6694 5.37512C51.4732 5.7502 51.183 6.93282 51.1196 6.98816C50.9888 7.10089 50.6148 6.97791 50.5535 7.023C50.4063 7.13163 50.7558 7.40833 50.7579 7.43087C50.7803 7.62559 50.813 8.01091 50.5535 8.04576C48.8386 1.16524 62.2854 -1.4808 62.1955 6.40812H62.1934Z" fill="#B9D7FB"/>
<path d="M61.17 5.58951C61.1373 6.73524 59.1118 8.52454 58.1062 8.96931C56.7266 9.57804 55.0403 9.67847 53.6178 9.16812L50.7523 7.43415C50.7502 7.41161 50.4007 7.13491 50.5479 7.02628C50.6092 6.98119 50.9853 7.10622 51.114 6.99144C51.1774 6.9361 51.4676 5.75348 51.6638 5.3784C52.7696 3.27551 55.1425 2.0396 57.5032 2.40853C59.0116 2.64218 61.217 3.8371 61.1679 5.59156L61.17 5.58951Z" fill="#4B82F4"/>
<path d="M79.5148 23.8712C93.963 23.1538 116.117 30.6287 116.945 47.8618C117.813 65.9639 94.8685 73.4757 80.2628 73.1662C65.1156 72.8465 42.2894 63.0699 46.8493 44.1582C50.1093 30.6328 67.092 24.4881 79.5148 23.8712ZM70.5421 43.2932C70.2335 43.1682 69.888 42.9715 69.5508 43.1498C69.2953 43.285 67.9014 45.1707 67.3066 45.6236C64.3879 47.8475 59.6093 47.2408 57.6165 44.0659C57.1403 43.3055 57.0095 41.8503 55.7893 42.2623C54.6324 42.6538 56.4392 45.4781 56.8746 46.0295C56.615 46.3533 54.9656 47.2879 55.0473 47.6609C55.2272 48.4849 57.1342 47.1834 57.6145 47.1526C58.0948 47.1219 58.4566 47.5216 58.9266 47.5646L58.1111 49.1981C59.0575 49.6019 59.6154 48.1795 60.0426 48.1713C60.3185 48.1651 60.6231 48.4787 60.9215 48.5341C63.8545 49.069 66.6055 48.6263 68.8395 46.5439C69.6816 45.7569 70.7219 44.523 70.5441 43.2912L70.5421 43.2932ZM104.884 46.1278C105.452 45.6544 107.054 42.6292 105.979 42.2643C104.816 41.8708 104.489 43.7257 103.827 44.5599C101.487 47.5052 96.6037 47.7142 93.8486 45.2137C93.217 44.6398 92.4751 42.9817 91.7127 43.0452C90.8073 43.1211 91.2876 44.2299 91.4961 44.7075C92.5487 47.1137 96.1316 48.8374 98.6517 48.8108C99.5142 48.8026 101.202 48.1221 101.711 48.1754C102.022 48.2082 103.543 49.5527 103.655 49.4072C103.956 48.8292 102.639 47.8495 102.842 47.5687C104.16 46.5337 104.824 47.5933 106.163 47.8249C106.347 47.8557 106.643 48.0627 106.721 47.665C106.799 47.2674 105.325 46.2303 104.884 46.1278ZM73.9717 51.2785C73.3504 51.4855 73.5589 52.2029 74.1005 52.5226C75.8685 53.57 79.8622 54.2361 81.9041 54.1131C82.9792 54.0496 88.3403 53.0412 88.5263 51.9364C88.7552 50.5816 86.1779 51.838 85.6832 51.9651C82.7686 52.7112 79.4126 52.7358 76.4918 51.9651C75.6763 51.7499 74.8118 50.9957 73.9697 51.2764L73.9717 51.2785Z" fill="#90BAFF"/>
<path d="M70.5427 43.2924C70.7205 44.5242 69.6822 45.7601 68.8381 46.5451C66.6062 48.6275 63.853 49.0702 60.92 48.5353C60.6216 48.4799 60.3171 48.1684 60.0412 48.1725C59.616 48.1807 59.0581 49.6031 58.1097 49.1993L58.9252 47.5658C58.4572 47.5228 58.1077 47.1231 57.613 47.1538C57.1184 47.1846 55.2258 48.4861 55.0459 47.6621C54.9642 47.2871 56.6136 46.3545 56.8731 46.0307C56.4358 45.4793 54.631 42.6529 55.7878 42.2635C57.008 41.8515 57.1389 43.3067 57.6151 44.0671C59.6079 47.242 64.3865 47.8487 67.3052 45.6248C67.8999 45.1719 69.2939 43.2842 69.5494 43.151C69.8886 42.9726 70.232 43.1694 70.5406 43.2944L70.5427 43.2924Z" fill="#090E38"/>
<path d="M104.882 46.1285C105.324 46.231 106.799 47.2579 106.72 47.6657C106.64 48.0736 106.346 47.8563 106.162 47.8256C104.823 47.594 104.159 46.5364 102.84 47.5694C102.64 47.8502 103.954 48.832 103.654 49.4079C103.541 49.5534 102.021 48.2089 101.71 48.1761C101.201 48.1228 99.5128 48.8033 98.6503 48.8115C96.1302 48.8381 92.5472 47.1144 91.4946 44.7082C91.2862 44.2306 90.8058 43.1218 91.7113 43.0459C92.4737 42.9824 93.2156 44.6426 93.8471 45.2144C96.6003 47.7149 101.483 47.5038 103.825 44.5606C104.49 43.7264 104.817 41.8715 105.978 42.265C107.053 42.6278 105.45 45.6551 104.882 46.1285Z" fill="#090E38"/>
<path d="M73.9724 51.2767C74.8125 50.9959 75.677 51.7501 76.4946 51.9653C79.4133 52.736 82.7714 52.7094 85.686 51.9653C86.1806 51.8383 88.7579 50.5819 88.529 51.9367C88.341 53.0434 82.9819 54.0498 81.9068 54.1133C79.865 54.2363 75.8712 53.5702 74.1032 52.5228C73.5616 52.2031 73.3531 51.4857 73.9745 51.2787L73.9724 51.2767Z" fill="#090E38"/>
</g>
<defs>
<clipPath id="clip0_113_4851">
<rect width="156" height="149" fill="white"/>
</clipPath>
</defs>
</svg>
