<svg width="68" height="65" viewBox="0 0 68 65" fill="none" xmlns="http://www.w3.org/2000/svg">
<g clip-path="url(#clip0_3597_70138)">
<path d="M15.589 65.0032C16.2007 60.7441 16.7503 56.455 17.7505 52.2685C15.2326 48.8195 13.1102 44.9031 11.6247 40.884C10.7268 38.455 9.28733 33.8404 11.1625 31.6537C13.0297 29.4751 15.5752 32.2803 16.8215 33.6996C16.8905 33.7781 16.8146 33.9212 17.0837 33.8462C17.071 33.29 17.2067 32.7384 17.347 32.2065C18.4151 28.1562 21.1675 23.6709 24.5685 21.2223C25.763 20.3615 27.1726 19.616 28.5822 19.1914C28.0533 17.2401 27.16 15.4019 26.5035 13.491C26.3413 13.2118 25.9815 13.3526 25.7044 13.2545C23.7625 12.5679 24.0304 9.375 26.339 9.375C27.8142 9.375 28.5143 10.7089 28.212 12.0717C28.1303 12.4421 27.6428 12.7364 27.6796 13.1045L29.9205 18.7402C31.8773 18.3906 33.8848 18.1356 35.8807 18.2706C37.3868 18.3721 38.4687 18.7056 39.8197 19.1649C40.9361 19.5445 41.7731 19.8826 42.8285 20.5288C43.6518 21.0331 44.4094 21.6389 45.1947 22.1974C45.3833 22.1974 46.7319 20.7827 46.9768 20.5196C47.1309 20.3546 47.2796 20.1226 47.4313 19.9565C47.79 19.5641 49.0187 18.5441 49.0302 18.1021C49.0406 17.7478 48.8451 17.4628 48.9624 16.9724C49.2935 15.5935 50.9583 14.8769 52.1425 15.68C53.513 16.6101 53.0658 19.0633 51.4918 19.3956C50.8905 19.5226 50.4156 19.2583 49.8534 19.3645L46.1996 23.0559C46.1858 23.2186 47.7011 24.7706 47.9449 25.0856C52.2575 30.6833 52.8266 38.9788 48.6336 44.7981C48.4381 45.0692 47.5045 46.0085 47.5597 46.2382C49.8787 47.7013 51.6424 49.6445 53.229 51.8589C54.6133 53.7894 57.9372 59.0063 55.0629 60.8283C53.8281 61.6107 52.3276 61.2091 50.9997 60.9633L51.5746 65.0009H15.589V65.0032ZM44.0668 43.5045C46.2352 41.6352 47.6666 38.1515 47.3068 35.3036C46.1593 26.2326 33.8284 22.3185 26.5081 26.4023C21.532 29.1786 20.4582 35.5136 23.6567 40.1143C27.7682 46.0281 38.363 48.4214 44.0657 43.5045H44.0668Z" fill="url(#paint0_linear_3597_70138)"/>
<path d="M44.0686 43.506C38.3659 48.424 27.7711 46.0308 23.6596 40.1158C20.4611 35.5151 21.5349 29.1789 26.511 26.4038C33.8313 22.32 46.1622 26.2341 47.3097 35.3051C47.6695 38.153 46.237 41.6367 44.0697 43.506H44.0686ZM31.7135 34.9762C32.0032 35.267 32.6954 35.2151 32.8104 34.6901C33.3266 32.3257 30.0855 31.1118 28.6357 32.808C28.2505 33.258 27.7032 34.5331 28.7541 34.5343C29.414 34.5343 29.4474 33.3677 30.3741 33.2754C31.7997 33.1334 31.4157 34.6785 31.7124 34.9774L31.7135 34.9762ZM38.6694 33.8765C37.7473 34.0346 36.1469 36.039 37.2886 36.3667C38.2727 36.6494 38.1647 35.2463 38.9959 35.1228C40.7067 34.8678 39.918 37.1848 40.9413 37.186C41.8162 37.186 41.6311 35.7124 41.3667 35.1528C40.8861 34.1339 39.749 33.6908 38.6694 33.8765ZM30.9087 37.4537C30.5063 37.8576 31.0087 38.9746 31.2916 39.3807C32.2516 40.762 34.4234 41.2086 35.9664 40.7401C36.5665 40.5577 38.083 39.5204 37.4898 38.8142C36.9379 38.1564 36.0285 39.4615 35.3973 39.5919C34.4292 39.7915 33.0576 39.5077 32.4309 38.6976C32.1619 38.3503 31.9757 37.471 31.8032 37.366C31.6112 37.2495 31.0639 37.2979 30.9087 37.4525V37.4537Z" fill="url(#paint1_linear_3597_70138)"/>
</g>
<path d="M25.6674 4.41853L27.4136 4.02186C29.1426 3.49483 28.9959 1.42487 29.2354 0.0011317C29.4918 1.23212 29.3347 3.1354 30.6323 3.8347C31.3023 4.19599 32.1162 4.24813 32.8516 4.39526C32.0973 4.57311 31.272 4.61501 30.5859 5.0033C29.331 5.7147 29.4843 7.62171 29.2354 8.83594C29.03 7.66827 29.1265 5.76871 27.9795 5.04986C27.3132 4.6327 26.4265 4.56752 25.6674 4.4176L25.6674 4.41853Z" fill="url(#paint2_linear_3597_70138)"/>
<g clip-path="url(#clip1_3597_70138)">
<path d="M65.2813 25.2399L63.8202 25.5087C62.3858 25.8304 61.631 26.2724 61.2141 27.7182C61.0026 28.4516 60.907 29.2924 60.8208 30.0515C60.8119 30.1317 60.7696 30.8342 60.7294 30.8342C60.6155 29.8665 60.5554 28.8771 60.3173 27.9289C59.9041 26.2832 59.1362 25.8212 57.5127 25.4784C57.0791 25.3869 56.6383 25.3324 56.2031 25.2522C57.7242 24.9588 59.3869 24.9182 60.077 23.3141C60.5534 22.2061 60.568 20.8271 60.7294 19.6445C60.9253 20.8503 60.9164 22.242 61.4241 23.3748C62.1121 24.9094 63.804 24.9819 65.2807 25.2394L65.2813 25.2399Z" fill="url(#paint3_linear_3597_70138)"/>
<path d="M67.9926 20.8796L67.0288 21.0985C66.0745 21.3894 66.1554 22.5319 66.0233 23.3178C65.8817 22.6383 65.9684 21.5878 65.2523 21.2018C64.8825 21.0024 64.4332 20.9736 64.0273 20.8924C64.4437 20.7943 64.8992 20.7711 65.2779 20.5568C65.9705 20.1642 65.8859 19.1116 66.0233 18.4414C66.1366 19.0859 66.0834 20.1344 66.7165 20.5311C67.0842 20.7614 67.5737 20.7973 67.9926 20.8801V20.8796Z" fill="url(#paint4_linear_3597_70138)"/>
</g>
<path d="M0.00169451 28.7395L1.38933 28.4242C2.76343 28.0054 2.64685 26.3604 2.83714 25.2289C3.04096 26.2072 2.91611 27.7198 3.94725 28.2755C4.47974 28.5626 5.12655 28.6041 5.71094 28.721C5.11151 28.8623 4.45567 28.8956 3.91039 29.2042C2.9131 29.7695 3.03494 31.285 2.83714 32.25C2.67393 31.322 2.75065 29.8125 1.83909 29.2412C1.30961 28.9097 0.604884 28.8579 0.00169451 28.7387L0.00169451 28.7395Z" fill="url(#paint5_linear_3597_70138)"/>
<defs>
<linearGradient id="paint0_linear_3597_70138" x1="33.2223" y1="9.375" x2="33.2223" y2="65.0032" gradientUnits="userSpaceOnUse">
<stop stop-color="#3D66FF"/>
<stop offset="1" stop-color="#253D99"/>
</linearGradient>
<linearGradient id="paint1_linear_3597_70138" x1="34.6044" y1="24.7891" x2="34.6044" y2="46.1543" gradientUnits="userSpaceOnUse">
<stop stop-color="#9EC3FF"/>
<stop offset="1" stop-color="#65A0FF"/>
</linearGradient>
<linearGradient id="paint2_linear_3597_70138" x1="29.2595" y1="8.83594" x2="29.2595" y2="0.0011317" gradientUnits="userSpaceOnUse">
<stop stop-color="#69A2FF"/>
<stop offset="1" stop-color="#9EC3FF"/>
</linearGradient>
<linearGradient id="paint3_linear_3597_70138" x1="60.7422" y1="19.6445" x2="60.7422" y2="30.8342" gradientUnits="userSpaceOnUse">
<stop stop-color="#69A2FF"/>
<stop offset="1" stop-color="#9EC3FF"/>
</linearGradient>
<linearGradient id="paint4_linear_3597_70138" x1="66.01" y1="18.4414" x2="66.01" y2="23.3178" gradientUnits="userSpaceOnUse">
<stop stop-color="#69A2FF"/>
<stop offset="1" stop-color="#9EC3FF"/>
</linearGradient>
<linearGradient id="paint5_linear_3597_70138" x1="2.85632" y1="32.25" x2="2.85632" y2="25.2289" gradientUnits="userSpaceOnUse">
<stop stop-color="#69A2FF"/>
<stop offset="1" stop-color="#9EC3FF"/>
</linearGradient>
<clipPath id="clip0_3597_70138">
<rect width="45.9537" height="55.6282" fill="white" transform="translate(10.2461 9.375)"/>
</clipPath>
<clipPath id="clip1_3597_70138">
<rect width="11.7908" height="12.3954" fill="white" transform="translate(56.2031 18.4414)"/>
</clipPath>
</defs>
</svg>
