<svg width="258" height="254" viewBox="0 0 258 254" fill="none" xmlns="http://www.w3.org/2000/svg">
<path d="M211.946 64.339L211.996 63.589C214.636 60.959 221.696 45.509 223.776 44.349C225.456 43.409 227.296 44.579 228.976 44.469C233.706 44.159 238.376 42.499 242.086 39.539C244.106 37.929 245.176 36.219 245.886 35.169C249.466 29.829 250.216 24.119 250.286 20.389C243.226 -18.211 187.846 4.08904 210.726 36.919L199.166 55.849C193.076 53.909 187.476 50.929 181.366 48.989C157.396 41.389 129.936 41.309 105.936 48.859C93.8564 52.659 82.7464 58.779 72.3764 65.919L46.4264 38.969C45.8164 37.609 47.6064 34.939 48.0164 33.229C55.7564 0.329044 11.0864 -9.51096 1.49643 17.739C-5.81357 38.499 14.9964 56.929 34.8864 48.249L60.2064 75.429C53.4564 83.369 47.0064 90.659 41.9064 99.869C3.26643 169.629 56.1364 245.199 130.456 252.669C172.596 256.909 215.836 239.459 240.026 204.359C272.326 157.489 258.626 95.239 211.946 64.339Z" fill="url(#paint0_linear_3705_58841)"/>
<path d="M235.057 202.5C235.407 203.45 234.567 206.98 233.647 207C232.187 207.03 233.037 202.03 235.057 202.5Z" fill="#4969C1"/>
<path d="M155.428 83.7006C205.908 80.8706 251.188 120.661 236.588 173.301C215.318 249.981 80.1983 251.981 71.5283 169.511C66.4183 120.891 110.248 86.2306 155.428 83.7006Z" fill="url(#paint1_linear_3705_58841)"/>
<path d="M115.387 114.127C123.007 113.207 129.467 114.937 135.257 119.887C137.907 122.147 141.377 124.847 138.377 128.097C134.107 132.707 130.657 125.757 126.827 123.807C120.017 120.347 111.327 121.987 106.267 127.567C104.017 130.037 102.657 135.487 98.9367 135.377C91.7667 135.147 96.4967 126.387 99.1467 123.267C102.877 118.867 109.647 114.827 115.387 114.137V114.127Z" fill="#2A496F"/>
<path d="M210.408 125.079C209.668 124.489 208.638 122.199 207.728 121.279C201.298 114.779 190.968 114.219 184.038 120.189C181.378 122.489 179.228 127.679 174.968 125.269C168.608 121.669 178.938 113.189 182.438 111.259C193.438 105.179 209.848 108.149 216.698 119.069C220.078 124.459 214.028 127.959 210.398 125.079H210.408Z" fill="#2B496D"/>
<path d="M212.889 170.968C214.329 170.598 215.939 172.518 215.799 173.868C215.709 174.738 211.849 184.938 211.299 185.778C209.489 188.498 206.469 187.278 206.959 184.308C207.119 183.328 210.709 173.748 211.259 172.778C211.619 172.138 212.139 171.158 212.889 170.968Z" fill="#667FC1"/>
<path d="M108.549 181.759C110.339 181.599 111.109 182.939 110.899 184.589C110.669 186.389 106.919 196.519 105.679 197.469C104.439 198.419 103.039 197.859 102.629 196.449C102.269 195.209 105.509 184.929 106.359 183.479C106.839 182.659 107.569 181.849 108.549 181.759Z" fill="#627CC0"/>
<path d="M98.4282 182.268C100.408 181.708 101.578 183.188 101.318 185.138C101.188 186.088 97.5982 196.188 97.1582 196.818C96.0382 198.428 93.3082 198.698 92.9382 196.548C92.6282 194.768 96.8082 182.728 98.4282 182.258V182.268Z" fill="#5F7BC1"/>
<path d="M222.477 170.981C228.007 169.551 221.537 185.601 219.837 186.441C218.637 187.041 216.827 186.561 216.577 185.231C216.277 183.621 220.677 171.441 222.477 170.981Z" fill="#5C79C0"/>
<path d="M193.218 173.871C200.268 173.151 195.858 187.001 194.608 191.081C183.178 228.321 136.608 222.961 127.078 188.391C123.908 176.901 127.608 179.191 137.808 179.351C151.588 179.561 163.408 179.091 177.168 177.021C182.388 176.231 188.208 174.381 193.218 173.861V173.871Z" fill="#2B4A70"/>
<path d="M188.82 179.94C186.41 189.32 171.92 191.25 163.72 191.77C157.44 192.17 136.42 192.11 133.56 185.28C133.08 184.13 134.34 184.49 134.96 184.44C143.73 183.8 152.64 184.61 161.47 183.87C170.3 183.13 179.66 180.86 188.82 179.93V179.94Z" fill="#FBFDFC"/>
<path d="M176.907 208.071C176.787 208.281 173.297 210.181 172.757 210.401C162.657 214.621 147.397 211.011 140.887 201.941C150.177 197.821 159.257 197.871 168.667 201.501C170.327 202.141 178.357 205.601 176.907 208.071Z" fill="#5A77C5"/>
<path d="M209.56 165.709C207.61 167.609 200.22 162.239 197.86 161.599C196.37 161.199 195.49 161.169 194.04 161.759C192.25 162.489 181.97 171.339 182.03 165.589C182.07 162.049 183.44 157.459 183.62 153.789C183.28 152.009 175.49 146.979 174.13 144.729C173.03 142.909 173.88 142.259 175.59 141.619C177.77 140.799 185.99 139.959 187.01 139.219C188.71 137.999 190.96 126.889 193.7 126.419C195.84 126.049 200.1 137.039 201.81 137.919C204.59 139.359 215.16 138.119 215.84 140.859C215.54 143.999 207.47 149.719 206.99 152.109C206.64 153.859 211.17 164.149 209.57 165.699L209.56 165.709Z" fill="#2C4B71"/>
<path d="M197.951 143.748C198.881 144.358 203.771 144.378 205.171 144.418C206.061 145.198 201.021 148.858 200.741 149.898C200.261 151.698 202.331 154.718 201.781 156.818C199.711 156.668 197.981 154.528 195.861 154.528C193.321 154.528 191.331 157.328 188.811 157.378C190.841 150.688 189.651 151.038 185.721 147.228C182.791 144.378 189.881 145.418 191.621 144.128C192.721 143.318 193.311 138.318 194.731 137.648C195.361 138.458 197.551 143.488 197.941 143.738L197.951 143.748Z" fill="#2C4B71"/>
<path d="M114.819 145.42C115.759 144.31 117.579 135.84 118.769 133.86C121.699 128.36 127.179 142.44 129.059 143.57C130.649 144.52 141.799 143.41 142.919 144.94C144.839 147.58 136.309 154.03 135.829 157.14C135.279 160.68 139.039 166.68 139.099 169.61C139.129 171.14 137.589 171.55 136.259 171.38C133.659 171.04 126.299 166.79 124.359 167.1C122.689 167.37 116.589 172.95 114.239 173.85C107.799 176.33 112.909 163.36 111.469 160.02C111.069 158.72 103.989 154.3 102.519 152.62C101.439 151.38 100.529 150.09 102.359 149.02C104.389 147.83 113.729 146.7 114.819 145.41V145.42Z" fill="#2A496F"/>
<path d="M132.427 149.5C133.517 150.56 128.637 154.44 128.467 156C128.317 157.37 129.887 160.35 130.167 161.9C127.957 162.44 125.557 160.1 123.727 160.21C122.427 160.29 117.987 163.88 117.767 163.59C118.577 156.11 117.437 157.11 113.037 153.47C111.097 151.87 117.717 151.36 118.877 150.32C120.467 148.9 120.177 145.35 121.997 143.85C122.287 143.71 125.027 148.82 125.667 149.2C127.077 150.05 130.677 149.18 132.427 149.49V149.5Z" fill="#2A496F"/>
<defs>
<linearGradient id="paint0_linear_3705_58841" x1="128.823" y1="0" x2="128.823" y2="253.295" gradientUnits="userSpaceOnUse">
<stop stop-color="#3D66FE"/>
<stop offset="1" stop-color="#253E99"/>
</linearGradient>
<linearGradient id="paint1_linear_3705_58841" x1="155.244" y1="83.5586" x2="155.244" y2="231.089" gradientUnits="userSpaceOnUse">
<stop stop-color="#9DC2FF"/>
<stop offset="1" stop-color="#6BA3FF"/>
</linearGradient>
</defs>
</svg>
