<svg width="303" height="252" viewBox="0 0 303 252" fill="none" xmlns="http://www.w3.org/2000/svg">
<path d="M24.8911 0.00502108C41.08 -0.317547 53.5191 14.954 49.9607 30.7599C49.5374 32.655 47.592 35.7597 48.2976 37.302L74.9497 64.0147L75.988 64.4985C91.2798 53.6017 108.86 45.9105 127.428 42.5941C157.043 37.3121 189.219 41.9792 215.388 56.898C217.081 57.8657 226.517 64.5489 227.212 64.4078L254.479 37.2919C255.044 36.0722 252.866 30.1047 252.685 27.8164C250.427 -0.841722 288.218 -10.2567 300.133 13.7142C309.215 32.0098 295.133 51.9486 275.002 50.1241C272.704 49.9124 267.422 47.7048 266.041 48.3298L240.437 75.1029C240.085 76.4537 242.998 78.4899 243.955 79.629C290.264 134.707 274.357 208.485 209.279 238.746C159.19 262.041 91.8744 252.798 55.263 209.836C24.2258 173.416 25.7883 121.059 55.263 84.2457C56.3315 82.9151 62.8735 76.2319 62.8131 75.5061L36.2819 47.8056C21.8873 54.2469 5.16417 47.2713 0.920378 31.899C-3.48469 15.952 8.4805 0.33767 24.9113 0.00502108H24.8911Z" fill="url(#paint0_linear_3705_58880)"/>
<path d="M150.018 87.1613C187.164 86.7984 229.733 106.082 238.059 145.486C249.914 201.582 193.746 231.591 145.21 229.091C108.982 227.226 66.0396 205.05 63.4389 164.719C60.2939 115.93 105.947 87.5947 150.008 87.1613H150.018Z" fill="url(#paint1_linear_3705_58880)"/>
<path d="M183.806 138.418C195.448 135.798 199.017 151.362 197.162 159.98C196.104 164.919 192.878 170.736 187.273 171.139C171.931 172.258 171.669 141.15 183.806 138.418Z" fill="#284262"/>
<path d="M114.073 138.431C117.672 137.695 121.27 138.582 123.72 141.374C131.512 150.235 128.095 175.355 113.559 170.496C102.077 166.665 103.428 140.628 114.073 138.431Z" fill="#294263"/>
<path d="M156.161 188.203C160.072 188.052 164.457 187.8 168.338 188.031C169.698 188.112 174.204 188.535 175.122 188.949C177.924 190.219 177.309 195.42 173.841 196.166C172.148 196.529 170.928 195.753 169.366 195.723C164.568 195.642 159.215 195.501 154.447 195.723C147.139 196.065 137.653 198.575 130.859 198.333C125.083 198.132 124.942 192.104 129.559 190.834C135.889 189.1 149.256 188.475 156.161 188.203Z" fill="#274262"/>
<path d="M175.888 124.85C174.427 123.469 174.527 120.092 176.12 118.802C178.63 116.786 187.571 116.01 190.817 116.332C196.906 116.917 207.167 121.544 210.887 126.513C213.588 130.112 210.958 133.489 206.784 132.662C205.665 132.441 201.281 128.177 199.486 127.138C196.19 125.223 191.079 123.903 187.279 123.913C184.336 123.913 177.945 126.806 175.868 124.85H175.888Z" fill="#294265"/>
<path d="M121.777 121.471C124.66 120.937 127.341 124.273 125.889 127.166C123.258 132.458 109.338 136.884 103.723 137.307C100.82 137.529 92.2213 138.144 91.2436 134.878C89.0259 127.479 98.9952 129.928 103.179 129.596C106.918 129.293 111.797 127.942 115.063 126.098C116.918 125.049 120.174 121.773 121.766 121.471H121.777Z" fill="#274261"/>
<defs>
<linearGradient id="paint0_linear_3705_58880" x1="151.474" y1="0" x2="151.474" y2="251.201" gradientUnits="userSpaceOnUse">
<stop stop-color="#3D66FE"/>
<stop offset="1" stop-color="#253E99"/>
</linearGradient>
<linearGradient id="paint1_linear_3705_58880" x1="151.474" y1="87.1562" x2="151.474" y2="229.236" gradientUnits="userSpaceOnUse">
<stop stop-color="#9DC2FF"/>
<stop offset="1" stop-color="#6BA3FF"/>
</linearGradient>
</defs>
</svg>
