<svg width="302" height="254" viewBox="0 0 302 254" fill="none" xmlns="http://www.w3.org/2000/svg">
<path d="M63.9082 218.997C35.7382 190.987 25.8682 150.247 39.8782 112.547C44.9882 98.7974 53.3482 86.7174 63.1982 75.9874C54.2882 66.8374 45.0482 57.8274 36.6682 48.2574C32.9282 48.8374 29.4782 50.5774 25.4382 50.6274C0.178162 50.9574 -9.72183 17.0874 11.8182 3.94736C34.0282 -9.59264 58.5582 14.2874 47.4782 37.1674L73.6982 64.4374C74.0482 64.8374 74.4482 65.1174 74.9882 65.1774C76.4182 65.3274 83.7682 59.6374 85.7482 58.4474C129.208 32.3674 185.368 34.7974 225.848 65.5374L253.338 37.6374C253.388 34.6674 251.398 32.1174 251.078 28.8974C248.508 3.13736 279.298 -10.0726 295.288 9.14736C310.538 27.4774 294.248 54.8274 270.528 49.9274C268.938 49.5974 265.598 47.9174 264.578 48.3774L238.118 75.9674C255.988 95.4374 266.338 117.667 267.058 144.397C269.848 247.997 133.168 287.867 63.8982 218.977L63.9082 218.997Z" fill="url(#paint0_linear_3705_58864)"/>
<path d="M143.058 88.8187C193.618 85.6087 253.848 123.399 234.588 180.429C211.538 248.669 91.1479 248.869 66.7079 181.429C48.3779 130.849 96.7679 91.7587 143.048 88.8187H143.058Z" fill="url(#paint1_linear_3705_58864)"/>
<path d="M116.049 181.268C120.199 180.358 120.919 184.358 123.169 186.928C135.529 201.088 160.419 202.578 174.639 190.418C176.599 188.748 181.459 181.568 182.479 181.268C186.429 180.078 188.389 183.358 186.629 186.928C176.089 208.368 141.199 210.598 123.429 197.158C120.829 195.188 108.269 182.978 116.039 181.268H116.049Z" fill="#26446E"/>
<path d="M114.047 130.289C125.587 127.889 128.277 145.479 126.357 153.599C124.887 159.799 119.157 167.789 112.017 163.599C101.957 157.699 102.717 132.639 114.047 130.289Z" fill="#274670"/>
<path d="M183.499 130.29C191.629 128.97 195.769 138.68 196.139 145.4C196.589 153.63 191.619 169.65 180.779 163.27C170.819 157.42 172.109 132.13 183.499 130.29Z" fill="#264570"/>
<defs>
<linearGradient id="paint0_linear_3705_58864" x1="150.609" y1="0" x2="150.609" y2="253.297" gradientUnits="userSpaceOnUse">
<stop stop-color="#3D66FE"/>
<stop offset="1" stop-color="#253E99"/>
</linearGradient>
<linearGradient id="paint1_linear_3705_58864" x1="150.498" y1="88.6289" x2="150.498" y2="231.81" gradientUnits="userSpaceOnUse">
<stop stop-color="#9DC2FF"/>
<stop offset="1" stop-color="#6BA3FF"/>
</linearGradient>
</defs>
</svg>
