<svg width="294" height="254" viewBox="0 0 294 254" fill="none" xmlns="http://www.w3.org/2000/svg">
<path d="M19.5127 0.39177C36.0327 -1.70823 49.9327 11.4918 46.8927 28.2018C46.6027 29.7718 44.6827 34.0918 45.0627 34.9318C54.1527 44.8318 62.8127 55.1518 72.1027 64.8318C72.8727 64.9818 80.5327 59.4218 81.9627 58.5618C124.523 32.9618 180.383 35.0118 220.353 64.6918L221.323 64.8618L247.933 34.9218C248.473 33.3718 247.043 31.4918 246.643 29.8218C241.843 9.76177 261.913 -6.34823 280.413 2.47177C304.243 13.8318 292.773 53.4018 263.543 46.7218C262.523 46.4918 261.033 45.2518 260.143 45.8218L233.613 75.7918C265.113 106.342 273.623 154.152 252.663 193.262C220.923 252.472 139.913 269.852 83.1027 236.542C30.4727 205.682 10.4727 139.482 48.5427 88.4518C51.8527 84.0218 55.8827 80.1518 59.3627 75.8718C50.7427 65.7718 41.7027 55.8318 32.8727 45.8318C26.9327 47.5418 21.4827 48.2018 15.5427 46.0718C-7.50728 37.8018 -3.86731 3.36177 19.5127 0.39177Z" fill="#4466C4"/>
<path d="M19.5127 0.39177C36.0327 -1.70823 49.9327 11.4918 46.8927 28.2018C46.6027 29.7718 44.6827 34.0918 45.0627 34.9318C54.1527 44.8318 62.8127 55.1518 72.1027 64.8318C72.8727 64.9818 80.5327 59.4218 81.9627 58.5618C124.523 32.9618 180.383 35.0118 220.353 64.6918L221.323 64.8618L247.933 34.9218C248.473 33.3718 247.043 31.4918 246.643 29.8218C241.843 9.76177 261.913 -6.34823 280.413 2.47177C304.243 13.8318 292.773 53.4018 263.543 46.7218C262.523 46.4918 261.033 45.2518 260.143 45.8218L233.613 75.7918C265.113 106.342 273.623 154.152 252.663 193.262C220.923 252.472 139.913 269.852 83.1027 236.542C30.4727 205.682 10.4727 139.482 48.5427 88.4518C51.8527 84.0218 55.8827 80.1518 59.3627 75.8718C50.7427 65.7718 41.7027 55.8318 32.8727 45.8318C26.9327 47.5418 21.4827 48.2018 15.5427 46.0718C-7.50728 37.8018 -3.86731 3.36177 19.5127 0.39177Z" fill="url(#paint0_linear_3705_58872)"/>
<path d="M140.643 88.5504C179.593 86.3304 225.813 107.88 233.033 149.53C241.433 197.92 194.013 229.51 150.803 231.35C112.683 232.97 66.9934 210.92 59.9734 170.22C51.7934 122.77 98.1734 90.9604 140.633 88.5404L140.643 88.5504Z" fill="url(#paint1_linear_3705_58872)"/>
<path d="M111.532 129.161C120.812 128.041 124.222 141.961 123.602 148.971C122.992 155.961 117.402 166.981 108.922 162.811C97.7724 157.321 99.1624 130.671 111.532 129.171V129.161Z" fill="#294E8A"/>
<path d="M180.022 129.171C187.962 128.371 191.922 139.231 192.112 145.531C192.342 153.211 186.712 168.351 176.812 162.541C166.252 156.341 167.732 130.401 180.022 129.171Z" fill="#2A4D89"/>
<path d="M105.094 185.652L188.664 185.782C191.864 188.012 190.614 192.082 186.754 192.412H106.274C102.464 192.042 101.254 186.992 105.094 185.652Z" fill="#2A4E87"/>
<defs>
<linearGradient id="paint0_linear_3705_58872" x1="146.628" y1="0" x2="146.628" y2="253.287" gradientUnits="userSpaceOnUse">
<stop stop-color="#3D66FE"/>
<stop offset="1" stop-color="#253E99"/>
</linearGradient>
<linearGradient id="paint1_linear_3705_58872" x1="146.518" y1="88.3945" x2="146.518" y2="231.434" gradientUnits="userSpaceOnUse">
<stop stop-color="#9DC2FF"/>
<stop offset="1" stop-color="#6BA3FF"/>
</linearGradient>
</defs>
</svg>
