<svg width="296" height="252" viewBox="0 0 296 252" fill="none" xmlns="http://www.w3.org/2000/svg">
<path d="M22.5173 0.0633195C41.0952 -1.17655 52.617 16.0002 47.4861 33.3181C47.1434 34.4572 45.9137 35.6769 46.4177 36.8059L73.3622 64.1637C78.8459 60.6558 84.1078 56.8051 89.8837 53.7407C128.36 33.3181 176.977 35.314 213.649 58.6095C216.482 60.4037 219.193 62.8129 222.096 64.1234L249.142 36.4127C241.823 21.8266 249.948 3.48053 266.228 0.456449C277.931 -1.71081 289.967 4.68008 293.989 16.0002C300.299 33.7515 286.963 50.8376 268.193 49.2449C265.381 49.003 263.183 47.8639 260.532 47.37L234.455 74.8185C234.162 75.9273 236.723 77.7418 237.529 78.6692C299.956 150.804 241.471 247.423 152.986 251.092C74.9246 254.328 5.27007 180.399 41.3776 103.457C46.4076 92.7412 53.3629 83.6287 61.1247 74.7984L35.0269 47.3801C34.2508 47.0373 29.3921 49.0332 27.749 49.2147C-6.52385 53.0149 -9.9512 2.23058 22.5173 0.0633195Z" fill="url(#paint0_linear_3705_58891)"/>
<path d="M141.486 86.262C189.176 83.5403 247.269 118.398 232.965 172.751C213.722 245.883 84.2709 246.951 62.931 174.505C48.2541 124.658 96.4679 88.8425 141.486 86.262Z" fill="url(#paint1_linear_3705_58891)"/>
<path d="M145.214 176.197C157.613 175.209 170.233 180.239 178.035 189.966C179.769 192.133 182.591 196.952 178.166 197.95C174.053 198.877 172.33 194.079 169.759 191.609C156.423 178.747 136.484 181.388 124.358 194.301C122.412 196.377 121.949 199.301 118.048 197.718C113.421 195.833 117.896 190.632 119.801 188.494C126.162 181.358 135.688 176.953 145.214 176.197Z" fill="#284466"/>
<path d="M117.404 114.814C122.232 113.393 123.392 117.445 121.345 121.235C117.233 128.836 107.173 134.451 98.6851 135.045C95.6307 135.257 88.2621 135.822 88.5141 131.124C88.7661 126.427 95.4593 128.251 98.6144 127.929C104.693 127.324 109.723 124.28 113.594 119.693C114.632 118.463 116.053 115.197 117.404 114.804V114.814Z" fill="#284367"/>
<path d="M175.02 114.827C179.455 113.789 179.606 117.216 181.784 119.907C185.332 124.302 191.32 127.387 196.955 127.951C199.767 128.234 205.785 126.812 206.561 130.371C207.771 135.895 200.362 135.29 196.904 135.038C188.447 134.423 178.356 129.292 174.244 121.641C173.135 119.585 171.835 115.573 175.02 114.827Z" fill="#264365"/>
<path d="M168.186 161.459C167.632 160.904 167.451 158.929 167.874 158.233C168.328 157.477 170.334 157.568 170.545 156.761C170.656 156.328 169.497 153.969 169.376 153.032C168.62 147.447 171.18 141.923 175.958 138.96C188.347 131.309 202.51 144.393 196.331 157.215C198.417 159.13 205.04 159.614 205.01 163.021C204.979 167.255 196.462 162.386 194.204 161.761C189.395 160.431 183.629 159.947 178.66 160.32C176.553 160.481 169.346 162.628 168.186 161.459Z" fill="#274466"/>
<path d="M178.491 151.689C181.336 151.689 183.642 149.383 183.642 146.538C183.642 143.693 181.336 141.387 178.491 141.387C175.646 141.387 173.34 143.693 173.34 146.538C173.34 149.383 175.646 151.689 178.491 151.689Z" fill="#FCFDFD"/>
<path d="M190.064 155.832C191.478 155.832 192.625 154.685 192.625 153.271C192.625 151.857 191.478 150.711 190.064 150.711C188.65 150.711 187.504 151.857 187.504 153.271C187.504 154.685 188.65 155.832 190.064 155.832Z" fill="#F0F3F5"/>
<path d="M125.007 157.395C125.198 157.607 127.517 157.365 127.819 159.371C127.97 160.399 127.063 161.841 126.005 161.982C124.301 162.204 118.878 160.5 116.489 160.319C111.348 159.936 105.3 160.53 100.351 161.992C98.1127 162.657 90.6533 167.234 90.2602 162.939C90.0183 160.309 96.8425 158.474 98.8686 157.809C97.5784 154.049 96.9433 150.097 98.2638 146.226C103.465 131.056 127.335 134.543 125.813 153.051C125.743 153.938 124.664 157.002 125.007 157.385V157.395Z" fill="#274466"/>
<path d="M106.612 151.705C109.429 151.705 111.713 149.422 111.713 146.605C111.713 143.788 109.429 141.504 106.612 141.504C103.795 141.504 101.512 143.788 101.512 146.605C101.512 149.422 103.795 151.705 106.612 151.705Z" fill="#FCFCFC"/>
<path d="M118.111 155.698C119.486 155.698 120.601 154.584 120.601 153.209C120.601 151.833 119.486 150.719 118.111 150.719C116.736 150.719 115.621 151.833 115.621 153.209C115.621 154.584 116.736 155.698 118.111 155.698Z" fill="#F4F6F9"/>
<defs>
<linearGradient id="paint0_linear_3705_58891" x1="147.787" y1="0" x2="147.787" y2="251.194" gradientUnits="userSpaceOnUse">
<stop stop-color="#3D66FE"/>
<stop offset="1" stop-color="#253E99"/>
</linearGradient>
<linearGradient id="paint1_linear_3705_58891" x1="147.709" y1="86.1133" x2="147.709" y2="228.225" gradientUnits="userSpaceOnUse">
<stop stop-color="#9DC2FF"/>
<stop offset="1" stop-color="#6BA3FF"/>
</linearGradient>
</defs>
</svg>
